<?xml version="1.0" encoding="utf-8"?>
<!-- Generator: Adobe Illustrator 28.2.0, SVG Export Plug-In . SVG Version: 6.00 Build 0)  -->
<svg version="1.1" id="Capa_1" xmlns="http://www.w3.org/2000/svg" xmlns:xlink="http://www.w3.org/1999/xlink" x="0px" y="0px"
	 viewBox="0 0 800 800" style="enable-background:new 0 0 800 800;" xml:space="preserve">
<style type="text/css">
	
		.st0{clip-path:url(#SVGID_00000160163783824247194010000012195874103814478730_);fill:url(#SVGID_00000017487945166724692070000007806346152833306291_);}
	.st1{fill:#1D1D1B;}
	.st2{clip-path:url(#SVGID_00000134931981301506056440000005407759495716065920_);fill:#FFFFFF;}
</style>
<g>
	<g>
		<defs>
			<path id="SVGID_1_" d="M1767.4,679.3h-15.9V631c0-5.2-4.2-9.5-9.5-9.5c-5.2,0-9.5,4.2-9.5,9.5v48.3h-26.1V631
				c0-5.2-4.2-9.5-9.5-9.5l0,0c-5.2,0-9.5,4.2-9.5,9.5v48.3h-15.9c-2.6,0-4.6,2.1-4.6,4.6v10.8c0,2.6,2.1,4.6,4.6,4.6l0,0
				c3.1,0,5.5,2.5,5.5,5.5v39.4c0,18,11.1,33.5,26.9,39.8v269.6c0,18.1-14.7,32.9-32.9,32.9c-18.1,0-32.9-14.7-32.9-32.9V894.7
				c0-35.2-28.6-63.8-63.8-63.8h-16V612.1c0-41.8-33.9-75.6-75.6-75.6h-231.9c-41.8,0-75.6,33.9-75.6,75.6v604.5h-22.6
				c-10.1,0-18.2,8.2-18.2,18.2v39.8c0,10.1,8.1,18.2,18.2,18.2H1581c10.1,0,18.2-8.2,18.2-18.2v-39.8c0-10.1-8.1-18.2-18.2-18.2
				h-22.7V861.8h16c18.1,0,32.9,14.7,32.9,32.8v159.1c0,35.2,28.6,63.8,63.8,63.8c35.2,0,63.8-28.6,63.8-63.8V784.2
				c15.7-6.2,26.9-21.5,26.9-39.4v-39.9c0-3.1,2.5-5.5,5.5-5.5c2.6,0,4.6-2.1,4.6-4.6V684C1772,681.3,1769.9,679.3,1767.4,679.3z
				 M1521.4,753.5c0,16.5-13.4,29.9-29.9,29.9h-248.8c-16.5,0-29.9-13.4-29.9-29.9V622.4c0-16.5,13.4-29.9,29.9-29.9h248.8
				c16.5,0,29.9,13.4,29.9,29.9V753.5z"/>
		</defs>
		<clipPath id="SVGID_00000073720433014372543610000000350756688940477097_">
			<use xlink:href="#SVGID_1_"  style="overflow:visible;"/>
		</clipPath>
		
			<linearGradient id="SVGID_00000128481270681900435990000013288533350265204362_" gradientUnits="userSpaceOnUse" x1="1408.0502" y1="-2.7283" x2="1408.0502" y2="-802.7283" gradientTransform="matrix(1 0 0 -1 0 520.7717)">
			<stop  offset="0" style="stop-color:#18BFFB"/>
			<stop  offset="1" style="stop-color:#2072F3"/>
		</linearGradient>
		
			<path style="clip-path:url(#SVGID_00000073720433014372543610000000350756688940477097_);fill:url(#SVGID_00000128481270681900435990000013288533350265204362_);" d="
			M1646.4,523.5h-476.8c-89.3,0-161.6,72.3-161.6,161.6V1162c0,89.2,72.3,161.5,161.6,161.5h476.9c89.2,0,161.6-72.3,161.6-161.6
			V685.1C1808,595.8,1735.7,523.5,1646.4,523.5z"/>
	</g>
</g>
<path d="M1416.6,674.3h-36.5c-1.8,0-3.1-1.7-2.6-3.5l16.3-55.4c0.8-2.8-2.7-4.7-4.6-2.5l-73.7,84.2c-1.5,1.7-0.3,4.5,2,4.5h36.5
	c1.8,0,3.1,1.7,2.6,3.5l-16.3,55.4c-0.8,2.8,2.7,4.7,4.6,2.5l73.7-84.2C1420.2,677.1,1418.9,674.3,1416.6,674.3z"/>
<g>
	<path class="st1" d="M2428.6,779.2l37.9,60.2c16.2,25.7,53.6,25.7,69.8,0l37.9-60.2c26.6-42.4,54.7-83.8,83.7-124.7
		c53.2-74.8,46.2-179.3-20.9-246.4c-74.8-74.8-196.3-74.8-271.1,0c-67.1,67.1-74,171.5-20.9,246.4
		C2373.9,695.4,2402,736.8,2428.6,779.2z M2424.7,467c42.3-42.3,111-42.3,153.3,0s42.3,111,0,153.3s-111,42.3-153.3,0
		C2382.3,578,2382.3,509.4,2424.7,467z"/>
	<path class="st1" d="M2472.9,925.7l2.4-2.1l289.5-111.2l-3.6-14.6c-4.9-19.8-22.6-33.7-43-33.7h-113.1
		c-5.3,8.3-10.6,16.5-15.7,24.6l-37.9,60.2c-10.9,17.4-29.7,27.7-50.2,27.7s-39.3-10.4-50.2-27.7l-37.9-60.2
		c-5.1-8.2-10.3-16.4-15.7-24.6h-113.1c-20.4,0-38.1,13.9-43,33.7l-0.3,1.1l186.5,165.7C2454,942.1,2472.6,926,2472.9,925.7z"/>
	<path class="st1" d="M2494.2,955.1c-11.1,9.6-59.1,51.1-107,92c-13.6,11.6-26,22.2-37.3,31.7h316.3l-54-169.1L2494.2,955.1z"/>
	<path class="st1" d="M2400.1,988.5l-168.6-149.8l-45.7,185.3c-6.9,27.9,14.3,54.9,43,54.9h64.9c0.4-0.3,0.8-0.7,1.2-1
		c19.1-15.9,44.3-37.3,74.9-63.4C2380.1,1005.6,2390.3,996.9,2400.1,988.5z"/>
	<path class="st1" d="M2816.9,1023.9l-43.4-176.1l-127.5,49l58.2,182h69.7C2802.6,1078.9,2823.7,1051.9,2816.9,1023.9z"/>
</g>
<g>
	<g>
		<defs>
			<path id="SVGID_00000183227622607970698820000013944701803633445262_" d="M548.9,398c-40.5,33.3-92.4,53.3-148.9,53.3
				s-108.4-20-148.9-53.3C161.4,449.6,101,546.4,101,657.4c0,165.1,598.1,165.1,598.1,0C699,546.4,638.6,449.6,548.9,398z
				 M288.7,379.8c31.7,21.7,70,34.3,111.3,34.3s79.6-12.6,111.3-34.3c52.1-35.6,86.3-95.5,86.3-163.3
				c0-109.2-88.5-197.6-197.6-197.6c-109.2,0-197.6,88.5-197.6,197.6C202.4,284.3,236.6,344.1,288.7,379.8z"/>
		</defs>
		<use xlink:href="#SVGID_00000183227622607970698820000013944701803633445262_"  style="overflow:visible;fill:#FFFFFF;"/>
		<clipPath id="SVGID_00000118356611665022973000000000954869856332920970_">
			<use xlink:href="#SVGID_00000183227622607970698820000013944701803633445262_"  style="overflow:visible;"/>
		</clipPath>
		<path style="clip-path:url(#SVGID_00000118356611665022973000000000954869856332920970_);fill:#FFFFFF;" d="M638.4,0H161.6
			C72.3,0,0,72.3,0,161.6v476.9C0,727.7,72.3,800,161.6,800h476.9c89.2,0,161.6-72.3,161.6-161.6V161.6C800,72.3,727.7,0,638.4,0z"
			/>
	</g>
</g>
</svg>
