<?xml version="1.0" encoding="utf-8"?>
<!-- Generator: Adobe Illustrator 28.2.0, SVG Export Plug-In . SVG Version: 6.00 Build 0)  -->
<svg version="1.1" id="Capa_1" xmlns="http://www.w3.org/2000/svg" xmlns:xlink="http://www.w3.org/1999/xlink" x="0px" y="0px"
	 viewBox="0 0 800 800" style="enable-background:new 0 0 800 800;" xml:space="preserve">
<style type="text/css">
	.st0{fill:#18BFFB;}
	.st1{clip-path:url(#SVGID_00000145018600013390976070000003231522864506297015_);fill:#18BFFB;}
	.st2{clip-path:url(#SVGID_00000165938664460331906440000003025929709598141837_);fill:#18BFFB;}
	.st3{fill:#2072F3;}
</style>
<g>
	<g>
		<g>
			<path id="SVGID_1_" class="st0" d="M725.8,155.8h-16.5v-50.1c0-5.4-4.4-9.9-9.9-9.9s-9.9,4.4-9.9,9.9v50.1h-27.1v-50.1
				c0-5.4-4.4-9.9-9.9-9.9l0,0c-5.4,0-9.9,4.4-9.9,9.9v50.1h-16.5c-2.7,0-4.8,2.2-4.8,4.8v11.2c0,2.7,2.2,4.8,4.8,4.8l0,0
				c3.2,0,5.7,2.6,5.7,5.7v40.9c0,18.7,11.5,34.8,27.9,41.3v279.7c0,18.8-15.3,34.1-34.1,34.1c-18.8,0-34.1-15.3-34.1-34.1V379.3
				c0-36.5-29.7-66.2-66.2-66.2h-16.6v-227c0-43.4-35.2-78.4-78.4-78.4H190.1c-43.4,0-78.4,35.2-78.4,78.4v627.2H88.2
				c-10.5,0-18.9,8.5-18.9,18.9v41.3c0,10.5,8.4,18.9,18.9,18.9h444.5c10.5,0,18.9-8.5,18.9-18.9v-41.3c0-10.5-8.4-18.9-18.9-18.9
				h-23.6V345.2h16.6c18.8,0,34.1,15.3,34.1,34v165.1c0,36.5,29.7,66.2,66.2,66.2s66.2-29.7,66.2-66.2V264.7
				c16.3-6.4,27.9-22.3,27.9-40.9v-41.4c0-3.2,2.6-5.7,5.7-5.7c2.7,0,4.8-2.2,4.8-4.8v-11.2C730.5,157.9,728.4,155.8,725.8,155.8z
				 M470.6,232.8c0,17.1-13.9,31-31,31H181.4c-17.1,0-31-13.9-31-31v-136c0-17.1,13.9-31,31-31h258.1c17.1,0,31,13.9,31,31V232.8z"
				/>
		</g>
		<g>
			<defs>
				<path id="SVGID_00000076587557317149229480000004632235030406891407_" d="M725.8,155.8h-16.5v-50.1c0-5.4-4.4-9.9-9.9-9.9
					s-9.9,4.4-9.9,9.9v50.1h-27.1v-50.1c0-5.4-4.4-9.9-9.9-9.9l0,0c-5.4,0-9.9,4.4-9.9,9.9v50.1h-16.5c-2.7,0-4.8,2.2-4.8,4.8v11.2
					c0,2.7,2.2,4.8,4.8,4.8l0,0c3.2,0,5.7,2.6,5.7,5.7v40.9c0,18.7,11.5,34.8,27.9,41.3v279.7c0,18.8-15.3,34.1-34.1,34.1
					c-18.8,0-34.1-15.3-34.1-34.1V379.3c0-36.5-29.7-66.2-66.2-66.2h-16.6v-227c0-43.4-35.2-78.4-78.4-78.4H190.1
					c-43.4,0-78.4,35.2-78.4,78.4v627.2H88.2c-10.5,0-18.9,8.5-18.9,18.9v41.3c0,10.5,8.4,18.9,18.9,18.9h444.5
					c10.5,0,18.9-8.5,18.9-18.9v-41.3c0-10.5-8.4-18.9-18.9-18.9h-23.6V345.2h16.6c18.8,0,34.1,15.3,34.1,34v165.1
					c0,36.5,29.7,66.2,66.2,66.2s66.2-29.7,66.2-66.2V264.7c16.3-6.4,27.9-22.3,27.9-40.9v-41.4c0-3.2,2.6-5.7,5.7-5.7
					c2.7,0,4.8-2.2,4.8-4.8v-11.2C730.5,157.9,728.4,155.8,725.8,155.8z M470.6,232.8c0,17.1-13.9,31-31,31H181.4
					c-17.1,0-31-13.9-31-31v-136c0-17.1,13.9-31,31-31h258.1c17.1,0,31,13.9,31,31V232.8z"/>
			</defs>
			<use xlink:href="#SVGID_00000076587557317149229480000004632235030406891407_"  style="overflow:visible;fill:#18BFFB;"/>
			<clipPath id="SVGID_00000163054682232221662560000007229694142286594719_">
				<use xlink:href="#SVGID_00000076587557317149229480000004632235030406891407_"  style="overflow:visible;"/>
			</clipPath>
			<path style="clip-path:url(#SVGID_00000163054682232221662560000007229694142286594719_);fill:#18BFFB;" d="M600.2-5.8H105.6
				c-92.6,0-167.7,75-167.7,167.7v494.8c0,92.5,75,167.6,167.7,167.6h494.8c92.5,0,167.7-75,167.7-167.7V161.8
				C767.9,69.2,692.9-5.8,600.2-5.8z"/>
		</g>
	</g>
	<g>
		<g>
			<g>
				<path id="SVGID_00000069378840565306069260000011199473541438764443_" class="st0" d="M361.8,150.6H324c-1.9,0-3.2-1.8-2.7-3.6
					l16.9-57.4c0.8-2.9-2.8-4.9-4.8-2.6l-76.5,87.4c-1.6,1.8-0.3,4.7,2.1,4.7h37.9c1.9,0,3.2,1.8,2.7,3.6l-16.9,57.5
					c-0.8,2.9,2.8,4.9,4.8,2.6l76.5-87.4C365.6,153.5,364.2,150.6,361.8,150.6z"/>
			</g>
			<g>
				<defs>
					<path id="SVGID_00000022530863951400976500000004611473065527004599_" d="M361.8,150.6H324c-1.9,0-3.2-1.8-2.7-3.6l16.9-57.4
						c0.8-2.9-2.8-4.9-4.8-2.6l-76.5,87.4c-1.6,1.8-0.3,4.7,2.1,4.7h37.9c1.9,0,3.2,1.8,2.7,3.6l-16.9,57.5
						c-0.8,2.9,2.8,4.9,4.8,2.6l76.5-87.4C365.6,153.5,364.2,150.6,361.8,150.6z"/>
				</defs>
				<use xlink:href="#SVGID_00000022530863951400976500000004611473065527004599_"  style="overflow:visible;fill:#18BFFB;"/>
				<clipPath id="SVGID_00000000913702451897189530000009579950753883430031_">
					<use xlink:href="#SVGID_00000022530863951400976500000004611473065527004599_"  style="overflow:visible;"/>
				</clipPath>
				<path style="clip-path:url(#SVGID_00000000913702451897189530000009579950753883430031_);fill:#18BFFB;" d="M600.2-5.8H105.6
					c-92.6,0-167.7,75-167.7,167.7v494.8c0,92.5,75,167.6,167.7,167.6h494.8c92.5,0,167.7-75,167.7-167.7V161.8
					C767.9,69.2,692.9-5.8,600.2-5.8z"/>
			</g>
		</g>
	</g>
</g>
<rect x="-297.7" y="123.7" class="st0" width="152.9" height="152.9"/>
<rect x="-297.7" y="337" class="st3" width="152.9" height="152.9"/>
</svg>
