<?xml version="1.0" encoding="utf-8"?>
<!-- Generator: Adobe Illustrator 28.2.0, SVG Export Plug-In . SVG Version: 6.00 Build 0)  -->
<svg version="1.1" id="Capa_1" xmlns="http://www.w3.org/2000/svg" xmlns:xlink="http://www.w3.org/1999/xlink" x="0px" y="0px"
	 viewBox="0 0 800 800" style="enable-background:new 0 0 800 800;" xml:space="preserve">
<style type="text/css">
	.st0{fill:#FFFFFF;}
	.st1{clip-path:url(#SVGID_00000170981622341593792270000004920598293583124643_);fill:#FFFFFF;}
</style>
<g>
	<g>
		<g>
			<path class="st0" d="M-250.6,680.8c-0.2,1-1.1,1.7-2.1,1.5l-50.7-29.9c-1-0.2-1.6-1.2-1.4-2.2l6.5-34.1c0.2-1,1.1-1.7,2.1-1.5
				l57.7-6.3c1,0.2,1.6,1.2,1.4,2.2L-250.6,680.8z"/>
			<path class="st0" d="M-205.9,681.6c-1.2,6.4-6.4,10.7-11.6,9.6l-24.2-5.1c-0.8-0.2-1.3-1.1-1.1-2l14.2-73.1c0.2-1,1-1.6,1.8-1.5
				l24.2,5.1c5.2,1.1,8.3,7.2,7.1,13.6L-205.9,681.6z"/>
			<path class="st0" d="M-151.4,650.7c-0.4,2.1-2.4,3.4-4.4,3l-49.9-10.9c-2-0.4-3.3-2.5-2.9-4.6l0,0c0.4-2.1,2.4-3.4,4.4-3
				l49.9,10.9C-152.3,646.6-151,648.7-151.4,650.7L-151.4,650.7z"/>
			<path class="st0" d="M-157.3,678.5c-0.4,2.1-2.4,3.4-4.4,3l-51.3-11.2c-1.2-0.3-2-1.5-1.8-2.8l0.3-1.5c0.4-2.1,2.4-3.4,4.4-3
				l49.9,10.9C-158.1,674.4-156.8,676.4-157.3,678.5L-157.3,678.5z"/>
		</g>
		<g>
			<g>
				<path class="st0" d="M-615.7,638.4c-0.7,0.3-1.3,0.7-2.1,1.1c-0.8,0.3-1.6,0.7-2.5,1c-1.8,0.7-3.9,1.4-6.2,2.2
					c-0.6,0.2-1.2,0.4-1.8,0.6c-0.6,0.2-1.2,0.3-1.9,0.5c-1.3,0.4-2.7,0.7-4.2,1.1c-1.4,0.4-3,0.8-4.6,1.1c-1.6,0.4-3.3,0.7-5,1
					c-1.8,0.3-3.6,0.7-5.5,1c-1,0.2-1.9,0.3-3,0.5c-1,0.1-2,0.3-3.1,0.4c-2.1,0.3-4.3,0.5-6.5,0.8c-2.2,0.2-4.5,0.4-7,0.6
					c-4.8,0.4-9.9,0.5-15.4,0.7c-2.7,0.1-5.5,0-8.4,0h-4.4c-1.5-0.1-3-0.1-4.5-0.1c-24.2-0.6-53-4.2-86.1-10.2
					c-32.9-5.9-67.1-13.5-101.2-17c-0.7-0.1-1.3-0.1-2-0.2V605c2.1,0,4.2,0.1,6.2,0.2c18.9,0.9,37.6,3,55.4,5.6
					c17.9,2.6,35.1,5.7,51.3,8.6c32.2,5.8,58.5,9.6,80,11.3c1.3,0.1,2.7,0.2,4,0.3c1.3,0.1,2.6,0.1,3.9,0.2c2.5,0.1,5,0.3,7.4,0.4
					c4.8,0.1,9.3,0.4,13.5,0.4c2.1,0,4.1,0,6.2,0.1c1.9,0,3.9-0.1,5.7-0.1c0.9,0,1.8,0,2.7,0c0.9,0,1.8,0,2.6,0
					c1.7-0.1,3.4-0.1,5-0.2c1.6-0.1,3.1-0.1,4.6-0.2c1.5-0.1,2.9-0.2,4.2-0.3c1.3-0.1,2.7-0.2,3.9-0.2c0.6,0,1.2-0.1,1.8-0.1
					s1.2-0.1,1.7-0.1c2.3-0.2,4.3-0.3,6.2-0.4c0.9,0,1.8-0.1,2.7-0.1c0.8-0.1,1.6-0.1,2.3-0.1c5.9-0.2,9.1,0.5,9.8,1.9
					C-608.9,633.7-610.5,635.7-615.7,638.4z"/>
			</g>
			<g>
				<path class="st0" d="M-274.1,639.5c-0.9,1.4-4.9,2-13.1,1.5c-8.3-0.5-20.9-2.2-38.8-5c-9-1.4-19.4-3-31.2-4.7
					c-11.9-1.7-25.3-3.5-40.4-4.9c-7.6-0.7-15.5-1.3-23.9-1.8c-8.4-0.5-17.3-0.7-26.5-0.6c-18.5,0.2-38.7,1.7-59.7,6.2
					c-2.6,0.5-5.2,1.2-7.8,1.8c-2.6,0.7-5.2,1.3-7.8,2.1c-5.2,1.4-10.4,3.1-15.6,4.9c-10.5,3.6-21,7.8-32,12.3
					c-10.9,4.4-22.2,9.1-34.1,13.3c-12,4.3-24.2,8-36.7,11.2c-24.9,6.4-50.5,10.8-75.3,13.2c-12.4,1.2-24.6,1.9-36.5,2.2
					c-3,0-5.9,0.2-8.8,0.1h-8.7c-5.8-0.1-11.4-0.2-17-0.5c-11.1-0.5-21.7-1.3-31.7-2.4c-1.2-0.1-2.5-0.3-3.8-0.4
					c-1.2-0.2-2.5-0.3-3.7-0.5c-2.5-0.3-4.9-0.6-7.2-1c-2.3-0.4-4.7-0.7-7-1c-1.2-0.2-2.3-0.3-3.4-0.5c-1.1-0.2-2.3-0.4-3.3-0.5
					c-16.6-2.8-30.9-6.2-42.7-9.5v-3.8c12.5,2.4,27.7,4.8,45.2,6.4c1.1,0.1,2.2,0.2,3.3,0.3c1.1,0.1,2.3,0.2,3.4,0.3
					c2.3,0.2,4.6,0.4,6.9,0.5c2.3,0.1,4.7,0.3,7.1,0.4c1.2,0.1,2.4,0.1,3.6,0.2c1.2,0,2.4,0.1,3.7,0.1c9.8,0.4,20.1,0.5,30.7,0.3
					c5.3-0.1,10.7-0.3,16.2-0.5c2.7-0.2,5.5-0.4,8.3-0.5c2.8-0.1,5.5-0.4,8.3-0.6c11.2-1,22.6-2.2,34.2-4c23-3.5,46.3-8.6,68.7-15.4
					c11.2-3.4,22.2-7.2,32.8-11.5c10.6-4.2,21.2-8.9,32-13.7c10.8-4.7,21.9-9.5,33.7-13.7c5.9-2.1,11.9-4.1,18.1-5.9
					c3.1-0.8,6.2-1.7,9.3-2.5c3.1-0.7,6.2-1.5,9.3-2.2c12.5-2.6,24.7-4.3,36.3-5.4c11.6-1,22.7-1.4,33.2-1.4
					c10.5,0,20.3,0.5,29.5,1.2c9.2,0.7,17.8,1.6,25.9,2.7c16.1,2.1,30,4.7,42.1,7.3c12.1,2.5,22.3,5.1,31,7.5
					c17.4,4.8,28.8,8.8,35.7,11.8C-275.7,635.9-273.3,638-274.1,639.5z"/>
			</g>
			<g>
				<path class="st0" d="M-367.9,679.6c-1.1,0-2.2-0.2-3.3-0.6c-1-0.4-2.1-1-3.2-1.8c-2.3-1.5-4.8-3.8-9-6.3c-1-0.6-2.2-1.3-3.5-2
					c-1.3-0.7-2.7-1.3-4.3-1.9c-3.2-1.3-7.1-2.5-12.1-3.7c-4.9-1.1-11-2.2-18.2-3.1c-7.1-0.9-15-1.7-23.7-2.1
					c-8.8-0.4-18-0.5-27.4-0.2c-9.4,0.3-19,1-28.5,2.2c-19,2.2-37.6,6.3-53.4,11.2c-7.9,2.4-15.1,5.1-21.5,7.6
					c-3.2,1.3-6.1,2.6-8.8,3.8c-2.7,1.3-5.2,2.4-7.4,3.5c-1.1,0.6-2.2,1.1-3.2,1.6c-1,0.5-1.9,1-2.7,1.5c-1.7,0.9-3.2,1.7-4.3,2.4
					c-2.3,1.3-3.6,2.1-3.6,2.1s0.9-0.9,2.6-2.7c0.8-0.9,1.9-1.9,3.2-3.1c0.7-0.6,1.3-1.3,2.1-2c0.8-0.7,1.6-1.4,2.5-2.2
					c1.7-1.5,3.8-3.1,6-4.9c2.3-1.7,4.8-3.6,7.5-5.4c5.5-3.8,12.1-7.7,19.7-11.6c15.1-7.7,34.4-15,55.6-19.8
					c10.6-2.4,21.6-4.1,32.7-5.1s22.1-1.3,32.6-0.8c10.5,0.5,20,1.5,28.4,3c8.4,1.4,16,3.2,22.8,5.5c6.8,2.3,12.5,5.1,17,8.1
					c2.3,1.5,4.1,3.1,5.7,4.7c1.6,1.5,2.8,3.1,3.8,4.6c2,3,2.8,5.7,3,8c0.2,2.3-0.2,4.2-1,5.7c-0.7,1.4-1.7,2.4-2.8,3
					C-365.7,679.3-366.8,679.6-367.9,679.6z"/>
			</g>
		</g>
	</g>
	<g>
		<g>
			<g>
				
					<text transform="matrix(1 0 0 1 -848.2138 431.0289)" class="st0" style="font-family:'Pacifico-Regular'; font-size:464.0914px;">B</text>
			</g>
			<g>
				
					<text transform="matrix(1 0 0 1 -559.0063 574.7291)" class="st0" style="font-family:'Pacifico-Regular'; font-size:513.5024px;">S</text>
			</g>
		</g>
		<g>
			<g>
				<path class="st0" d="M-793.4,587.6v-109c0-1.3,1.1-2.4,2.5-2.4h74.9c1.4,0,2.5,1.1,2.5,2.4v12.5c0,1.3-1.1,2.4-2.5,2.4h-46.8
					c-1.4,0-2.5,1.1-2.5,2.4v26.3c0,1.3,1.1,2.4,2.5,2.4h32.9c1.4,0,2.5,1.1,2.5,2.4v12.5c0,1.3-1.1,2.4-2.5,2.4h-32.9
					c-1.4,0-2.5,1.1-2.5,2.4v26.3c0,1.3,1.1,2.4,2.5,2.4h46.8c1.4,0,2.5,1.1,2.5,2.4v12.5c0,1.3-1.1,2.4-2.5,2.4h-74.9
					C-792.3,590-793.4,588.9-793.4,587.6z"/>
				<path class="st0" d="M-668.7,590h-23.1c-1.4,0-2.5-1.1-2.5-2.4v-109c0-1.3,1.1-2.4,2.5-2.4h35.9c1.1,0,2.1,0.7,2.4,1.7
					l23.2,72.5c0.7,2.3,4.1,2.2,4.8,0l22.2-72.4c0.3-1,1.3-1.7,2.4-1.7h34.3c1.4,0,2.5,1.1,2.5,2.4v109c0,1.3-1.1,2.4-2.5,2.4h-23.1
					c-1.4,0-2.5-1.1-2.5-2.4v-54.1c0-2.7-4-3.3-4.9-0.7l-18.9,55.6c-0.3,1-1.3,1.7-2.4,1.7h-19c-1,0-2-0.6-2.3-1.6l-21.7-57.1
					c-1-2.5-4.8-1.8-4.8,0.8v55.4C-666.2,588.9-667.3,590-668.7,590z"/>
			</g>
		</g>
	</g>
</g>
<g>
	<g>
		<defs>
			<path id="SVGID_1_" d="M167.5,387.4c24.8,46.1,65.4,81.7,114.4,100.2c45.7,17.2,95.6,18.5,141.6,4l120.2,223.8
				c9.3,17.4,31,23.9,48.3,14.6l9.2-5c17.3-9.3,23.8-31,14.5-48.4L495.4,452.4c36.9-30.4,62.9-72.7,73.4-119.9
				c11.3-50.8,4-103.9-20.6-149.7c-56.5-105.2-187.9-145-292.9-88.6S110.9,282.1,167.5,387.4z M279.2,138.7
				c80.5-43.3,181.3-12.8,224.6,67.9s13.2,181.6-67.3,224.8s-181.3,12.8-224.6-67.9S198.7,182,279.2,138.7z"/>
		</defs>
		<use xlink:href="#SVGID_1_"  style="overflow:visible;fill:#FFFFFF;"/>
		<clipPath id="SVGID_00000095299128181179523400000005561513382481008267_">
			<use xlink:href="#SVGID_1_"  style="overflow:visible;"/>
		</clipPath>
		<path style="clip-path:url(#SVGID_00000095299128181179523400000005561513382481008267_);fill:#FFFFFF;" d="M619.2,1.4H142.4
			C53.1,1.4-19.2,73.7-19.2,163v476.9c0,89.2,72.3,161.5,161.6,161.5h476.9c89.2,0,161.6-72.3,161.6-161.6V163
			C780.8,73.7,708.5,1.4,619.2,1.4z"/>
	</g>
</g>
</svg>
