<?xml version="1.0" encoding="utf-8"?>
<!-- Generator: Adobe Illustrator 28.2.0, SVG Export Plug-In . SVG Version: 6.00 Build 0)  -->
<svg version="1.1" id="Capa_1" xmlns="http://www.w3.org/2000/svg" xmlns:xlink="http://www.w3.org/1999/xlink" x="0px" y="0px"
	 viewBox="0 0 800 800" style="enable-background:new 0 0 800 800;" xml:space="preserve">
<style type="text/css">
	.st0{clip-path:url(#SVGID_00000031913208369826998160000002917459059735266463_);fill:#FFFFFF;}
	.st1{clip-path:url(#SVGID_00000004527655330340998110000012140364113275779969_);fill:#FFFFFF;}
</style>
<g>
	<g>
		<g>
			<defs>
				<path id="SVGID_1_" d="M669.2,401.3v358.1c0,6.4-5.2,11.6-11.6,11.6H479.3V553.3c0-6.4-5.2-11.6-11.6-11.6H332.3
					c-6.4,0-11.6,5.2-11.6,11.6V771H142.5c-6.4,0-11.6-5.2-11.6-11.6v-360c0-3.6,1.6-6.8,4.2-8.9l5.4-5.1L392,143.4
					c4.5-4.3,11.6-4.3,16.1,0h0l0.1,0.1L657,385.3l0.1,0.1l8.1,7.3C667.8,395,669.1,398.1,669.2,401.3L669.2,401.3L669.2,401.3z"/>
			</defs>
			<use xlink:href="#SVGID_1_"  style="overflow:visible;fill:#FFFFFF;"/>
			<clipPath id="SVGID_00000142898091615134056030000011650158627276052870_">
				<use xlink:href="#SVGID_1_"  style="overflow:visible;"/>
			</clipPath>
			<path style="clip-path:url(#SVGID_00000142898091615134056030000011650158627276052870_);fill:#FFFFFF;" d="M638.4,0H161.6
				C72.3,0,0,72.3,0,161.6v476.9C0,727.7,72.3,800,161.6,800h476.9c89.2,0,161.6-72.3,161.6-161.6V161.6C800,72.3,727.7,0,638.4,0z"
				/>
		</g>
	</g>
	<g>
		<g>
			<defs>
				<path id="SVGID_00000093867292546245762240000018034757319189034402_" d="M776.7,409.9c-8.8,9.3-23.5,9.6-32.8,0.8L400,84.2
					L56.1,410.7c-9.3,8.8-24,8.4-32.8-0.8c-8.8-9.3-8.4-24,0.8-32.8L384,35.4c9-8.5,23-8.5,31.9,0l359.9,341.7
					C785.1,385.9,785.5,400.6,776.7,409.9z"/>
			</defs>
			<use xlink:href="#SVGID_00000093867292546245762240000018034757319189034402_"  style="overflow:visible;fill:#FFFFFF;"/>
			<clipPath id="SVGID_00000051370959698725842110000017402300798618847119_">
				<use xlink:href="#SVGID_00000093867292546245762240000018034757319189034402_"  style="overflow:visible;"/>
			</clipPath>
			<path style="clip-path:url(#SVGID_00000051370959698725842110000017402300798618847119_);fill:#FFFFFF;" d="M638.4,0H161.6
				C72.3,0,0,72.3,0,161.6v476.9C0,727.7,72.3,800,161.6,800h476.9c89.2,0,161.6-72.3,161.6-161.6V161.6C800,72.3,727.7,0,638.4,0z"
				/>
		</g>
	</g>
</g>
</svg>
