<?xml version="1.0" encoding="utf-8"?>
<!-- Generator: Adobe Illustrator 28.2.0, SVG Export Plug-In . SVG Version: 6.00 Build 0)  -->
<svg version="1.1" id="Capa_1" xmlns="http://www.w3.org/2000/svg" xmlns:xlink="http://www.w3.org/1999/xlink" x="0px" y="0px"
	 viewBox="0 0 800 800" style="enable-background:new 0 0 800 800;" xml:space="preserve">
<style type="text/css">
	
		.st0{clip-path:url(#SVGID_00000149351246478864638210000011532166689298427326_);fill:url(#SVGID_00000011000720244447630200000012856332118430887566_);}
	.st1{fill:#FFFFFF;}
	.st2{clip-path:url(#SVGID_00000031887705458029461580000005193445092580673727_);}
	.st3{clip-path:url(#SVGID_00000031190236186342319720000009713089669612574623_);}
	.st4{clip-path:url(#SVGID_00000020397795066984827060000007784041744384878779_);}
	.st5{clip-path:url(#SVGID_00000182508944884316129310000006413198831115817116_);}
	.st6{clip-path:url(#SVGID_00000042708404587900042650000011951189711997035194_);}
	.st7{clip-path:url(#SVGID_00000129900939868108246610000005164170308038915212_);}
	.st8{clip-path:url(#SVGID_00000151519396472279262490000007504965482321504191_);}
	.st9{clip-path:url(#SVGID_00000096765850452959902390000004673785774456369805_);}
	.st10{clip-path:url(#SVGID_00000003799351484115861800000006841215241021013383_);}
	.st11{clip-path:url(#SVGID_00000163782283781039096900000006001896700592747909_);}
	.st12{clip-path:url(#SVGID_00000158715113857052171300000004209572014008518573_);fill:#FFFFFF;}
</style>
<g>
	<g>
		<defs>
			<path id="SVGID_1_" d="M1767.4,679.3h-15.9V631c0-5.2-4.2-9.5-9.5-9.5c-5.2,0-9.5,4.2-9.5,9.5v48.3h-26.1V631
				c0-5.2-4.2-9.5-9.5-9.5l0,0c-5.2,0-9.5,4.2-9.5,9.5v48.3h-15.9c-2.6,0-4.6,2.1-4.6,4.6v10.8c0,2.6,2.1,4.6,4.6,4.6l0,0
				c3.1,0,5.5,2.5,5.5,5.5v39.4c0,18,11.1,33.5,26.9,39.8v269.6c0,18.1-14.7,32.9-32.9,32.9c-18.1,0-32.9-14.7-32.9-32.9V894.7
				c0-35.2-28.6-63.8-63.8-63.8h-16V612.1c0-41.8-33.9-75.6-75.6-75.6h-231.9c-41.8,0-75.6,33.9-75.6,75.6v604.5h-22.6
				c-10.1,0-18.2,8.2-18.2,18.2v39.8c0,10.1,8.1,18.2,18.2,18.2H1581c10.1,0,18.2-8.2,18.2-18.2v-39.8c0-10.1-8.1-18.2-18.2-18.2
				h-22.7V861.8h16c18.1,0,32.9,14.7,32.9,32.8v159.1c0,35.2,28.6,63.8,63.8,63.8c35.2,0,63.8-28.6,63.8-63.8V784.2
				c15.7-6.2,26.9-21.5,26.9-39.4v-39.9c0-3.1,2.5-5.5,5.5-5.5c2.6,0,4.6-2.1,4.6-4.6V684C1772,681.3,1769.9,679.3,1767.4,679.3z
				 M1521.4,753.5c0,16.5-13.4,29.9-29.9,29.9h-248.8c-16.5,0-29.9-13.4-29.9-29.9V622.4c0-16.5,13.4-29.9,29.9-29.9h248.8
				c16.5,0,29.9,13.4,29.9,29.9V753.5z"/>
		</defs>
		<clipPath id="SVGID_00000096748110432801898740000000054946322313783949_">
			<use xlink:href="#SVGID_1_"  style="overflow:visible;"/>
		</clipPath>
		
			<linearGradient id="SVGID_00000031185479877943443540000006668619289443351448_" gradientUnits="userSpaceOnUse" x1="1408.0502" y1="-2.7283" x2="1408.0502" y2="-802.7283" gradientTransform="matrix(1 0 0 -1 0 520.7717)">
			<stop  offset="0" style="stop-color:#18BFFB"/>
			<stop  offset="1" style="stop-color:#2072F3"/>
		</linearGradient>
		
			<path style="clip-path:url(#SVGID_00000096748110432801898740000000054946322313783949_);fill:url(#SVGID_00000031185479877943443540000006668619289443351448_);" d="
			M1646.4,523.5h-476.8c-89.3,0-161.6,72.3-161.6,161.6V1162c0,89.2,72.3,161.5,161.6,161.5h476.9c89.2,0,161.6-72.3,161.6-161.6
			V685.1C1808,595.8,1735.7,523.5,1646.4,523.5z"/>
	</g>
</g>
<path d="M1416.6,674.3h-36.5c-1.8,0-3.1-1.7-2.6-3.5l16.3-55.4c0.8-2.8-2.7-4.7-4.6-2.5l-73.7,84.2c-1.5,1.7-0.3,4.5,2,4.5h36.5
	c1.8,0,3.1,1.7,2.6,3.5l-16.3,55.4c-0.8,2.8,2.7,4.7,4.6,2.5l73.7-84.2C1420.2,677.1,1418.9,674.3,1416.6,674.3z"/>
<g>
	<g>
		<path id="SVGID_00000129908436729869003260000003758496479131039128_" class="st1" d="M325.1,465.6l39,62
			c16.6,26.5,55.2,26.5,71.8,0l39-62c27.4-43.6,56.3-86.3,86.2-128.3c54.7-77,47.5-184.5-21.5-253.6c-77-77-202-77-279,0
			c-69,69.1-76.2,176.5-21.5,253.6C268.8,379.3,297.7,422,325.1,465.6z M321.1,144.3c43.6-43.6,114.3-43.6,157.8,0
			c43.6,43.6,43.6,114.3,0,157.8c-43.6,43.6-114.3,43.6-157.8,0C277.5,258.5,277.5,187.9,321.1,144.3z"/>
	</g>
	<g>
		<path id="SVGID_00000178163316356708942160000002130047460516090540_" class="st1" d="M370.7,616.4l2.5-2.1l298-114.4l-3.7-15
			c-5-20.4-23.3-34.7-44.3-34.7H506.8c-5.5,8.5-10.9,16.9-16.2,25.3l-39,62C440.4,555.4,421.1,566,400,566s-40.4-10.7-51.7-28.6
			l-39-62c-5.3-8.4-10.7-16.8-16.1-25.3H176.8c-21,0-39.3,14.3-44.3,34.7l-0.3,1.1l192,170.6C351.3,633.3,370.4,616.7,370.7,616.4z"
			/>
	</g>
	<g>
		<path id="SVGID_00000088834888828253068390000010388035722126956471_" class="st1" d="M392.6,646.7
			c-11.4,9.9-60.8,52.6-110.1,94.7c-14,11.9-26.8,22.8-38.4,32.6h325.6l-55.6-174L392.6,646.7z"/>
	</g>
	<g>
		<path id="SVGID_00000081620007808993277210000011779887281706299823_" class="st1" d="M295.8,681L122.2,526.8l-47,190.7
			c-7.1,28.7,14.7,56.5,44.3,56.5h66.8c0.4-0.3,0.8-0.7,1.3-1.1c19.7-16.4,45.6-38.4,77.1-65.3C275.3,698.7,285.8,689.7,295.8,681z"
			/>
	</g>
	<g>
		<path id="SVGID_00000107584066096857796050000013593532851661450380_" class="st1" d="M724.8,717.5l-44.7-181.2l-131.2,50.4
			L608.8,774h71.7C710.1,774,731.9,746.3,724.8,717.5z"/>
	</g>
	<g>
		<defs>
			<path id="SVGID_00000023994160453788803330000018059636350961127333_" d="M325.1,465.6l39,62c16.6,26.5,55.2,26.5,71.8,0l39-62
				c27.4-43.6,56.3-86.3,86.2-128.3c54.7-77,47.5-184.5-21.5-253.6c-77-77-202-77-279,0c-69,69.1-76.2,176.5-21.5,253.6
				C268.8,379.3,297.7,422,325.1,465.6z M321.1,144.3c43.6-43.6,114.3-43.6,157.8,0c43.6,43.6,43.6,114.3,0,157.8
				c-43.6,43.6-114.3,43.6-157.8,0C277.5,258.5,277.5,187.9,321.1,144.3z"/>
		</defs>
		<use xlink:href="#SVGID_00000023994160453788803330000018059636350961127333_"  style="overflow:visible;fill:#FFFFFF;"/>
		<clipPath id="SVGID_00000090283819439516776700000009945702402377823108_">
			<use xlink:href="#SVGID_00000023994160453788803330000018059636350961127333_"  style="overflow:visible;"/>
		</clipPath>
	</g>
	<g>
		<defs>
			<path id="SVGID_00000117675989894338543100000015679049349964977540_" d="M325.1,465.6l39,62c16.6,26.5,55.2,26.5,71.8,0l39-62
				c27.4-43.6,56.3-86.3,86.2-128.3c54.7-77,47.5-184.5-21.5-253.6c-77-77-202-77-279,0c-69,69.1-76.2,176.5-21.5,253.6
				C268.8,379.3,297.7,422,325.1,465.6z M321.1,144.3c43.6-43.6,114.3-43.6,157.8,0c43.6,43.6,43.6,114.3,0,157.8
				c-43.6,43.6-114.3,43.6-157.8,0C277.5,258.5,277.5,187.9,321.1,144.3z"/>
		</defs>
		<defs>
			<path id="SVGID_00000183963818583665754720000016412802307875100294_" d="M370.7,616.4l2.5-2.1l298-114.4l-3.7-15
				c-5-20.4-23.3-34.7-44.3-34.7H506.8c-5.5,8.5-10.9,16.9-16.2,25.3l-39,62C440.4,555.4,421.1,566,400,566s-40.4-10.7-51.7-28.6
				l-39-62c-5.3-8.4-10.7-16.8-16.1-25.3H176.8c-21,0-39.3,14.3-44.3,34.7l-0.3,1.1l192,170.6C351.3,633.3,370.4,616.7,370.7,616.4z
				"/>
		</defs>
		<use xlink:href="#SVGID_00000117675989894338543100000015679049349964977540_"  style="overflow:visible;fill:#FFFFFF;"/>
		<use xlink:href="#SVGID_00000183963818583665754720000016412802307875100294_"  style="overflow:visible;fill:#FFFFFF;"/>
		<clipPath id="SVGID_00000176009380201394928220000008807116826513869752_">
			<use xlink:href="#SVGID_00000117675989894338543100000015679049349964977540_"  style="overflow:visible;"/>
		</clipPath>
		
			<clipPath id="SVGID_00000105423821599483173700000001668514070574700936_" style="clip-path:url(#SVGID_00000176009380201394928220000008807116826513869752_);">
			<use xlink:href="#SVGID_00000183963818583665754720000016412802307875100294_"  style="overflow:visible;"/>
		</clipPath>
	</g>
	<g>
		<defs>
			<path id="SVGID_00000039840854222783303290000018213975069563598513_" d="M325.1,465.6l39,62c16.6,26.5,55.2,26.5,71.8,0l39-62
				c27.4-43.6,56.3-86.3,86.2-128.3c54.7-77,47.5-184.5-21.5-253.6c-77-77-202-77-279,0c-69,69.1-76.2,176.5-21.5,253.6
				C268.8,379.3,297.7,422,325.1,465.6z M321.1,144.3c43.6-43.6,114.3-43.6,157.8,0c43.6,43.6,43.6,114.3,0,157.8
				c-43.6,43.6-114.3,43.6-157.8,0C277.5,258.5,277.5,187.9,321.1,144.3z"/>
		</defs>
		<defs>
			<path id="SVGID_00000064335451562333557350000005931566875266513797_" d="M370.7,616.4l2.5-2.1l298-114.4l-3.7-15
				c-5-20.4-23.3-34.7-44.3-34.7H506.8c-5.5,8.5-10.9,16.9-16.2,25.3l-39,62C440.4,555.4,421.1,566,400,566s-40.4-10.7-51.7-28.6
				l-39-62c-5.3-8.4-10.7-16.8-16.1-25.3H176.8c-21,0-39.3,14.3-44.3,34.7l-0.3,1.1l192,170.6C351.3,633.3,370.4,616.7,370.7,616.4z
				"/>
		</defs>
		<defs>
			<path id="SVGID_00000034064912828768134950000016814756884378051460_" d="M392.6,646.7c-11.4,9.9-60.8,52.6-110.1,94.7
				c-14,11.9-26.8,22.8-38.4,32.6h325.6l-55.6-174L392.6,646.7z"/>
		</defs>
		<use xlink:href="#SVGID_00000039840854222783303290000018213975069563598513_"  style="overflow:visible;fill:#FFFFFF;"/>
		<use xlink:href="#SVGID_00000064335451562333557350000005931566875266513797_"  style="overflow:visible;fill:#FFFFFF;"/>
		<use xlink:href="#SVGID_00000034064912828768134950000016814756884378051460_"  style="overflow:visible;fill:#FFFFFF;"/>
		<clipPath id="SVGID_00000150077289672830495740000013601539532665068690_">
			<use xlink:href="#SVGID_00000039840854222783303290000018213975069563598513_"  style="overflow:visible;"/>
		</clipPath>
		
			<clipPath id="SVGID_00000102505438428764028730000000461843921156648324_" style="clip-path:url(#SVGID_00000150077289672830495740000013601539532665068690_);">
			<use xlink:href="#SVGID_00000064335451562333557350000005931566875266513797_"  style="overflow:visible;"/>
		</clipPath>
		
			<clipPath id="SVGID_00000142866415115959066900000000856380422542796708_" style="clip-path:url(#SVGID_00000102505438428764028730000000461843921156648324_);">
			<use xlink:href="#SVGID_00000034064912828768134950000016814756884378051460_"  style="overflow:visible;"/>
		</clipPath>
	</g>
	<g>
		<defs>
			<path id="SVGID_00000035510827565924662190000010785140646256978595_" d="M325.1,465.6l39,62c16.6,26.5,55.2,26.5,71.8,0l39-62
				c27.4-43.6,56.3-86.3,86.2-128.3c54.7-77,47.5-184.5-21.5-253.6c-77-77-202-77-279,0c-69,69.1-76.2,176.5-21.5,253.6
				C268.8,379.3,297.7,422,325.1,465.6z M321.1,144.3c43.6-43.6,114.3-43.6,157.8,0c43.6,43.6,43.6,114.3,0,157.8
				c-43.6,43.6-114.3,43.6-157.8,0C277.5,258.5,277.5,187.9,321.1,144.3z"/>
		</defs>
		<defs>
			<path id="SVGID_00000067919806833457144020000001962499019494454189_" d="M370.7,616.4l2.5-2.1l298-114.4l-3.7-15
				c-5-20.4-23.3-34.7-44.3-34.7H506.8c-5.5,8.5-10.9,16.9-16.2,25.3l-39,62C440.4,555.4,421.1,566,400,566s-40.4-10.7-51.7-28.6
				l-39-62c-5.3-8.4-10.7-16.8-16.1-25.3H176.8c-21,0-39.3,14.3-44.3,34.7l-0.3,1.1l192,170.6C351.3,633.3,370.4,616.7,370.7,616.4z
				"/>
		</defs>
		<defs>
			<path id="SVGID_00000078028053341575073520000002223770837851241919_" d="M392.6,646.7c-11.4,9.9-60.8,52.6-110.1,94.7
				c-14,11.9-26.8,22.8-38.4,32.6h325.6l-55.6-174L392.6,646.7z"/>
		</defs>
		<defs>
			<path id="SVGID_00000109751577710661038020000006827922326598718138_" d="M295.8,681L122.2,526.8l-47,190.7
				c-7.1,28.7,14.7,56.5,44.3,56.5h66.8c0.4-0.3,0.8-0.7,1.3-1.1c19.7-16.4,45.6-38.4,77.1-65.3C275.3,698.7,285.8,689.7,295.8,681z
				"/>
		</defs>
		<use xlink:href="#SVGID_00000035510827565924662190000010785140646256978595_"  style="overflow:visible;fill:#FFFFFF;"/>
		<use xlink:href="#SVGID_00000067919806833457144020000001962499019494454189_"  style="overflow:visible;fill:#FFFFFF;"/>
		<use xlink:href="#SVGID_00000078028053341575073520000002223770837851241919_"  style="overflow:visible;fill:#FFFFFF;"/>
		<use xlink:href="#SVGID_00000109751577710661038020000006827922326598718138_"  style="overflow:visible;fill:#FFFFFF;"/>
		<clipPath id="SVGID_00000126286528103532168150000008863438417100783532_">
			<use xlink:href="#SVGID_00000035510827565924662190000010785140646256978595_"  style="overflow:visible;"/>
		</clipPath>
		
			<clipPath id="SVGID_00000030475723878847249220000009155587675183665299_" style="clip-path:url(#SVGID_00000126286528103532168150000008863438417100783532_);">
			<use xlink:href="#SVGID_00000067919806833457144020000001962499019494454189_"  style="overflow:visible;"/>
		</clipPath>
		
			<clipPath id="SVGID_00000140719673238311487620000014770517370896277403_" style="clip-path:url(#SVGID_00000030475723878847249220000009155587675183665299_);">
			<use xlink:href="#SVGID_00000078028053341575073520000002223770837851241919_"  style="overflow:visible;"/>
		</clipPath>
		
			<clipPath id="SVGID_00000147192722130077198860000009920235484814504893_" style="clip-path:url(#SVGID_00000140719673238311487620000014770517370896277403_);">
			<use xlink:href="#SVGID_00000109751577710661038020000006827922326598718138_"  style="overflow:visible;"/>
		</clipPath>
	</g>
	<g>
		<defs>
			<path id="SVGID_00000039827485305285587800000002190327753771472005_" d="M325.1,465.6l39,62c16.6,26.5,55.2,26.5,71.8,0l39-62
				c27.4-43.6,56.3-86.3,86.2-128.3c54.7-77,47.5-184.5-21.5-253.6c-77-77-202-77-279,0c-69,69.1-76.2,176.5-21.5,253.6
				C268.8,379.3,297.7,422,325.1,465.6z M321.1,144.3c43.6-43.6,114.3-43.6,157.8,0c43.6,43.6,43.6,114.3,0,157.8
				c-43.6,43.6-114.3,43.6-157.8,0C277.5,258.5,277.5,187.9,321.1,144.3z"/>
		</defs>
		<defs>
			<path id="SVGID_00000139251526376361804380000008473045616658551436_" d="M370.7,616.4l2.5-2.1l298-114.4l-3.7-15
				c-5-20.4-23.3-34.7-44.3-34.7H506.8c-5.5,8.5-10.9,16.9-16.2,25.3l-39,62C440.4,555.4,421.1,566,400,566s-40.4-10.7-51.7-28.6
				l-39-62c-5.3-8.4-10.7-16.8-16.1-25.3H176.8c-21,0-39.3,14.3-44.3,34.7l-0.3,1.1l192,170.6C351.3,633.3,370.4,616.7,370.7,616.4z
				"/>
		</defs>
		<defs>
			<path id="SVGID_00000161628527189882579710000002430555957424563340_" d="M392.6,646.7c-11.4,9.9-60.8,52.6-110.1,94.7
				c-14,11.9-26.8,22.8-38.4,32.6h325.6l-55.6-174L392.6,646.7z"/>
		</defs>
		<defs>
			<path id="SVGID_00000065072430417645966440000003981046355816536730_" d="M295.8,681L122.2,526.8l-47,190.7
				c-7.1,28.7,14.7,56.5,44.3,56.5h66.8c0.4-0.3,0.8-0.7,1.3-1.1c19.7-16.4,45.6-38.4,77.1-65.3C275.3,698.7,285.8,689.7,295.8,681z
				"/>
		</defs>
		<defs>
			<path id="SVGID_00000149351983412143030370000013545663000477582522_" d="M724.8,717.5l-44.7-181.2l-131.2,50.4L608.8,774h71.7
				C710.1,774,731.9,746.3,724.8,717.5z"/>
		</defs>
		<use xlink:href="#SVGID_00000039827485305285587800000002190327753771472005_"  style="overflow:visible;fill:#FFFFFF;"/>
		<use xlink:href="#SVGID_00000139251526376361804380000008473045616658551436_"  style="overflow:visible;fill:#FFFFFF;"/>
		<use xlink:href="#SVGID_00000161628527189882579710000002430555957424563340_"  style="overflow:visible;fill:#FFFFFF;"/>
		<use xlink:href="#SVGID_00000065072430417645966440000003981046355816536730_"  style="overflow:visible;fill:#FFFFFF;"/>
		<use xlink:href="#SVGID_00000149351983412143030370000013545663000477582522_"  style="overflow:visible;fill:#FFFFFF;"/>
		<clipPath id="SVGID_00000085931243166966622920000002707103089701724303_">
			<use xlink:href="#SVGID_00000039827485305285587800000002190327753771472005_"  style="overflow:visible;"/>
		</clipPath>
		
			<clipPath id="SVGID_00000047051449891831890810000008140301208483329930_" style="clip-path:url(#SVGID_00000085931243166966622920000002707103089701724303_);">
			<use xlink:href="#SVGID_00000139251526376361804380000008473045616658551436_"  style="overflow:visible;"/>
		</clipPath>
		
			<clipPath id="SVGID_00000082336403321422506110000005609109953508931460_" style="clip-path:url(#SVGID_00000047051449891831890810000008140301208483329930_);">
			<use xlink:href="#SVGID_00000161628527189882579710000002430555957424563340_"  style="overflow:visible;"/>
		</clipPath>
		
			<clipPath id="SVGID_00000177445105327543070320000014987411548314543272_" style="clip-path:url(#SVGID_00000082336403321422506110000005609109953508931460_);">
			<use xlink:href="#SVGID_00000065072430417645966440000003981046355816536730_"  style="overflow:visible;"/>
		</clipPath>
		
			<clipPath id="SVGID_00000030473200626049673320000014537651056430352016_" style="clip-path:url(#SVGID_00000177445105327543070320000014987411548314543272_);">
			<use xlink:href="#SVGID_00000149351983412143030370000013545663000477582522_"  style="overflow:visible;"/>
		</clipPath>
		<path style="clip-path:url(#SVGID_00000030473200626049673320000014537651056430352016_);fill:#FFFFFF;" d="M638.4,0H161.6
			C72.3,0,0,72.3,0,161.6v476.9C0,727.7,72.3,800,161.6,800h476.9c89.2,0,161.6-72.3,161.6-161.6V161.6C800,72.3,727.7,0,638.4,0z"
			/>
	</g>
</g>
</svg>
