<?xml version="1.0" encoding="utf-8"?>
<!-- Generator: Adobe Illustrator 28.2.0, SVG Export Plug-In . SVG Version: 6.00 Build 0)  -->
<svg version="1.1" id="Capa_1" xmlns="http://www.w3.org/2000/svg" xmlns:xlink="http://www.w3.org/1999/xlink" x="0px" y="0px"
	 viewBox="0 0 800 800" style="enable-background:new 0 0 800 800;" xml:space="preserve">
<style type="text/css">
	.st0{clip-path:url(#SVGID_00000005250562494024629980000000616131539420147605_);fill:#FFFFFF;}
	.st1{clip-path:url(#SVGID_00000026122706713723564820000006380654570925833104_);fill:#FFFFFF;}
</style>
<g>
	<g>
		<g>
			<defs>
				<path id="SVGID_1_" d="M759.4,155.8h-15.9v-48.3c0-5.2-4.2-9.5-9.5-9.5s-9.5,4.2-9.5,9.5v48.3h-26.1v-48.3
					c0-5.2-4.2-9.5-9.5-9.5l0,0c-5.2,0-9.5,4.2-9.5,9.5v48.3h-15.9c-2.6,0-4.6,2.1-4.6,4.6v10.8c0,2.6,2.1,4.6,4.6,4.6l0,0
					c3.1,0,5.5,2.5,5.5,5.5v39.4c0,18,11.1,33.5,26.9,39.8v269.6c0,18.1-14.7,32.9-32.9,32.9c-18.1,0-32.9-14.7-32.9-32.9V371.2
					c0-35.2-28.6-63.8-63.8-63.8h-16V88.6c0-41.8-33.9-75.6-75.6-75.6H243.1c-41.8,0-75.6,33.9-75.6,75.6v604.5h-22.6
					c-10.1,0-18.2,8.2-18.2,18.2v39.8c0,10.1,8.1,18.2,18.2,18.2h428.4c10.1,0,18.2-8.2,18.2-18.2v-39.8c0-10.1-8.1-18.2-18.2-18.2
					h-22.7V338.3h16c18.1,0,32.9,14.7,32.9,32.8v159.1c0,35.2,28.6,63.8,63.8,63.8s63.8-28.6,63.8-63.8V260.7
					c15.7-6.2,26.9-21.5,26.9-39.4v-39.9c0-3.1,2.5-5.5,5.5-5.5c2.6,0,4.6-2.1,4.6-4.6v-10.8C764,157.8,761.9,155.8,759.4,155.8z
					 M513.4,230c0,16.5-13.4,29.9-29.9,29.9H234.7c-16.5,0-29.9-13.4-29.9-29.9V98.9c0-16.5,13.4-29.9,29.9-29.9h248.8
					c16.5,0,29.9,13.4,29.9,29.9V230z"/>
			</defs>
			<use xlink:href="#SVGID_1_"  style="overflow:visible;fill:#FFFFFF;"/>
			<clipPath id="SVGID_00000153678806933665568650000014503382863877416611_">
				<use xlink:href="#SVGID_1_"  style="overflow:visible;"/>
			</clipPath>
			<path style="clip-path:url(#SVGID_00000153678806933665568650000014503382863877416611_);fill:#FFFFFF;" d="M638.4,0H161.6
				C72.3,0,0,72.3,0,161.6v476.9C0,727.7,72.3,800,161.6,800h476.9c89.2,0,161.6-72.3,161.6-161.6V161.6C800,72.3,727.7,0,638.4,0z"
				/>
		</g>
	</g>
	<g>
		<g>
			<defs>
				<path id="SVGID_00000069378840565306069260000011199473541438764443_" d="M408.6,150.8h-36.5c-1.8,0-3.1-1.7-2.6-3.5L385.8,92
					c0.8-2.8-2.7-4.7-4.6-2.5l-73.7,84.2c-1.5,1.7-0.3,4.5,2,4.5H346c1.8,0,3.1,1.7,2.6,3.5l-16.3,55.4c-0.8,2.8,2.7,4.7,4.6,2.5
					l73.7-84.2C412.2,153.6,410.9,150.8,408.6,150.8z"/>
			</defs>
			<use xlink:href="#SVGID_00000069378840565306069260000011199473541438764443_"  style="overflow:visible;fill:#FFFFFF;"/>
			<clipPath id="SVGID_00000036933201601422067060000003074635673672422305_">
				<use xlink:href="#SVGID_00000069378840565306069260000011199473541438764443_"  style="overflow:visible;"/>
			</clipPath>
			<path style="clip-path:url(#SVGID_00000036933201601422067060000003074635673672422305_);fill:#FFFFFF;" d="M638.4,0H161.6
				C72.3,0,0,72.3,0,161.6v476.9C0,727.7,72.3,800,161.6,800h476.9c89.2,0,161.6-72.3,161.6-161.6V161.6C800,72.3,727.7,0,638.4,0z"
				/>
		</g>
	</g>
</g>
</svg>
