<?xml version="1.0" encoding="utf-8"?>
<!-- Generator: Adobe Illustrator 28.2.0, SVG Export Plug-In . SVG Version: 6.00 Build 0)  -->
<svg version="1.1" id="Capa_1" xmlns="http://www.w3.org/2000/svg" xmlns:xlink="http://www.w3.org/1999/xlink" x="0px" y="0px"
	 viewBox="0 0 800 800" style="enable-background:new 0 0 800 800;" xml:space="preserve">
<style type="text/css">
	
		.st0{clip-path:url(#SVGID_00000049204258417789101180000013093271349986306185_);fill:url(#SVGID_00000160185149329536472640000017460963158775225472_);}
	.st1{fill:#18BFFB;}
	.st2{clip-path:url(#SVGID_00000130644265059036610210000008805122107173093547_);}
	.st3{clip-path:url(#SVGID_00000127005615111859504680000015748977117450773137_);}
	.st4{clip-path:url(#SVGID_00000011024673209013025120000004350915143442739097_);}
	.st5{clip-path:url(#SVGID_00000149369687413954054130000016195750237789798819_);}
	.st6{clip-path:url(#SVGID_00000111183373021628395790000003422296453514082731_);}
	.st7{clip-path:url(#SVGID_00000168832960354433140620000017180419075463175576_);}
	.st8{clip-path:url(#SVGID_00000149384183636780386530000017439209939743178410_);}
	.st9{clip-path:url(#SVGID_00000102545632858480421210000003569727843404719756_);}
	.st10{clip-path:url(#SVGID_00000134217013472398100210000016783557205054073006_);}
	.st11{clip-path:url(#SVGID_00000018931429554294136420000010738615526609794467_);}
	.st12{clip-path:url(#SVGID_00000103961425308367101790000016935659445154705569_);}
	.st13{clip-path:url(#SVGID_00000072259817998537324260000012089398085300165796_);}
	.st14{clip-path:url(#SVGID_00000036930580227230974490000001215141796753623742_);}
	.st15{clip-path:url(#SVGID_00000057851247795832903370000007969103927674604684_);}
	.st16{clip-path:url(#SVGID_00000030477627359473394120000009562882004173006779_);fill:#18BFFB;}
	.st17{fill:#2072F3;}
</style>
<g>
	<g>
		<g>
			<defs>
				<path id="SVGID_1_" d="M1767.4,679.3h-15.9V631c0-5.2-4.2-9.5-9.5-9.5c-5.2,0-9.5,4.2-9.5,9.5v48.3h-26.1V631
					c0-5.2-4.2-9.5-9.5-9.5l0,0c-5.2,0-9.5,4.2-9.5,9.5v48.3h-15.9c-2.6,0-4.6,2.1-4.6,4.6v10.8c0,2.6,2.1,4.6,4.6,4.6l0,0
					c3.1,0,5.5,2.5,5.5,5.5v39.4c0,18,11.1,33.5,26.9,39.8v269.6c0,18.1-14.7,32.9-32.9,32.9c-18.1,0-32.9-14.7-32.9-32.9V894.7
					c0-35.2-28.6-63.8-63.8-63.8h-16V612.1c0-41.8-33.9-75.6-75.6-75.6h-231.9c-41.8,0-75.6,33.9-75.6,75.6v604.5h-22.6
					c-10.1,0-18.2,8.2-18.2,18.2v39.8c0,10.1,8.1,18.2,18.2,18.2H1581c10.1,0,18.2-8.2,18.2-18.2v-39.8c0-10.1-8.1-18.2-18.2-18.2
					h-22.7V861.8h16c18.1,0,32.9,14.7,32.9,32.8v159.1c0,35.2,28.6,63.8,63.8,63.8c35.2,0,63.8-28.6,63.8-63.8V784.2
					c15.7-6.2,26.9-21.5,26.9-39.4v-39.9c0-3.1,2.5-5.5,5.5-5.5c2.6,0,4.6-2.1,4.6-4.6V684C1772,681.3,1769.9,679.3,1767.4,679.3z
					 M1521.4,753.5c0,16.5-13.4,29.9-29.9,29.9h-248.8c-16.5,0-29.9-13.4-29.9-29.9V622.4c0-16.5,13.4-29.9,29.9-29.9h248.8
					c16.5,0,29.9,13.4,29.9,29.9V753.5z"/>
			</defs>
			<clipPath id="SVGID_00000011752687973360854270000002224492057104568966_">
				<use xlink:href="#SVGID_1_"  style="overflow:visible;"/>
			</clipPath>
			
				<linearGradient id="SVGID_00000093888117694732920670000017377658615220141986_" gradientUnits="userSpaceOnUse" x1="1408.05" y1="1002.7283" x2="1408.05" y2="1802.7283" gradientTransform="matrix(1 0 0 1 0 -479.2283)">
				<stop  offset="0" style="stop-color:#18BFFB"/>
				<stop  offset="1" style="stop-color:#2072F3"/>
			</linearGradient>
			
				<path style="clip-path:url(#SVGID_00000011752687973360854270000002224492057104568966_);fill:url(#SVGID_00000093888117694732920670000017377658615220141986_);" d="
				M1646.4,523.5h-476.8c-89.3,0-161.6,72.3-161.6,161.6V1162c0,89.2,72.3,161.5,161.6,161.5h476.9c89.2,0,161.6-72.3,161.6-161.6
				V685.1C1808,595.8,1735.7,523.5,1646.4,523.5z"/>
		</g>
	</g>
</g>
<path d="M1416.6,674.3h-36.5c-1.8,0-3.1-1.7-2.6-3.5l16.3-55.4c0.8-2.8-2.7-4.7-4.6-2.5l-73.7,84.2c-1.5,1.7-0.3,4.5,2,4.5h36.5
	c1.8,0,3.1,1.7,2.6,3.5l-16.3,55.4c-0.8,2.8,2.7,4.7,4.6,2.5l73.7-84.2C1420.2,677.1,1418.9,674.3,1416.6,674.3z"/>
<g>
	<g>
		<path id="SVGID_00000129908436729869003260000003758496479131039128_" class="st1" d="M325.1,465.6l39,62
			c16.6,26.5,55.2,26.5,71.8,0l39-62c27.4-43.6,56.3-86.3,86.2-128.3c54.7-77,47.5-184.5-21.5-253.6c-77-77-202-77-279,0
			c-69,69.1-76.2,176.5-21.5,253.6C268.8,379.3,297.7,422,325.1,465.6z M321.1,144.3c43.6-43.6,114.3-43.6,157.8,0
			c43.6,43.6,43.6,114.3,0,157.8c-43.6,43.6-114.3,43.6-157.8,0C277.5,258.5,277.5,187.9,321.1,144.3z"/>
	</g>
	<g>
		<path id="SVGID_00000178163316356708942160000002130047460516090540_" class="st1" d="M370.7,616.4l2.5-2.1l298-114.4l-3.7-15
			c-5-20.4-23.3-34.7-44.3-34.7H506.8c-5.5,8.5-10.9,16.9-16.2,25.3l-39,62C440.4,555.4,421.1,566,400,566s-40.4-10.7-51.7-28.6
			l-39-62c-5.3-8.4-10.7-16.8-16.1-25.3H176.8c-21,0-39.3,14.3-44.3,34.7l-0.3,1.1l192,170.6C351.3,633.3,370.4,616.7,370.7,616.4z"
			/>
	</g>
	<g>
		<path id="SVGID_00000088834888828253068390000010388035722126956471_" class="st1" d="M392.6,646.7
			c-11.4,9.9-60.8,52.6-110.1,94.7c-14,11.9-26.8,22.8-38.4,32.6h325.6l-55.6-174L392.6,646.7z"/>
	</g>
	<g>
		<path id="SVGID_00000081620007808993277210000011779887281706299823_" class="st1" d="M295.8,681L122.2,526.8l-47,190.7
			c-7.1,28.7,14.7,56.5,44.3,56.5h66.8c0.4-0.3,0.8-0.7,1.3-1.1c19.7-16.4,45.6-38.4,77.1-65.3C275.3,698.7,285.8,689.7,295.8,681z"
			/>
	</g>
	<g>
		<path id="SVGID_00000107584066096857796050000013593532851661450380_" class="st1" d="M724.8,717.5l-44.7-181.2l-131.2,50.4
			L608.8,774h71.7C710.1,774,731.9,746.3,724.8,717.5z"/>
	</g>
	<g>
		<g>
			<path id="SVGID_00000023994160453788803330000018059636350961127333_" class="st1" d="M325.1,465.6l39,62
				c16.6,26.5,55.2,26.5,71.8,0l39-62c27.4-43.6,56.3-86.3,86.2-128.3c54.7-77,47.5-184.5-21.5-253.6c-77-77-202-77-279,0
				c-69,69.1-76.2,176.5-21.5,253.6C268.8,379.3,297.7,422,325.1,465.6z M321.1,144.3c43.6-43.6,114.3-43.6,157.8,0
				c43.6,43.6,43.6,114.3,0,157.8c-43.6,43.6-114.3,43.6-157.8,0C277.5,258.5,277.5,187.9,321.1,144.3z"/>
		</g>
	</g>
	<g>
		<g>
			<path id="SVGID_00000117675989894338543100000015679049349964977540_" class="st1" d="M325.1,465.6l39,62
				c16.6,26.5,55.2,26.5,71.8,0l39-62c27.4-43.6,56.3-86.3,86.2-128.3c54.7-77,47.5-184.5-21.5-253.6c-77-77-202-77-279,0
				c-69,69.1-76.2,176.5-21.5,253.6C268.8,379.3,297.7,422,325.1,465.6z M321.1,144.3c43.6-43.6,114.3-43.6,157.8,0
				c43.6,43.6,43.6,114.3,0,157.8c-43.6,43.6-114.3,43.6-157.8,0C277.5,258.5,277.5,187.9,321.1,144.3z"/>
		</g>
		<g>
			<path id="SVGID_00000183963818583665754720000016412802307875100294_" class="st1" d="M370.7,616.4l2.5-2.1l298-114.4l-3.7-15
				c-5-20.4-23.3-34.7-44.3-34.7H506.8c-5.5,8.5-10.9,16.9-16.2,25.3l-39,62C440.4,555.4,421.1,566,400,566s-40.4-10.7-51.7-28.6
				l-39-62c-5.3-8.4-10.7-16.8-16.1-25.3H176.8c-21,0-39.3,14.3-44.3,34.7l-0.3,1.1l192,170.6C351.3,633.3,370.4,616.7,370.7,616.4z
				"/>
		</g>
		<g>
			<defs>
				<path id="SVGID_00000039108048762376790210000011823439034536591497_" d="M325.1,465.6l39,62c16.6,26.5,55.2,26.5,71.8,0l39-62
					c27.4-43.6,56.3-86.3,86.2-128.3c54.7-77,47.5-184.5-21.5-253.6c-77-77-202-77-279,0c-69,69.1-76.2,176.5-21.5,253.6
					C268.8,379.3,297.7,422,325.1,465.6z M321.1,144.3c43.6-43.6,114.3-43.6,157.8,0c43.6,43.6,43.6,114.3,0,157.8
					c-43.6,43.6-114.3,43.6-157.8,0C277.5,258.5,277.5,187.9,321.1,144.3z"/>
			</defs>
			<use xlink:href="#SVGID_00000039108048762376790210000011823439034536591497_"  style="overflow:visible;fill:#18BFFB;"/>
			<clipPath id="SVGID_00000027589727372458922580000008299816493825880492_">
				<use xlink:href="#SVGID_00000039108048762376790210000011823439034536591497_"  style="overflow:visible;"/>
			</clipPath>
		</g>
	</g>
	<g>
		<g>
			<path id="SVGID_00000039840854222783303290000018213975069563598513_" class="st1" d="M325.1,465.6l39,62
				c16.6,26.5,55.2,26.5,71.8,0l39-62c27.4-43.6,56.3-86.3,86.2-128.3c54.7-77,47.5-184.5-21.5-253.6c-77-77-202-77-279,0
				c-69,69.1-76.2,176.5-21.5,253.6C268.8,379.3,297.7,422,325.1,465.6z M321.1,144.3c43.6-43.6,114.3-43.6,157.8,0
				c43.6,43.6,43.6,114.3,0,157.8c-43.6,43.6-114.3,43.6-157.8,0C277.5,258.5,277.5,187.9,321.1,144.3z"/>
		</g>
		<g>
			<path id="SVGID_00000064335451562333557350000005931566875266513797_" class="st1" d="M370.7,616.4l2.5-2.1l298-114.4l-3.7-15
				c-5-20.4-23.3-34.7-44.3-34.7H506.8c-5.5,8.5-10.9,16.9-16.2,25.3l-39,62C440.4,555.4,421.1,566,400,566s-40.4-10.7-51.7-28.6
				l-39-62c-5.3-8.4-10.7-16.8-16.1-25.3H176.8c-21,0-39.3,14.3-44.3,34.7l-0.3,1.1l192,170.6C351.3,633.3,370.4,616.7,370.7,616.4z
				"/>
		</g>
		<g>
			<path id="SVGID_00000034064912828768134950000016814756884378051460_" class="st1" d="M392.6,646.7
				c-11.4,9.9-60.8,52.6-110.1,94.7c-14,11.9-26.8,22.8-38.4,32.6h325.6l-55.6-174L392.6,646.7z"/>
		</g>
		<g>
			<defs>
				<path id="SVGID_00000127724609409759110560000009622034962559813038_" d="M325.1,465.6l39,62c16.6,26.5,55.2,26.5,71.8,0l39-62
					c27.4-43.6,56.3-86.3,86.2-128.3c54.7-77,47.5-184.5-21.5-253.6c-77-77-202-77-279,0c-69,69.1-76.2,176.5-21.5,253.6
					C268.8,379.3,297.7,422,325.1,465.6z M321.1,144.3c43.6-43.6,114.3-43.6,157.8,0c43.6,43.6,43.6,114.3,0,157.8
					c-43.6,43.6-114.3,43.6-157.8,0C277.5,258.5,277.5,187.9,321.1,144.3z"/>
			</defs>
			<use xlink:href="#SVGID_00000127724609409759110560000009622034962559813038_"  style="overflow:visible;fill:#18BFFB;"/>
			<clipPath id="SVGID_00000036948727562798533490000014048586357151180450_">
				<use xlink:href="#SVGID_00000127724609409759110560000009622034962559813038_"  style="overflow:visible;"/>
			</clipPath>
		</g>
		<g>
			<defs>
				<path id="SVGID_00000006684554058099733740000006947077930772453287_" d="M325.1,465.6l39,62c16.6,26.5,55.2,26.5,71.8,0l39-62
					c27.4-43.6,56.3-86.3,86.2-128.3c54.7-77,47.5-184.5-21.5-253.6c-77-77-202-77-279,0c-69,69.1-76.2,176.5-21.5,253.6
					C268.8,379.3,297.7,422,325.1,465.6z M321.1,144.3c43.6-43.6,114.3-43.6,157.8,0c43.6,43.6,43.6,114.3,0,157.8
					c-43.6,43.6-114.3,43.6-157.8,0C277.5,258.5,277.5,187.9,321.1,144.3z"/>
			</defs>
			<defs>
				<path id="SVGID_00000163074170140280055200000004645826967255091592_" d="M370.7,616.4l2.5-2.1l298-114.4l-3.7-15
					c-5-20.4-23.3-34.7-44.3-34.7H506.8c-5.5,8.5-10.9,16.9-16.2,25.3l-39,62C440.4,555.4,421.1,566,400,566s-40.4-10.7-51.7-28.6
					l-39-62c-5.3-8.4-10.7-16.8-16.1-25.3H176.8c-21,0-39.3,14.3-44.3,34.7l-0.3,1.1l192,170.6C351.3,633.3,370.4,616.7,370.7,616.4
					z"/>
			</defs>
			<use xlink:href="#SVGID_00000006684554058099733740000006947077930772453287_"  style="overflow:visible;fill:#18BFFB;"/>
			<use xlink:href="#SVGID_00000163074170140280055200000004645826967255091592_"  style="overflow:visible;fill:#18BFFB;"/>
			<clipPath id="SVGID_00000098919326118603656910000018056626154658792584_">
				<use xlink:href="#SVGID_00000006684554058099733740000006947077930772453287_"  style="overflow:visible;"/>
			</clipPath>
			
				<clipPath id="SVGID_00000055708225889534351200000008550167993223382703_" style="clip-path:url(#SVGID_00000098919326118603656910000018056626154658792584_);">
				<use xlink:href="#SVGID_00000163074170140280055200000004645826967255091592_"  style="overflow:visible;"/>
			</clipPath>
		</g>
	</g>
	<g>
		<g>
			<path id="SVGID_00000035510827565924662190000010785140646256978595_" class="st1" d="M325.1,465.6l39,62
				c16.6,26.5,55.2,26.5,71.8,0l39-62c27.4-43.6,56.3-86.3,86.2-128.3c54.7-77,47.5-184.5-21.5-253.6c-77-77-202-77-279,0
				c-69,69.1-76.2,176.5-21.5,253.6C268.8,379.3,297.7,422,325.1,465.6z M321.1,144.3c43.6-43.6,114.3-43.6,157.8,0
				c43.6,43.6,43.6,114.3,0,157.8c-43.6,43.6-114.3,43.6-157.8,0C277.5,258.5,277.5,187.9,321.1,144.3z"/>
		</g>
		<g>
			<path id="SVGID_00000067919806833457144020000001962499019494454189_" class="st1" d="M370.7,616.4l2.5-2.1l298-114.4l-3.7-15
				c-5-20.4-23.3-34.7-44.3-34.7H506.8c-5.5,8.5-10.9,16.9-16.2,25.3l-39,62C440.4,555.4,421.1,566,400,566s-40.4-10.7-51.7-28.6
				l-39-62c-5.3-8.4-10.7-16.8-16.1-25.3H176.8c-21,0-39.3,14.3-44.3,34.7l-0.3,1.1l192,170.6C351.3,633.3,370.4,616.7,370.7,616.4z
				"/>
		</g>
		<g>
			<path id="SVGID_00000078028053341575073520000002223770837851241919_" class="st1" d="M392.6,646.7
				c-11.4,9.9-60.8,52.6-110.1,94.7c-14,11.9-26.8,22.8-38.4,32.6h325.6l-55.6-174L392.6,646.7z"/>
		</g>
		<g>
			<path id="SVGID_00000109751577710661038020000006827922326598718138_" class="st1" d="M295.8,681L122.2,526.8l-47,190.7
				c-7.1,28.7,14.7,56.5,44.3,56.5h66.8c0.4-0.3,0.8-0.7,1.3-1.1c19.7-16.4,45.6-38.4,77.1-65.3C275.3,698.7,285.8,689.7,295.8,681z
				"/>
		</g>
		<g>
			<defs>
				<path id="SVGID_00000182516838866371508910000001710563953585151370_" d="M325.1,465.6l39,62c16.6,26.5,55.2,26.5,71.8,0l39-62
					c27.4-43.6,56.3-86.3,86.2-128.3c54.7-77,47.5-184.5-21.5-253.6c-77-77-202-77-279,0c-69,69.1-76.2,176.5-21.5,253.6
					C268.8,379.3,297.7,422,325.1,465.6z M321.1,144.3c43.6-43.6,114.3-43.6,157.8,0c43.6,43.6,43.6,114.3,0,157.8
					c-43.6,43.6-114.3,43.6-157.8,0C277.5,258.5,277.5,187.9,321.1,144.3z"/>
			</defs>
			<use xlink:href="#SVGID_00000182516838866371508910000001710563953585151370_"  style="overflow:visible;fill:#18BFFB;"/>
			<clipPath id="SVGID_00000074407495604215843050000016587449351794157753_">
				<use xlink:href="#SVGID_00000182516838866371508910000001710563953585151370_"  style="overflow:visible;"/>
			</clipPath>
		</g>
		<g>
			<defs>
				<path id="SVGID_00000059298461545777197440000011313735735265984689_" d="M325.1,465.6l39,62c16.6,26.5,55.2,26.5,71.8,0l39-62
					c27.4-43.6,56.3-86.3,86.2-128.3c54.7-77,47.5-184.5-21.5-253.6c-77-77-202-77-279,0c-69,69.1-76.2,176.5-21.5,253.6
					C268.8,379.3,297.7,422,325.1,465.6z M321.1,144.3c43.6-43.6,114.3-43.6,157.8,0c43.6,43.6,43.6,114.3,0,157.8
					c-43.6,43.6-114.3,43.6-157.8,0C277.5,258.5,277.5,187.9,321.1,144.3z"/>
			</defs>
			<defs>
				<path id="SVGID_00000101085209863266189680000014258828422559932580_" d="M370.7,616.4l2.5-2.1l298-114.4l-3.7-15
					c-5-20.4-23.3-34.7-44.3-34.7H506.8c-5.5,8.5-10.9,16.9-16.2,25.3l-39,62C440.4,555.4,421.1,566,400,566s-40.4-10.7-51.7-28.6
					l-39-62c-5.3-8.4-10.7-16.8-16.1-25.3H176.8c-21,0-39.3,14.3-44.3,34.7l-0.3,1.1l192,170.6C351.3,633.3,370.4,616.7,370.7,616.4
					z"/>
			</defs>
			<use xlink:href="#SVGID_00000059298461545777197440000011313735735265984689_"  style="overflow:visible;fill:#18BFFB;"/>
			<use xlink:href="#SVGID_00000101085209863266189680000014258828422559932580_"  style="overflow:visible;fill:#18BFFB;"/>
			<clipPath id="SVGID_00000173159430244390713670000015835383997378389908_">
				<use xlink:href="#SVGID_00000059298461545777197440000011313735735265984689_"  style="overflow:visible;"/>
			</clipPath>
			
				<clipPath id="SVGID_00000003824536389122246670000007514700635495141792_" style="clip-path:url(#SVGID_00000173159430244390713670000015835383997378389908_);">
				<use xlink:href="#SVGID_00000101085209863266189680000014258828422559932580_"  style="overflow:visible;"/>
			</clipPath>
		</g>
		<g>
			<defs>
				<path id="SVGID_00000093177957680778121140000014637480167900041111_" d="M325.1,465.6l39,62c16.6,26.5,55.2,26.5,71.8,0l39-62
					c27.4-43.6,56.3-86.3,86.2-128.3c54.7-77,47.5-184.5-21.5-253.6c-77-77-202-77-279,0c-69,69.1-76.2,176.5-21.5,253.6
					C268.8,379.3,297.7,422,325.1,465.6z M321.1,144.3c43.6-43.6,114.3-43.6,157.8,0c43.6,43.6,43.6,114.3,0,157.8
					c-43.6,43.6-114.3,43.6-157.8,0C277.5,258.5,277.5,187.9,321.1,144.3z"/>
			</defs>
			<defs>
				<path id="SVGID_00000118388569647950360550000013686047933384385924_" d="M370.7,616.4l2.5-2.1l298-114.4l-3.7-15
					c-5-20.4-23.3-34.7-44.3-34.7H506.8c-5.5,8.5-10.9,16.9-16.2,25.3l-39,62C440.4,555.4,421.1,566,400,566s-40.4-10.7-51.7-28.6
					l-39-62c-5.3-8.4-10.7-16.8-16.1-25.3H176.8c-21,0-39.3,14.3-44.3,34.7l-0.3,1.1l192,170.6C351.3,633.3,370.4,616.7,370.7,616.4
					z"/>
			</defs>
			<defs>
				<path id="SVGID_00000087387168036359427600000005311990003616313728_" d="M392.6,646.7c-11.4,9.9-60.8,52.6-110.1,94.7
					c-14,11.9-26.8,22.8-38.4,32.6h325.6l-55.6-174L392.6,646.7z"/>
			</defs>
			<use xlink:href="#SVGID_00000093177957680778121140000014637480167900041111_"  style="overflow:visible;fill:#18BFFB;"/>
			<use xlink:href="#SVGID_00000118388569647950360550000013686047933384385924_"  style="overflow:visible;fill:#18BFFB;"/>
			<use xlink:href="#SVGID_00000087387168036359427600000005311990003616313728_"  style="overflow:visible;fill:#18BFFB;"/>
			<clipPath id="SVGID_00000116237787246260600400000003570022773350259862_">
				<use xlink:href="#SVGID_00000093177957680778121140000014637480167900041111_"  style="overflow:visible;"/>
			</clipPath>
			
				<clipPath id="SVGID_00000029726946338134649070000001355202322157945741_" style="clip-path:url(#SVGID_00000116237787246260600400000003570022773350259862_);">
				<use xlink:href="#SVGID_00000118388569647950360550000013686047933384385924_"  style="overflow:visible;"/>
			</clipPath>
			
				<clipPath id="SVGID_00000100378134596961062860000016256594370297808806_" style="clip-path:url(#SVGID_00000029726946338134649070000001355202322157945741_);">
				<use xlink:href="#SVGID_00000087387168036359427600000005311990003616313728_"  style="overflow:visible;"/>
			</clipPath>
		</g>
	</g>
	<g>
		<g>
			<path id="SVGID_00000039827485305285587800000002190327753771472005_" class="st1" d="M325.1,465.6l39,62
				c16.6,26.5,55.2,26.5,71.8,0l39-62c27.4-43.6,56.3-86.3,86.2-128.3c54.7-77,47.5-184.5-21.5-253.6c-77-77-202-77-279,0
				c-69,69.1-76.2,176.5-21.5,253.6C268.8,379.3,297.7,422,325.1,465.6z M321.1,144.3c43.6-43.6,114.3-43.6,157.8,0
				c43.6,43.6,43.6,114.3,0,157.8c-43.6,43.6-114.3,43.6-157.8,0C277.5,258.5,277.5,187.9,321.1,144.3z"/>
		</g>
		<g>
			<path id="SVGID_00000139251526376361804380000008473045616658551436_" class="st1" d="M370.7,616.4l2.5-2.1l298-114.4l-3.7-15
				c-5-20.4-23.3-34.7-44.3-34.7H506.8c-5.5,8.5-10.9,16.9-16.2,25.3l-39,62C440.4,555.4,421.1,566,400,566s-40.4-10.7-51.7-28.6
				l-39-62c-5.3-8.4-10.7-16.8-16.1-25.3H176.8c-21,0-39.3,14.3-44.3,34.7l-0.3,1.1l192,170.6C351.3,633.3,370.4,616.7,370.7,616.4z
				"/>
		</g>
		<g>
			<path id="SVGID_00000161628527189882579710000002430555957424563340_" class="st1" d="M392.6,646.7
				c-11.4,9.9-60.8,52.6-110.1,94.7c-14,11.9-26.8,22.8-38.4,32.6h325.6l-55.6-174L392.6,646.7z"/>
		</g>
		<g>
			<path id="SVGID_00000065072430417645966440000003981046355816536730_" class="st1" d="M295.8,681L122.2,526.8l-47,190.7
				c-7.1,28.7,14.7,56.5,44.3,56.5h66.8c0.4-0.3,0.8-0.7,1.3-1.1c19.7-16.4,45.6-38.4,77.1-65.3C275.3,698.7,285.8,689.7,295.8,681z
				"/>
		</g>
		<g>
			<path id="SVGID_00000149351983412143030370000013545663000477582522_" class="st1" d="M724.8,717.5l-44.7-181.2l-131.2,50.4
				L608.8,774h71.7C710.1,774,731.9,746.3,724.8,717.5z"/>
		</g>
		<g>
			<defs>
				<path id="SVGID_00000160159498319760658100000007356794037438027691_" d="M325.1,465.6l39,62c16.6,26.5,55.2,26.5,71.8,0l39-62
					c27.4-43.6,56.3-86.3,86.2-128.3c54.7-77,47.5-184.5-21.5-253.6c-77-77-202-77-279,0c-69,69.1-76.2,176.5-21.5,253.6
					C268.8,379.3,297.7,422,325.1,465.6z M321.1,144.3c43.6-43.6,114.3-43.6,157.8,0c43.6,43.6,43.6,114.3,0,157.8
					c-43.6,43.6-114.3,43.6-157.8,0C277.5,258.5,277.5,187.9,321.1,144.3z"/>
			</defs>
			<use xlink:href="#SVGID_00000160159498319760658100000007356794037438027691_"  style="overflow:visible;fill:#18BFFB;"/>
			<clipPath id="SVGID_00000080919624032399367570000011889356457675222192_">
				<use xlink:href="#SVGID_00000160159498319760658100000007356794037438027691_"  style="overflow:visible;"/>
			</clipPath>
		</g>
		<g>
			<defs>
				<path id="SVGID_00000082353554988366512420000013672268685805129390_" d="M325.1,465.6l39,62c16.6,26.5,55.2,26.5,71.8,0l39-62
					c27.4-43.6,56.3-86.3,86.2-128.3c54.7-77,47.5-184.5-21.5-253.6c-77-77-202-77-279,0c-69,69.1-76.2,176.5-21.5,253.6
					C268.8,379.3,297.7,422,325.1,465.6z M321.1,144.3c43.6-43.6,114.3-43.6,157.8,0c43.6,43.6,43.6,114.3,0,157.8
					c-43.6,43.6-114.3,43.6-157.8,0C277.5,258.5,277.5,187.9,321.1,144.3z"/>
			</defs>
			<defs>
				<path id="SVGID_00000126286035921846002900000012778955743088661669_" d="M370.7,616.4l2.5-2.1l298-114.4l-3.7-15
					c-5-20.4-23.3-34.7-44.3-34.7H506.8c-5.5,8.5-10.9,16.9-16.2,25.3l-39,62C440.4,555.4,421.1,566,400,566s-40.4-10.7-51.7-28.6
					l-39-62c-5.3-8.4-10.7-16.8-16.1-25.3H176.8c-21,0-39.3,14.3-44.3,34.7l-0.3,1.1l192,170.6C351.3,633.3,370.4,616.7,370.7,616.4
					z"/>
			</defs>
			<use xlink:href="#SVGID_00000082353554988366512420000013672268685805129390_"  style="overflow:visible;fill:#18BFFB;"/>
			<use xlink:href="#SVGID_00000126286035921846002900000012778955743088661669_"  style="overflow:visible;fill:#18BFFB;"/>
			<clipPath id="SVGID_00000021836372919241092990000007866010991883709335_">
				<use xlink:href="#SVGID_00000082353554988366512420000013672268685805129390_"  style="overflow:visible;"/>
			</clipPath>
			
				<clipPath id="SVGID_00000015356743621023326720000004502136620752241322_" style="clip-path:url(#SVGID_00000021836372919241092990000007866010991883709335_);">
				<use xlink:href="#SVGID_00000126286035921846002900000012778955743088661669_"  style="overflow:visible;"/>
			</clipPath>
		</g>
		<g>
			<defs>
				<path id="SVGID_00000081625667961808882710000005599874827248339350_" d="M325.1,465.6l39,62c16.6,26.5,55.2,26.5,71.8,0l39-62
					c27.4-43.6,56.3-86.3,86.2-128.3c54.7-77,47.5-184.5-21.5-253.6c-77-77-202-77-279,0c-69,69.1-76.2,176.5-21.5,253.6
					C268.8,379.3,297.7,422,325.1,465.6z M321.1,144.3c43.6-43.6,114.3-43.6,157.8,0c43.6,43.6,43.6,114.3,0,157.8
					c-43.6,43.6-114.3,43.6-157.8,0C277.5,258.5,277.5,187.9,321.1,144.3z"/>
			</defs>
			<defs>
				<path id="SVGID_00000014592049223130853480000018391856779594285443_" d="M370.7,616.4l2.5-2.1l298-114.4l-3.7-15
					c-5-20.4-23.3-34.7-44.3-34.7H506.8c-5.5,8.5-10.9,16.9-16.2,25.3l-39,62C440.4,555.4,421.1,566,400,566s-40.4-10.7-51.7-28.6
					l-39-62c-5.3-8.4-10.7-16.8-16.1-25.3H176.8c-21,0-39.3,14.3-44.3,34.7l-0.3,1.1l192,170.6C351.3,633.3,370.4,616.7,370.7,616.4
					z"/>
			</defs>
			<defs>
				<path id="SVGID_00000075859263404102323060000012416060372370492288_" d="M392.6,646.7c-11.4,9.9-60.8,52.6-110.1,94.7
					c-14,11.9-26.8,22.8-38.4,32.6h325.6l-55.6-174L392.6,646.7z"/>
			</defs>
			<use xlink:href="#SVGID_00000081625667961808882710000005599874827248339350_"  style="overflow:visible;fill:#18BFFB;"/>
			<use xlink:href="#SVGID_00000014592049223130853480000018391856779594285443_"  style="overflow:visible;fill:#18BFFB;"/>
			<use xlink:href="#SVGID_00000075859263404102323060000012416060372370492288_"  style="overflow:visible;fill:#18BFFB;"/>
			<clipPath id="SVGID_00000131341227156563548330000009955725563638252689_">
				<use xlink:href="#SVGID_00000081625667961808882710000005599874827248339350_"  style="overflow:visible;"/>
			</clipPath>
			
				<clipPath id="SVGID_00000126297400489180553880000012695589451319105215_" style="clip-path:url(#SVGID_00000131341227156563548330000009955725563638252689_);">
				<use xlink:href="#SVGID_00000014592049223130853480000018391856779594285443_"  style="overflow:visible;"/>
			</clipPath>
			
				<clipPath id="SVGID_00000150782865928475705030000011856922953480871830_" style="clip-path:url(#SVGID_00000126297400489180553880000012695589451319105215_);">
				<use xlink:href="#SVGID_00000075859263404102323060000012416060372370492288_"  style="overflow:visible;"/>
			</clipPath>
		</g>
		<g>
			<defs>
				<path id="SVGID_00000099641628593284403840000011214991431654134919_" d="M325.1,465.6l39,62c16.6,26.5,55.2,26.5,71.8,0l39-62
					c27.4-43.6,56.3-86.3,86.2-128.3c54.7-77,47.5-184.5-21.5-253.6c-77-77-202-77-279,0c-69,69.1-76.2,176.5-21.5,253.6
					C268.8,379.3,297.7,422,325.1,465.6z M321.1,144.3c43.6-43.6,114.3-43.6,157.8,0c43.6,43.6,43.6,114.3,0,157.8
					c-43.6,43.6-114.3,43.6-157.8,0C277.5,258.5,277.5,187.9,321.1,144.3z"/>
			</defs>
			<defs>
				<path id="SVGID_00000029018003539692510540000017922985266551982241_" d="M370.7,616.4l2.5-2.1l298-114.4l-3.7-15
					c-5-20.4-23.3-34.7-44.3-34.7H506.8c-5.5,8.5-10.9,16.9-16.2,25.3l-39,62C440.4,555.4,421.1,566,400,566s-40.4-10.7-51.7-28.6
					l-39-62c-5.3-8.4-10.7-16.8-16.1-25.3H176.8c-21,0-39.3,14.3-44.3,34.7l-0.3,1.1l192,170.6C351.3,633.3,370.4,616.7,370.7,616.4
					z"/>
			</defs>
			<defs>
				<path id="SVGID_00000094584720244576124510000013775481521989207993_" d="M392.6,646.7c-11.4,9.9-60.8,52.6-110.1,94.7
					c-14,11.9-26.8,22.8-38.4,32.6h325.6l-55.6-174L392.6,646.7z"/>
			</defs>
			<defs>
				<path id="SVGID_00000077317633490845603410000005958259166092673413_" d="M295.8,681L122.2,526.8l-47,190.7
					c-7.1,28.7,14.7,56.5,44.3,56.5h66.8c0.4-0.3,0.8-0.7,1.3-1.1c19.7-16.4,45.6-38.4,77.1-65.3C275.3,698.7,285.8,689.7,295.8,681
					z"/>
			</defs>
			<use xlink:href="#SVGID_00000099641628593284403840000011214991431654134919_"  style="overflow:visible;fill:#18BFFB;"/>
			<use xlink:href="#SVGID_00000029018003539692510540000017922985266551982241_"  style="overflow:visible;fill:#18BFFB;"/>
			<use xlink:href="#SVGID_00000094584720244576124510000013775481521989207993_"  style="overflow:visible;fill:#18BFFB;"/>
			<use xlink:href="#SVGID_00000077317633490845603410000005958259166092673413_"  style="overflow:visible;fill:#18BFFB;"/>
			<clipPath id="SVGID_00000162340293589187737160000012170215303150712730_">
				<use xlink:href="#SVGID_00000099641628593284403840000011214991431654134919_"  style="overflow:visible;"/>
			</clipPath>
			
				<clipPath id="SVGID_00000023269372966506507940000014685805308364718506_" style="clip-path:url(#SVGID_00000162340293589187737160000012170215303150712730_);">
				<use xlink:href="#SVGID_00000029018003539692510540000017922985266551982241_"  style="overflow:visible;"/>
			</clipPath>
			
				<clipPath id="SVGID_00000137095236858925542490000016529425953930247042_" style="clip-path:url(#SVGID_00000023269372966506507940000014685805308364718506_);">
				<use xlink:href="#SVGID_00000094584720244576124510000013775481521989207993_"  style="overflow:visible;"/>
			</clipPath>
			
				<clipPath id="SVGID_00000111899465316136690360000013050211208466451604_" style="clip-path:url(#SVGID_00000137095236858925542490000016529425953930247042_);">
				<use xlink:href="#SVGID_00000077317633490845603410000005958259166092673413_"  style="overflow:visible;"/>
			</clipPath>
		</g>
		<g>
			<defs>
				<path id="SVGID_00000155134068416317590630000009226215825937501344_" d="M325.1,465.6l39,62c16.6,26.5,55.2,26.5,71.8,0l39-62
					c27.4-43.6,56.3-86.3,86.2-128.3c54.7-77,47.5-184.5-21.5-253.6c-77-77-202-77-279,0c-69,69.1-76.2,176.5-21.5,253.6
					C268.8,379.3,297.7,422,325.1,465.6z M321.1,144.3c43.6-43.6,114.3-43.6,157.8,0c43.6,43.6,43.6,114.3,0,157.8
					c-43.6,43.6-114.3,43.6-157.8,0C277.5,258.5,277.5,187.9,321.1,144.3z"/>
			</defs>
			<defs>
				<path id="SVGID_00000023256612912956927790000018406807062922343610_" d="M370.7,616.4l2.5-2.1l298-114.4l-3.7-15
					c-5-20.4-23.3-34.7-44.3-34.7H506.8c-5.5,8.5-10.9,16.9-16.2,25.3l-39,62C440.4,555.4,421.1,566,400,566s-40.4-10.7-51.7-28.6
					l-39-62c-5.3-8.4-10.7-16.8-16.1-25.3H176.8c-21,0-39.3,14.3-44.3,34.7l-0.3,1.1l192,170.6C351.3,633.3,370.4,616.7,370.7,616.4
					z"/>
			</defs>
			<defs>
				<path id="SVGID_00000157995973867356167520000013046798968097034408_" d="M392.6,646.7c-11.4,9.9-60.8,52.6-110.1,94.7
					c-14,11.9-26.8,22.8-38.4,32.6h325.6l-55.6-174L392.6,646.7z"/>
			</defs>
			<defs>
				<path id="SVGID_00000119835593609959302380000012978809468645821865_" d="M295.8,681L122.2,526.8l-47,190.7
					c-7.1,28.7,14.7,56.5,44.3,56.5h66.8c0.4-0.3,0.8-0.7,1.3-1.1c19.7-16.4,45.6-38.4,77.1-65.3C275.3,698.7,285.8,689.7,295.8,681
					z"/>
			</defs>
			<defs>
				<path id="SVGID_00000106830452800766373290000006788131606109058187_" d="M724.8,717.5l-44.7-181.2l-131.2,50.4L608.8,774h71.7
					C710.1,774,731.9,746.3,724.8,717.5z"/>
			</defs>
			<use xlink:href="#SVGID_00000155134068416317590630000009226215825937501344_"  style="overflow:visible;fill:#18BFFB;"/>
			<use xlink:href="#SVGID_00000023256612912956927790000018406807062922343610_"  style="overflow:visible;fill:#18BFFB;"/>
			<use xlink:href="#SVGID_00000157995973867356167520000013046798968097034408_"  style="overflow:visible;fill:#18BFFB;"/>
			<use xlink:href="#SVGID_00000119835593609959302380000012978809468645821865_"  style="overflow:visible;fill:#18BFFB;"/>
			<use xlink:href="#SVGID_00000106830452800766373290000006788131606109058187_"  style="overflow:visible;fill:#18BFFB;"/>
			<clipPath id="SVGID_00000060743864194571260760000008822388597739428798_">
				<use xlink:href="#SVGID_00000155134068416317590630000009226215825937501344_"  style="overflow:visible;"/>
			</clipPath>
			
				<clipPath id="SVGID_00000158016708502143459550000016493132421824526523_" style="clip-path:url(#SVGID_00000060743864194571260760000008822388597739428798_);">
				<use xlink:href="#SVGID_00000023256612912956927790000018406807062922343610_"  style="overflow:visible;"/>
			</clipPath>
			
				<clipPath id="SVGID_00000127011691719414266240000008666774007461843590_" style="clip-path:url(#SVGID_00000158016708502143459550000016493132421824526523_);">
				<use xlink:href="#SVGID_00000157995973867356167520000013046798968097034408_"  style="overflow:visible;"/>
			</clipPath>
			
				<clipPath id="SVGID_00000139272364453278212800000006793064327138483376_" style="clip-path:url(#SVGID_00000127011691719414266240000008666774007461843590_);">
				<use xlink:href="#SVGID_00000119835593609959302380000012978809468645821865_"  style="overflow:visible;"/>
			</clipPath>
			
				<clipPath id="SVGID_00000003093663078990621000000000521910420535066546_" style="clip-path:url(#SVGID_00000139272364453278212800000006793064327138483376_);">
				<use xlink:href="#SVGID_00000106830452800766373290000006788131606109058187_"  style="overflow:visible;"/>
			</clipPath>
			<path style="clip-path:url(#SVGID_00000003093663078990621000000000521910420535066546_);fill:#18BFFB;" d="M638.4,0H161.6
				C72.3,0,0,72.3,0,161.6v476.9C0,727.7,72.3,800,161.6,800h476.9c89.2,0,161.6-72.3,161.6-161.6V161.6C800,72.3,727.7,0,638.4,0z"
				/>
		</g>
	</g>
</g>
<rect x="-224.4" y="216.9" class="st1" width="152.9" height="152.9"/>
<rect x="-224.4" y="430.2" class="st17" width="152.9" height="152.9"/>
</svg>
