<?xml version="1.0" encoding="utf-8"?>
<!-- Generator: Adobe Illustrator 28.2.0, SVG Export Plug-In . SVG Version: 6.00 Build 0)  -->
<svg version="1.1" id="Layer_1" xmlns="http://www.w3.org/2000/svg" xmlns:xlink="http://www.w3.org/1999/xlink" x="0px" y="0px"
	 viewBox="0 0 1080 600" style="enable-background:new 0 0 1080 600;" xml:space="preserve">
<style type="text/css">
	.st0{fill:url(#SVGID_1_);}
	.st1{fill:#4582C3;}
	.st2{fill:url(#SVGID_00000081643556025284388800000012813511348132700351_);}
	.st3{fill:url(#SVGID_00000044883262106165293120000006567563869970440366_);}
	.st4{fill:url(#SVGID_00000040549139438341669150000000088830177807128228_);}
	.st5{fill:url(#SVGID_00000036237735613640528880000008240206547799052991_);}
</style>
<linearGradient id="SVGID_1_" gradientUnits="userSpaceOnUse" x1="540" y1="-353.7633" x2="540" y2="358.8267">
	<stop  offset="0" style="stop-color:#40BCED"/>
	<stop  offset="0.4514" style="stop-color:#40BAEC"/>
	<stop  offset="0.614" style="stop-color:#40B3E7"/>
	<stop  offset="0.7295" style="stop-color:#41A8DE"/>
	<stop  offset="0.822" style="stop-color:#4297D2"/>
	<stop  offset="0.9212" style="stop-color:#4570B6"/>
</linearGradient>
<path class="st0" d="M893.8,212c-1.6-1.5-3.9-2.2-6.9-2.2c-2.9,0-5.5,0.2-7.8,0.8c-0.6-2.7-1.4-4.6-2.3-5.7
	c-0.9-1.1-2.8-1.6-5.5-1.6c-8.6,0-16.7,2.7-24.4,8.1c-7.7,5.4-13.8,12.6-18.4,21.5c-4.4,8.5-6.7,17.5-6.9,27.1
	c-3.2,2.7-6.7,5.1-10.4,7.1c-7.2,3.9-13.5,5.9-19.1,5.9c-8.7,0-14.6-2.9-17.7-8.6c14.7-3.6,25.1-8.5,31.3-14.7
	c6.2-6.2,9.2-13.5,9.2-22.1c0-7.3-2.2-13.2-6.5-17.5c-4.4-4.3-10.2-6.4-17.3-6.4c-8.1,0-15.3,2.2-21.8,6.5
	c-6.4,4.4-11.4,10.2-15,17.6c-0.5,1-1,2.1-1.4,3.1c-0.8-1.5-1.6-2.9-2.7-4.3c-4.1-5.4-8.9-9.6-14.7-12.7
	c-5.7-3.1-13.3-6.6-22.8-10.4c-7.8-3.1-13.9-5.8-18.3-8c-4.4-2.2-8-5-10.9-8.4c-2.9-3.3-4.4-7.4-4.4-12.1c0-7.1,2.8-12.6,8.5-16.5
	s13.8-5.9,24.6-5.9c7.6,0,13.9,1.4,19,4.1c5.1,2.7,7.7,6.7,7.7,12c0,1-0.2,3.3-0.6,7.1c-0.4,2-0.6,4.2-0.6,6.5
	c0,2.7,1.1,5.1,3.3,7.1c2.2,2,4.9,3,8.1,3c4.6,0,8.1-2,10.4-6c2.4-4,3.6-9.9,3.6-17.7c0-8-2.3-14.7-6.8-20.2
	c-4.5-5.5-10.6-9.5-18.2-12.2c-7.6-2.7-15.9-4-25-4c-12.2,0-22.8,1.9-31.8,5.8c-9,3.9-15.9,9.3-20.7,16.2c-4.8,7-7.2,14.9-7.2,23.9
	c0,8.6,2.2,15.8,6.4,21.6c4.3,5.8,9.5,10.4,15.5,13.7c6,3.3,13.8,6.9,23.4,10.6c7.5,3,13.3,5.5,17.4,7.6c4.1,2,7.5,4.6,10.3,7.7
	c2.8,3,4.1,6.7,4.1,10.9c0,6.8-3,12.2-9,16c-6,3.8-14.2,5.7-24.8,5.7c-10.2,0-18.1-1.4-23.8-4.1c-5.7-2.7-8.5-6.9-8.5-12.5
	c0-1.4,0.1-2.7,0.3-3.9c0.2-1.2,0.3-2.1,0.3-2.6c0.4-1.9,0.5-4,0.5-6.5c0-2.7-1-5-3.2-6.7c-2.1-1.7-4.8-2.6-8.2-2.6
	c-4.6,0-8.1,1.8-10.5,5.4c-2.4,3.6-3.5,8.8-3.5,15.7c0,2,0.1,4,0.4,5.8c-2.7,2.9-5.1,5.2-7.1,6.9c-3.6,3-7.3,4.5-11.2,4.5
	c-3.6,0-6.7-1-9.2-3.1c-2.5-2.1-4.1-4.8-4.6-8.1c8.5-4.5,14.4-9.6,17.9-15.3c3.5-5.7,5.2-12,5.2-18.9c0-6.2-1.9-11.4-5.7-15.7
	c-3.8-4.2-8.8-6.3-15-6.3c-6.7,0-13.9,3.5-21.7,10.5c-7.7,7-14.6,18.3-20.5,33.9c0-6.9,0.2-13.5,0.6-20
	c16.6-18.1,28.5-33.8,35.8-47.3c7.4-13.5,11-26.5,11-39.1c0-7.8-1.8-14.2-5.3-19.1c-3.6-4.9-8.2-7.4-13.9-7.4
	c-10.7,0-19.9,7.1-27.5,21.2c-7.6,14.1-13.4,31.6-17.3,52.4c-3.9,20.8-5.9,40.8-5.9,59.9c0,2.5,0,4.8,0,7
	c-4.6,4.9-9.2,8.7-13.9,11.5c-5.9,3.4-11.4,5.1-16.5,5.1c-12.6,0-18.9-7.2-18.9-21.7c0-5.2,0.8-10,2.2-14.4c1.5-4.4,3.5-7.8,6-10.4
	c2.5-2.6,5.2-3.8,8-3.8c1.5,0,2.6,0.4,3.5,1.3c0.8,0.9,1.2,2.1,1.2,3.7c0,1.6-0.3,3.4-0.9,5.2c-0.1,0.5-0.3,1.3-0.6,2.4
	c-0.2,1.1-0.4,2.1-0.4,3c0,2,0.7,3.5,2.2,4.7c1.4,1.1,3.3,1.7,5.7,1.7c3.7,0,6.7-1.8,9.1-5.4c2.3-3.6,3.5-8,3.5-13.3
	c0-6.3-1.9-11.5-5.7-15.6c-3.8-4.1-9.1-6.1-16-6.1c-7,0-13.6,2-20,6.2c-6.3,4.1-11.5,10-15.5,17.5c-4,7.6-6,16.4-6,26.5
	c0,2.2,0.1,4.3,0.4,6.4c-2.4,2.6-4.4,4.7-6.2,6.2c-3.4,3-6.2,4.6-8.6,4.6c-1.5,0-2.7-0.5-3.6-1.7c-0.9-1.1-1.4-2.6-1.4-4.5
	c0-5.6,1.4-15.6,4.3-29.9c1.9-9.8,2.8-16,2.8-18.7c0-4.4-3-6.5-9.2-6.5c-2.9,0-5.6,0.2-8.2,0.8c-0.6-2.7-1.4-4.6-2.3-5.7
	c-0.9-1-2.8-1.6-5.5-1.6c-8.6,0-16.7,2.7-24.4,8.1c-7.6,5.4-13.8,12.6-18.4,21.5c-4.6,8.9-6.9,18.3-6.9,28.3c0,0.2,0,0.4,0,0.5
	c-2.1,2-3.9,3.7-5.6,5c-3.9,2.9-8.3,4.4-13.5,4.4c-3.2,0-5.9-1.1-7.8-3.3c-2-2.2-3.4-5.8-4.3-10.9c14.1-19.2,25.2-38.5,33.4-58.1
	c8.2-19.5,12.3-36.7,12.3-51.5c0-10.3-1.7-18.3-5.1-23.8c-3.4-5.5-8.1-8.3-14.1-8.3c-10.6,0-19.7,7-27.3,20.9
	c-4.8,8.7-8.8,18.5-12.1,29.3c-1.5-9.8-6.9-17.9-16.2-24.3c-11.1-7.6-27.9-11.4-50.4-11.4c-14.7,0-29.1,1.7-43.1,5
	c-14.1,3.4-26.3,8-36.8,14c-5,2.9-8.1,5.4-9.4,7.7c-1.3,2.2-2,4.9-2,8c0,2.4,0.6,4.3,1.8,5.9c1.2,1.6,2.9,2.3,5.1,2.3
	c2.7,0,6.1-1.2,10.1-3.5c8.7-5.2,19.3-9.6,31.8-13c12.5-3.4,25.3-5.2,38.6-5.2c14.7,0,25.6,2.1,32.7,6.3c7.1,4.2,10.6,9.9,10.6,17.1
	c0,5.7-2,10.7-6.2,15c-4.1,4.3-9.7,7.6-16.9,10c-7.2,2.4-15.2,3.7-24,3.9c-4,0.1-6.7,1.3-8.2,3.5c-1.5,2.2-2.2,5.2-2.2,8.8
	c0,2.5,0.5,4.3,1.5,5.4c1,1.1,2.7,1.8,5.2,1.9c11,0.4,18.8,2.4,23.4,6.2c4.7,3.7,7,8.3,7,13.8c0,7.8-4.1,14.3-12.2,19.3
	c-8.1,5-20.9,7.6-38.4,7.6c-3.7,0-8.6-0.2-14.6-0.8c1.4-15,3.7-30.9,6.9-47.5c3.2-16.6,6.5-29.8,9.7-39.5c0.8-2.2,1.1-4.2,1.1-6
	c0-4.2-3.8-6.3-11.4-6.3c-4.2,0-7.6,0.6-10.3,1.9c-2.6,1.2-4.3,3.4-5.2,6.5c-5,17.8-9.1,36.2-12.3,55.4c-3.2,19.1-5.4,37.4-6.5,54.8
	c-0.2,3.9,0.5,6.8,2.2,8.8c1.7,2,4.8,3,9.2,3c4.5,0,8.1-0.9,11-2.6c2.9-1.8,4.4-4.4,4.5-7.8c3.7,0.4,8.7,0.6,14.9,0.6
	c16.7,0,30.9-2,42.8-5.9c11.8-3.9,20.8-9.5,27-16.7c6.2-7.2,9.2-15.7,9.2-25.6c0-6.2-2-11.7-6-16.5c-4-4.8-9.8-8.2-17.5-10.4
	c14.3-3.4,25.2-8.9,32.7-16.5c1.5-1.5,2.9-3.2,4.1-4.8c-3,16.4-4.4,31.2-4.4,44.3c0,15.8,2.6,28.7,7.9,38.7
	c5.3,9.9,13.4,14.9,24.4,14.9c8,0,15.1-2.1,21.4-6.4c2.2-1.5,4.4-3.1,6.5-4.9c0.6,1,1.3,2,2,2.9c4.6,5.6,10.8,8.4,18.5,8.4
	c9.8,0,18-5.2,24.5-15.7c1.7,4.8,4.3,8.7,7.8,11.5c3.4,2.8,7.2,4.2,11.3,4.2c5.4,0,10.9-2.2,16.6-6.6c3-2.2,5.9-4.8,8.7-7.6
	c1,1.3,2,2.6,3.2,3.8c6.8,6.9,16.3,10.4,28.5,10.4c7.6,0,15.5-2,23.6-5.9c4.4-2.1,8.5-4.7,12.2-7.8c0.7,4.1,1.7,7.2,3.2,9.4
	c1.8,2.8,4.6,4.2,8.5,4.2c3.8,0,6.7-1,8.5-3.1c1.8-2.1,3.4-6,4.8-11.9c2-8.1,4.7-16,8.2-23.6c3.5-7.7,7.2-13.9,11.3-18.8
	c4.1-4.8,7.8-7.3,11.1-7.3c1.4,0,2.5,0.6,3.5,1.7c0.9,1.1,1.4,2.8,1.4,5c0,3.9-1.2,7.1-3.6,9.8s-6.3,5.2-11.8,7.6
	c-5,2.1-7.5,5.6-7.5,10.5c0,9.1,2.9,16.4,8.8,21.8c5.9,5.5,13.6,8.2,23.2,8.2c7.8,0,14.6-2.1,20.4-6.2c3.5-2.5,6.9-5.5,10.3-9
	c2,2.4,4.5,4.5,7.4,6.3c9.9,6.3,23.2,9.4,39.8,9.4c18.7,0,33.6-3.9,44.7-11.9c5-3.6,8.9-7.8,11.7-12.8c1.8,5.2,4.6,9.7,8.4,13.4
	c7.2,7.1,17.3,10.7,30.4,10.7c9.6,0,18.6-2.4,27-7.1c3.1-1.7,5.9-3.5,8.5-5.4c0.8,1.5,1.7,2.8,2.7,4.1c4.4,5.6,10.2,8.4,17.3,8.4
	c9.5,0,16.1-5.4,20-16.1l-0.2,3c0,4.6,1,7.9,3.1,10c2.1,2.1,5.2,3.1,9.4,3.1c4.4,0,7.5-1,9.4-3.1c1.9-2.1,2.9-5.5,2.9-10.2
	c0-8.6,0.4-16.3,1.1-23.2c0.8-6.9,1.8-14.2,3.2-21.8c1.2-7.1,1.9-12.1,1.9-14.9C896.3,215.7,895.5,213.5,893.8,212z M577.4,169.2
	c2.6-10.9,5.2-19.5,7.9-25.9c2.8-6.4,5.2-9.6,7.5-9.6c1.6,0,2.9,1.1,3.7,3.2s1.3,5.2,1.3,9.1c0,8.7-2.5,18.4-7.6,29.1
	c-5,10.7-11.4,20.6-19.1,29.7C572.8,192,574.9,180.1,577.4,169.2z M357.8,187.6c2.7-15.3,5.9-28.1,9.5-38.5
	c3.6-10.3,6.8-15.5,9.7-15.5c3.5,0,5.2,4.7,5.2,14.2c0,12.1-2.6,25.4-7.8,40c-5.2,14.6-12.3,29.2-21.1,43.8
	C353.6,217.6,355,202.9,357.8,187.6z M431.1,255c-1.1,5.4-2.9,9.7-5.4,12.9c-2.5,3.2-5.1,4.9-7.8,4.9c-2.7,0-4.9-0.9-6.4-2.8
	s-2.3-4.7-2.3-8.6c0-7,1.3-13.6,3.9-19.8c2.6-6.2,6.1-11.2,10.5-15s9.2-5.8,14.5-5.9L431.1,255z M771.4,249.4
	c0-7.6,1.6-14.1,4.8-19.4c3.2-5.3,7.1-8,11.7-8c2.2,0,4,0.7,5.3,2.2c1.3,1.4,2,3.3,2,5.7c0,4.6-2.1,8.6-6.3,12.1
	c-4.2,3.5-10,6.1-17.3,7.8L771.4,249.4L771.4,249.4z M869.9,239.5c-2.2,12.4-4.8,21.1-7.6,26c-2.9,4.8-6,7.3-9.5,7.3
	c-2.4,0-4.3-1-5.7-2.9c-1.4-1.9-2.1-4.8-2.1-8.5c0-7,1.3-13.6,3.9-19.8c2.6-6.2,6.1-11.2,10.5-15c4.3-3.8,9.1-5.8,14.2-5.9
	L869.9,239.5z"/>
<g>
	<g>
		<path class="st1" d="M244.2,444.9v2.8h-12.8v19.5h15.4v2.8h-18.5v-46.8h18.5v2.8h-15.4v18.9L244.2,444.9L244.2,444.9z"/>
		<path class="st1" d="M271.9,470v-46.8h3.1v44h14.7v2.8H271.9z"/>
		<path class="st1" d="M330.3,444.9v2.8h-12.8v19.5h15.4v2.8h-18.5v-46.8h18.5v2.8h-15.4v18.9L330.3,444.9L330.3,444.9z"/>
		<path class="st1" d="M378,434.6v3.9H375v-4.1c0-5-1.9-8.8-7.1-8.8s-7.1,3.8-7.1,8.8v24.4c0,5,1.9,8.8,7.1,8.8s7.1-3.8,7.1-8.8
			v-5.5h2.9v5.4c0,6.8-2.9,11.8-10.1,11.8s-10.1-5.1-10.1-11.8v-24c0-6.8,2.9-11.8,10.1-11.8C375,422.8,378,427.9,378,434.6z"/>
		<path class="st1" d="M411.2,470v-44h-9.6v-2.8h22.1v2.8h-9.5v44H411.2z"/>
		<path class="st1" d="M457.6,423.2c7.2,0,10,4,10,10.6v4.1c0,5.5-2.1,8.6-6.8,9.7c4.8,1.1,6.8,4.5,6.8,9.6v7.3
			c0,1.9,0.1,4.1,1.1,5.6h-3.2c-0.8-1.4-1-3.1-1-5.6V457c0-6.2-3.4-8-8.8-8h-4.9V470h-3.1v-46.8L457.6,423.2L457.6,423.2z
			 M455.9,446.3c5.5,0,8.7-1.5,8.7-7.8V434c0-5-1.9-8-7-8h-6.6v20.3L455.9,446.3L455.9,446.3z"/>
		<path class="st1" d="M493.5,434.6c0-6.8,3.1-11.8,10.2-11.8c7.2,0,10.4,5,10.4,11.8v24c0,6.8-3.1,11.8-10.4,11.8
			c-7.1,0-10.2-5-10.2-11.8V434.6z M496.6,458.8c0,5.1,2,8.8,7.2,8.8c5.2,0,7.3-3.8,7.3-8.8v-24.4c0-5.1-2.1-8.8-7.3-8.8
			c-5.1,0-7.2,3.8-7.2,8.8V458.8z"/>
		<path class="st1" d="M555,470h-3.1l-9.9-41.4V470h-2.7v-46.8h4.4l9.8,41.4l9.8-41.4h4.4V470h-2.9v-41.6L555,470z"/>
		<path class="st1" d="M593,434.6c0-6.8,3.1-11.8,10.2-11.8c7.2,0,10.4,5,10.4,11.8v24c0,6.8-3.1,11.8-10.4,11.8
			c-7.1,0-10.2-5-10.2-11.8V434.6z M596,458.8c0,5.1,2,8.8,7.2,8.8c5.2,0,7.3-3.8,7.3-8.8v-24.4c0-5.1-2.1-8.8-7.3-8.8
			c-5.2,0-7.2,3.8-7.2,8.8V458.8z"/>
		<path class="st1" d="M648.6,423.2c7,0,9.6,3.5,9.6,10v2.7c0,5.1-1.4,8.2-6.2,9.2c5.1,1,7,4.8,7,10v4.1c0,6.8-3.1,10.8-10.2,10.8
			h-10v-46.8L648.6,423.2L648.6,423.2z M647,443.9c5.5,0,8-1.5,8-7.4v-3c0-4.9-1.5-7.4-6.6-7.4h-6.7v17.9L647,443.9L647,443.9z
			 M648.8,467.2c5.2,0,7.2-2.9,7.2-8.1v-4.2c0-6.1-2.7-8.2-8.3-8.2h-5.8v20.5H648.8z"/>
		<path class="st1" d="M687.2,423.2V470h-3.1v-46.8H687.2z"/>
		<path class="st1" d="M712.6,470v-46.8h3.1v44h14.7v2.8H712.6z"/>
		<path class="st1" d="M758.2,423.2V470h-3.1v-46.8H758.2z"/>
		<path class="st1" d="M791.7,470v-44h-9.6v-2.8h22.2v2.8h-9.5v44H791.7z"/>
		<path class="st1" d="M838,452l-10.5-28.8h3.2l9,24.6l9-24.6h3L841.1,452v18H838V452z"/>
	</g>
</g>
<g>
	<g>
		
			<linearGradient id="SVGID_00000051341854723901211520000002890847782843569056_" gradientUnits="userSpaceOnUse" x1="275.1169" y1="166.3194" x2="278.0537" y2="645.2172" gradientTransform="matrix(1 0 0 -1 0 602)">
			<stop  offset="0" style="stop-color:#40BCED"/>
			<stop  offset="9.227649e-02" style="stop-color:#40B7E9"/>
			<stop  offset="0.2024" style="stop-color:#41A8DF"/>
			<stop  offset="0.2926" style="stop-color:#4297D2"/>
		</linearGradient>
		<path style="fill:url(#SVGID_00000051341854723901211520000002890847782843569056_);" d="M514.8,342.4c0.8,1.4-0.8,3.3-6.2,6.1
			c-0.7,0.3-1.4,0.7-2.2,1.1c-0.8,0.4-1.7,0.7-2.6,1c-1.9,0.7-4,1.4-6.5,2.2c-0.6,0.2-1.2,0.4-1.9,0.6c-0.6,0.2-1.3,0.4-2,0.5
			c-1.4,0.4-2.8,0.7-4.3,1.1c-1.5,0.4-3.1,0.7-4.8,1.1c-1.7,0.4-3.4,0.6-5.3,1c-1.9,0.3-3.8,0.6-5.8,1c-1,0.2-2,0.3-3.1,0.4
			s-2.1,0.3-3.2,0.4c-2.2,0.3-4.4,0.5-6.8,0.8c-2.3,0.2-4.7,0.4-7.2,0.6c-5,0.4-10.3,0.5-16,0.7c-2.8,0.1-5.7,0-8.7,0
			c-1.5,0-3,0-4.5,0c-1.5,0-3.1-0.1-4.6-0.1c-25.1-0.6-55-4.2-89.4-10.2c-34.2-5.9-69.6-13.4-105-17c-17.7-1.9-35.3-2.5-52.3-1.8
			c-8.5,0.3-16.8,1.1-24.8,2.2c-2,0.3-4,0.6-6,0.9l-1.5,0.2l-1.5,0.3c-1,0.2-1.9,0.4-2.9,0.5c-3.9,0.7-7.6,1.6-11.4,2.4
			c-14.8,3.5-28.1,8.1-39.3,12.9c-11.3,4.8-20.5,9.9-27.8,14.4c-0.9,0.6-1.8,1.1-2.7,1.7c-0.8,0.5-1.6,1.1-2.4,1.6
			c-1.6,1.1-3,2.1-4.4,3c-2.6,2-4.8,3.6-6.6,5c-3.4,2.9-5.2,4.4-5.2,4.4s1.4-1.7,4.1-4.9c1.4-1.6,3.2-3.5,5.3-5.7
			c1.1-1.1,2.4-2.2,3.7-3.5c0.7-0.6,1.3-1.3,2-1.9c0.8-0.6,1.5-1.3,2.3-2c6.3-5.4,14.6-11.5,25.4-17.7c10.8-6.1,23.9-12.3,39.4-17.4
			c3.9-1.2,7.9-2.5,12-3.6c1-0.3,2.1-0.6,3.1-0.9l1.6-0.4l1.6-0.4c2.1-0.5,4.3-1,6.5-1.5c8.8-1.9,18-3.5,27.5-4.5
			c19-2.2,39-2.7,58.6-1.8c19.6,0.9,39,3,57.5,5.6c18.6,2.6,36.4,5.7,53.2,8.6c33.4,5.8,60.7,9.6,83.1,11.2c1.4,0.1,2.8,0.2,4.1,0.3
			c1.4,0.1,2.7,0.1,4,0.2c2.6,0.1,5.2,0.3,7.7,0.4c5,0.1,9.7,0.4,14,0.4c2.2,0,4.3,0.1,6.4,0.1c2,0,4-0.1,5.9-0.1c1,0,1.9,0,2.8,0
			c0.9,0,1.8,0,2.7-0.1c1.8-0.1,3.5-0.1,5.1-0.2c1.6-0.1,3.3-0.1,4.8-0.2c1.5-0.1,3-0.2,4.4-0.3c1.4-0.1,2.8-0.1,4.1-0.2
			c0.6,0,1.3,0,1.9-0.1c0.6,0,1.2-0.1,1.8-0.1c2.4-0.2,4.5-0.3,6.4-0.4c1,0,1.9,0,2.8-0.1c0.9,0,1.7-0.1,2.4-0.1
			C510.7,340.3,514,341,514.8,342.4z"/>
	</g>
	<g>
		
			<linearGradient id="SVGID_00000140008489666309851620000012698065183889537201_" gradientUnits="userSpaceOnUse" x1="181.5136" y1="246.4271" x2="932.8669" y2="246.4271" gradientTransform="matrix(1 0 0 -1 0 602)">
			<stop  offset="0" style="stop-color:#719F40"/>
			<stop  offset="1" style="stop-color:#8DC63F"/>
		</linearGradient>
		<path style="fill:url(#SVGID_00000140008489666309851620000012698065183889537201_);" d="M932.8,305.5l-20.5,101.1
			c-0.3,1.4-1.7,2.4-3.1,2.1l-75.8-43.3c-1.4-0.3-2.4-1.7-2.1-3.1l2.6-12.9c-6.8-0.9-14.9-2-24.5-3.4c-9.3-1.4-20.1-3-32.4-4.7
			c-12.3-1.7-26.3-3.5-42-4.9c-7.8-0.8-16.1-1.3-24.9-1.8c-8.7-0.5-17.9-0.7-27.5-0.6c-19.2,0.2-40.2,1.7-62,6.2
			c-2.7,0.5-5.4,1.2-8.1,1.8c-2.7,0.7-5.4,1.4-8.1,2c-5.4,1.4-10.8,3.1-16.2,4.9c-10.9,3.6-21.8,7.8-33.2,12.3
			c-11.3,4.4-23,9-35.5,13.3c-12.4,4.3-25.2,8-38.1,11.2c-25.9,6.4-52.4,10.7-78.2,13.1c-12.9,1.2-25.5,1.9-37.9,2.2
			c-3.1,0-6.1,0.2-9.2,0.2h-9c-6-0.1-11.9-0.2-17.6-0.5c-11.5-0.5-22.5-1.2-33-2.4c-1.3-0.1-2.6-0.3-3.9-0.4
			c-1.3-0.1-2.6-0.3-3.8-0.4c-2.5-0.3-5-0.6-7.5-0.9c-2.5-0.4-4.9-0.7-7.3-1c-1.2-0.2-2.4-0.4-3.5-0.5c-1.2-0.2-2.3-0.4-3.5-0.6
			c-18.4-3-34.1-6.6-46.8-10.1c-12.7-3.5-22.3-6.8-28.9-9c-3.3-1.2-5.7-2.1-7.4-2.8c-1.5-0.5-2.3-0.9-2.5-0.9
			c0.4,0.1,4.1,1.1,10.6,2.8c7,1.7,17.1,4.2,30.2,6.6c13,2.5,29,4.8,47.3,6.5c1.1,0.1,2.3,0.2,3.4,0.3c1.2,0.1,2.3,0.2,3.5,0.3
			c2.4,0.2,4.7,0.4,7.2,0.5c2.4,0.1,4.9,0.3,7.4,0.4c1.2,0,2.5,0.1,3.7,0.2c1.3,0,2.5,0.1,3.8,0.1c10.2,0.4,20.9,0.5,31.9,0.3
			c5.5-0.1,11.1-0.3,16.8-0.5c2.8-0.2,5.7-0.3,8.6-0.5c2.9-0.1,5.8-0.4,8.7-0.6c11.6-0.9,23.5-2.2,35.5-3.9
			c23.9-3.5,48.1-8.6,71.3-15.4c11.7-3.4,23-7.2,34-11.5c11-4.2,22-8.9,33.2-13.7c11.2-4.7,22.8-9.5,35-13.7
			c6.1-2.1,12.3-4.1,18.8-5.9c3.2-0.9,6.4-1.7,9.6-2.5c3.3-0.7,6.5-1.5,9.7-2.1c13-2.6,25.6-4.3,37.7-5.4c12.1-1,23.6-1.4,34.5-1.4
			c10.9,0,21.1,0.5,30.7,1.2c9.6,0.7,18.5,1.6,26.9,2.7c16.7,2.1,31.2,4.7,43.7,7.2c12.5,2.6,23.2,5.1,32.2,7.5
			c7.3,1.9,13.6,3.7,19,5.4l4.7-23.3c0.3-1.5,1.7-2.4,3.1-2.1l86.4-8.8C932.2,302.7,933.1,304.1,932.8,305.5z"/>
	</g>
	<g>
		
			<linearGradient id="SVGID_00000085929126177889691100000013637828692829717144_" gradientUnits="userSpaceOnUse" x1="645.894" y1="424.5138" x2="645.894" y2="169.8528" gradientTransform="matrix(1 0 0 -1 0 602)">
			<stop  offset="0.5845" style="stop-color:#4297D2"/>
			<stop  offset="0.6405" style="stop-color:#429CD6"/>
			<stop  offset="0.7103" style="stop-color:#41ACE1"/>
			<stop  offset="0.7625" style="stop-color:#40BCED"/>
		</linearGradient>
		<path style="fill:url(#SVGID_00000085929126177889691100000013637828692829717144_);" d="M765.9,389.5c-1.2,0-2.3-0.2-3.4-0.6
			c-1.1-0.4-2.2-1-3.4-1.8c-2.4-1.5-5-3.7-9.4-6.3c-1.1-0.6-2.3-1.3-3.7-2c-1.3-0.7-2.8-1.3-4.5-1.9c-3.3-1.3-7.4-2.5-12.6-3.7
			c-5.1-1.1-11.4-2.2-18.9-3.1c-7.4-0.9-15.5-1.7-24.7-2.1c-9.1-0.4-18.7-0.5-28.4-0.2c-9.8,0.3-19.7,1-29.6,2.1
			c-19.8,2.2-39,6.3-55.5,11.1c-8.2,2.4-15.7,5-22.3,7.6c-3.3,1.3-6.3,2.6-9.2,3.8c-2.8,1.3-5.4,2.4-7.7,3.5
			c-1.2,0.6-2.2,1.1-3.3,1.6c-1,0.5-2,1-2.8,1.5c-1.8,0.9-3.3,1.7-4.5,2.4c-2.4,1.3-3.7,2.1-3.7,2.1s0.9-0.9,2.7-2.7
			c0.9-0.9,2-1.9,3.3-3.1c0.7-0.6,1.4-1.3,2.2-2c0.8-0.7,1.7-1.4,2.6-2.1c1.8-1.5,3.9-3.1,6.2-4.9c2.4-1.7,4.9-3.5,7.8-5.4
			c5.7-3.7,12.6-7.7,20.4-11.6c15.7-7.7,35.7-15,57.8-19.7c11-2.4,22.5-4.1,34-5.1c11.5-1,22.9-1.3,33.8-0.8s20.7,1.5,29.5,3
			c8.7,1.4,16.7,3.2,23.7,5.5c7,2.3,13,5.1,17.7,8.1c2.3,1.5,4.3,3.1,5.9,4.6c1.6,1.5,2.9,3.1,3.9,4.6c2,3,3,5.7,3.2,8
			c0.2,2.3-0.2,4.2-1,5.6c-0.8,1.4-1.8,2.4-2.9,3C768.2,389.3,767.1,389.5,765.9,389.5z"/>
	</g>
	<g>
		
			<linearGradient id="SVGID_00000137833049401552732910000000789090064195038628_" gradientUnits="userSpaceOnUse" x1="1095.9933" y1="239.3396" x2="954.021" y2="239.3396" gradientTransform="matrix(1 0 0 -1 0 602)">
			<stop  offset="0" style="stop-color:#719F40"/>
			<stop  offset="1" style="stop-color:#8DC63F"/>
		</linearGradient>
		<path style="fill:url(#SVGID_00000137833049401552732910000000789090064195038628_);" d="M1061,363.9c-0.6,3-3.6,4.9-6.6,4.3
			l-64.2-13.7l-6,29.2l63.6,13.6c3,0.6,4.9,3.6,4.3,6.6c-0.6,3-3.6,4.9-6.6,4.3l-63.6-13.5l-2.8,13.5c-1.9,9.2-10.2,15.3-18.7,13.5
			l-39.5-8.1c-1.3-0.3-2.1-1.6-1.8-3l21.5-105.1c0.3-1.4,1.5-2.3,2.8-2l39.5,8.1c8.4,1.7,13.7,10.6,11.8,19.8l-2.5,12.3l64.3,13.7
			C1059.7,358,1061.6,360.9,1061,363.9z"/>
	</g>
</g>
</svg>
