<?xml version="1.0" encoding="utf-8"?>
<!-- Generator: Adobe Illustrator 28.2.0, SVG Export Plug-In . SVG Version: 6.00 Build 0)  -->
<svg version="1.1" id="Layer_1" xmlns="http://www.w3.org/2000/svg" xmlns:xlink="http://www.w3.org/1999/xlink" x="0px" y="0px"
	 viewBox="0 0 729 300" style="enable-background:new 0 0 729 300;" xml:space="preserve">
<style type="text/css">
	.st0{fill:url(#SVGID_1_);}
	.st1{fill:#4582C3;}
</style>
<linearGradient id="SVGID_1_" gradientUnits="userSpaceOnUse" x1="362.116" y1="747.1809" x2="362.116" y2="34.5909" gradientTransform="matrix(1 0 0 -1 0 302)">
	<stop  offset="0" style="stop-color:#40BCED"/>
	<stop  offset="0.4514" style="stop-color:#40BAEC"/>
	<stop  offset="0.614" style="stop-color:#40B3E7"/>
	<stop  offset="0.7295" style="stop-color:#41A8DE"/>
	<stop  offset="0.822" style="stop-color:#4297D2"/>
	<stop  offset="0.9212" style="stop-color:#4570B6"/>
</linearGradient>
<path class="st0" d="M715.6,120.6c-1.6-1.5-3.9-2.2-6.9-2.2c-2.9,0-5.5,0.2-7.8,0.8c-0.6-2.7-1.4-4.6-2.3-5.7
	c-0.9-1.1-2.8-1.6-5.5-1.6c-8.6,0-16.7,2.7-24.4,8.1c-7.7,5.4-13.8,12.6-18.4,21.5c-4.4,8.5-6.7,17.5-6.9,27.1
	c-3.2,2.7-6.7,5.1-10.4,7.1c-7.2,3.9-13.5,5.9-19.1,5.9c-8.7,0-14.6-2.9-17.7-8.6c14.7-3.6,25.1-8.5,31.3-14.7s9.2-13.5,9.2-22.1
	c0-7.3-2.2-13.2-6.5-17.5c-4.4-4.3-10.2-6.4-17.3-6.4c-8.1,0-15.3,2.2-21.8,6.5c-6.4,4.4-11.4,10.2-15,17.6c-0.5,1-1,2.1-1.4,3.1
	c-0.8-1.5-1.6-2.9-2.7-4.3c-4.1-5.4-8.9-9.6-14.7-12.7c-5.7-3.1-13.3-6.6-22.8-10.4c-7.8-3.1-13.9-5.8-18.3-8c-4.4-2.2-8-5-10.9-8.4
	c-2.9-3.3-4.4-7.4-4.4-12.1c0-7.1,2.8-12.6,8.5-16.5c5.7-3.9,13.8-5.9,24.6-5.9c7.6,0,13.9,1.4,19,4.1c5.1,2.7,7.7,6.7,7.7,12
	c0,1-0.2,3.3-0.6,7.1c-0.4,2-0.6,4.2-0.6,6.5c0,2.7,1.1,5.1,3.3,7.1s4.9,3,8.1,3c4.6,0,8.1-2,10.4-6c2.4-4,3.6-9.9,3.6-17.7
	c0-8-2.3-14.7-6.8-20.2s-10.6-9.5-18.2-12.2c-7.6-2.7-15.9-4-25-4c-12.2,0-22.8,1.9-31.8,5.8c-9,3.9-15.9,9.3-20.7,16.2
	c-4.8,7-7.2,14.9-7.2,23.9c0,8.6,2.2,15.8,6.4,21.6c4.3,5.8,9.5,10.4,15.5,13.7s13.8,6.9,23.4,10.6c7.5,3,13.3,5.5,17.4,7.6
	c4.1,2,7.5,4.6,10.3,7.7c2.8,3,4.1,6.7,4.1,10.9c0,6.8-3,12.2-9,16s-14.2,5.7-24.8,5.7c-10.2,0-18.1-1.4-23.8-4.1s-8.5-6.9-8.5-12.5
	c0-1.4,0.1-2.7,0.3-3.9s0.3-2.1,0.3-2.6c0.4-1.9,0.5-4,0.5-6.5c0-2.7-1-5-3.2-6.7c-2.1-1.7-4.8-2.6-8.2-2.6c-4.6,0-8.1,1.8-10.5,5.4
	c-2.4,3.6-3.5,8.8-3.5,15.7c0,2,0.1,4,0.4,5.8c-2.7,2.9-5.1,5.2-7.1,6.9c-3.6,3-7.3,4.5-11.2,4.5c-3.6,0-6.7-1-9.2-3.1
	s-4.1-4.8-4.6-8.1c8.5-4.5,14.4-9.6,17.9-15.3s5.2-12,5.2-18.9c0-6.2-1.9-11.4-5.7-15.7c-3.8-4.2-8.8-6.3-15-6.3
	c-6.7,0-13.9,3.5-21.7,10.5c-7.7,7-14.6,18.3-20.5,33.9c0-6.9,0.2-13.5,0.6-20c16.6-18.1,28.5-33.8,35.8-47.3
	c7.4-13.5,11-26.5,11-39.1c0-7.8-1.8-14.2-5.3-19.1c-3.6-4.9-8.2-7.4-13.9-7.4c-10.7,0-19.9,7.1-27.5,21.2s-13.4,31.6-17.3,52.4
	c-3.9,20.8-5.9,40.8-5.9,59.9c0,2.5,0,4.8,0,7c-4.6,4.9-9.2,8.7-13.9,11.5c-5.9,3.4-11.4,5.1-16.5,5.1c-12.6,0-18.9-7.2-18.9-21.7
	c0-5.2,0.8-10,2.2-14.4c1.5-4.4,3.5-7.8,6-10.4c2.5-2.6,5.2-3.8,8-3.8c1.5,0,2.6,0.4,3.5,1.3c0.8,0.9,1.2,2.1,1.2,3.7
	c0,1.6-0.3,3.4-0.9,5.2c-0.1,0.5-0.3,1.3-0.6,2.4c-0.2,1.1-0.4,2.1-0.4,3c0,2,0.7,3.5,2.2,4.7c1.4,1.1,3.3,1.7,5.7,1.7
	c3.7,0,6.7-1.8,9.1-5.4c2.3-3.6,3.5-8,3.5-13.3c0-6.3-1.9-11.5-5.7-15.6s-9.1-6.1-16-6.1c-7,0-13.6,2-20,6.2
	c-6.3,4.1-11.5,10-15.5,17.5c-4,7.6-6,16.4-6,26.5c0,2.2,0.1,4.3,0.4,6.4c-2.4,2.6-4.4,4.7-6.2,6.2c-3.4,3-6.2,4.6-8.6,4.6
	c-1.5,0-2.7-0.5-3.6-1.7c-0.9-1.1-1.4-2.6-1.4-4.5c0-5.6,1.4-15.6,4.3-29.9c1.9-9.8,2.8-16,2.8-18.7c0-4.4-3-6.5-9.2-6.5
	c-2.9,0-5.6,0.2-8.2,0.8c-0.6-2.7-1.4-4.6-2.3-5.7c-0.9-1-2.8-1.6-5.5-1.6c-8.6,0-16.7,2.7-24.4,8.1c-7.6,5.4-13.8,12.6-18.4,21.5
	s-6.9,18.3-6.9,28.3c0,0.2,0,0.4,0,0.5c-2.1,2-3.9,3.7-5.6,5c-3.9,2.9-8.3,4.4-13.5,4.4c-3.2,0-5.9-1.1-7.8-3.3
	c-2-2.2-3.4-5.8-4.3-10.9c14.1-19.2,25.2-38.5,33.4-58.1c8.2-19.5,12.3-36.7,12.3-51.5c0-10.3-1.7-18.3-5.1-23.8S209,24,203,24
	c-10.6,0-19.7,7-27.3,20.9c-4.8,8.7-8.8,18.5-12.1,29.3c-1.5-9.8-6.9-17.9-16.2-24.3c-11.1-7.6-27.9-11.4-50.4-11.4
	c-14.7,0-29.1,1.7-43.1,5c-14.1,3.4-26.3,8-36.8,14c-5,2.9-8.1,5.4-9.4,7.7c-1.3,2.2-2,4.9-2,8c0,2.4,0.6,4.3,1.8,5.9
	c1.2,1.6,2.9,2.3,5.1,2.3c2.7,0,6.1-1.2,10.1-3.5c8.7-5.2,19.3-9.6,31.8-13s25.3-5.2,38.6-5.2c14.7,0,25.6,2.1,32.7,6.3
	c7.1,4.2,10.6,9.9,10.6,17.1c0,5.7-2,10.7-6.2,15c-4.1,4.3-9.7,7.6-16.9,10c-7.2,2.4-15.2,3.7-24,3.9c-4,0.1-6.7,1.3-8.2,3.5
	s-2.2,5.2-2.2,8.8c0,2.5,0.5,4.3,1.5,5.4c1,1.1,2.7,1.8,5.2,1.9c11,0.4,18.8,2.4,23.4,6.2c4.7,3.7,7,8.3,7,13.8
	c0,7.8-4.1,14.3-12.2,19.3s-20.9,7.6-38.4,7.6c-3.7,0-8.6-0.2-14.6-0.8c1.4-15,3.7-30.9,6.9-47.5s6.5-29.8,9.7-39.5
	c0.8-2.2,1.1-4.2,1.1-6c0-4.2-3.8-6.3-11.4-6.3c-4.2,0-7.6,0.6-10.3,1.9c-2.6,1.2-4.3,3.4-5.2,6.5c-5,17.8-9.1,36.2-12.3,55.4
	c-3.2,19.1-5.4,37.4-6.5,54.8c-0.2,3.9,0.5,6.8,2.2,8.8s4.8,3,9.2,3c4.5,0,8.1-0.9,11-2.6c2.9-1.8,4.4-4.4,4.5-7.8
	c3.7,0.4,8.7,0.6,14.9,0.6c16.7,0,30.9-2,42.8-5.9c11.8-3.9,20.8-9.5,27-16.7s9.2-15.7,9.2-25.6c0-6.2-2-11.7-6-16.5
	s-9.8-8.2-17.5-10.4c14.3-3.4,25.2-8.9,32.7-16.5c1.5-1.5,2.9-3.2,4.1-4.8c-3,16.4-4.4,31.2-4.4,44.3c0,15.8,2.6,28.7,7.9,38.7
	c5.3,9.9,13.4,14.9,24.4,14.9c8,0,15.1-2.1,21.4-6.4c2.2-1.5,4.4-3.1,6.5-4.9c0.6,1,1.3,2,2,2.9c4.6,5.6,10.8,8.4,18.5,8.4
	c9.8,0,18-5.2,24.5-15.7c1.7,4.8,4.3,8.7,7.8,11.5c3.4,2.8,7.2,4.2,11.3,4.2c5.4,0,10.9-2.2,16.6-6.6c3-2.2,5.9-4.8,8.7-7.6
	c1,1.3,2,2.6,3.2,3.8c6.8,6.9,16.3,10.4,28.5,10.4c7.6,0,15.5-2,23.6-5.9c4.4-2.1,8.5-4.7,12.2-7.8c0.7,4.1,1.7,7.2,3.2,9.4
	c1.8,2.8,4.6,4.2,8.5,4.2c3.8,0,6.7-1,8.5-3.1s3.4-6,4.8-11.9c2-8.1,4.7-16,8.2-23.6c3.5-7.7,7.2-13.9,11.3-18.8
	c4.1-4.8,7.8-7.3,11.1-7.3c1.4,0,2.5,0.6,3.5,1.7c0.9,1.1,1.4,2.8,1.4,5c0,3.9-1.2,7.1-3.6,9.8s-6.3,5.2-11.8,7.6
	c-5,2.1-7.5,5.6-7.5,10.5c0,9.1,2.9,16.4,8.8,21.8c5.9,5.5,13.6,8.2,23.2,8.2c7.8,0,14.6-2.1,20.4-6.2c3.5-2.5,6.9-5.5,10.3-9
	c2,2.4,4.5,4.5,7.4,6.3c9.9,6.3,23.2,9.4,39.8,9.4c18.7,0,33.6-3.9,44.7-11.9c5-3.6,8.9-7.8,11.7-12.8c1.8,5.2,4.6,9.7,8.4,13.4
	c7.2,7.1,17.3,10.7,30.4,10.7c9.6,0,18.6-2.4,27-7.1c3.1-1.7,5.9-3.5,8.5-5.4c0.8,1.5,1.7,2.8,2.7,4.1c4.4,5.6,10.2,8.4,17.3,8.4
	c9.5,0,16.1-5.4,20-16.1l-0.2,3c0,4.6,1,7.9,3.1,10s5.2,3.1,9.4,3.1c4.4,0,7.5-1,9.4-3.1s2.9-5.5,2.9-10.2c0-8.6,0.4-16.3,1.1-23.2
	c0.8-6.9,1.8-14.2,3.2-21.8c1.2-7.1,1.9-12.1,1.9-14.9C718.1,124.3,717.3,122.1,715.6,120.6z M399.2,77.8
	c2.6-10.9,5.2-19.5,7.9-25.9c2.8-6.4,5.2-9.6,7.5-9.6c1.6,0,2.9,1.1,3.7,3.2s1.3,5.2,1.3,9.1c0,8.7-2.5,18.4-7.6,29.1
	c-5,10.7-11.4,20.6-19.1,29.7C394.6,100.6,396.7,88.7,399.2,77.8z M179.6,96.2c2.7-15.3,5.9-28.1,9.5-38.5
	c3.6-10.3,6.8-15.5,9.7-15.5c3.5,0,5.2,4.7,5.2,14.2c0,12.1-2.6,25.4-7.8,40c-5.2,14.6-12.3,29.2-21.1,43.8
	C175.4,126.2,176.8,111.5,179.6,96.2z M252.9,163.6c-1.1,5.4-2.9,9.7-5.4,12.9c-2.5,3.2-5.1,4.9-7.8,4.9c-2.7,0-4.9-0.9-6.4-2.8
	s-2.3-4.7-2.3-8.6c0-7,1.3-13.6,3.9-19.8s6.1-11.2,10.5-15s9.2-5.8,14.5-5.9L252.9,163.6z M593.2,158c0-7.6,1.6-14.1,4.8-19.4
	c3.2-5.3,7.1-8,11.7-8c2.2,0,4,0.7,5.3,2.2c1.3,1.4,2,3.3,2,5.7c0,4.6-2.1,8.6-6.3,12.1s-10,6.1-17.3,7.8L593.2,158L593.2,158z
	 M691.7,148.1c-2.2,12.4-4.8,21.1-7.6,26c-2.9,4.8-6,7.3-9.5,7.3c-2.4,0-4.3-1-5.7-2.9s-2.1-4.8-2.1-8.5c0-7,1.3-13.6,3.9-19.8
	c2.6-6.2,6.1-11.2,10.5-15c4.3-3.8,9.1-5.8,14.2-5.9L691.7,148.1z"/>
<g>
	<g>
		<path class="st1" d="M66,249.5v2.8H53.2v19.5h15.4v2.8H50.1v-46.8h18.5v2.8H53.2v18.9L66,249.5L66,249.5z"/>
		<path class="st1" d="M93.7,274.6v-46.8h3.1v44h14.7v2.8H93.7z"/>
		<path class="st1" d="M152.1,249.5v2.8h-12.8v19.5h15.4v2.8h-18.5v-46.8h18.5v2.8h-15.4v18.9L152.1,249.5L152.1,249.5z"/>
		<path class="st1" d="M199.8,239.2v3.9h-3V239c0-5-1.9-8.8-7.1-8.8s-7.1,3.8-7.1,8.8v24.4c0,5,1.9,8.8,7.1,8.8s7.1-3.8,7.1-8.8
			v-5.5h2.9v5.4c0,6.8-2.9,11.8-10.1,11.8s-10.1-5.1-10.1-11.8v-24c0-6.8,2.9-11.8,10.1-11.8C196.8,227.4,199.8,232.5,199.8,239.2z"
			/>
		<path class="st1" d="M233,274.6v-44h-9.6v-2.8h22.1v2.8H236v44H233z"/>
		<path class="st1" d="M279.4,227.8c7.2,0,10,4,10,10.6v4.1c0,5.5-2.1,8.6-6.8,9.7c4.8,1.1,6.8,4.5,6.8,9.6v7.3
			c0,1.9,0.1,4.1,1.1,5.6h-3.2c-0.8-1.4-1-3.1-1-5.6v-7.5c0-6.2-3.4-8-8.8-8h-4.9v21h-3.1v-46.8H279.4L279.4,227.8z M277.7,250.9
			c5.5,0,8.7-1.5,8.7-7.8v-4.5c0-5-1.9-8-7-8h-6.6v20.3H277.7L277.7,250.9z"/>
		<path class="st1" d="M315.3,239.2c0-6.8,3.1-11.8,10.2-11.8c7.2,0,10.4,5,10.4,11.8v24c0,6.8-3.1,11.8-10.4,11.8
			c-7.1,0-10.2-5-10.2-11.8L315.3,239.2L315.3,239.2z M318.4,263.4c0,5.1,2,8.8,7.2,8.8s7.3-3.8,7.3-8.8V239c0-5.1-2.1-8.8-7.3-8.8
			c-5.1,0-7.2,3.8-7.2,8.8V263.4z"/>
		<path class="st1" d="M376.8,274.6h-3.1l-9.9-41.4v41.4h-2.7v-46.8h4.4l9.8,41.4l9.8-41.4h4.4v46.8h-2.9V233L376.8,274.6z"/>
		<path class="st1" d="M414.8,239.2c0-6.8,3.1-11.8,10.2-11.8c7.2,0,10.4,5,10.4,11.8v24c0,6.8-3.1,11.8-10.4,11.8
			c-7.1,0-10.2-5-10.2-11.8V239.2z M417.8,263.4c0,5.1,2,8.8,7.2,8.8s7.3-3.8,7.3-8.8V239c0-5.1-2.1-8.8-7.3-8.8s-7.2,3.8-7.2,8.8
			V263.4z"/>
		<path class="st1" d="M470.4,227.8c7,0,9.6,3.5,9.6,10v2.7c0,5.1-1.4,8.2-6.2,9.2c5.1,1,7,4.8,7,10v4.1c0,6.8-3.1,10.8-10.2,10.8
			h-10v-46.8L470.4,227.8L470.4,227.8z M468.8,248.5c5.5,0,8-1.5,8-7.4v-3c0-4.9-1.5-7.4-6.6-7.4h-6.7v17.9L468.8,248.5L468.8,248.5
			z M470.6,271.8c5.2,0,7.2-2.9,7.2-8.1v-4.2c0-6.1-2.7-8.2-8.3-8.2h-5.8v20.5L470.6,271.8L470.6,271.8z"/>
		<path class="st1" d="M509,227.8v46.8h-3.1v-46.8H509z"/>
		<path class="st1" d="M534.4,274.6v-46.8h3.1v44h14.7v2.8H534.4z"/>
		<path class="st1" d="M580,227.8v46.8h-3.1v-46.8H580z"/>
		<path class="st1" d="M613.5,274.6v-44h-9.6v-2.8h22.2v2.8h-9.5v44H613.5z"/>
		<path class="st1" d="M659.8,256.6l-10.5-28.8h3.2l9,24.6l9-24.6h3l-10.6,28.8v18h-3.1V256.6z"/>
	</g>
</g>
</svg>
