<?xml version="1.0" encoding="utf-8"?>
<!-- Generator: Adobe Illustrator 28.2.0, SVG Export Plug-In . SVG Version: 6.00 Build 0)  -->
<svg version="1.1" id="Layer_1" xmlns="http://www.w3.org/2000/svg" xmlns:xlink="http://www.w3.org/1999/xlink" x="0px" y="0px"
	 viewBox="0 0 1080 600" style="enable-background:new 0 0 1080 600;" xml:space="preserve">
<style type="text/css">
	.st0{fill:url(#SVGID_1_);}
	.st1{fill:url(#SVGID_00000162337009633457595990000017005498096520721813_);}
	.st2{fill:url(#SVGID_00000111164504288116877630000003332555286532189082_);}
	.st3{fill:#4582C3;}
	.st4{fill:url(#SVGID_00000046311021724808082320000000682910866306549181_);}
	.st5{fill:url(#SVGID_00000163771074661352918880000013049636149659884691_);}
	.st6{fill:url(#SVGID_00000024683622515401387530000000371472583251707323_);}
	.st7{fill:url(#SVGID_00000114041093964547896060000016383146283222709660_);}
</style>
<g>
	<g>
		<linearGradient id="SVGID_1_" gradientUnits="userSpaceOnUse" x1="75.3888" y1="226.5271" x2="233.7248" y2="226.5271">
			<stop  offset="0" style="stop-color:#40BCED"/>
			<stop  offset="1" style="stop-color:#4570B6"/>
		</linearGradient>
		<path class="st0" d="M222.51,210.18c-7.47,7.67-18.35,13.17-32.67,16.54c7.72,2.11,13.56,5.57,17.55,10.35
			c3.97,4.81,5.98,10.31,5.98,16.54c0,9.83-3.09,18.37-9.25,25.57c-6.16,7.22-15.15,12.79-26.99,16.72
			c-11.82,3.92-26.07,5.87-42.75,5.87c-6.23,0-11.2-0.18-14.94-0.55c-0.12,3.48-1.61,6.09-4.47,7.84
			c-2.87,1.74-6.55,2.61-11.02,2.61c-4.49,0-7.56-0.99-9.25-2.98c-1.69-2.01-2.4-4.92-2.15-8.78c1.12-17.43,3.3-35.68,6.53-54.8
			c3.25-19.11,7.35-37.57,12.33-55.36c0.87-3.11,2.61-5.29,5.22-6.53c2.63-1.24,6.03-1.86,10.27-1.86c7.59,0,11.39,2.11,11.39,6.33
			c0,1.76-0.37,3.74-1.12,5.98c-3.25,9.71-6.48,22.87-9.71,39.5c-3.25,16.61-5.55,32.46-6.92,47.5c5.98,0.51,10.84,0.76,14.57,0.76
			c17.43,0,30.22-2.54,38.36-7.58c8.16-5.04,12.23-11.48,12.23-19.32c0-5.47-2.32-10.08-6.99-13.81c-4.67-3.74-12.47-5.8-23.44-6.18
			c-2.48-0.11-4.22-0.75-5.22-1.86c-0.99-1.12-1.49-2.91-1.49-5.41c0-3.6,0.75-6.53,2.24-8.77c1.49-2.25,4.22-3.42,8.22-3.55
			c8.84-0.25,16.82-1.56,23.99-3.92c7.15-2.36,12.79-5.7,16.89-9.99c4.12-4.29,6.16-9.32,6.16-15.03c0-7.22-3.55-12.92-10.63-17.09
			c-7.1-4.17-17.99-6.26-32.69-6.26c-13.31,0-26.19,1.72-38.65,5.15c-12.44,3.42-23.03,7.74-31.75,12.97
			c-3.97,2.36-7.35,3.55-10.08,3.55c-2.24,0-3.96-0.78-5.13-2.34c-1.19-1.54-1.77-3.51-1.77-5.87c0-3.11,0.66-5.78,1.95-8.02
			c1.31-2.25,4.45-4.79,9.44-7.67c10.45-5.98,22.71-10.65,36.78-14c14.05-3.35,28.43-5.04,43.12-5.04c22.54,0,39.34,3.8,50.41,11.39
			c11.07,7.59,16.63,17.6,16.63,30.06C233.72,193.42,229.98,202.54,222.51,210.18z"/>
		
			<linearGradient id="SVGID_00000138569780558371353000000004681208935855548813_" gradientUnits="userSpaceOnUse" x1="236.3332" y1="215.3214" x2="668.9312" y2="215.3214">
			<stop  offset="0" style="stop-color:#40BCED"/>
			<stop  offset="1" style="stop-color:#4570B6"/>
		</linearGradient>
		<path style="fill:url(#SVGID_00000138569780558371353000000004681208935855548813_);" d="M662.12,160.06
			c-4.54-5.47-10.61-9.55-18.21-12.23c-7.59-2.68-15.93-4.01-25.02-4.01c-12.19,0-22.8,1.93-31.83,5.78
			c-9.01,3.85-15.93,9.28-20.73,16.24c-4.79,6.97-7.19,14.94-7.19,23.9c0,8.59,2.15,15.78,6.44,21.56
			c4.29,5.8,9.46,10.36,15.51,13.73c6.03,3.35,13.84,6.9,23.42,10.65c7.47,2.98,13.26,5.5,17.37,7.56c4.1,2.04,7.52,4.6,10.26,7.65
			c2.75,3.05,4.12,6.69,4.12,10.93c0,6.85-2.98,12.16-8.96,15.95c-5.98,3.8-14.25,5.7-24.84,5.7c-10.2,0-18.14-1.37-23.8-4.1
			s-8.5-6.92-8.5-12.51c0-1.37,0.09-2.68,0.28-3.92c0.18-1.24,0.28-2.11,0.28-2.63c0.37-1.86,0.55-4.03,0.55-6.53
			c0-2.73-1.05-4.97-3.18-6.73c-2.11-1.74-4.84-2.61-8.22-2.61c-4.6,0-8.09,1.81-10.45,5.41c-2.36,3.62-3.55,8.84-3.55,15.69
			c0,2.02,0.12,3.97,0.39,5.84c-2.73,2.91-5.09,5.2-7.1,6.87c-3.62,2.98-7.35,4.47-11.21,4.47c-3.6,0-6.69-1.03-9.24-3.07
			c-2.54-2.06-4.08-4.77-4.56-8.13c8.46-4.49,14.43-9.58,17.92-15.31c3.48-5.73,5.22-12.01,5.22-18.86c0-6.21-1.9-11.45-5.7-15.69
			c-3.8-4.22-8.8-6.33-15.03-6.33c-6.71,0-13.93,3.51-21.65,10.54c-7.72,7.04-14.57,18.33-20.55,33.89c0-6.85,0.2-13.5,0.57-19.98
			c16.56-18.05,28.5-33.82,35.84-47.33c7.35-13.5,11.02-26.55,11.02-39.13c0-7.84-1.77-14.21-5.32-19.13s-8.18-7.38-13.91-7.38
			c-10.7,0-19.87,7.06-27.54,21.19c-7.65,14.14-13.43,31.6-17.35,52.38c-3.92,20.78-5.89,40.76-5.89,59.92
			c0,2.45,0.02,4.77,0.04,6.96c-4.58,4.9-9.25,8.71-13.95,11.45c-5.91,3.42-11.41,5.13-16.52,5.13c-12.56,0-18.86-7.2-18.86-21.65
			c0-5.23,0.76-10.03,2.25-14.37c1.49-4.37,3.48-7.83,5.96-10.36c2.5-2.56,5.16-3.83,8.04-3.83c1.49,0,2.64,0.44,3.46,1.3
			c0.8,0.89,1.21,2.13,1.21,3.74s-0.32,3.35-0.94,5.23c-0.12,0.5-0.3,1.3-0.55,2.41c-0.25,1.12-0.37,2.13-0.37,3
			c0,1.99,0.71,3.55,2.15,4.67c1.42,1.12,3.32,1.67,5.7,1.67c3.73,0,6.74-1.79,9.05-5.41c2.31-3.6,3.46-8.02,3.46-13.26
			c0-6.33-1.9-11.53-5.7-15.58c-3.8-4.05-9.12-6.07-15.97-6.07c-6.97,0-13.63,2.04-19.98,6.16c-6.35,4.1-11.52,9.95-15.49,17.55
			c-3.99,7.59-5.98,16.43-5.98,26.51c0,2.2,0.12,4.31,0.39,6.35c-2.38,2.59-4.44,4.68-6.18,6.25c-3.35,3.05-6.23,4.58-8.59,4.58
			c-1.49,0-2.7-0.55-3.64-1.69c-0.94-1.12-1.4-2.61-1.4-4.47c0-5.61,1.44-15.56,4.29-29.88c1.86-9.83,2.8-16.04,2.8-18.67
			c0-4.35-3.05-6.53-9.16-6.53c-2.86,0-5.59,0.25-8.22,0.75c-0.62-2.73-1.4-4.63-2.32-5.7c-0.94-1.05-2.77-1.58-5.52-1.58
			c-8.59,0-16.7,2.7-24.36,8.11c-7.65,5.43-13.79,12.58-18.38,21.47c-4.61,8.91-6.92,18.33-6.92,28.29c0,0.18,0,0.37,0.02,0.55
			c-2.08,2.04-3.94,3.71-5.61,4.97c-3.87,2.93-8.34,4.38-13.45,4.38c-3.23,0-5.86-1.08-7.84-3.27c-1.99-2.18-3.42-5.82-4.29-10.93
			c14.07-19.16,25.22-38.52,33.43-58.06c8.22-19.54,12.31-36.71,12.31-51.53c0-10.33-1.7-18.26-5.13-23.81
			c-3.42-5.54-8.13-8.3-14.11-8.3c-10.58,0-19.7,6.97-27.34,20.92c-7.65,13.93-13.45,30.61-17.37,50.04
			c-3.92,19.41-5.87,36.71-5.87,51.9c0,15.81,2.64,28.69,7.93,38.65c5.29,9.95,13.41,14.94,24.36,14.94c7.97,0,15.1-2.13,21.38-6.35
			c2.22-1.49,4.37-3.14,6.46-4.93c0.6,1.01,1.3,1.97,2.04,2.87c4.6,5.61,10.75,8.41,18.49,8.41c9.83,0,17.98-5.23,24.45-15.69
			c1.74,4.84,4.31,8.68,7.75,11.48c3.41,2.8,7.19,4.21,11.29,4.21c5.36,0,10.9-2.18,16.63-6.55c2.96-2.25,5.86-4.79,8.66-7.59
			c0.96,1.33,2.02,2.59,3.19,3.78c6.78,6.9,16.27,10.36,28.46,10.36c7.59,0,15.47-1.97,23.62-5.89c4.38-2.11,8.45-4.7,12.16-7.75
			c0.69,4.08,1.74,7.24,3.16,9.44c1.81,2.8,4.63,4.21,8.5,4.21c3.85,0,6.69-1.03,8.5-3.09c1.79-2.06,3.39-6,4.76-11.85
			c1.99-8.09,4.72-15.97,8.22-23.62c3.48-7.67,7.24-13.91,11.29-18.77c4.05-4.84,7.75-7.28,11.11-7.28c1.38,0,2.52,0.57,3.46,1.69
			c0.94,1.12,1.4,2.79,1.4,5.04c0,3.85-1.19,7.12-3.55,9.8c-2.36,2.68-6.28,5.2-11.76,7.56c-4.97,2.13-7.47,5.61-7.47,10.47
			c0,9.09,2.93,16.36,8.78,21.84c5.86,5.47,13.56,8.22,23.16,8.22c7.84,0,14.62-2.06,20.35-6.18c3.46-2.48,6.92-5.48,10.35-9
			c2.04,2.38,4.51,4.47,7.38,6.3c9.95,6.28,23.21,9.42,39.77,9.42c18.67,0,33.57-3.94,44.72-11.85c11.14-7.9,16.72-19.2,16.72-33.89
			c0-7.84-2.02-14.43-6.07-19.79c-4.05-5.36-8.93-9.58-14.66-12.71c-5.73-3.11-13.33-6.58-22.78-10.45
			c-7.84-3.11-13.93-5.78-18.29-8.02c-4.35-2.25-8-5.04-10.91-8.41c-2.93-3.35-4.4-7.4-4.4-12.14c0-7.1,2.84-12.6,8.5-16.52
			c5.66-3.92,13.84-5.87,24.56-5.87c7.59,0,13.93,1.37,19.04,4.1c5.11,2.73,7.65,6.73,7.65,11.96c0,0.99-0.18,3.35-0.55,7.08
			c-0.37,2.01-0.57,4.17-0.57,6.55c0,2.73,1.1,5.09,3.27,7.1c2.18,1.99,4.9,2.98,8.13,2.98c4.61,0,8.09-1.99,10.45-5.98
			c2.38-3.97,3.55-9.9,3.55-17.73C668.93,172.26,666.66,165.54,662.12,160.06z M483.25,180.87c2.56-10.88,5.2-19.54,7.93-25.94
			c2.75-6.41,5.23-9.62,7.47-9.62c1.61,0,2.87,1.06,3.74,3.18s1.3,5.16,1.3,9.14c0,8.71-2.52,18.44-7.56,29.14
			c-5.04,10.7-11.41,20.6-19.13,29.69C478.62,203.62,480.7,191.77,483.25,180.87z M263.59,199.27c2.73-15.31,5.91-28.13,9.53-38.47
			c3.6-10.33,6.85-15.49,9.71-15.49c3.48,0,5.23,4.74,5.23,14.2c0,12.07-2.63,25.41-7.84,40.05c-5.23,14.62-12.26,29.21-21.1,43.78
			C259.37,229.26,260.86,214.58,263.59,199.27z M336.96,266.67c-1.12,5.36-2.93,9.65-5.41,12.88c-2.48,3.25-5.09,4.86-7.84,4.86
			c-2.73,0-4.88-0.94-6.44-2.8c-1.56-1.86-2.32-4.72-2.32-8.59c0-6.97,1.3-13.56,3.92-19.79c2.61-6.23,6.12-11.23,10.54-15.03
			c4.42-3.8,9.25-5.77,14.48-5.89L336.96,266.67z"/>
		
			<linearGradient id="SVGID_00000048498934183422191840000003254345417104468362_" gradientUnits="userSpaceOnUse" x1="675.1064" y1="259.1152" x2="822.6003" y2="259.1152">
			<stop  offset="0" style="stop-color:#40BCED"/>
			<stop  offset="1" style="stop-color:#4570B6"/>
		</linearGradient>
		<path style="fill:url(#SVGID_00000048498934183422191840000003254345417104468362_);" d="M820.17,223.72
			c-1.61-1.49-3.92-2.24-6.9-2.24c-2.87,0-5.48,0.25-7.84,0.75c-0.62-2.73-1.4-4.63-2.34-5.7c-0.92-1.05-2.77-1.58-5.5-1.58
			c-8.59,0-16.72,2.7-24.36,8.11c-7.67,5.43-13.79,12.58-18.4,21.47c-4.4,8.54-6.71,17.55-6.88,27.06
			c-3.19,2.71-6.67,5.07-10.38,7.12c-7.15,3.92-13.54,5.87-19.13,5.87c-8.71,0-14.64-2.86-17.74-8.59
			c14.69-3.6,25.11-8.48,31.27-14.66c6.18-6.16,9.24-13.52,9.24-22.11c0-7.35-2.16-13.17-6.53-17.46
			c-4.37-4.29-10.15-6.44-17.35-6.44c-8.11,0-15.35,2.18-21.76,6.53c-6.42,4.37-11.43,10.24-15.03,17.64
			c-3.62,7.42-5.41,15.4-5.41,23.99c0,12.33,3.6,22.04,10.82,29.14c7.22,7.1,17.35,10.65,30.43,10.65c9.58,0,18.58-2.38,26.97-7.1
			c3.11-1.74,5.94-3.55,8.54-5.43c0.76,1.47,1.67,2.84,2.68,4.12c4.42,5.61,10.17,8.41,17.27,8.41c9.46,0,16.11-5.36,19.98-16.06
			l-0.2,2.98c0,4.61,1.03,7.93,3.09,9.99c2.06,2.06,5.2,3.09,9.42,3.09c4.37,0,7.51-1.03,9.44-3.09c1.92-2.06,2.89-5.45,2.89-10.17
			c0-8.59,0.37-16.34,1.12-23.25c0.75-6.92,1.79-14.16,3.18-21.76c1.24-7.1,1.86-12.08,1.86-14.94
			C822.6,227.34,821.78,225.21,820.17,223.72z M697.7,261.08c0-7.59,1.58-14.07,4.76-19.43c3.18-5.34,7.06-8.02,11.68-8.02
			c2.24,0,4.01,0.71,5.31,2.15c1.31,1.44,1.97,3.34,1.97,5.7c0,4.6-2.11,8.64-6.35,12.14c-4.22,3.48-10.03,6.09-17.35,7.84V261.08z
			 M796.27,251.17c-2.24,12.44-4.79,21.1-7.65,25.96c-2.86,4.84-6.03,7.28-9.53,7.28c-2.36,0-4.26-0.96-5.7-2.89
			c-1.42-1.93-2.15-4.77-2.15-8.5c0-6.97,1.31-13.56,3.92-19.79c2.63-6.23,6.1-11.23,10.47-15.03c4.35-3.8,9.07-5.77,14.18-5.89
			L796.27,251.17z"/>
	</g>
</g>
<g>
	<g>
		<path class="st3" d="M151.97,447.62v2.81h-12.78v19.54h15.39v2.81h-18.47v-46.83h18.47v2.81h-15.39v18.87H151.97z"/>
		<path class="st3" d="M179.68,472.78v-46.83h3.08v44.02h14.72v2.81H179.68z"/>
		<path class="st3" d="M238.03,447.62v2.81h-12.78v19.54h15.39v2.81h-18.47v-46.83h18.47v2.81h-15.39v18.87H238.03z"/>
		<path class="st3" d="M285.74,437.39v3.88h-2.94v-4.08c0-5.02-1.94-8.83-7.09-8.83s-7.09,3.81-7.09,8.83v24.35
			c0,5.02,1.94,8.76,7.09,8.76s7.09-3.75,7.09-8.76v-5.55h2.94v5.35c0,6.76-2.94,11.84-10.1,11.84c-7.16,0-10.1-5.09-10.1-11.84
			v-23.95c0-6.76,2.94-11.84,10.1-11.84C282.8,425.54,285.74,430.63,285.74,437.39z"/>
		<path class="st3" d="M318.93,472.78v-44.02h-9.57v-2.81h22.15v2.81h-9.5v44.02H318.93z"/>
		<path class="st3" d="M365.37,425.94c7.16,0,10.04,3.95,10.04,10.57v4.08c0,5.49-2.14,8.63-6.76,9.7c4.82,1.07,6.76,4.48,6.76,9.57
			v7.29c0,1.94,0.13,4.08,1.14,5.62h-3.21c-0.8-1.41-1-3.08-1-5.62v-7.36c0-6.22-3.41-7.96-8.76-7.96h-4.88v20.94h-3.08v-46.83
			H365.37z M363.63,449.03c5.49,0,8.7-1.54,8.7-7.83v-4.42c0-5.02-1.94-8.03-7.03-8.03h-6.62v20.27H363.63z"/>
		<path class="st3" d="M401.31,437.39c0-6.83,3.15-11.84,10.24-11.84c7.22,0,10.37,5.02,10.37,11.84v23.95
			c0,6.82-3.15,11.84-10.37,11.84c-7.09,0-10.24-5.02-10.24-11.84V437.39z M404.38,461.54c0,5.08,2.01,8.83,7.16,8.83
			c5.22,0,7.29-3.75,7.29-8.83v-24.35c0-5.08-2.07-8.83-7.29-8.83c-5.15,0-7.16,3.75-7.16,8.83V461.54z"/>
		<path class="st3" d="M462.8,472.71h-3.08l-9.9-41.41v41.48h-2.74v-46.83h4.42l9.83,41.42l9.77-41.42h4.42v46.83h-2.94v-41.62
			L462.8,472.71z"/>
		<path class="st3" d="M500.75,437.39c0-6.83,3.14-11.84,10.24-11.84c7.23,0,10.37,5.02,10.37,11.84v23.95
			c0,6.82-3.14,11.84-10.37,11.84c-7.09,0-10.24-5.02-10.24-11.84V437.39z M503.82,461.54c0,5.08,2.01,8.83,7.16,8.83
			c5.22,0,7.29-3.75,7.29-8.83v-24.35c0-5.08-2.07-8.83-7.29-8.83c-5.15,0-7.16,3.75-7.16,8.83V461.54z"/>
		<path class="st3" d="M556.35,425.94c7.03,0,9.57,3.48,9.57,9.97v2.68c0,5.08-1.41,8.23-6.16,9.23c5.08,1,7.03,4.75,7.03,10.04
			v4.08c0,6.76-3.08,10.84-10.24,10.84h-10.04v-46.83H556.35z M554.81,446.62c5.49,0,8.03-1.47,8.03-7.43v-3.01
			c0-4.89-1.54-7.43-6.56-7.43h-6.69v17.86H554.81z M556.55,469.97c5.15,0,7.16-2.88,7.16-8.09v-4.22c0-6.09-2.74-8.23-8.3-8.23
			h-5.82v20.54H556.55z"/>
		<path class="st3" d="M594.96,425.94v46.83h-3.08v-46.83H594.96z"/>
		<path class="st3" d="M620.39,472.78v-46.83h3.08v44.02h14.72v2.81H620.39z"/>
		<path class="st3" d="M665.96,425.94v46.83h-3.08v-46.83H665.96z"/>
		<path class="st3" d="M699.49,472.78v-44.02h-9.57v-2.81h22.15v2.81h-9.5v44.02H699.49z"/>
		<path class="st3" d="M745.79,454.78l-10.5-28.84h3.21l8.96,24.62l8.97-24.62h3.01l-10.57,28.84v18h-3.08V454.78z"/>
	</g>
</g>
<g>
	
		<linearGradient id="SVGID_00000127033237886826079790000003665347419189971330_" gradientUnits="userSpaceOnUse" x1="27.5185" y1="348.1909" x2="506.4267" y2="348.1909">
		<stop  offset="0" style="stop-color:#40BCED"/>
		<stop  offset="1" style="stop-color:#4570B6"/>
	</linearGradient>
	<path style="fill:url(#SVGID_00000127033237886826079790000003665347419189971330_);" d="M506.22,342.35
		c0.84,1.38-0.81,3.32-6.23,6.06c-0.68,0.34-1.41,0.7-2.21,1.06c-0.81,0.35-1.69,0.67-2.63,1.03c-1.88,0.7-4.03,1.44-6.45,2.22
		c-0.61,0.19-1.23,0.39-1.87,0.59c-0.64,0.19-1.31,0.35-2,0.53c-1.37,0.35-2.81,0.71-4.33,1.08c-1.53,0.36-3.12,0.74-4.79,1.13
		c-1.67,0.36-3.44,0.65-5.27,0.99c-1.85,0.32-3.76,0.65-5.76,0.99c-1,0.18-2.02,0.31-3.06,0.44c-1.04,0.13-2.11,0.26-3.19,0.39
		c-2.17,0.26-4.42,0.52-6.75,0.79c-2.33,0.2-4.74,0.38-7.24,0.56c-5.01,0.44-10.3,0.54-15.96,0.74c-2.83,0.08-5.7,0.03-8.69,0.04
		c-1.49-0.01-3.01-0.01-4.54-0.02c-1.52-0.05-3.06-0.09-4.63-0.14c-25.13-0.62-54.98-4.16-89.38-10.16
		c-34.16-5.92-69.63-13.44-105.02-16.99c-17.67-1.85-35.29-2.49-52.28-1.75c-8.5,0.34-16.81,1.14-24.83,2.2c-2,0.3-4,0.6-5.97,0.9
		l-1.49,0.22l-1.46,0.27c-0.97,0.18-1.94,0.36-2.91,0.54c-3.9,0.66-7.64,1.56-11.38,2.38c-14.82,3.48-28.06,8.07-39.34,12.87
		c-11.28,4.81-20.54,9.89-27.77,14.44c-0.91,0.57-1.8,1.12-2.66,1.66c-0.85,0.55-1.62,1.11-2.41,1.64
		c-1.56,1.07-3.02,2.08-4.38,3.01c-2.56,1.97-4.83,3.63-6.57,5.04c-3.41,2.86-5.25,4.42-5.25,4.42s1.43-1.73,4.06-4.92
		c1.37-1.58,3.22-3.46,5.32-5.71c1.14-1.08,2.37-2.24,3.67-3.48c0.66-0.62,1.32-1.26,2.05-1.91c0.75-0.63,1.51-1.28,2.3-1.95
		c6.27-5.35,14.6-11.52,25.38-17.66c10.76-6.12,23.91-12.29,39.4-17.44c3.9-1.23,7.86-2.55,12.03-3.64
		c1.04-0.29,2.08-0.57,3.12-0.86l1.57-0.43l1.6-0.38c2.15-0.51,4.32-1.02,6.5-1.53c8.81-1.89,18.04-3.49,27.53-4.55
		c18.98-2.2,38.96-2.73,58.56-1.78c19.62,0.9,39.02,2.96,57.55,5.59c18.56,2.61,36.38,5.66,53.24,8.6
		c33.43,5.83,60.72,9.62,83.1,11.22c1.4,0.11,2.78,0.22,4.14,0.33c1.36,0.08,2.69,0.15,4.01,0.22c2.64,0.14,5.21,0.34,7.69,0.43
		c4.96,0.14,9.66,0.41,14.03,0.38c2.2,0.03,4.32,0.06,6.38,0.08c2.05-0.03,4.03-0.06,5.94-0.09c0.96-0.01,1.9-0.02,2.83-0.03
		c0.93,0,1.84-0.01,2.72-0.06c1.78-0.07,3.49-0.13,5.14-0.2c1.65-0.07,3.26-0.08,4.79-0.16c1.53-0.09,2.99-0.18,4.39-0.27
		c1.42-0.07,2.77-0.13,4.06-0.2c0.65-0.03,1.29-0.04,1.91-0.08c0.61-0.05,1.21-0.09,1.8-0.14c2.35-0.17,4.49-0.29,6.44-0.35
		c0.98-0.03,1.91-0.05,2.78-0.08c0.86-0.05,1.67-0.08,2.44-0.1C502.13,340.26,505.38,340.96,506.22,342.35z"/>
</g>
<g>
	
		<linearGradient id="SVGID_00000131360346926023401980000001553145662593759130_" gradientUnits="userSpaceOnUse" x1="172.9137" y1="355.5858" x2="924.2755" y2="355.5858">
		<stop  offset="0" style="stop-color:#719F40"/>
		<stop  offset="1" style="stop-color:#8DC63F"/>
	</linearGradient>
	<path style="fill:url(#SVGID_00000131360346926023401980000001553145662593759130_);" d="M924.22,305.54l-20.53,101.09
		c-0.28,1.44-1.69,2.38-3.12,2.08l-75.84-43.28c-1.44-0.3-2.38-1.7-2.08-3.14l2.61-12.94c-6.8-0.85-14.89-2.01-24.49-3.42
		c-9.33-1.38-20.09-3-32.42-4.7c-12.33-1.69-26.28-3.48-41.97-4.92c-7.84-0.75-16.13-1.33-24.88-1.77
		c-8.73-0.46-17.9-0.67-27.52-0.59c-19.18,0.21-40.16,1.74-61.98,6.16c-2.73,0.53-5.41,1.21-8.14,1.79
		c-2.7,0.66-5.39,1.35-8.11,2.04c-5.36,1.44-10.75,3.11-16.18,4.88c-10.86,3.6-21.84,7.84-33.16,12.26
		c-11.34,4.42-23.03,9.03-35.45,13.27c-12.39,4.26-25.16,8.02-38.12,11.21c-25.89,6.42-52.44,10.74-78.18,13.11
		c-12.88,1.17-25.55,1.88-37.89,2.16c-3.09,0.05-6.14,0.18-9.19,0.16h-9.03c-5.98-0.11-11.85-0.2-17.6-0.48
		c-11.5-0.48-22.54-1.24-32.97-2.36c-1.31-0.14-2.61-0.27-3.9-0.41c-1.28-0.12-2.56-0.3-3.82-0.44c-2.54-0.32-5.04-0.62-7.51-0.92
		c-2.45-0.35-4.86-0.71-7.26-1.05c-1.19-0.18-2.36-0.35-3.53-0.51c-1.17-0.2-2.32-0.39-3.48-0.59c-18.38-3-34.11-6.6-46.77-10.06
		c-12.69-3.48-22.32-6.76-28.87-9.05c-3.26-1.17-5.73-2.13-7.4-2.75c-1.47-0.55-2.32-0.87-2.52-0.94c0.44,0.11,4.12,1.12,10.58,2.84
		c6.96,1.74,17.11,4.21,30.18,6.65c13.04,2.45,29.03,4.83,47.33,6.51c1.14,0.11,2.29,0.21,3.44,0.32c1.17,0.09,2.34,0.18,3.53,0.27
		c2.36,0.18,4.74,0.35,7.17,0.53c2.43,0.12,4.88,0.27,7.38,0.41c1.24,0.05,2.48,0.14,3.74,0.2c1.26,0.04,2.54,0.09,3.82,0.12
		c10.2,0.43,20.89,0.5,31.94,0.28c5.52-0.07,11.13-0.32,16.82-0.55c2.84-0.16,5.7-0.34,8.59-0.5c2.87-0.14,5.77-0.43,8.68-0.64
		c11.64-0.92,23.49-2.24,35.45-3.94c23.88-3.46,48.07-8.59,71.33-15.4c11.66-3.39,23.05-7.22,34.03-11.45
		c11.04-4.21,21.97-8.93,33.2-13.66c11.23-4.72,22.78-9.48,34.97-13.7c6.1-2.11,12.35-4.1,18.76-5.87c3.21-0.85,6.42-1.69,9.64-2.48
		c3.26-0.73,6.46-1.51,9.71-2.15c12.97-2.63,25.62-4.33,37.71-5.38c12.1-1.03,23.6-1.4,34.46-1.37c10.88,0.04,21.1,0.48,30.66,1.21
		c9.58,0.71,18.54,1.61,26.92,2.7c16.73,2.13,31.18,4.7,43.72,7.24c12.53,2.57,23.17,5.13,32.22,7.49
		c7.33,1.93,13.59,3.74,18.97,5.39l4.7-23.28c0.28-1.46,1.69-2.38,3.14-2.09l86.42-8.75C923.59,302.71,924.51,304.11,924.22,305.54z
		"/>
</g>
<g>
	
		<linearGradient id="SVGID_00000042728869305198100270000004690379715811322794_" gradientUnits="userSpaceOnUse" x1="509.9718" y1="374.8116" x2="764.6446" y2="374.8116">
		<stop  offset="0" style="stop-color:#40BCED"/>
		<stop  offset="1" style="stop-color:#4570B6"/>
	</linearGradient>
	<path style="fill:url(#SVGID_00000042728869305198100270000004690379715811322794_);" d="M757.31,389.54
		c-1.17,0.01-2.31-0.21-3.42-0.63c-1.08-0.42-2.21-1.04-3.36-1.82c-2.38-1.55-4.97-3.74-9.38-6.3c-1.09-0.64-2.31-1.29-3.66-1.95
		c-1.34-0.66-2.83-1.31-4.46-1.93c-3.33-1.28-7.43-2.54-12.58-3.67c-5.14-1.14-11.41-2.18-18.86-3.07
		c-7.36-0.92-15.55-1.67-24.65-2.06c-9.09-0.39-18.65-0.52-28.42-0.2c-9.77,0.32-19.74,1.03-29.62,2.14
		c-19.76,2.22-39.04,6.27-55.45,11.13c-8.21,2.43-15.7,5.04-22.28,7.62c-3.32,1.26-6.33,2.58-9.18,3.78
		c-2.76,1.27-5.41,2.4-7.67,3.53c-1.15,0.56-2.25,1.09-3.28,1.59c-1.01,0.52-1.96,1.01-2.84,1.47c-1.78,0.91-3.3,1.7-4.49,2.38
		c-2.43,1.34-3.74,2.06-3.74,2.06s0.94-0.94,2.68-2.67c0.86-0.88,1.99-1.91,3.34-3.13c0.67-0.61,1.38-1.26,2.17-1.95
		c0.81-0.67,1.67-1.39,2.57-2.14c1.78-1.53,3.94-3.11,6.22-4.87c2.38-1.69,4.93-3.55,7.83-5.4c5.74-3.74,12.56-7.7,20.43-11.56
		c15.69-7.72,35.69-15.01,57.76-19.71c11.01-2.36,22.49-4.11,33.95-5.13c11.46-1.02,22.92-1.26,33.82-0.79
		c10.9,0.47,20.74,1.55,29.48,2.97c8.68,1.37,16.66,3.16,23.71,5.45c7.05,2.28,13.03,5.06,17.65,8.09c2.35,1.53,4.31,3.09,5.92,4.65
		c1.62,1.55,2.92,3.08,3.92,4.57c2.02,2.97,2.95,5.71,3.16,8.03c0.21,2.33-0.25,4.22-0.99,5.64c-0.77,1.43-1.77,2.4-2.89,3.01
		C759.62,389.28,758.48,389.52,757.31,389.54z"/>
</g>
<g>
	
		<linearGradient id="SVGID_00000026869092616809558710000010188982848427704238_" gradientUnits="userSpaceOnUse" x1="910.5212" y1="362.6482" x2="1052.4814" y2="362.6482">
		<stop  offset="0" style="stop-color:#719F40"/>
		<stop  offset="1" style="stop-color:#8DC63F"/>
	</linearGradient>
	<path style="fill:url(#SVGID_00000026869092616809558710000010188982848427704238_);" d="M1052.36,363.91
		c-0.64,3-3.58,4.92-6.57,4.28l-64.22-13.68l-5.98,29.21l63.63,13.56c2.98,0.64,4.9,3.58,4.26,6.58c-0.64,2.98-3.58,4.9-6.57,4.26
		l-63.56-13.54l-2.77,13.52c-1.88,9.21-10.24,15.26-18.67,13.54l-39.55-8.11c-1.28-0.27-2.08-1.6-1.79-2.98l21.54-105.08
		c0.28-1.38,1.54-2.29,2.82-2.04l39.55,8.13c8.43,1.72,13.73,10.58,11.84,19.79l-2.52,12.31l64.29,13.7
		C1051.08,357.98,1053,360.93,1052.36,363.91z"/>
</g>
</svg>
