<?xml version="1.0" encoding="utf-8"?>
<!-- Generator: Adobe Illustrator 28.2.0, SVG Export Plug-In . SVG Version: 6.00 Build 0)  -->
<svg version="1.1" id="Capa_1" xmlns="http://www.w3.org/2000/svg" xmlns:xlink="http://www.w3.org/1999/xlink" x="0px" y="0px"
	 viewBox="0 0 800 800" style="enable-background:new 0 0 800 800;" xml:space="preserve">
<style type="text/css">
	.st0{fill:url(#SVGID_1_);}
	.st1{fill:#FFFFFF;}
	.st2{font-family:'Pacifico-Regular';}
	.st3{font-size:464.0914px;}
	.st4{font-size:513.5024px;}
</style>
<linearGradient id="SVGID_1_" gradientUnits="userSpaceOnUse" x1="401.5044" y1="283.0612" x2="401.5044" y2="1083.0612" gradientTransform="matrix(1 0 0 1 0 -281.2283)">
	<stop  offset="0" style="stop-color:#18BFFB"/>
	<stop  offset="1" style="stop-color:#2072F3"/>
</linearGradient>
<path class="st0" d="M639.85,1.83h-476.8c-89.3,0-161.6,72.3-161.6,161.6v476.9c0,89.2,72.3,161.5,161.6,161.5h476.9
	c89.2,0,161.6-72.3,161.6-161.6v-476.8C801.45,74.13,729.15,1.83,639.85,1.83z"/>
<g>
	<g>
		<g>
			<path class="st1" d="M672.06,692.33c-0.19,1-1.13,1.65-2.09,1.46l-50.74-29.92c-0.96-0.2-1.59-1.17-1.4-2.18l6.52-34.11
				c0.19-1,1.13-1.65,2.09-1.46l57.71-6.28c0.96,0.2,1.59,1.17,1.4,2.18L672.06,692.33z"/>
			<path class="st1" d="M716.74,693.19c-1.25,6.4-6.44,10.7-11.6,9.61l-24.23-5.12c-0.78-0.16-1.26-1.08-1.07-2.04l14.25-73.07
				c0.19-0.96,0.97-1.61,1.75-1.45l24.23,5.13c5.16,1.09,8.33,7.16,7.08,13.56L716.74,693.19z"/>
			<path class="st1" d="M771.24,662.3c-0.42,2.08-2.38,3.41-4.38,2.98l-49.94-10.89c-2-0.44-3.28-2.48-2.86-4.56l0,0
				c0.42-2.08,2.38-3.41,4.38-2.98l49.93,10.89C770.38,658.18,771.66,660.22,771.24,662.3L771.24,662.3z"/>
			<path class="st1" d="M765.41,690.07c-0.42,2.08-2.38,3.41-4.38,2.98l-51.34-11.2c-1.22-0.27-2.01-1.51-1.75-2.79l0.29-1.46
				c0.42-2.08,2.38-3.41,4.38-2.98l49.93,10.89C764.54,685.95,765.82,687.99,765.41,690.07L765.41,690.07z"/>
		</g>
		<g>
			<g>
				<path class="st1" d="M306.96,649.96c-0.66,0.33-1.35,0.69-2.13,1.08c-0.78,0.33-1.63,0.65-2.54,1.01
					c-1.79,0.72-3.86,1.44-6.21,2.22c-0.56,0.2-1.16,0.39-1.79,0.62c-0.63,0.16-1.25,0.33-1.94,0.52c-1.32,0.36-2.7,0.72-4.17,1.08
					c-1.44,0.36-2.98,0.75-4.61,1.14c-1.6,0.36-3.29,0.65-5.05,0.98c-1.79,0.33-3.64,0.65-5.55,0.98c-0.97,0.2-1.94,0.33-2.95,0.46
					c-1,0.13-2.04,0.26-3.07,0.39c-2.1,0.26-4.26,0.52-6.52,0.78c-2.23,0.23-4.55,0.39-6.96,0.59c-4.83,0.42-9.91,0.52-15.36,0.72
					c-2.73,0.1-5.49,0.03-8.37,0.03h-4.36c-1.47-0.07-2.95-0.1-4.45-0.13c-24.21-0.62-52.96-4.18-86.07-10.22
					c-32.92-5.91-67.07-13.45-101.16-17c-0.66-0.07-1.35-0.13-2.01-0.2v-18.47c2.07,0.03,4.17,0.13,6.24,0.23
					c18.91,0.91,37.6,2.97,55.41,5.61c17.87,2.61,35.06,5.68,51.27,8.62c32.2,5.84,58.48,9.63,80.02,11.26
					c1.35,0.1,2.7,0.23,3.98,0.33c1.32,0.07,2.6,0.13,3.89,0.23c2.54,0.13,5.02,0.33,7.4,0.42c4.77,0.13,9.28,0.39,13.51,0.39
					c2.1,0,4.14,0.03,6.15,0.07c1.94-0.03,3.86-0.07,5.71-0.1c0.91,0,1.82,0,2.73-0.03c0.88,0,1.76,0,2.6-0.03
					c1.72-0.07,3.39-0.13,4.95-0.2c1.6-0.07,3.14-0.1,4.61-0.16c1.47-0.1,2.88-0.2,4.23-0.26c1.35-0.1,2.67-0.16,3.92-0.2
					c0.63-0.03,1.22-0.07,1.82-0.1c0.6-0.03,1.16-0.1,1.72-0.13c2.26-0.16,4.33-0.29,6.21-0.36c0.94-0.03,1.85-0.07,2.7-0.07
					c0.82-0.07,1.6-0.1,2.35-0.1c5.9-0.16,9.06,0.52,9.85,1.93C313.77,645.26,312.17,647.22,306.96,649.96z"/>
			</g>
			<g>
				<path class="st1" d="M648.56,651.04c-0.85,1.44-4.86,2.02-13.14,1.47c-8.28-0.52-20.85-2.25-38.82-5.03
					c-9-1.4-19.35-3-31.23-4.73c-11.88-1.66-25.3-3.46-40.42-4.93c-7.56-0.72-15.52-1.31-23.92-1.76
					c-8.43-0.46-17.28-0.69-26.5-0.59c-18.5,0.2-38.69,1.73-59.7,6.17c-2.63,0.55-5.21,1.21-7.84,1.79
					c-2.6,0.65-5.21,1.34-7.81,2.06c-5.17,1.44-10.38,3.1-15.58,4.9c-10.47,3.59-21.04,7.83-31.95,12.27
					c-10.91,4.44-22.17,9.07-34.12,13.32c-11.95,4.28-24.24,8.03-36.72,11.23c-24.93,6.43-50.48,10.77-75.29,13.15
					c-12.39,1.17-24.61,1.86-36.5,2.19c-2.95,0.03-5.9,0.16-8.84,0.13h-8.69c-5.77-0.1-11.41-0.2-16.96-0.46
					c-11.07-0.49-21.7-1.27-31.73-2.38c-1.25-0.13-2.51-0.26-3.76-0.39c-1.22-0.16-2.45-0.33-3.67-0.46
					c-2.45-0.33-4.86-0.62-7.24-0.95c-2.35-0.36-4.67-0.69-6.96-1.04c-1.16-0.16-2.29-0.33-3.42-0.52c-1.13-0.2-2.26-0.36-3.35-0.55
					c-16.59-2.84-30.92-6.17-42.71-9.46v-3.79c12.48,2.42,27.72,4.76,45.15,6.43c1.1,0.1,2.19,0.2,3.29,0.33
					c1.13,0.07,2.26,0.16,3.39,0.26c2.29,0.16,4.58,0.36,6.93,0.52c2.32,0.13,4.7,0.26,7.09,0.42c1.22,0.07,2.41,0.13,3.64,0.2
					c1.19,0.03,2.41,0.07,3.67,0.13c9.81,0.42,20.1,0.49,30.73,0.26c5.33-0.07,10.72-0.33,16.21-0.52c2.73-0.2,5.49-0.36,8.28-0.52
					c2.76-0.13,5.55-0.42,8.34-0.62c11.23-0.95,22.64-2.25,34.15-3.95c22.98-3.49,46.28-8.62,68.7-15.44
					c11.23-3.43,22.2-7.25,32.77-11.49c10.63-4.21,21.17-8.94,31.98-13.67c10.79-4.73,21.92-9.5,33.68-13.74
					c5.86-2.12,11.88-4.11,18.06-5.91c3.07-0.85,6.18-1.7,9.28-2.48c3.14-0.72,6.21-1.5,9.34-2.15c12.48-2.64,24.68-4.34,36.31-5.39
					c11.63-1.04,22.73-1.4,33.18-1.37c10.47,0.03,20.32,0.49,29.54,1.21c9.22,0.72,17.84,1.63,25.9,2.71
					c16.12,2.12,30.01,4.73,42.11,7.28c12.07,2.55,22.29,5.12,31.01,7.47c17.43,4.8,28.78,8.78,35.68,11.81
					C646.99,647.48,649.41,649.6,648.56,651.04z"/>
			</g>
			<g>
				<path class="st1" d="M554.75,691.18c-1.12,0.01-2.23-0.21-3.29-0.64c-1.04-0.42-2.13-1.04-3.24-1.82
					c-2.3-1.55-4.79-3.75-9.03-6.31c-1.05-0.64-2.22-1.3-3.52-1.95c-1.29-0.66-2.72-1.31-4.3-1.93c-3.21-1.28-7.15-2.54-12.11-3.68
					c-4.94-1.14-10.98-2.19-18.16-3.08c-7.09-0.92-14.98-1.67-23.73-2.07c-8.76-0.39-17.96-0.52-27.36-0.2
					c-9.41,0.32-19.01,1.03-28.52,2.15c-19.03,2.22-37.59,6.28-53.39,11.16c-7.9,2.43-15.12,5.06-21.45,7.63
					c-3.19,1.27-6.09,2.58-8.84,3.78c-2.66,1.27-5.21,2.4-7.39,3.54c-1.11,0.56-2.16,1.09-3.16,1.59c-0.97,0.52-1.89,1.01-2.74,1.47
					c-1.71,0.92-3.18,1.71-4.32,2.39c-2.34,1.34-3.6,2.07-3.6,2.07s0.91-0.94,2.58-2.68c0.82-0.88,1.92-1.92,3.21-3.13
					c0.65-0.61,1.33-1.27,2.09-1.95c0.78-0.68,1.61-1.39,2.48-2.15c1.72-1.54,3.8-3.12,5.99-4.88c2.29-1.69,4.75-3.56,7.54-5.41
					c5.53-3.75,12.1-7.72,19.67-11.59c15.11-7.74,34.37-15.04,55.62-19.76c10.61-2.36,21.65-4.12,32.69-5.14
					c11.04-1.02,22.07-1.26,32.56-0.79c10.5,0.47,19.97,1.55,28.39,2.97c8.36,1.37,16.04,3.17,22.83,5.46
					c6.79,2.28,12.55,5.07,17,8.11c2.27,1.53,4.15,3.1,5.7,4.66c1.56,1.55,2.81,3.09,3.78,4.58c1.95,2.98,2.84,5.72,3.05,8.05
					c0.2,2.33-0.24,4.23-0.96,5.66c-0.74,1.44-1.71,2.41-2.78,3.02C556.97,690.92,555.87,691.17,554.75,691.18z"/>
			</g>
		</g>
	</g>
	<g>
		<g>
			<g>
				<text transform="matrix(1 0 0 1 74.4528 442.5932)" class="st1 st2 st3">B</text>
			</g>
			<g>
				<text transform="matrix(1 0 0 1 363.6604 586.2934)" class="st1 st2 st4">S</text>
			</g>
		</g>
		<g>
			<g>
				<path class="st1" d="M129.23,599.16V490.13c0-1.32,1.12-2.38,2.49-2.38h74.9c1.38,0,2.49,1.07,2.49,2.38v12.48
					c0,1.32-1.12,2.38-2.49,2.38h-46.84c-1.38,0-2.49,1.07-2.49,2.38v26.27c0,1.32,1.12,2.38,2.49,2.38h32.88
					c1.38,0,2.49,1.07,2.49,2.38v12.48c0,1.32-1.12,2.38-2.49,2.38h-32.88c-1.38,0-2.49,1.07-2.49,2.38v26.27
					c0,1.32,1.12,2.38,2.49,2.38h46.84c1.38,0,2.49,1.07,2.49,2.38v12.48c0,1.32-1.12,2.38-2.49,2.38h-74.9
					C130.34,601.54,129.23,600.48,129.23,599.16z"/>
				<path class="st1" d="M253.99,601.54h-23.08c-1.38,0-2.49-1.07-2.49-2.38V490.13c0-1.32,1.12-2.38,2.49-2.38h35.93
					c1.1,0,2.06,0.68,2.39,1.69l23.18,72.45c0.72,2.26,4.08,2.24,4.78-0.03l22.24-72.4c0.31-1.01,1.29-1.71,2.39-1.71h34.33
					c1.38,0,2.49,1.07,2.49,2.38v109.03c0,1.32-1.12,2.38-2.49,2.38h-23.08c-1.38,0-2.49-1.07-2.49-2.38v-54.1
					c0-2.71-3.99-3.32-4.87-0.74L306.8,599.9c-0.33,0.98-1.29,1.65-2.37,1.65h-19.01c-1.05,0-1.99-0.63-2.34-1.57l-21.74-57.06
					c-0.95-2.5-4.84-1.85-4.84,0.81v55.43C256.49,600.48,255.37,601.54,253.99,601.54z"/>
			</g>
		</g>
	</g>
</g>
</svg>
