<?xml version="1.0" encoding="utf-8"?>
<!-- Generator: Adobe Illustrator 28.2.0, SVG Export Plug-In . SVG Version: 6.00 Build 0)  -->
<svg version="1.1" xmlns="http://www.w3.org/2000/svg" xmlns:xlink="http://www.w3.org/1999/xlink" x="0px" y="0px"
	 viewBox="0 0 3000 3000" style="enable-background:new 0 0 3000 3000;" xml:space="preserve">
<style type="text/css">
	.st0{fill:none;}
	.st1{fill-rule:evenodd;clip-rule:evenodd;fill:#2072F3;}
	.st2{fill:url(#SVGID_1_);}
</style>
<g id="Layer_1">
</g>
<g id="Layer_3">
	<rect class="st0" width="3000" height="3000"/>
	<g>
		<path class="st1" d="M2537.4,1402.7c4.5-0.3,8.6-0.3,13.1-0.3c54.4,0,108.4,0,162.8,0c7.4,0,14.6-1.2,21.7-4.2
			c18.4-7.7,26.7-22.3,28.5-41.3c0-6.8,0-13.4,0-20.2c-2.7-9.5-1.8-20.2-9.8-28.2c-12.5-12.8-27-19.3-44.9-19.3
			c-55,0.3-109.9,0.3-164.9,0c-19.9,0-24.4-4.2-24.1-23.5c0.6-26.4-2.4-52.6-2.1-78.7c0-7.7-3-13.4-8-19c-7.1-7.7-16-5.9-24.7-5.9
			c-12.8,0-20.5,6.5-24.4,18.7c-2.1,6.5-1.5,13.4-2.1,20.2c-0.9,12.5-5.3,16.6-17.5,17.5c-4.8,0.3-9.5,0.3-14.3,0.3
			c-51.4,0-102.5,0-153.9,0c-47.2,0-91.2,44.3-91.5,91.8c0,25.8,0,52,0,77.8c-0.3,20.2-4.2,24.4-24.4,24.4c-32.4,0.3-64.8,0-97.2,0
			c-7.7,0-15.4,1.2-23.2,2.7c-65.1,12.8-107.3,74.2-107,132.8c1.2,267.6,0.6,535.2,0.6,803c0,22.9,0,45.7-1.8,68.6
			c-3.3,41.9-19.3,57.9-61.2,58.8c-0.6,0-1.5,0-2.1,0c-57.3,0-114.7,0-172,0c-10.4,0-20.8-1.5-30.9-4.5c-16-4.8-25.8-15.1-30-31.2
			c-3-11-3.6-22-3.6-33c-0.9-250.4,2.4-500.7-2.1-751.4c-0.6-39.5-16.9-71.6-46.3-97.4c-20.8-18.4-45.8-27.9-73.4-31.5
			c-13.1-1.8-16.9-5.6-17.8-18.7c-0.3-5.9-0.3-12.2-0.3-18.1c0-357.9-0.3-716,0.3-1073.9c0-37.7-7.1-73.1-25.8-105.7
			c-38.3-67.7-94.5-108.4-175.3-108.4c-247.2,0-494.4,0-741.6,0c-33,0-64.8,5.6-93.3,23.2c-68,41.9-108.4,101-108.4,182.3
			c-0.3,716.6-0.3,1433.2-0.3,2149.9c0,6.8,0.3,13.4-0.3,20.2c-0.9,11.6-5.3,16-17.2,16.9c-9.8,0.6-19.6-0.3-29.4,0.3
			c-33.3,2.7-53.5,20.8-57.3,48.4c-5.1,34.2-4.8,68.6-0.3,103.1c3.6,27,19.9,43.1,46.9,44.8c1.5,0,2.7,0.3,3.9,0.9
			c417.4,0,835.2,0,1252.6,0c24.1-0.6,40.4-12.2,48.4-35c1.8-4.8,3.6-9.5,4.8-14.6c6.5-31.2,6.8-62.4,0-93.3
			c-6.2-28.2-22-48.4-52.3-53.8c-8.3-1.5-16.9-0.9-25.3-0.9c-27-0.3-29.1-2.4-29.4-29.7c0-302,0-604.1,0-906.1
			c0-4.5-0.3-8.9,0.3-13.1c1.5-11.3,8.3-14.3,17.5-7.7c9.2,6.5,14,16.3,16.3,27c3.3,14.6,4.2,29.4,4.2,44.3c0,243.5,0,486.8,0,730.3
			c0,77.5,59.7,136.9,137.3,137.2c76.7,0,153,0,229.7,0c20.2,0,39.8-3.9,57.6-13.1c49.6-24.9,76.7-65.6,77-121.2
			c0.6-284.8,0.3-569.6,0.3-854.4c0-12.8,0.9-25.5,3.3-38.3c4.2-20.5,16.6-32.7,36.8-36.8c31.8-6.2,63.9-4.8,95.7-3.6
			c9.5,0.3,13.7,5.3,15.2,14.8c0.9,4.8,0.6,9.5,0.6,14.3c0,28.2,0,56.7,0,84.9c0,5.3,0.3,10.7,1.5,16c10.4,44.2,49.9,75.4,95.7,75.7
			c50.2,0,100.4,0,150.6,0c4.8,0,9.5-0.3,14.3,0.3c9.5,1.2,13.7,5.3,14.9,14.8c0.6,5.3,0,10.7,0.9,16c2.7,18.1,14,26.1,34.8,24.9
			c14.9-0.9,23.2-11,23.5-28.2c0.3-26.7,2.7-53.2,2.4-79.9c-0.3-14.3,4.8-18.4,19-19c4.5-0.3,8.9,0,13.1,0c51.4,0,102.5,0,153.9,0
			c33.6,0,51.4-14.8,57.6-47.5c0-6.8,0-13.4,0-20.2c-3-10.7-2.7-22.6-12.5-30.9c-8.3-7.1-17.5-12.2-28.5-14.8
			c-6.8-1.5-14-2.1-21.1-2.1c-53.5,0-107.3,0.3-160.7,0c-15.7,0-20.5-4.2-20.8-18.4c-0.6-30.9-0.6-62.1,0-93
			C2520.5,1407.8,2525,1403.6,2537.4,1402.7L2537.4,1402.7z M1335,885.1c0,63.3-45.2,108.4-108.1,108.7c-103.4,0-207.1,0-310.5,0
			c-103.4,0-207.1,0-310.5,0c-54.4,0-96.9-36.5-105.2-90.3c-0.9-5.9-0.9-12.2-0.9-18.1c0-136.6,0-272.9,0-409.5
			c0-63,44.9-108.1,107.6-108.1c206.8-0.3,413.3-0.3,620.1,0c62.7,0,107.9,45.1,107.9,107.8C1335,612.2,1335,748.8,1335,885.1
			L1335,885.1z"/>
	</g>
	
		<linearGradient id="SVGID_1_" gradientUnits="userSpaceOnUse" x1="3510" y1="1717.2283" x2="3510" y2="2517.2283" gradientTransform="matrix(1 0 0 1 0 -281.2283)">
		<stop  offset="0" style="stop-color:#18BFFB"/>
		<stop  offset="1" style="stop-color:#2072F3"/>
	</linearGradient>
	<path class="st2" d="M3748.4,1436h-476.8c-89.3,0-161.6,72.3-161.6,161.6v476.9c0,89.2,72.3,161.5,161.6,161.5h476.9
		c89.2,0,161.6-72.3,161.6-161.6v-476.8C3909.9,1508.3,3837.6,1436,3748.4,1436z"/>
</g>
</svg>
