<?xml version="1.0" encoding="utf-8"?>
<!-- Generator: Adobe Illustrator 28.2.0, SVG Export Plug-In . SVG Version: 6.00 Build 0)  -->
<svg version="1.1" id="Capa_1" xmlns="http://www.w3.org/2000/svg" xmlns:xlink="http://www.w3.org/1999/xlink" x="0px" y="0px"
	 viewBox="0 0 800 800" style="enable-background:new 0 0 800 800;" xml:space="preserve">
<style type="text/css">
	
		.st0{clip-path:url(#SVGID_00000048501996262817351210000011788629310690797748_);fill:url(#SVGID_00000176019732643873812720000016987534536403546520_);}
	
		.st1{clip-path:url(#SVGID_00000142158230198968072920000009519606756747308974_);fill:url(#SVGID_00000053526552124899242410000005079611944323603860_);}
</style>
<g>
	<g>
		<defs>
			<path id="SVGID_1_" d="M669.16,401.3v358.08c0,6.42-5.2,11.62-11.62,11.62H479.28V553.28c0-6.43-5.2-11.62-11.6-11.62H332.31
				c-6.4,0-11.59,5.19-11.59,11.62V771H142.46c-6.42,0-11.62-5.2-11.62-11.62V399.37c0-3.6,1.64-6.8,4.2-8.94l5.36-5.15
				l251.56-241.85c4.51-4.34,11.63-4.3,16.08,0.04h0.02l0.06,0.08l248.92,241.79l0.08,0.06l8.13,7.3c2.56,2.26,3.84,5.42,3.84,8.6
				H669.16z"/>
		</defs>
		<clipPath id="SVGID_00000136413475814765817630000005054344599584964754_">
			<use xlink:href="#SVGID_1_"  style="overflow:visible;"/>
		</clipPath>
		
			<linearGradient id="SVGID_00000034081052961407885660000017968743050087326122_" gradientUnits="userSpaceOnUse" x1="400.05" y1="281.2283" x2="400.05" y2="1081.2283" gradientTransform="matrix(1 0 0 1 0 -281.2283)">
			<stop  offset="0" style="stop-color:#18BFFB"/>
			<stop  offset="1" style="stop-color:#2072F3"/>
		</linearGradient>
		
			<path style="clip-path:url(#SVGID_00000136413475814765817630000005054344599584964754_);fill:url(#SVGID_00000034081052961407885660000017968743050087326122_);" d="
			M638.4,0H161.6C72.3,0,0,72.3,0,161.6v476.9C0,727.7,72.3,800,161.6,800h476.9c89.2,0,161.6-72.3,161.6-161.6V161.6
			C800,72.3,727.7,0,638.4,0z"/>
	</g>
	<g>
		<defs>
			<path id="SVGID_00000072997990976849084490000009604295331690121626_" d="M776.65,409.89c-8.81,9.26-23.49,9.63-32.77,0.82
				L400,84.15L56.12,410.71c-9.28,8.81-23.96,8.44-32.78-0.82c-8.82-9.27-8.45-23.98,0.83-32.79L384.03,35.37
				c8.95-8.5,23-8.49,31.94,0L775.83,377.1C785.11,385.91,785.48,400.62,776.65,409.89z"/>
		</defs>
		<clipPath id="SVGID_00000082332538852195465000000010484081541725689220_">
			<use xlink:href="#SVGID_00000072997990976849084490000009604295331690121626_"  style="overflow:visible;"/>
		</clipPath>
		
			<linearGradient id="SVGID_00000101076142780375059490000009569792558068651676_" gradientUnits="userSpaceOnUse" x1="400.05" y1="281.2283" x2="400.05" y2="1081.2283" gradientTransform="matrix(1 0 0 1 0 -281.2283)">
			<stop  offset="0" style="stop-color:#18BFFB"/>
			<stop  offset="1" style="stop-color:#2072F3"/>
		</linearGradient>
		
			<path style="clip-path:url(#SVGID_00000082332538852195465000000010484081541725689220_);fill:url(#SVGID_00000101076142780375059490000009569792558068651676_);" d="
			M638.4,0H161.6C72.3,0,0,72.3,0,161.6v476.9C0,727.7,72.3,800,161.6,800h476.9c89.2,0,161.6-72.3,161.6-161.6V161.6
			C800,72.3,727.7,0,638.4,0z"/>
	</g>
</g>
</svg>
