<?xml version="1.0" encoding="utf-8"?>
<!-- Generator: Adobe Illustrator 28.2.0, SVG Export Plug-In . SVG Version: 6.00 Build 0)  -->
<svg version="1.1" id="Layer_1" xmlns="http://www.w3.org/2000/svg" xmlns:xlink="http://www.w3.org/1999/xlink" x="0px" y="0px"
	 viewBox="0 0 1080 1080" style="enable-background:new 0 0 1080 1080;" xml:space="preserve">
<style type="text/css">
	.st0{fill:#1683C6;}
	.st1{fill:#FFFFFF;}
</style>
<g>
	<path class="st0" d="M810.23,353H534.45v297.08h275.79V353z M223.13,712.28c1.1,20.96,3.18,41.38,5.81,62.22
		c11.75,58.18,33.91,105.26,70.24,152.12c5.82,6.25,11.63,12.62,17.56,18.97c23.37,21.52,46.52,37.87,73.64,53.77
		c9.42,3.85,18.97,7.81,28.51,11.76c28.76,8.87,57.08,13.93,87.04,17.22c13.82-0.23,27.78-0.32,41.69-0.44
		c36.55-3.73,70.25-10.2,104.71-23.49c15.03-7.23,29.61-14.92,44-23.48c37.64-26.56,66.38-56.41,92.17-95.04
		c3.95-7.15,7.9-14.26,11.85-21.4c20.85-44.89,32.83-89.21,37.97-138.27c0.67-134.43,1.32-268.87,1.98-403.19H223.56
		C223.35,452.75,223.23,582.46,223.13,712.28z M824.95,339.16c-0.88,132.13-1.77,264.28-2.64,396.5
		c-0.99,7.58-1.96,15.15-2.96,22.72c-11.31,56.19-31.17,102.6-65.52,148.13c-5.16,5.82-10.32,11.65-15.37,17.57
		c-48.5,48.51-99.19,73.87-166.71,86.27c-17.77,1.75-35.54,3.29-53.44,4.05c-10.53-0.87-20.96-1.75-31.38-2.63
		c-49.38-6.8-91.53-24.14-132.12-53.01c-29.52-26.66-54.34-54.2-75.29-88.22c-15.24-28.42-26.44-56.08-35.22-87.24
		c-1.54-6.6-2.96-13.18-4.38-19.76c-0.78-50.47-0.78-50.47-2.52-424.38L824.95,339.16L824.95,339.16z M703.45,942.3
		c29.63-24.13,50.93-54.2,70.57-86.7c3.86-8.12,7.8-16.12,11.75-24.14c3.84-10.51,7.69-20.96,11.64-31.36
		c8.1-29.63,12.17-57.96,14.7-88.58c0-25.57,0-25.57-1.1-49.71H532.27v342.38c23.91-1.74,45.42-5.37,68.8-10.64
		C639.04,981.27,670.87,965.02,703.45,942.3z M271.42,833.78c13.26,22.82,26.88,44.98,41.82,66.72
		c15.13,17.22,15.13,17.22,31.04,33.79c10.54,9.1,10.54,9.1,32.94,26.35c35.44,22.83,70.11,36.54,111.93,42.02h30.72V661.81H249.9
		c-0.22,39.94-2.74,79.9,3.96,119.29C259,798.88,264.5,816.55,271.42,833.78z M519.86,353H249.89v297.08h269.96L519.86,353
		L519.86,353z M268.88,284.62c28.53-8.66,57.29-16.47,86.37-23.48c66.29-13.49,130.58-20.4,198.19-20.4
		c16,0.86,32.16,1.86,48.3,2.86c81.85,8.88,159.88,27.54,237.13,55.85c0.97-0.55,0.97-0.55,75.28-169.55
		c-45.77-14.39-91.42-28.76-137.06-43.01c-1.66,2.74-1.66,2.74-17.35,46.63c-51.56-9.22-103.59-18.76-155.82-22.61
		c0.22-19.76,0.44-39.5,0.78-59.26c-51.25,0.66-102.52,1.43-153.65,2.2c0.22,18.98,0.44,37.98,0.76,57.06
		c-44.77,7.68-89.43,16.02-133.88,25.57c-6.37-16.57-12.73-33.14-18.98-49.6c-44.45,14.25-88.78,28.62-133.12,43.01
		c19.64,56.52,39.39,113.14,59.15,169.77C227.94,299.22,227.94,299.22,268.88,284.62z M281.28,286.05
		c-17.35,5.71-34.68,11.42-51.91,17.24v1.42c15.37,4.06,15.37,4.06,41.72,9.55c29.53-1.87,58.04-10.64,87.78-10.64
		c12.4,2.95,12.4,2.95,19.65,5.81c0.55-0.33,0.55-0.33-27.65-41.27C327.59,274.09,304.43,280.01,281.28,286.05z M704.89,302.19
		c26.01,0,51.35,5.8,76.82,10.64c17.45-1.42,35.89-3.84,52.36-10.31c-39.95-14.7-79.89-25.46-121.26-35.33
		c-9.34,13.16-18.66,26.44-27.99,39.72C685.9,307.23,691.71,305.04,704.89,302.19z"/>
	<path class="st1" d="M669.12,938.34c-4.06-16.78-2.65-25.68,6.24-40.59c14.06-16.79,32.38-30.4,42.27-50.26
		c2.95-10.66,5.93-21.17,8.9-31.7c0.43,0,0.87,0,1.31,0c1.76,2.4,3.51,4.92,5.27,7.46c-12.18,21.73-20.52,45.76-29.32,69.02
		C695.99,908.6,686.23,930.23,669.12,938.34L669.12,938.34z"/>
	<path class="st1" d="M651.56,936.82c-13.62-5.81-16.91-10.65-23.93-23.38c-2.95-8.56-5.92-17.1-8.78-25.57
		c-11.64-24.91-23.39-48.28-30.73-65.07c0-3.95,1.64-6.14,3.51-9.55c7.99,31.51,29.3,52.58,49.16,77.92
		c9.23,15.92,12.18,27.33,12.93,45.65C652.97,936.82,652.21,936.82,651.56,936.82L651.56,936.82z"/>
	<path class="st1" d="M397.62,931.77c-10.88-2.08-21.51-5.15-32.16-8.46c-16.36-9-28.31-19.2-39.84-33.81
		c-10.2-17.01-17.33-32.47-23.48-51.35c-1.78-7.89-3.51-15.69-5.17-23.48c0-41.26,9.77-73.53,35.45-106.55
		c6.58-6.15,13.16-12.19,19.75-18.24c21.28-11.29,48.29-11.18,70.34-2.19c3.95,2.42,7.9,4.84,11.97,7.35
		c4.82,7.48,9.1,14.05,12.51,22.18c-0.11,3.62-0.22,7.35-0.35,11.08c-11.94,3.85-18.09,4.04-29.94,0
		c0.56-7.89,3.74-12.07-6.58-12.07c-4.51,2.74-2.63,8.77-2.52,13.5c16.13,16.13,55.09-4.71,58.82,25.68
		c-25.46-2.31-49.82-7.35-74.62,0.32c-11.63,5.6-18.76,13.07-25.9,23.72c-10.32,27.77-6.69,49.48,2.08,76.81
		c12.73,19.43,39.61,44.56,63.97,28.87c3.97-4.29,8.03-8.45,12.08-12.64c-4.4-6.13-8.78-12.28-13.17-18.32
		c-2.95-8.44-5.92-22.94,1.76-29.08c2.19,2.87,4.39,5.82,6.68,8.79c19.77,18.54,38.86,26.44,64.43,13.17
		c2.41,9.98-11.53,21.5-18.22,26.44c-17.13,5.82-16.79,6.8-20.96,24.58c-13.72,16.79-30.19,27.87-51.47,32.48
		C407.93,930.89,402.77,931.35,397.62,931.77L397.62,931.77z"/>
	<path class="st1" d="M652.97,887.11c-14.47-12.08-22.6-22.61-29.73-40.17c-10.53-34.24-21.07-68.48-31.49-102.71
		c5.7,0,9.66,8.13,11.74,12.52c4.28,12.27,9.66,24.13,13.16,36.63c13.95,28.75,38.86,49.06,38.86,82.76
		C653.96,885.67,653.96,885.67,652.97,887.11L652.97,887.11z"/>
	<path class="st1" d="M669.12,887.11c-0.33-16.68,0.53-28.1,6.91-43.89c8.11-13.51,17.23-25.49,27.75-37.32
		c7.69-19.42,11.08-39.62,24.49-55.97c0.09,1.1,0.22,2.2,0.43,3.28c-7.13,30.09-16.35,59.82-23.48,90
		C698.64,861.54,683.93,875.15,669.12,887.11L669.12,887.11z"/>
	<path class="st1" d="M652.97,827.09c-1.51-1.86-3.28-2.63-10.53-10.76c-12.06-17.99-17-34.02-20.62-54.99
		c-1.99-18.87-3.94-37.63-5.82-56.4c-2.09-9.21-11.75-28.86,6.46-22.28c0.46,0.75,1,1.54,1.54,2.41
		c5.71,32.71,1.55,68.15,26.68,93.28C652.21,789.11,660.45,816.33,652.97,827.09L652.97,827.09z"/>
	<path class="st1" d="M671.31,827.09c-3.08-20.31,0.99-38.63,8.34-57.07c3.83-5.93,7.8-11.75,11.75-17.56
		c6.36-22.51,6.56-46.09,13.48-68.7c2.21,0,4.38,0,6.58,0c-0.43,28.64-5.81,56.52-10.65,84.83c-1.43,16.79-1.43,16.79-2.86,22.71
		C691.06,805.13,683.82,817.31,671.31,827.09L671.31,827.09z"/>
	<path class="st1" d="M392.55,807.32c-4.83-11.08-12.06-15.8-21.72-22.59c3.61-7.47,14.15-22.5,23.59-15.47
		C398.5,779.58,398.71,797.33,392.55,807.32L392.55,807.32z"/>
	<path class="st1" d="M663.19,772.97c-11.42-8.1-19.21-22.6-18-36.66c4.17-8.44,9.98-15.79,15.37-23.48
		c0.11-9.76,0.22-19.42,0.44-29.07c3.4,0,6.8,0,10.32,0c-1.54,14.48-5.49,29.3,2.84,41.92c10.33,6.8,5.26,19.21,1.77,29.06
		c-3.31,6.04-6.61,12.08-9.78,18.22C665.16,772.97,664.17,772.97,663.19,772.97L663.19,772.97z"/>
	<path class="st1" d="M312.02,719.52c-3.4-5.92-6.15-12.28-12.39-15.36c4.5-13.5,27.2-17.56,39.16-14.04
		c-11.09,9.55-19.2,16.13-25.25,29.41C313,719.52,312.46,719.52,312.02,719.52L312.02,719.52z"/>
	<path class="st1" d="M408.58,609.79c-2.74-18.32-1.31-36.98-3.3-55.52c-2.96-8.78-4.26-10.76-4.39-13.28
		c1.12-3.41,2.21-6.81,3.3-10.2c0.45,0,0.98,0,1.53,0c0.34,1.42,1.77,2.86,7.6,14.6c6.56,21.05,4.48,42.57,3.39,64.4
		C413.95,609.79,411.21,609.79,408.58,609.79L408.58,609.79z"/>
	<path class="st1" d="M424.71,609.79c0.44-5.91,0.88-11.75,1.43-17.56c9.56,0.33,16.12-0.33,30.06-0.33
		c5.71,4.07,2.52,11.76,2.2,17.89C447.11,609.79,435.92,609.79,424.71,609.79L424.71,609.79z"/>
	<path class="st1" d="M301.05,608.37c0-6.04,0-12.18,0-18.32c11.41,0,22.93,0,34.45,0c0,6.03,0,12.18,0,18.32
		C324.08,608.37,312.55,608.37,301.05,608.37L301.05,608.37z"/>
	<path class="st1" d="M342.74,608.37c-0.65-8.77-1.33-17.57-1.86-26.34c0-15.69,1.22-41.7,16.34-51.79
		c4.74,2.84,3.41,9.66,3.41,14.48c-1.66,2.31-3.19,4.61-4.72,6.91c-0.99,18.88-1.98,37.75-2.86,56.73
		C349.54,608.37,346.14,608.37,342.74,608.37L342.74,608.37z"/>
	<path class="st1" d="M445.9,586.42c-6.91-1.54-12.95-2.63-19.97-2.84c-1.87-4.95-1.54-8.68-1.22-13.95
		c10.76-1.42,20.96-1.86,31.61,0.44c0.22,7.57,1.22,10.86,1.22,13.06C453.02,585.87,451.27,586,445.9,586.42L445.9,586.42z"/>
	<path class="st1" d="M303.23,582.03c0.66-4.5,1.33-9,1.98-13.38c10.09-0.22,20.2-0.43,30.29-0.56c0,4.62,0,9.22,0,13.94
		C324.74,582.03,313.99,582.03,303.23,582.03L303.23,582.03z"/>
	<path class="st1" d="M440.85,563.04c-4.93-0.33-9.88-0.55-14.7-0.76c-0.55-5.38-0.99-10.76-1.43-16.13
		c9.55,0.32,19.32-1.43,28.54,1.11c3.62,3.83,3.29,8.11,3.07,12.95C451.38,562.05,446.11,562.5,440.85,563.04L440.85,563.04z"/>
	<path class="st1" d="M305.43,560.86c-0.22-7.81-1.22-13.05,6.47-16.58c8.34,0.55,16.68,1.2,25.02,1.87
		c-0.65,4.71-1.33,9.44-1.98,14.15C325.07,560.42,315.2,560.63,305.43,560.86L305.43,560.86z"/>
	<path class="st1" d="M372.04,541.09c-6.26-3.61-5.7-11.95-7.13-18.54c10.64,0.56,21.28,1.11,32.03,1.67
		c-0.97,9.32-1.42,10.96-8.77,16.44C382.8,540.78,377.42,540.87,372.04,541.09L372.04,541.09z"/>
	<path class="st1" d="M423.95,539.56c-6.15-2.53-17.35-8.13-11.96-17.12c14.15,0.55,28.43,1.1,42.69,1.77c0,4.6,0,9.22,0,13.92
		C444.36,537.82,434.25,538.69,423.95,539.56L423.95,539.56z"/>
	<path class="st1" d="M327.38,538.13c-13.18-1.09-13.18-1.09-20.1-2.3c0.56-4.61,1.22-9.22,1.87-13.81c14.6,0,29.18,0,43.89,0
		c-3.3,5.69-7.36,10.51-11.64,15.46C336.71,537.69,331.99,537.91,327.38,538.13L327.38,538.13z"/>
	<path class="st1" d="M436.45,518.39c-10.52-0.55-21.07-0.99-31.48-1.42c0.43-6.14,0.87-12.29,1.42-18.32
		c16.04,0.45,32.16,0.88,48.28,1.42c-0.09,5.93,1.33,13.06-2.74,17.66C446.78,517.95,441.62,518.17,436.45,518.39L436.45,518.39z"/>
	<path class="st1" d="M363.26,516.97c0.45-6.14,0.87-12.29,1.42-18.32c11.42,0,22.95,0,34.46,0c0,6.03,0,12.18,0,18.32
		C387.18,516.97,375.21,516.97,363.26,516.97L363.26,516.97z"/>
	<path class="st1" d="M309.16,514.77c0.66-5.37,1.41-10.75,2.2-16.12c14.82,0,29.63,0,44.56,0c1.2,5.15,0.98,10.09,0.87,15.47
		C340.87,514.32,324.96,514.54,309.16,514.77L309.16,514.77z"/>
	<path class="st1" d="M325.18,492.81c-3.62-1.19-3.62-1.19-13.83-2.17c-0.66-17.6,3.28-13.52,20.4-14.4
		c8.35,2.09,2.09,3.4,6.37,9.34c0.66-0.1,1.31-0.22,2.09-0.22c1.97-3.3,2.3-4.83,2.52-8.69c11.42,0,22.93,0,34.47,0
		c0,5.39,0,10.77,0,16.15c-9.45-2.51-19.54-1.86-29.31-1.86c-3.08-1.21-6.03-2.42-9.01-3.52
		C335.28,492.5,331.1,492.38,325.18,492.81L325.18,492.81z"/>
	<path class="st1" d="M386.63,492.81c-0.75-5.38-1.52-10.76-2.18-16.15c12.18,0.12,24.48,0.33,36.76,0.56
		c1.66,4.82,1.43,8.24,1.32,13.41C410.55,491.29,398.6,492.07,386.63,492.81L386.63,492.81z"/>
	<path class="st1" d="M428.34,492.81c0-5.38,0-10.76,0-16.15c6.9,0.45,20.29-4.16,23.81,2.97c-0.13,3.64-0.24,7.37-0.24,11.1
		C444.58,493.49,436.23,492.6,428.34,492.81L428.34,492.81z"/>
	<path class="st1" d="M314.98,470.85c0-4.71,0-9.33,0-13.93c14.15,0,28.3,0,42.47,0c0,3.84,0,7.79,0,11.74
		C343.28,469.32,329.13,470.09,314.98,470.85L314.98,470.85z"/>
	<path class="st1" d="M364.68,470.85c-0.55-4.71-0.97-9.33-1.42-13.93c11.43,0.1,22.93,0.32,34.45,0.55c1,2.42,1,2.42,1.43,11.19
		C387.62,469.32,376.1,470.09,364.68,470.85L364.68,470.85z"/>
	<path class="st1" d="M406.39,470.85c-0.55-4.71-0.99-9.33-1.42-13.93c15.79,0.44,31.6,0.88,47.51,1.42
		c-0.78,3.96-1.43,7.9-2.08,11.85C435.7,470.41,420.98,470.63,406.39,470.85L406.39,470.85z"/>
	<path class="st1" d="M308.4,448.9c-1.65-3.4-1.32-6.46-1.42-10.32c50.6-3.3,100.73,0,151.42,2.2c0,2.63,0,5.37,0,8.12
		C408.36,448.9,358.33,448.9,308.4,448.9L308.4,448.9z"/>
	<path class="st1" d="M289.41,429.15c0-11.96,0-23.92,0-35.88c8.01,0,16.02,0,24.13,0c-0.09,6.15-1.08,11.75,0.99,17.56
		c5.93,3.73,19.23,2.85,25.47-0.66c0.12-5.71,0.33-11.31,0.56-16.9c7.99,0,16,0,24.12,0c-1.75,6.03-0.33,15.58,4.95,19.54
		c7.79,0,20.18,2.62,24.68-4.95c0.12-4.93,0.22-9.77,0.45-14.59c7.25,0.11,14.48,0.33,21.72,0.55
		c-4.5,17.56,15.27,24.58,29.42,19.53c4.82-4.82,5.27-12.18,4.38-18.65c8.01,0,16.03,0,24.13,0c0,11.41,0,22.95,0,34.45
		C412.74,429.15,351.07,429.15,289.41,429.15L289.41,429.15z"/>
	<path class="st1" d="M250.55,252.03c-5.48-20.3-10.99-40.49-16.46-60.68c0-0.89,0.11-1.65,0.23-2.42
		c6.36-1.65,12.73-3.29,19.18-4.93c1.89,7.78,3.86,15.57,5.83,23.49c0.98-0.34,1.98-0.56,2.96-0.78c2.52-8.34,1.43-17.78,6.38-25.13
		c5.81-3.29,13.27-7.9,20.07-7.24c1.11,4.16,2.31,8.35,3.52,12.62c-11.62,3.51-8.12,8.79-12.07,18.99
		c-3.75,5.71,0.21,4.61,5.49,6.91c5.04,4.73,20.84,17.9,21.93,23.81c-7.24,1.76-14.47,3.62-21.61,5.49
		c-5.81-6.8-12.61-19.86-22.28-20.84c2.2,8.56,4.38,17.12,6.57,25.68C263.73,248.64,257.14,250.28,250.55,252.03L250.55,252.03z"/>
	<path class="st1" d="M723.21,229.42c-3.6-1.21-3.6-1.21-18.32-3.73c1.42-8.77,2.84-17.56,4.38-26.34
		c-7.12-1.21-14.15-2.41-21.19-3.61c-1.74,8.34-3.4,16.68-5.02,25.01c-2.98,0.23-2.98,0.23-19.33-2.95
		c-0.22-2.3-0.22-2.3,11.2-63.76c6.57,0.98,13.15,1.98,19.74,2.96c-1.2,7.47-2.41,15.03-3.62,22.61c7.01,1.2,14.04,2.41,21.19,3.73
		c1.32-7.24,2.74-14.38,4.17-21.51c6.8,0.55,6.8,0.55,19.97,3.18c-3.95,21.4-7.89,42.91-11.74,64.42
		C724.09,229.42,723.65,229.42,723.21,229.42L723.21,229.42z"/>
	<path class="st1" d="M806.62,180.37c-7.13-1.76-14.27-3.39-21.42-5.04c-12.94,19.42-25.77,38.96-38.62,58.49
		c6.8,1.42,13.61,2.85,20.52,4.38c1.42-3.4,1.42-3.4,5.15-9.21c7.25,1.53,14.59,3.18,21.95,4.82c0.33,6.59,0.33,6.59,1.19,11.08
		c6.37,1.64,12.74,3.29,19.21,4.94c0.11-1.54,0.21-2.96,0.33-4.39C812.1,223.71,809.36,201.99,806.62,180.37z M789.81,218.46
		c-2.96-1.21-2.96-1.21-9.54-2.2c1.87-6.92,6.46-13.07,9.98-19.32c0.56-0.22,1.1-0.33,1.75-0.44c0.33,7.02,0.77,14.16,1.21,21.28
		C792.01,218.01,790.92,218.23,789.81,218.46z"/>
	<path class="st1" d="M356.13,159.52c-7.48,1.32-14.84,2.65-22.18,4.06c-3.74,22.83-7.35,45.76-10.97,68.7
		c6.8-1.2,13.6-2.41,20.53-3.62c0.31-3.73,0.64-7.35,0.98-10.97c7.35-1.64,14.7-3.29,22.17-4.94c1.64,3.07,3.29,6.15,4.94,9.33
		c0.98,0.44,0.98,0.44,20.95-3.62C391.25,215.16,391.25,215.16,356.13,159.52z M345.7,202.32c0.78-7.78,1.66-15.57,2.53-23.37
		c3.62,6.58,7.35,13.17,11.09,19.75C358.21,199.69,358.21,199.69,345.7,202.32z"/>
	<path class="st1" d="M538.08,139.44h-22.61c-12.19,32.93-12.19,32.93-23.49,65.84c6.8-0.33,13.61-0.56,20.53-0.76
		c0.87-3.29,1.75-6.59,2.75-9.78h22.93c0.87,3.19,1.87,6.49,2.86,9.78h21.17C554.09,182.78,546.07,161.07,538.08,139.44z
		 M519.86,179.61c2.2-7.35,4.39-14.59,6.7-21.84c2.2,7.02,4.51,14.04,6.8,21.18C528.86,179.17,524.36,179.38,519.86,179.61z"/>
	<path class="st1" d="M631.03,147.78c-18.32-2.96-18.32-2.96-40.27-5.48c-2.52,21.5-5.05,43.01-7.46,64.52
		c5.58,0.89,11.3,1.87,16.99,2.85h2.97c0.87-8.12,1.87-16.13,2.86-24.14c8.89,0.99,18.55,2.2,27.1-0.44
		C646.18,175.88,647.72,153.81,631.03,147.78z M611.27,173.02c-1.2-0.22-2.4-0.44-3.62-0.66c0.45-4.72,0.87-9.33,1.45-13.94
		c7.99,0.76,14.26,0.22,14.26,9.55C620.38,173.24,617.2,172.8,611.27,173.02z"/>
	<path class="st1" d="M456.2,174.13c1.98-1.87,4.07-3.74,6.15-5.5c5.38-11.84-1.2-21.17-12.73-23.8c-5.93,0-5.93,0-43.89,4.82
		c2.64,21.64,5.27,43.35,8.02,65.08c15.69-2.09,31.61-3.51,46.85-7.68C475.86,197.72,474.54,178.61,456.2,174.13z M427.68,160.63
		c7.03-0.88,23.05-3.73,15.37,9.11c-4.39,1.44-4.39,1.44-13.95,2.64C428.55,168.41,428.12,164.47,427.68,160.63z M449.96,192.78
		c-4.61,4.6-11.75,4.28-17.9,5.15c-0.54-4.39-1.1-8.77-1.53-13.17C439.42,184.65,452.26,180.04,449.96,192.78z"/>
	<path class="st1" d="M776.98,486.12c-0.99-6.58-1.98-13.19-2.96-19.77c-4.39-8.78-8.89-14.92-14.72-24.91
		c0-6.15,0.89-6.58,4.85-11.19c5.92-3.09,5.92-3.09,6.25-4.06c-4.82-7.36-10.64-15.26-19.42-17.56c-4.5,21.07-15.48,7.89-26.99-1.22
		c-10-2.95-30.3-5.92-36.45-15.25c2.43-4.94,3.74-7.69,3.74-13.17c-7.91-0.1-15.81-0.22-23.71-0.33
		c0.33,14.05-0.22,17.23-13.26,23.71c-12.87,3.72-26.79,6.26-36.55,16.02c-2.21,0.87-4.18,0.33-6.6,0
		c-3.28-4.72-3.28-4.72-6.24-10.86c-8.12-0.67-24.26,12.72-20.3,20.29c6.67,2.53,12.28,2.19,12.28,9.99
		c-9.88,12.18-13.95,26-17.57,40.94c-1.45,3.62-1.45,3.62-3.31,5.51c-7.89,0-13.71-1.45-16.35-1.33
		c-0.67,10.55-1.33,21.18-1.87,31.82c1.45,0,2.84,0,4.4,0c0-0.75,0.11-1.42,0.22-2.09c4.28-2.08,4.28-2.08,9.66-3.61
		c6.26,2.3,7.58,22.16,9.44,28.41c4.96,11.09,10.88,20.63,17.57,30.83c-4.39,3.85-8.8,7.69-13.18,11.53
		c4.38,4.61,13.4,17.67,20.32,17.67c2.96-4.71,5.16-10.75,10.85-12.17c16.57,9.11,35.01,14.27,52.02,22.28
		c-1.76,5.04-3.08,9.43-3.73,14.7c9.98,0,19.97,0,30.06,0c-1.65-7.25-6.25-12.73-1.53-19.42c11.08-2.31,11.08-2.31,19.86-5.15
		c7.36-3.97,21.62-14.82,29.74-14.82c2.84,4.16,5.69,8.34,8.66,12.49c4.83,0,14.5-12.49,18.11-16.12
		c3.62-9.75-10.99-6.37-10.99-15.46c9.33-17.79,16.15-33.47,19.65-53.34c1.88-0.22,3.73-0.43,5.6-0.53
		c4.06,3.84,6.81,6.35,12.52,7.01c0-10.76,0-21.51,0-32.26C789.39,485.47,784.11,490.52,776.98,486.12z M748.35,474.37
		c0.87,4.62,1.76,9.34,2.63,14.06c-8.01,0.99-21.83,3.95-29.19,4.38c-4.16-1.86-9.11-3.07-8.45-8.44c-1.53-1.99-4.06-3.96-3.62-6.6
		c9.54-7.68,19.21-15.25,28.87-22.84C742.85,456.81,746.59,469.32,748.35,474.37z M685.47,450.99c1.98-8.89,3.17-17.23,4.04-26.23
		c13.29,0,24.38,8.12,35.56,14.37c-8.58,9-13.18,21.5-23.03,29.09c-2.76,0.1-5.5,0.22-8.14,0.43
		C684.26,463.83,685.47,461.63,685.47,450.99z M690.51,479.97c13.93,11.41,8.24,24.93,1.33,38.74c-7.58,3.4-12.52,3.74-21.29,4.06
		c-11.3-5.37-13.82-13.37-15.03-25.66C660.89,477.67,672.52,472.94,690.51,479.97z M667.58,423.22c1.97,12.73,5.38,26.78,2.19,39.51
		c-5.7,2.2-9.99,3.73-16.04,4.39c-5.47-7.78-20.17-19.53-19.4-29.52C643.87,428.82,655.17,427.17,667.58,423.22z M618.63,455.05
		c9.11,5.16,16.79,12.29,24.79,18.99c4.18,6.71-0.64,11.32-1.41,18.77c-2.96,0.22-5.92,0.45-8.78,0.67
		c-8.24-1.32-20.84-4.73-29.3-2.84C604.58,481.84,607.54,456.81,618.63,455.05z M601.74,510.38c8.88,0,16.79-1.75,25.55-3.4
		c12.18,0,16.9-2.08,20.08,10.52v6.93c-24.46,22.92-24.46,22.92-26.55,23.92C606.23,540,604.7,525.96,601.74,510.38z M670.75,576.44
		c-3.29,0.1-6.58,0.21-9.76,0.44c-9.99-3.4-17.13-6.58-25.57-12.84c12.4-8.88,9.88-28.54,27.88-28.54c2.64,1.34,5.28,2.63,8.02,4.07
		C671.09,551.85,670.87,564.15,670.75,576.44z M722.43,562.61c-9.86,8.55-18.53,12.39-31.38,13.6c-1.97-12.06-5.71-24.46-1.53-36.32
		c14.6-14.6,26.68,11.74,32.91,21.28L722.43,562.61L722.43,562.61z M740.78,544.28c-0.56,0.11-1,0.22-1.44,0.44
		c-10.53-3.85-17.99-10.09-25.68-18.65c-0.64-0.33-1.21-0.66-1.75-0.88c0-6.92,3.18-13.72,5.16-20.3c3.96,0.66,3.96,0.66,34.13,2.19
		C757.12,518.17,745.82,535.28,740.78,544.28z M664.51,514.87c3.62,2.31,7.67,3.09,11.85,4.28c4.37-0.67,7.46-0.76,10.97-3.4
		c12.06-18.55,9.87-29.85-13.17-35.12C657.58,488.11,658.36,500.39,664.51,514.87z"/>
</g>
</svg>
