<?xml version="1.0" encoding="utf-8"?>
<!-- Generator: Adobe Illustrator 28.2.0, SVG Export Plug-In . SVG Version: 6.00 Build 0)  -->
<svg version="1.1" id="Capa_1" xmlns="http://www.w3.org/2000/svg" xmlns:xlink="http://www.w3.org/1999/xlink" x="0px" y="0px"
	 viewBox="0 0 800 800" style="enable-background:new 0 0 800 800;" xml:space="preserve">
<style type="text/css">
	
		.st0{clip-path:url(#SVGID_00000173128855687466567590000018348986123281899173_);fill:url(#SVGID_00000098214703919263943550000015348551940904060553_);}
	.st1{clip-path:url(#SVGID_00000155841349481124908350000007353117616547402648_);}
	.st2{clip-path:url(#SVGID_00000008127222266495117440000015801632035191847339_);}
	.st3{clip-path:url(#SVGID_00000139295514572614324440000001981098781895264932_);}
	.st4{clip-path:url(#SVGID_00000127018017619065839890000009140426743257708465_);}
	
		.st5{clip-path:url(#SVGID_00000147920079878077253420000008268538121644135055_);fill:url(#SVGID_00000092451966536269156550000014660467195899525814_);}
</style>
<g>
	<defs>
		<path id="SVGID_1_" d="M1767.4,679.3h-15.9v-48.3c0-5.2-4.2-9.5-9.5-9.5c-5.2,0-9.5,4.2-9.5,9.5v48.3h-26.1v-48.3
			c0-5.2-4.2-9.5-9.5-9.5l0,0c-5.2,0-9.5,4.2-9.5,9.5v48.3h-15.9c-2.6,0-4.6,2.1-4.6,4.6v10.8c0,2.6,2.1,4.6,4.6,4.6l0,0
			c3.1,0,5.5,2.5,5.5,5.5v39.4c0,18,11.1,33.5,26.9,39.8v269.6c0,18.1-14.7,32.9-32.9,32.9c-18.1,0-32.9-14.7-32.9-32.9V894.7
			c0-35.2-28.6-63.8-63.8-63.8h-16V612.1c0-41.8-33.9-75.6-75.6-75.6h-231.9c-41.8,0-75.6,33.9-75.6,75.6v604.5h-22.6
			c-10.1,0-18.2,8.2-18.2,18.2v39.8c0,10.1,8.1,18.2,18.2,18.2h428.4c10.1,0,18.2-8.2,18.2-18.2v-39.8c0-10.1-8.1-18.2-18.2-18.2
			h-22.7V861.8h16c18.1,0,32.9,14.7,32.9,32.8v159.1c0,35.2,28.6,63.8,63.8,63.8c35.2,0,63.8-28.6,63.8-63.8V784.2
			c15.7-6.2,26.9-21.5,26.9-39.4v-39.9c0-3.1,2.5-5.5,5.5-5.5c2.6,0,4.6-2.1,4.6-4.6v-10.8C1772,681.3,1769.9,679.3,1767.4,679.3z
			 M1521.4,753.5c0,16.5-13.4,29.9-29.9,29.9h-248.8c-16.5,0-29.9-13.4-29.9-29.9V622.4c0-16.5,13.4-29.9,29.9-29.9h248.8
			c16.5,0,29.9,13.4,29.9,29.9V753.5z"/>
	</defs>
	<clipPath id="SVGID_00000162353612542731500130000016979909662909647517_">
		<use xlink:href="#SVGID_1_"  style="overflow:visible;"/>
	</clipPath>
	
		<linearGradient id="SVGID_00000182486519354237172230000012705506060030273667_" gradientUnits="userSpaceOnUse" x1="1408.05" y1="804.7283" x2="1408.05" y2="1604.7283" gradientTransform="matrix(1 0 0 1 0 -281.2283)">
		<stop  offset="0" style="stop-color:#18BFFB"/>
		<stop  offset="1" style="stop-color:#2072F3"/>
	</linearGradient>
	
		<path style="clip-path:url(#SVGID_00000162353612542731500130000016979909662909647517_);fill:url(#SVGID_00000182486519354237172230000012705506060030273667_);" d="
		M1646.4,523.5h-476.8c-89.3,0-161.6,72.3-161.6,161.6V1162c0,89.2,72.3,161.5,161.6,161.5h476.9c89.2,0,161.6-72.3,161.6-161.6
		V685.1C1808,595.8,1735.7,523.5,1646.4,523.5z"/>
</g>
<path d="M1416.6,674.3h-36.5c-1.8,0-3.1-1.7-2.6-3.5l16.3-55.4c0.8-2.8-2.7-4.7-4.6-2.5l-73.7,84.2c-1.5,1.7-0.3,4.5,2,4.5h36.5
	c1.8,0,3.1,1.7,2.6,3.5l-16.3,55.4c-0.8,2.8,2.7,4.7,4.6,2.5l73.7-84.2C1420.2,677.1,1418.9,674.3,1416.6,674.3z"/>
<g>
	<defs>
		<path id="SVGID_00000129908436729869003260000003758496479131039128_" d="M325.1,465.6l39,62c16.6,26.5,55.2,26.5,71.8,0l39-62
			c27.4-43.6,56.3-86.3,86.2-128.3c54.7-77,47.5-184.5-21.5-253.6c-77-77-202-77-279,0c-69,69.1-76.2,176.5-21.5,253.6
			C268.8,379.3,297.7,422,325.1,465.6z M321.1,144.3c43.6-43.6,114.3-43.6,157.8,0c43.6,43.6,43.6,114.3,0,157.8
			c-43.6,43.6-114.3,43.6-157.8,0C277.5,258.5,277.5,187.9,321.1,144.3z"/>
	</defs>
	<defs>
		<path id="SVGID_00000178163316356708942160000002130047460516090540_" d="M370.7,616.4l2.5-2.1l298-114.4l-3.7-15
			c-5-20.4-23.3-34.7-44.3-34.7H506.8c-5.5,8.5-10.9,16.9-16.2,25.3l-39,62C440.4,555.4,421.1,566,400,566
			c-21.1,0-40.4-10.7-51.7-28.6l-39-62c-5.3-8.4-10.7-16.8-16.1-25.3H176.8c-21,0-39.3,14.3-44.3,34.7l-0.3,1.1l192,170.6
			C351.3,633.3,370.4,616.7,370.7,616.4z"/>
	</defs>
	<defs>
		<path id="SVGID_00000088834888828253068390000010388035722126956471_" d="M392.6,646.7c-11.4,9.9-60.8,52.6-110.1,94.7
			c-14,11.9-26.8,22.8-38.4,32.6h325.6l-55.6-174L392.6,646.7z"/>
	</defs>
	<defs>
		<path id="SVGID_00000081620007808993277210000011779887281706299823_" d="M295.8,681L122.2,526.8l-47,190.7
			c-7.1,28.7,14.7,56.5,44.3,56.5h66.8c0.4-0.3,0.8-0.7,1.3-1.1c19.7-16.4,45.6-38.4,77.1-65.3C275.3,698.7,285.8,689.7,295.8,681z"
			/>
	</defs>
	<defs>
		<path id="SVGID_00000107584066096857796050000013593532851661450380_" d="M724.8,717.5l-44.7-181.2l-131.2,50.4L608.8,774h71.7
			C710.1,774,731.9,746.3,724.8,717.5z"/>
	</defs>
	
		<linearGradient id="SVGID_00000096742936853000586940000006208744419901149605_" gradientUnits="userSpaceOnUse" x1="202.7011" y1="286.6955" x2="597.2989" y2="286.6955">
		<stop  offset="0" style="stop-color:#18BFFB"/>
		<stop  offset="1" style="stop-color:#2072F3"/>
	</linearGradient>
	
		<use xlink:href="#SVGID_00000129908436729869003260000003758496479131039128_"  style="overflow:visible;fill:url(#SVGID_00000096742936853000586940000006208744419901149605_);"/>
	
		<linearGradient id="SVGID_00000056422480695541506250000014417032296439009450_" gradientUnits="userSpaceOnUse" x1="132.291" y1="553.3417" x2="671.1305" y2="553.3417">
		<stop  offset="0" style="stop-color:#18BFFB"/>
		<stop  offset="1" style="stop-color:#2072F3"/>
	</linearGradient>
	
		<use xlink:href="#SVGID_00000178163316356708942160000002130047460516090540_"  style="overflow:visible;fill:url(#SVGID_00000056422480695541506250000014417032296439009450_);"/>
	
		<linearGradient id="SVGID_00000048479845291286366870000000617997615145120897_" gradientUnits="userSpaceOnUse" x1="244.1489" y1="687.0383" x2="569.7008" y2="687.0383">
		<stop  offset="0" style="stop-color:#18BFFB"/>
		<stop  offset="1" style="stop-color:#2072F3"/>
	</linearGradient>
	
		<use xlink:href="#SVGID_00000088834888828253068390000010388035722126956471_"  style="overflow:visible;fill:url(#SVGID_00000048479845291286366870000000617997615145120897_);"/>
	
		<linearGradient id="SVGID_00000026144891888851563390000005450896578623930796_" gradientUnits="userSpaceOnUse" x1="73.8693" y1="650.4298" x2="295.8128" y2="650.4298">
		<stop  offset="0" style="stop-color:#18BFFB"/>
		<stop  offset="1" style="stop-color:#2072F3"/>
	</linearGradient>
	
		<use xlink:href="#SVGID_00000081620007808993277210000011779887281706299823_"  style="overflow:visible;fill:url(#SVGID_00000026144891888851563390000005450896578623930796_);"/>
	
		<linearGradient id="SVGID_00000125573020399620098410000007016918866343134098_" gradientUnits="userSpaceOnUse" x1="548.9061" y1="655.1597" x2="726.1307" y2="655.1597">
		<stop  offset="0" style="stop-color:#18BFFB"/>
		<stop  offset="1" style="stop-color:#2072F3"/>
	</linearGradient>
	
		<use xlink:href="#SVGID_00000107584066096857796050000013593532851661450380_"  style="overflow:visible;fill:url(#SVGID_00000125573020399620098410000007016918866343134098_);"/>
	<clipPath id="SVGID_00000147205097639600027220000004715828252235680952_">
		<use xlink:href="#SVGID_00000129908436729869003260000003758496479131039128_"  style="overflow:visible;"/>
	</clipPath>
	
		<clipPath id="SVGID_00000057130247930577735440000000709717376598901671_" style="clip-path:url(#SVGID_00000147205097639600027220000004715828252235680952_);">
		<use xlink:href="#SVGID_00000178163316356708942160000002130047460516090540_"  style="overflow:visible;"/>
	</clipPath>
	
		<clipPath id="SVGID_00000031195530182667978180000013617568902651730068_" style="clip-path:url(#SVGID_00000057130247930577735440000000709717376598901671_);">
		<use xlink:href="#SVGID_00000088834888828253068390000010388035722126956471_"  style="overflow:visible;"/>
	</clipPath>
	
		<clipPath id="SVGID_00000161632814986542735010000010176323657268783779_" style="clip-path:url(#SVGID_00000031195530182667978180000013617568902651730068_);">
		<use xlink:href="#SVGID_00000081620007808993277210000011779887281706299823_"  style="overflow:visible;"/>
	</clipPath>
	
		<clipPath id="SVGID_00000059287127001219710240000009428568662917686450_" style="clip-path:url(#SVGID_00000161632814986542735010000010176323657268783779_);">
		<use xlink:href="#SVGID_00000107584066096857796050000013593532851661450380_"  style="overflow:visible;"/>
	</clipPath>
	
		<linearGradient id="SVGID_00000155116844925917590370000016089985992842226832_" gradientUnits="userSpaceOnUse" x1="400" y1="281.2283" x2="400" y2="1081.2283" gradientTransform="matrix(1 0 0 1 0 -281.2283)">
		<stop  offset="0" style="stop-color:#18BFFB"/>
		<stop  offset="1" style="stop-color:#2072F3"/>
	</linearGradient>
	
		<path style="clip-path:url(#SVGID_00000059287127001219710240000009428568662917686450_);fill:url(#SVGID_00000155116844925917590370000016089985992842226832_);" d="
		M638.4,0H161.6C72.3,0,0,72.3,0,161.6v476.9C0,727.7,72.3,800,161.6,800h476.9c89.2,0,161.6-72.3,161.6-161.6V161.6
		C800,72.3,727.7,0,638.4,0z"/>
</g>
</svg>
