<?xml version="1.0" encoding="utf-8"?>
<!-- Generator: Adobe Illustrator 28.2.0, SVG Export Plug-In . SVG Version: 6.00 Build 0)  -->
<svg version="1.1" id="Layer_1" xmlns="http://www.w3.org/2000/svg" xmlns:xlink="http://www.w3.org/1999/xlink" x="0px" y="0px"
	 viewBox="0 0 1000 1000" style="enable-background:new 0 0 1000 1000;" xml:space="preserve">
<g>
	<g>
		<path d="M734.8,373.3c0-2.1,0-3.9,0-5.7c0-38.7,0-77.4,0-116.1c0-7.1,0.7-7.8,7.8-7.8c18.6,0,37.2-0.1,55.8,0.1
			c4.3,0.1,5.2-1.3,5.2-5.3c-0.2-18.9-0.1-37.8-0.1-56.7c0-5.7,0.8-6.5,6.6-6.5c21,0,42,0,63.1,0c6.4,0,7.3,0.9,7.3,7.4
			c0,41.4,0.1,82.8-0.1,124.2c0,4.4,1.2,5.5,5.5,5.5c18.7-0.2,37.5-0.1,56.2-0.1c5.8,0,6.6,0.9,6.6,6.5c0,21.2,0,42.3,0,63.5
			c0,6-0.8,6.7-6.9,6.7c-41.6,0-83.2,0.1-124.7-0.1c-4.4,0-5.5,1.2-5.5,5.5c0.2,18.9,0.1,37.8,0.1,56.7c0,2.4,0.3,5-2.6,6.1
			c-2.9,1.1-4.5-0.9-6.2-2.6c-20.8-20.8-41.7-41.7-62.5-62.6c-2.2-2.2-4.4-3.1-7.5-3.1c-18,0.1-36,0.1-54,0c-3.4,0-4.3,1-4.3,4.4
			c0.2,19.2,0.1,38.4,0.1,57.6c0,6-0.7,6.7-6.8,6.7c-21,0-42,0-63.1,0c-5.8,0-6.9-1.1-6.9-6.8c0-43.8,0-87.7,0-131.5
			c0-6.2,0.9-7,7.1-7c21.5,0,42.9,0,64.4-0.1c2.6,0,4.2,1.1,5.8,2.8c18.7,18.7,37.4,37.4,56.1,56.1
			C732.2,372,732.8,373.1,734.8,373.3z M811.8,282.4C811.8,282.4,811.8,282.4,811.8,282.4c0.1,31.3,0.1,62.5,0,93.8
			c0,3.8,1.1,4.7,4.8,4.7c17.1-0.2,34.2-0.2,51.2,0c3.1,0,4.1-0.8,4.1-4c-0.1-63-0.1-126,0.1-189c0-3.5-1.1-4.2-4.4-4.2
			c-16.9,0.2-33.9,0.2-50.8,0c-4.4-0.1-5.1,1.4-5.1,5.4C811.8,220.1,811.8,251.2,811.8,282.4z M803.5,441.9c0-1.6,0-3.2,0-4.8
			c0-34.8-0.1-69.5-0.1-104.3c0-25.4-0.1-50.8,0.1-76.2c0-3.6-1-4.6-4.6-4.6c-16.8,0.2-33.6,0.2-50.4,0c-3.9,0-5.1,0.8-5.1,5
			c0.2,40.8,0.1,81.6,0.1,122.5c0,2.6,0.6,4.5,2.5,6.4c18,17.9,35.9,35.9,53.9,53.8C800.7,440.5,801.3,441.9,803.5,441.9z
			 M606.5,384.7c0,19.9,0.1,39.9-0.1,59.8c0,3.9,1.1,4.7,4.8,4.7c16.9-0.2,33.8-0.2,50.8,0c3.5,0,4.6-0.8,4.6-4.5
			c-0.1-39.9-0.1-79.7,0-119.6c0-3.8-1.3-4.4-4.6-4.4c-16.9,0.1-33.8,0.2-50.8,0c-3.7,0-4.8,0.8-4.8,4.7
			C606.6,345.1,606.5,364.9,606.5,384.7z M910.5,320.8c-8.8,0-17.5,0.1-26.3,0c-2.5,0-3.8,0.3-3.8,3.4c0.1,17.8,0.1,35.6,0,53.4
			c0,2.6,0.8,3.3,3.3,3.3c17.7-0.1,35.3-0.1,53,0c2.8,0,3.6-0.8,3.6-3.6c-0.1-17.7-0.1-35.3,0-53c0-2.8-0.9-3.6-3.6-3.6
			C928,320.8,919.3,320.8,910.5,320.8z M674.7,327.7c0,16.9,0.1,33.5-0.1,50.1c0,3,1.6,2.9,3.7,2.9c15.6,0,31.1,0,46.7,0
			c0.9,0,2.1,0.5,2.5-0.1C709.9,363,692.5,345.5,674.7,327.7z"/>
		<path d="M112.8,757c1.3-2,0.8-3.6,0.8-5.2c0-18.9,0.1-37.8-0.1-56.7c0-3.6,1.1-4.9,4.6-4.5c4.6,0.5,10.5-2,13.5,1.1
			c2.7,2.8,0.8,8.7,0.8,13.2c0.1,27.6,0,55.3,0.1,82.9c0,3.9-1,4.7-5,5.2c-8.5,1-13.6-2.2-18.4-9.2c-13.3-19.4-27.5-38.3-41.3-57.3
			c-0.9-1.3-2-2.6-3.6-4.7c-0.1,2.6-0.2,4.1-0.2,5.7c0,20.1-0.2,40.2,0.1,60.3c0.1,4.4-1.4,5.5-5.4,5.1c-2.7-0.3-5.5-0.3-8.1,0
			c-4.3,0.5-5.7-0.8-5.6-5.4c0.3-21.1,0.1-42.3,0.1-63.5c0-9.7,0.1-19.3-0.1-29c-0.1-3.3,0.9-4.1,4.2-4.5c11.5-1.7,19,2.3,25.4,12.5
			c10.9,17.4,23.5,33.7,35.4,50.4C110.9,754.5,111.8,755.6,112.8,757z"/>
		<path d="M499.8,396.8c0-12.9,0.1-24.8-0.1-36.7c-0.1-3.6,0.6-5.3,4.6-4.9c4.9,0.6,11.5-2.1,14.3,1.1c2.4,2.8,0.8,9.2,0.8,14
			c0,27.5-0.1,55,0.1,82.5c0,3.8-1,5.1-4.8,4.8c-3.6-0.3-7.3-0.2-10.9,0c-3.1,0.2-4.4-0.9-4.1-4.1c0.2-2.1,0-4.2,0-6.2
			c-1.3-0.3-1.5,0.6-1.9,1.1c-11.8,16.3-38.5,15.3-48.9-2.5c-9.3-15.9-9.2-32.8,0.1-48.8c10.7-18.5,40.1-17.8,49.1-1.9
			C498.3,395.7,498.7,395.9,499.8,396.8z M499.9,420.1c-0.1-0.9-0.1-3-0.4-5.1c-1.5-9.4-8.3-15.6-17.5-16.1
			c-8.9-0.5-15.6,4.2-18.2,13.1c-1.9,6.5-2,13.1,0.1,19.6c3.3,10.2,12.8,15,23,11.7C495.5,440.6,500,433.2,499.9,420.1z"/>
		<path d="M320.6,767.8c3.8-14,7.6-27.8,11.2-41.7c1-3.8,2.4-5.4,6.6-5.2c10.7,0.3,10.7,0.1,13.5,10.3c3.2,11.3,6.3,22.7,9.4,34
			c0.2,0.8,0,1.9,1.6,2.5c2.8-9.1,5.7-18.2,8.5-27.4c1.7-5.5,3.4-10.9,5-16.5c0.6-2.1,1.6-3,3.8-2.9c3.6,0.2,7.3,0.2,10.9,0
			c3.4-0.2,4.1,0.7,3,4c-6,18.4-11.7,36.8-17.6,55.2c-1.3,4.1-1.3,9.6-4.5,12c-3.4,2.5-8.8,0.3-13.3,0.9c-4.1,0.5-5.7-1.2-6.7-5.2
			c-3.2-12.7-6.9-25.3-10.4-38c-0.3-1.1-0.2-2.5-1.8-3.3c-3.8,13.7-7.6,27.3-11.1,41c-1,4-2.4,6-6.9,5.4c-4.5-0.6-9.9,1.6-13.3-0.9
			c-3.3-2.5-3.3-8.2-4.7-12.4c-5.8-18.1-11.4-36.3-17.3-54.4c-1.2-3.7-0.4-4.7,3.4-4.4c4.8,0.3,10.6-1.3,14.2,0.8
			c3.7,2.2,3.5,8.6,5,13.1c3.3,10,6.4,20.2,9.5,30.2C319.1,766,319.1,767,320.6,767.8z"/>
		<path d="M350.2,563.4c8-11.1,18.3-13.7,30-11.6c11.9,2.1,19,11.4,19.3,25.5c0.4,14.8,0,29.6,0.1,44.4c0,2.5-0.7,3.5-3.3,3.5
			c-4.2-0.1-8.5-0.2-12.7,0c-3.1,0.1-3.8-1.1-3.7-4c0.1-11.6,0.1-23.3,0-34.9c0-2.7-0.1-5.5-0.6-8.1c-1.3-6.8-4.6-10.2-10.7-11.3
			c-6-1.1-12.3,1.8-15.5,7.2c-2.7,4.6-3.1,9.7-3.2,14.9c-0.1,10.7-0.1,21.5,0,32.2c0.1,3.2-1,4.3-4.1,4.1c-3.9-0.2-7.9-0.2-11.8,0
			c-2.9,0.1-3.5-1-3.5-3.7c0.1-31.6,0.1-63.2,0-94.8c0-2.9,0.8-4,3.8-3.8c3.9,0.2,7.9,0.2,11.8,0c3-0.2,3.9,0.9,3.8,3.8
			c-0.2,11-0.1,22.1-0.1,33.1C350,560.6,350.1,561.3,350.2,563.4z"/>
		<path d="M510.5,594.7c-7.7,0-15.4,0.1-23.1-0.1c-3-0.1-3.6,0.9-2.9,3.7c1.9,7.2,7.9,12.8,15.2,13.8c9.5,1.3,16.1-1.5,19.9-9
			c1.2-2.3,2.4-3.1,4.9-2.6c3.1,0.5,6.3,0.8,9.5,1.1c2.4,0.2,2.9,1.1,2.1,3.5c-3.7,12.3-14.4,21-28.7,22.1
			c-15.4,1.2-29-2.6-37.6-16.6c-11.2-18.1-5.4-52.9,24.4-58.5c26.2-5,44.9,11.3,43.3,40.1c-0.1,2.4-1.5,2.5-3.3,2.5
			C526.2,594.6,518.4,594.7,510.5,594.7z M501.1,582.2c4.4,0,8.8-0.2,13.1,0.1c3.6,0.2,4-1.3,3.2-4.3c-2.3-8.1-8.4-12.7-16.7-12.3
			c-7.7,0.4-14.2,6.3-15.8,14c-0.4,2.1,0.2,2.7,2.2,2.6C491.7,582.2,496.4,582.2,501.1,582.2z"/>
		<path d="M210.2,594.7c-7.7,0-15.4,0.1-23.1,0c-2.9-0.1-3.7,0.6-3,3.6c1.9,7.2,7.8,12.8,15.1,13.9c9.5,1.4,16.2-1.5,20-8.9
			c1.1-2.2,2.3-3.2,4.8-2.7c3,0.5,6,0.8,9,1c2.8,0.2,3.6,1.1,2.5,4c-4.8,13.5-14.8,20.2-28.5,21.7c-7.3,0.8-14.5,0-21.4-2.8
			c-13.9-5.6-21.7-18.3-21.4-34.6c0.3-19.1,11.5-33.9,28.6-37.7c24.5-5.5,44,9.9,44.2,35c0.1,9,1.1,7.4-7.3,7.5
			C223.2,594.7,216.7,594.7,210.2,594.7z M200.7,582.2c4.2,0,8.5,0,12.7,0c4.6,0,4.9-0.4,3.4-5c-2.6-8-8.5-12.1-16.7-11.6
			c-7.4,0.5-13.8,6.3-15.5,13.8c-0.5,2.4,0.4,2.8,2.5,2.8C191.6,582.2,196.1,582.2,200.7,582.2z"/>
		<path d="M802.6,594.7c-7.6,0-15.1,0.2-22.7-0.1c-3.9-0.1-4.3,1.4-3.3,4.5c2.2,7.2,8.4,12.4,15.8,13.1c8.3,0.7,15.4-1,19.3-9.3
			c0.7-1.4,1.2-2.7,3.2-2.5c3.6,0.5,7.2,0.9,10.8,1.1c2.9,0.2,2.9,1.6,2.1,3.9c-3.8,12.3-14.8,20.7-28.9,21.9
			c-7.3,0.6-14.5-0.1-21.3-3c-18.1-7.6-26.1-28.4-18.6-48.9c4.9-13.3,14.5-21.6,28.5-23.6c13.2-1.9,25.4,0.7,34.2,11.9
			c6.7,8.5,7.7,18.4,7.4,28.7c-0.1,2.6-1.8,2.3-3.4,2.3C818.1,594.7,810.4,594.7,802.6,594.7z M793.2,582.2c4.4,0,8.8-0.2,13.1,0.1
			c3.6,0.2,3.9-1.2,3.1-4.2c-2.4-8.2-8.3-12.7-16.6-12.4c-7.8,0.3-14.3,6.3-16,14.3c-0.4,2.1,0.3,2.3,1.9,2.3
			C783.5,582.2,788.4,582.2,793.2,582.2z"/>
		<path d="M324.1,447.9c-9.1,11.5-21.1,13.1-34.1,9.9c-7.5-1.8-12.5-6.7-13.7-14.6c-1.3-8.7,1.3-15.8,9.1-20.5
			c8.5-5.1,18.3-6,27.7-8.2c1.3-0.3,2.7-0.5,4-0.8c6-1.3,6.8-2.7,4.6-8.4c-1.8-4.7-5.6-6.6-10.3-6.8c-5.5-0.3-10.7,1.3-12.8,6.7
			c-1.9,4.8-4.7,5.4-8.9,4.6c-2.4-0.4-4.8-0.7-7.2-0.7c-3.5,0.1-4.1-1.5-3.1-4.5c3.5-11.1,11.2-17.6,22.4-20.1
			c6.4-1.4,12.9-1.3,19.4,0c12.8,2.6,20.2,11.4,20.6,24.5c0.2,9.4,0,18.7,0.1,28.1c0,7.6,1.5,9,8.8,7.8c1.9-0.3,2.3,0,2.5,1.8
			c0.9,7.3-1.4,10.6-8.7,12C334.7,460.5,329.3,457.7,324.1,447.9z M304.8,445.4c9.8,0.1,17.8-8,17.8-17.9c0-2.4-0.8-2.9-2.9-2.4
			c-5.9,1.4-11.8,2.6-17.5,4.3c-5.4,1.6-7.7,5-6.9,9.6C296,443.1,299.4,445.4,304.8,445.4z"/>
		<path d="M204.8,426.9c-7.7,0-15.4,0.1-23.1,0c-2.5,0-3.1,0.7-2.6,3.2c1.3,6.9,7.4,13,14.7,14.3c9.3,1.6,16.6-1.2,20.2-8.3
			c1.4-2.8,2.8-3.9,5.9-3c1.4,0.4,3,0.3,4.5,0.5c8.2,1.1,8.3-0.1,4.7,7.9c-4.5,10.2-12.9,15.6-23.7,17.7
			c-16.9,3.2-33.4-3.3-41.1-16.4c-7.9-13.4-6.4-33.2,3.5-45.7c9.5-11.9,25.8-16.5,41.4-11.7c13,4,21.8,15.9,22.6,30.4
			c0.6,11.3,0.6,11.3-10.6,11.3C215.7,426.9,210.3,426.9,204.8,426.9z M195.6,414.5c4.7,0,9.4-0.1,14.1,0c2.9,0.1,3.2-1,2.6-3.5
			c-1.8-7.8-7.5-12.9-15.2-13.1c-8.2-0.3-14.8,5-17.2,13.3c-0.9,2.9,0.1,3.4,2.6,3.3C186.8,414.4,191.2,414.5,195.6,414.5z"/>
		<path d="M446.6,783.4c-8.7,11.2-20.4,12.7-33.1,10c-7.9-1.7-13.2-6.6-14.6-14.9c-1.5-9.3,1.7-16.1,9.5-20.7
			c6.8-4,14.4-5.3,21.9-6.9c3.8-0.8,7.7-1.7,11.6-2.2c3.1-0.4,3.5-2,3.2-4.7c-0.6-5.2-3.5-8.7-8.5-9.9c-6.4-1.5-13,0.3-15.2,5.9
			c-2.3,5.7-5.7,5.9-10.5,4.8c-1-0.2-2.1-0.3-3.2-0.4c-7.5-0.5-7.6-0.6-4.8-7.5c3.7-9.1,10.6-14.5,19.9-16.8c7.3-1.8,14.7-1.7,22,0
			c11.4,2.7,18.4,10.5,19.1,22.3c0.6,9.9,0.3,19.9,0.3,29.9c0.1,7.9,0.9,8.7,9,7.8c0.7-0.1,1.4-0.4,2,0.4c1.4,2-0.2,9.7-2.4,11
			c-9.6,6-20.3,3.1-25.5-7.1C447.4,784.1,447,783.9,446.6,783.4z M427.6,780.8c9.8,0,17.8-8.1,17.7-18c0-1.7,0.1-3-2.4-2.4
			c-6,1.5-12.1,2.5-18,4.2c-5.3,1.5-7.7,5.3-6.9,9.7C418.7,778.5,422.2,780.8,427.6,780.8z"/>
		<path d="M182.7,719c22.8,0,38.1,15.3,38.1,38.2c0,22.5-15.5,38-37.9,38c-22.4,0-37.8-15.5-37.8-38C145,734.5,160.3,719,182.7,719z
			 M201.2,757.3c-0.3-2.4-0.5-4.8-0.9-7.2c-0.3-1.8-0.7-3.6-1.4-5.2c-2.8-7.1-8.5-11.1-16-11.1c-7.5,0-13.2,3.8-15.9,11.1
			c-2.7,7.3-2.9,14.8-0.6,22.2c2.7,8.8,8.3,12.9,16.9,12.9c8.3-0.1,14.1-4.7,16.6-13.4C200.6,763.6,201,760.5,201.2,757.3z"/>
		<path d="M897.9,563.7c6.5-9,14.3-12.6,24.1-12.4c14.3,0.2,23.3,8,25,22.2c1.1,9.6,0.3,19.3,0.5,29c0.1,6.2-0.1,12.4,0.1,18.6
			c0.1,3-0.7,4.4-4,4.2c-3.9-0.3-7.9-0.2-11.8,0c-2.9,0.1-3.9-0.7-3.9-3.8c0.2-11.6,0.1-23.3,0-34.9c0-2.7-0.2-5.4-0.7-8.1
			c-1.3-7.2-5-10.8-11.3-11.7c-6.3-0.8-12.4,2.5-15.3,8.3c-2.1,4.2-2.7,8.6-2.7,13.2c0,11-0.1,22.1,0.1,33.1c0,2.9-0.7,4.1-3.7,3.9
			c-4.2-0.2-8.5-0.1-12.7,0c-2.4,0.1-3.2-0.8-3.2-3.2c0.1-21.7,0.1-43.5,0-65.2c0-2.9,1.2-3.6,3.8-3.5c3.8,0.2,7.6,0.3,11.3,0
			c3.6-0.3,5,1,4.5,4.5C897.7,559.3,897.9,560.8,897.9,563.7z"/>
		<path d="M569.3,563.7c8-11.3,18.2-13.8,29.7-12c11.2,1.8,18.8,10.2,19.3,22.5c0.7,16,0.3,32,0.4,48c0,2.1-0.8,3.1-2.9,2.9
			c-0.2,0-0.3,0-0.5,0c-5.1-0.2-11.6,2.1-15-0.9c-3.2-2.8-0.8-9.4-1-14.3c-0.2-7.9,0-15.7-0.1-23.6c0-2.6-0.3-5.1-0.7-7.7
			c-1.2-7.2-4.8-11-11.1-12c-6.2-1-12.5,2.2-15.5,7.9c-2.2,4.1-2.7,8.6-2.7,13.2c0,10.9-0.1,21.8,0.1,32.6c0.1,3.4-0.7,5-4.4,4.7
			c-3.8-0.3-7.6-0.2-11.3,0c-3.3,0.2-4-1.2-4-4.2c0.1-21.2,0.1-42.3,0-63.5c0-3.5,1.1-4.5,4.4-4.3c3.6,0.3,7.3,0.3,10.9,0
			c3.7-0.3,4.9,1.1,4.4,4.6C569.2,559.3,569.3,560.8,569.3,563.7z"/>
		<path d="M381.6,395.9c9.1-12,20.2-14.6,33-11.1c10.2,2.8,16.2,11.7,16.5,24.9c0.4,14.8,0.1,29.6,0.1,44.4c0,2.5-0.9,3.5-3.4,3.4
			c-4.2-0.1-8.5-0.2-12.7,0c-2.8,0.1-3.6-0.8-3.6-3.6c0.1-11.6,0.1-23.3,0-34.9c0-2.9-0.2-5.8-0.7-8.6c-1.2-6.9-4.5-10.2-10.6-11.3
			c-6.3-1.1-12.2,1.6-15.4,7.1c-2.6,4.4-3.2,9.4-3.2,14.4c0,10.7-0.1,21.5,0.1,32.2c0.1,3.4-0.6,5-4.4,4.6c-3.7-0.3-7.6-0.2-11.3,0
			c-2.7,0.1-3.8-0.7-3.7-3.5c0.1-21.6,0.1-43.2,0-64.8c0-2.8,1-3.7,3.7-3.6c3.6,0.2,7.3,0.3,10.9,0c4.2-0.4,5.4,1.2,4.9,5.1
			C381.4,392.1,381.6,393.4,381.6,395.9z"/>
		<path d="M473.2,721c6.5,0,12.4,0.1,18.3,0c2.5-0.1,2.9,1.6,3.6,3.3c5.4,13.6,10.8,27.2,16.3,40.8c0.5,1.4,0.7,2.9,2.5,4.3
			c3.8-9.6,7.5-19.1,11.3-28.5c2.2-5.5,4.5-10.9,6.4-16.5c1-2.8,2.5-3.7,5.3-3.5c3.8,0.2,7.6,0.2,11.3,0c3.4-0.2,3.8,0.7,2.5,3.8
			c-9,21.4-17.9,42.9-26.8,64.4c-3.6,8.6-7.4,17.2-10.7,26c-1.4,3.6-3.3,4.9-7,4.5c-3.1-0.3-6.3-0.1-9.5-0.1c-4.9,0-4.9,0-2.9-4.7
			c2.6-6.1,5-12.3,7.8-18.4c1.1-2.4,1-4.5,0-6.9c-8.9-21.3-17.6-42.7-26.4-64.1C474.4,724.3,474,723.1,473.2,721z"/>
		<path d="M638.5,601.1c1.2-0.1,2.4,0,3.6-0.2c3-0.5,4.4,0.5,5.5,3.6c3.2,9.1,19.5,12.9,26.7,6.5c4-3.5,2.7-9.7-2.9-11.4
			c-6.2-1.8-12.7-2.6-19-3.9c-2.5-0.5-5-1.1-7.4-2c-7.8-2.8-12.7-8-13.5-16.5c-0.8-8.3,1.9-15.2,8.7-20.2
			c11.6-8.5,34.2-7.8,45.3,1.3c4.5,3.7,6.9,8.6,8.2,14.2c0.7,2.9-0.3,4.3-3.4,4c-1.8-0.1-3.6-0.1-5.4,0.1c-4.3,0.5-7.1,0-9.1-5.1
			c-2.8-7.1-17.1-9.5-23.2-4.6c-2.2,1.7-3.2,4-2.7,6.8c0.6,3.1,2.8,4.7,5.6,5.2c5.5,1.1,11,2,16.5,3c3.4,0.6,6.8,1.4,10,2.8
			c7.7,3.4,12.3,8.8,12.9,17.5c0.6,9.7-3.1,17.1-11.8,21c-13.6,6.1-27.4,5.8-40.7-1c-6.7-3.4-10.5-9.3-12.1-16.7
			c-0.7-3.3-0.3-5,3.5-4.6c1.6,0.2,3.3,0,5,0C638.5,601.2,638.5,601.2,638.5,601.1z"/>
		<path d="M45.1,573.5c0-15.4,0.1-30.8-0.1-46.3c0-3.4,1-4.5,4.4-4.3c3.9,0.3,7.9,0.3,11.8,0c3.6-0.3,4.6,1,4.5,4.5
			c-0.2,25.1,0,50.2-0.2,75.3c0,4.3,1,5.6,5.5,5.5c14.8-0.3,29.6,0,44.5-0.2c3.1,0,4.4,0.8,4.1,4.1c-0.2,3-0.2,6.1,0,9.1
			c0.3,3.3-1.2,4-4.2,4c-22.1-0.1-44.2-0.1-66.2,0c-3.2,0-4.1-1-4.1-4.2C45.2,605.2,45.1,589.3,45.1,573.5z"/>
		<path d="M116.5,459.6c-19.3,0-33.3-10.7-37.1-28.1c-4.2-19.7,3.9-37.9,20.5-44.7c12.9-5.3,25.8-5,37.7,2.9
			c7.9,5.3,11.6,13.3,13.3,22.4c0.4,2-0.1,3.1-2.4,3.1c-3.5,0.1-6.9,0.4-10.4,0.8c-2.6,0.3-3.6-0.6-4.3-3.2
			c-2.3-9.1-7.7-13.8-15.9-14.1c-10.7-0.5-17.6,5.7-19.2,17.4c-0.7,5.4-0.6,10.8,1.3,16.1c2.8,8.1,8.6,12.3,17,12.2
			c8.3-0.1,14.3-4.2,16.2-12.4c1.2-5.1,3.8-5.7,7.9-4.9c1.2,0.2,2.4,0.3,3.6,0.4c7.2,0.9,7.2,0.9,5.2,8.1
			C145.7,450.8,133.4,459.6,116.5,459.6z"/>
		<path d="M283.5,551.3c18.3,0,30.9,10.1,34.3,27.3c0.6,2.9,0.3,4.8-3.3,4.4c-0.7-0.1-1.5,0.1-2.3,0.1c-3.2,0.2-6.6,1.3-9.4,0.4
			c-2.9-1-2-5.2-3.5-7.9c-3.2-5.8-7.9-8.9-14.5-9.3c-6.9-0.3-12.6,1.9-16,8.2c-4.9,9.3-4.9,18.9-0.6,28.4c3.2,7,9.3,9.9,17.6,9.1
			c7.5-0.7,12.6-4.9,14.2-12c1.2-5.1,3.6-6.2,8.1-5.2c0.3,0.1,0.6,0,0.9,0.1c10,0.8,10.3,1.3,7,10.8c-5.4,15.5-20.8,24.1-38.6,21.4
			c-21.3-3.2-33.6-19.4-31.9-41.7C247.2,564.8,262.2,551.3,283.5,551.3z"/>
		<path d="M586.6,787.1c-9.8-6.8-9.9-16-0.8-22.5c1.3-0.9,3.7-1.2,1.3-3.8c-7.1-7.4-8.4-16.3-4.8-25.6c3.7-9.7,12-13.7,21.6-14.9
			c9-1,17.9-0.1,25.2,6.2c1.7,1.5,2.4,0.7,3.6-0.6c3.3-3.8,7.3-6.2,12.4-6.9c2.3-0.3,3.2,0.3,3.3,2.8c0.2,6.2,0.4,6.2-5.8,7.2
			c-1.2,0.2-2.3,0.6-3.5,0.8c-3.6,0.7-4.5,1.9-3,6c5.1,14.1-1.3,28.8-20.1,32c-6.6,1.1-13.3,0.8-19.7-1.3c-3.7-1.3-6.6,0.6-8,4.9
			c-1.2,3.6,0.3,6.6,3.9,7.9c2.2,0.8,4.5,0.7,6.7,0.7c9.2,0,18.5-0.1,27.7,0.1c10.9,0.2,18.4,5.7,20.4,14.6
			c1.9,8.4-1.6,16.7-9.2,21.5c-5.2,3.3-11,5-17,5.9c-10.1,1.4-20.2,1.5-30.1-1.2c-3.8-1-7.4-2.6-10.6-5.1
			c-9.5-7.4-8.2-21.2,2.6-26.6C583.8,788.4,585,787.9,586.6,787.1z M611.3,788.8c-6.3,0.4-12.7-0.7-18.9,1.1
			c-6.7,1.9-9.8,7.2-8.2,13.9c1.2,5.3,4.8,8.4,9.7,9.7c11.5,3.2,23,2.8,34.2-1.2c1.8-0.6,3.5-1.8,4.9-3.1c3.8-3.4,5.3-7.7,4-12.7
			c-1.1-4.6-4.9-6.2-9.1-7C622.5,788.3,616.9,789.2,611.3,788.8z M609.3,727.1c-11.5-0.1-18.2,6.2-18.3,17.1
			c-0.1,10.8,6.8,17.5,18.1,17.5c11.2,0,18.3-6.7,18.4-17.3C627.5,733.7,620.7,727.1,609.3,727.1z"/>
		<path d="M750,608.5c0,3.9-0.1,7.3,0,10.8c0.1,1.8-0.9,2.8-2.3,3.6c-8.9,5.2-18.3,6.3-27.9,2.7c-6.9-2.6-9.7-8.5-9.9-15.5
			c-0.3-12.5-0.3-25.1,0-37.6c0.1-4.2-1.1-5.7-5.3-5.3c-2,0.2-5,1.4-5.2-2.8c-0.5-7.9-0.4-8.6,4.3-9.2c6.1-0.7,9.5-4.2,10.9-9.9
			c0.3-1.3,0.6-2.6,0.9-4c1.8-7.9,1.8-7.8,9.8-7.7c2.9,0,4.1,0.7,3.9,3.8c-0.3,4.1,0.1,8.2-0.1,12.2c-0.1,2.9,0.6,4.1,3.7,3.9
			c4.2-0.2,8.5,0,12.7-0.1c2.6-0.1,3.3,0.9,3.4,3.4c0.4,10.5,0.5,10.5-9.9,10.5c-9.9,0-9.9,0-9.9,9.9c0,7.9,0,15.7,0,23.6
			c0.1,9.4,4.1,12.6,13.3,10.3C744.8,610.4,747.2,609.4,750,608.5z"/>
		<path d="M458,608.5c0,3.9-0.1,7.3,0,10.8c0,1.8-0.9,2.7-2.3,3.5c-8.9,5.2-18.3,6.3-27.8,2.6c-7.2-2.7-9.9-9-10-16.3
			c-0.2-12.2-0.2-24.5,0-36.7c0.1-4-0.8-5.8-5.2-5.4c-2,0.2-5,1.4-5.2-2.8c-0.5-7.8-0.4-8.6,4.3-9.3c5.9-0.8,9.3-4,10.6-9.6
			c0.7-2.8,1.4-5.6,1.9-8.4c0.5-2.7,1.8-3.7,4.6-3.6c10,0.3,8.1-1,8.2,8.1c0.1,11.8,0,11.8,11.7,11.8c8,0,7.7,0,8.1,8.2
			c0.2,4.6-1.1,6.2-5.7,5.7c-3.6-0.4-7.2,0-10.9-0.1c-2.3-0.1-3.3,0.7-3.2,3.1c0.1,10.7-0.1,21.4,0.1,32.2c0.2,7.5,3.4,9.8,10.9,8.9
			C451.3,611,454.1,609.6,458,608.5z"/>
		<path d="M65.6,406.1c0,15.7-0.1,31.4,0.1,47.1c0,3.3-0.7,4.7-4.2,4.4c-4.2-0.3-8.5-0.2-12.7,0c-2.7,0.1-3.7-0.7-3.7-3.6
			c0.1-31.7,0.1-63.4,0-95.2c0-2.7,0.8-3.7,3.6-3.6c4.5,0.2,9.1,0.2,13.6,0c3-0.2,3.5,1.1,3.4,3.7C65.6,374.7,65.6,390.4,65.6,406.1
			z"/>
		<path d="M244.6,406.6c0-15.9,0.1-31.7-0.1-47.6c0-2.9,0.8-4,3.8-3.8c3.8,0.2,7.6,0.3,11.3,0c3.6-0.3,4.5,1,4.5,4.5
			c-0.1,27.8-0.1,55.6-0.1,83.3c0,3.8-0.1,7.6,0,11.3c0.1,2.3-0.8,3.3-3.2,3.2c-4.2-0.1-8.5-0.2-12.7,0c-3.1,0.2-3.7-1.1-3.7-3.9
			C244.6,438,244.6,422.3,244.6,406.6z"/>
		<path d="M750.6,781.1c-7.1,10-16.3,14.6-27.9,14c-14.2-0.7-22.7-12.1-19-25.1c1.8-6.2,6.4-9.7,12-12.2c8-3.7,16.8-4.9,25.3-6.8
			c0.7-0.2,1.5-0.3,2.2-0.4c8.5-1.9,9.2-2.9,6.6-11.4c-1.8-5.9-5.8-9.6-11.8-10.7c-7.4-1.3-14.2-0.1-19.5,5.8c-1.8,2-3.2,4.4-4,7
			c-0.6,2-1.7,2.5-3.7,2.2c-5.9-0.8-6.4-1.6-4-7.1c7.1-16.5,31.9-22.3,45.6-10.5c5.8,5,7.7,11.7,7.8,19.1c0.1,11.5,0,23,0.1,34.4
			c0,5.9,2.5,7.8,8.4,6.9c1.2-0.2,3-2.3,3.8,0.1c0.6,1.8,0.5,3.8-1.2,5.4c-4.5,4.3-13.3,3.4-17.3-2
			C752.2,787.4,751.4,784.7,750.6,781.1z M726.6,787.2c15-0.1,24.7-12.2,24.2-28.5c-0.1-2.2-1.5-1.9-2.8-1.6
			c-8.6,2.1-17.5,3.2-25.8,6.4c-7.2,2.8-10,7.5-8.6,14.3C714.7,783.8,719.5,787.2,726.6,787.2z"/>
		<path d="M252.5,730.8c5.9-8.2,12.8-12.9,23-11.7c6,0.7,7.1,2,6.5,8c-0.4,4.2,0,8.4-1.3,12.5c-2.7-0.8-5.3-1.9-7.9-2.3
			c-11.3-1.7-19.5,5-20,16.8c-0.5,11.3-0.4,22.6-0.2,34c0.1,3.7-0.9,5.2-4.8,4.8c-3.9-0.3-7.8-0.1-11.8,0c-2.2,0.1-3.2-0.5-3.2-3
			c0.1-21.9,0.1-43.8,0-65.7c0-2.8,1.2-3.3,3.5-3.2c4.1,0.1,8.2,0.2,12.2,0c3.3-0.2,4.3,1.2,4,4.2
			C252.3,727,252.5,728.9,252.5,730.8z"/>
		<path d="M929,720c9,0,16.4,1.4,22.6,6.8c4.8,4.2,6.8,9.8,7.9,15.9c0.3,1.7,0.1,3.2-2,3.1c-2-0.1-4.5,1.8-5.9-1.2
			c-0.1-0.3-0.1-0.6-0.2-0.9c-4.2-13.6-17.1-19.6-30.5-14.2c-5.2,2.1-7.8,5.8-7.7,11.1c0.2,5.1,2.6,8.6,8.3,9.9
			c6.7,1.7,13.6,2.6,20.4,3.9c2.4,0.5,4.7,1.2,7,1.9c15.5,5.2,14.2,24.5,5.7,31.9c-11.4,10-36.1,8.9-46.3-2.4
			c-3.6-3.9-5.4-8.7-6.4-13.8c-0.5-2.3,0.3-3.5,2.6-3.6c2.1,0,4.6-2,5.8,1.9c4.7,14.9,20,21.3,34.1,14.4c4.6-2.2,7-6.1,6.8-10.8
			c-0.3-5.1-3.3-8-7.8-9.5c-6-2-12.4-2.6-18.6-3.9c-2.8-0.6-5.6-1.1-8.3-2.1c-7.1-2.5-11.9-7.2-12.7-15c-0.9-8.2,2-14.8,9.1-19.4
			C918,721,923.8,719.8,929,720z"/>
		<path d="M792.5,732.1c6.5-7.9,14-12.1,23.9-12.1c15,0.1,24.6,8.8,25.1,23.9c0.5,15.2,0.1,30.5,0.2,45.8c0,4.7-3.3,2.8-5.4,3
			c-2.4,0.2-4.8,0.6-4.7-3.4c0.3-9.1,0.1-18.1,0.1-27.2c0-4.8,0.1-9.7-0.1-14.5c-0.3-11.4-6.1-18.5-15.6-19.5
			c-10.9-1.1-20.1,5.3-22.8,15.8c-0.8,3-0.8,6-0.8,9c0,11.9-0.2,23.9,0.1,35.8c0.1,4.3-2.1,4.2-5,4.1c-2.7-0.1-5.2,0.6-5.2-3.9
			c0.2-21,0.2-42,0-63c0-4.6,2.7-3.7,5.3-3.8c2.7-0.1,5.3-0.3,4.8,3.8C792.3,728,792.5,730,792.5,732.1z"/>
		<path d="M842.5,589.3c0-10.7,0.1-21.4-0.1-32.1c0-2.8,0.6-4.2,3.8-3.9c5.1,0.5,11.5-2.1,14.8,1.1c2.8,2.8,0.8,9.2,0.8,14
			c0.1,17.5,0,35,0.1,52.5c0,3.3-0.7,4.7-4.2,4.4c-4.9-0.5-11.3,2.1-14.4-1.1c-2.8-2.9-0.7-9.2-0.8-14
			C842.4,603.2,842.5,596.3,842.5,589.3z"/>
		<path d="M131.9,588.9c0-10.6,0.1-21.1-0.1-31.7c0-2.9,0.7-4.1,3.8-3.9c4.2,0.2,8.4,0.1,12.7,0c2.1,0,3,0.7,3,2.9
			c0,22-0.1,44,0,66.1c0,2.5-1.2,3.1-3.3,3c-5.1-0.2-11.5,2-14.9-0.8c-3.3-2.8-0.9-9.3-1-14.2C131.7,603,131.9,596,131.9,588.9z"/>
		<path d="M862.5,756.7c0-7.7-0.1-15.4,0-23.1c0.1-2.9-0.7-4.2-3.8-3.9c-1.6,0.2-3.3,0-5,0c-1.5,0-2.3-0.6-2.3-2.1
			c0-1.3-0.3-2.9,1.7-3.1c9.5-0.7,11-7.7,12.5-15.1c0.5-2.5-0.9-7.5,4.3-6.7c4.5,0.7,1.7,4.7,2.1,7.1c0.6,3.8-1.5,8.8,0.9,11.3
			c2.4,2.5,7.4,0.6,11.3,0.9c1.4,0.1,2.7,0.1,4.1,0c2.9-0.3,4.4,0.4,4.4,3.9c0,3.3-1.2,4.1-4.2,4c-4.4-0.2-8.8,0-13.1-0.1
			c-2.3-0.1-3.2,0.7-3.2,3.1c0.1,15.3,0,30.5,0.2,45.8c0.1,6,3.3,8.6,9.4,8.4c3.2-0.2,6.2-1.3,9.1-2.6c1.3-0.6,3.2-2.5,3.9-1.2
			c1,1.8,1.1,4.5-0.3,6.5c-3.2,4.4-16.1,6.9-23.1,4.6c-5.5-1.9-8.8-6.9-8.9-14.4C862.4,772.1,862.5,764.4,862.5,756.7z"/>
		<path d="M696.2,731.4c-0.3,0-0.4,0.1-0.6,0.1c-16.1-5.2-27.5,2.5-28.2,19.6c-0.5,12.4-0.4,24.8-0.2,37.1c0.1,4-1.4,4.7-5,4.7
			c-3.6,0-5.4-0.4-5.3-4.8c0.3-20.4,0.2-40.8,0-61.1c0-4.3,1.6-4.9,5.3-4.9c3.6,0,5.4,0.7,4.9,4.7c-0.3,2.1,0,4.2,0,6.7
			c2-0.7,2.2-2.3,2.9-3.4c4.9-7.2,11.5-11,20.4-9.9c6,0.7,7.2,2.5,6.2,8.2C696.5,729.4,696.3,730.5,696.2,731.4z"/>
		<path d="M851.7,542.1c-9.9,0-9.9,0-9.9-9.9c0-9.4,0-9.4,9.6-9.4c10.8,0,10.8,0,10.8,10.9c0,8.4,0,8.4-8.3,8.4
			C853.2,542.1,852.5,542.1,851.7,542.1z"/>
		<path d="M141.5,542.1c-10.3,0-10.3,0-10.3-10c0-9.3,0-9.3,9.2-9.3c11.2,0,11.2,0,11.2,11c0,8.3,0,8.3-8.3,8.3
			C142.8,542.1,142.2,542.1,141.5,542.1z"/>
	</g>
</g>
</svg>
