<?xml version="1.0" encoding="utf-8"?>
<!-- Generator: Adobe Illustrator 28.2.0, SVG Export Plug-In . SVG Version: 6.00 Build 0)  -->
<svg version="1.1" id="Layer_1" xmlns="http://www.w3.org/2000/svg" xmlns:xlink="http://www.w3.org/1999/xlink" x="0px" y="0px"
	 viewBox="0 0 1000 1000" style="enable-background:new 0 0 1000 1000;" xml:space="preserve">
<style type="text/css">
	.st0{fill:#0F7E3F;}
	.st1{fill:#2291CD;}
	.st2{fill:#F8B817;}
	.st3{fill:#0C7F40;}
</style>
<g>
	<path class="st0" d="M469,367.4c41.3-2.5,73.3-22.6,101.6-51.3c44.3-45.1,88.6-90.2,131.8-136.4c8-8.6,16.8-15.3,29.3-13.2
		c10.9,1.8,18.8,7.8,22.7,18.4c3.8,10.7,1.7,20.5-5.8,28.5c-25.1,26.8-50.4,53.5-76,79.8c-28.2,28.9-55.5,58.8-86.1,85.1
		c-34.7,29.8-75.4,44.7-121.1,45.5c-111.3,1.8-222.6,0.9-333.9,0.4c-6.3,0-12.6-0.2-18.9-0.4c-17.1-0.5-28.7-12-28.8-28.4
		c-0.1-16.1,12.2-28,29.6-28.1c19.2-0.1,38.4,0.2,57.6,0.4c57,0.3,113.9,0.6,170.9,0.9c2,0,3.9-0.4,5.9-0.6c26,0.2,52,0.8,78,0.6
		C440.1,368.5,454.6,370,469,367.4z"/>
	<path class="st1" d="M98.1,477.3c2.8-0.7,4.8-3.7,8.1-2.9c3.1,3.8,7.4,2.1,11.2,2.1c253.5,0.1,507,0.1,760.6,0.1
		c13.7,0,27.8-2.4,34.7,15.7c3.6,9.4,5.6,15.2-1,23.3c-9.5,11.7-22.6,10.7-35.3,10.7c-255.2,0.1-510.4,0-765.5,0
		c-11.4,0-19.7-5.4-22.2-14.3C84.8,498.7,87.9,482,98.1,477.3z"/>
	<path class="st2" d="M589.9,187.6c0.2,53.4-42.2,93.4-92.7,93.8c-52.7,0.4-94.2-41.5-93.9-93.7c0.3-52,41.8-93.5,93.3-93.4
		C548.4,94.4,590.1,136.1,589.9,187.6z M533.2,188.8c-0.1-21.3-16.6-37.9-37.5-37.7c-19.2,0.2-35.6,16.9-35.6,36.4
		c-0.1,20.1,16.2,37.2,36,37.1C517.3,224.5,533.1,208,533.2,188.8z"/>
	<path class="st0" d="M832.8,276.6c0,4-2.9,10.6-8.6,16.3c-47.7,47.2-95.2,94.5-142.8,141.7c-11,10.9-28,10.9-39.4,0.5
		c-11.3-10.4-12.2-28.3-1-40.1c15.3-16.1,31.3-31.4,47-47c32.2-31.9,64.3-63.8,96.6-95.6c9.1-9,21.1-11,32-6
		C827.1,251.2,833,260.7,832.8,276.6z"/>
	<path class="st0" d="M392.5,347.5c-10,0.2-16.9-2.8-22.5-8.4c-41.7-41.6-83.5-83.2-124.9-125.1c-12.3-12.5-11.9-29.4-0.4-40.8
		c11.4-11.3,28.5-10.9,40.8,1.4c41.5,41.3,83.1,82.6,124.2,124.4c16.1,16.4,9.6,41.7-11.5,47.6C395.8,347.2,393.1,347.4,392.5,347.5
		z"/>
	<path class="st1" d="M738.2,568.6c45.1,0,90.1-0.2,135.2,0.1c24.9,0.1,37.4,23.2,24.6,44.5c-6,10-15.5,12.5-26.4,12.5
		c-74.2-0.1-148.5,1.8-222.7-0.8c-47.6-1.6-89.8,9.9-130.6,33.2c-36.2,20.7-74.2,38.1-112.2,55.2c-34.3,15.4-71.3,17.4-108,18.8
		c-40,1.5-80.2,1.3-120.3,1.6c-12.4,0.1-22-5.2-26.9-16.8c-4.9-11.8-2.7-22.8,6.1-32.2c7.3-7.8,17-8.2,26.7-8.3
		c31.1-0.3,62.3-0.6,93.4-0.8c25.5-0.2,50.9-2.6,76.2-6.1c20.9-2.9,38.9-12.8,57.3-21.7c38.4-18.7,76.5-37.9,114.5-57.3
		c31.4-16,64.5-23.1,99.7-22.6c37.8,0.6,75.6,0.1,113.4,0.1C738.2,568.3,738.2,568.5,738.2,568.6z M732.7,621.7
		c45.7,0,91.4,0,137.2,0c12.6,0,27.5-12.2,29.6-24.2c0.2-1,0.2-2-0.1-2.9c-3.8-13.6-16-22.6-30.7-22.6c-74.5,0-149.1-0.3-223.6,0.2
		c-26.7,0.2-53.4-2.6-79.7,8.8c-13,5.7-27.9,8-41,14.9c-22.7,11.9-46.7,21.2-67.3,36.8c-1.2,0.9-2.9,1.6-4.5,1.7
		c-9.3,0.6-17.4,5.4-25.2,9c-17.6,8.2-33.6,19.7-52.7,25.3c-8.6,2.5-17.3,3.6-26,5.2c-23.7,4.4-47.6,6-71.5,7.3
		c-21.5,1.2-42.9-1.2-64.4-2c-8.2-0.3-16.1,3.7-24.5,1.3c-11.3-3.3-20.9-0.1-27.9,9.3c-6.1,8.3-9.1,15.4-2.1,27
		c5.8,9.5,11.1,12.3,20.7,12.2c33.5-0.1,66.9-0.7,100.4,0.2c24.8,0.7,48.9-4.4,73.4-6.7c10-0.9,20-1.6,30-4.6
		c8.7-2.5,15-9,23.7-10.9c6.7-1.5,13.3-4.1,19.3-7.3c23.1-12.4,47.5-22.2,70.4-35.1c18.9-10.6,38.7-19.5,57.9-29.5
		c16.5-8.5,33.1-14.3,52.4-13.8C648.5,622.4,690.6,621.7,732.7,621.7z"/>
	<path class="st3" d="M889.9,361.7c0,6.9-1.9,13.1-6.8,18.1c-20.7,20.9-41,42.3-62.6,62.4c-16.9,15.7-42.1,6.8-46.8-15.7
		c-1.9-9,0.6-17.4,6.9-23.8c20.4-20.8,40.9-41.5,61.8-61.9c9.3-9,20.6-10.4,32.1-4.7C884.9,341.2,890,350,889.9,361.7z"/>
	<path class="st0" d="M190,239.4c8.1-0.4,15,2.6,20.6,8.1c19.9,19.8,39.9,39.6,59.4,59.9c12.1,12.6,11.8,29.3,0.2,40.7
		c-11.2,11-28.7,10.4-40.9-1.6c-19.5-19.3-39-38.7-58.3-58.2c-9-9.1-11.3-19.9-6.7-31.9C168.2,246.3,178.6,239.5,190,239.4z"/>
	<path class="st1" d="M555.6,693.2c23.5-13,49-17.5,75.6-17.4c66.6,0.2,133.2,0.3,199.8,0.6c16.9,0.1,29.4,12.5,29.2,28.5
		c-0.2,16.1-12.8,28.4-29.6,28.4c-67.3,0-134.5,0.2-201.8-0.2c-18.5-0.1-35.5,4.5-51.5,12.7c-53.9,27.5-110,50.2-165.3,74.7
		c-29.9,13.2-61.6,14.5-93.5,14.9c-14.9,0.2-29.8,0.2-44.7,0c-18.1-0.2-30.2-12-30.2-28.7c0.1-16.9,12-27.7,30.5-28
		c23.8-0.3,47.7-1.1,71.5-1.3c24-0.2,45.3-9.4,66.4-19c42.4-19.4,85.8-36.7,127.5-57.6C544.8,698.1,549.4,693.8,555.6,693.2
		c-1.1,3-3.4,4.8-6.1,6.2c-11.1,5.8-19.3,15.2-33.3,17.8c-15.3,2.9-29.1,13.1-44,19.2c-7.9,3.3-15.9,7-23.4,10.6
		c-20.1,9.7-42.1,15.2-61.2,27.1c-10.4,6.5-22.8,6.3-34.2,6.2c-27.1,0-54.2,2-81.3,2.4c-9.2,0.1-21.9,11.3-22.7,19.6
		c-0.9,9.3,8.2,21.7,16.1,26.9c7.8,5.2,14.7,1.2,21.9,1.2c20.9,0.2,41.8-0.4,62.6,0.2c18,0.5,34-7.7,50.2-12.5
		c16.5-4.9,34-9.6,49.8-18.5c9.5-5.3,16.3-14,29.5-15.5c21.5-2.4,39.3-17.1,59.2-25.6c19.1-8.1,37.3-18.4,56.7-25.9
		c6.7-2.6,13.2-3.6,20.2-3.6c70.2,0.1,140.5-0.2,210.7,0.4c11.5,0.1,16.8-9,25.6-12.4c0.9-0.4,1.7-2.1,1.9-3.3
		c3.2-17.9-4.7-32.7-25-32.6c-67.6,0.3-135.2,0.5-202.8-0.2c-14.7-0.2-28.4,5.6-43,5c-2.7-0.1-6.5,1-8.2,3
		C569.2,695.5,562.3,693.2,555.6,693.2z"/>
	<path class="st1" d="M98.1,477.3c-10.1,4.7-13.3,21.4-9.6,34.7c2.5,8.9,10.8,14.3,22.2,14.3c255.2,0,510.4,0,765.5,0
		c12.7,0,25.8,1,35.3-10.7c6.6-8.1,4.6-13.9,1-23.3c-6.9-18.1-21-15.7-34.7-15.7c-253.5-0.1-507,0-760.6-0.1c-3.8,0-8,1.6-11.2-2.1
		c3.3-0.1,6.6-0.4,9.9-0.4c256.9,0,513.7,0,770.6,0c19.2,0,28.7,5.9,33.1,20.5c5,16.6-7.1,34.6-24.5,35.8
		c-6.6,0.5-13.3,0.1-19.9,0.1c-252.9,0-505.8,0-758.7,0c-5,0-10,0.1-14.9-0.5c-11.1-1.6-20.6-11.2-22.5-22.3
		c-2.1-12.5,2.9-24.4,12.8-29.9C93.9,476.8,96,473.9,98.1,477.3z"/>
	<path class="st1" d="M601.7,844.6c-5.9,6.8-14.6,8.5-22.2,12.1c-32.3,15.3-64.7,30.5-97.2,45.5c-13.2,6.1-24.4,4-33.8-5.4
		c-8.7-8.7-10.5-20.9-5.1-33.1c3-6.8,8.6-10.8,15-13.8c50.9-23.9,101.9-47.6,152.9-71.5c4.7-2.2,9.4-3,14.4-3
		c37.1,0,74.2-0.1,111.3,0.1c17.2,0.1,29.1,11.8,29.3,28.3c0.3,15.4-12.9,28.5-29.4,28.6c-28.5,0.2-57,0.6-85.5-0.2
		c-14.1-0.4-26.8,2.4-38.9,9c-3.4,1.8-6.7,4.5-11.1,3.5c11.6-11.2,25.2-16.5,41.7-16.3c30.8,0.5,61.6,0.2,92.5,0.1
		c7.5,0,22.4-9.7,24.5-15.9c5.6-16.2-7-33.8-24.4-33.8c-36.5-0.1-72.9,0-109.4,0c-2.6,0-5.9-0.4-7.7,1
		c-20.6,15.7-46.9,19.7-68.7,33.5c-16.1,10.2-35.3,15.3-52.5,24.3c-11.1,5.8-22.1,12.5-35,15.5c-6.5,1.5-13,7.6-16.3,14.7
		c-4,8.6-2.3,18.3,3.8,23.7c5.5,5,12.8,11.2,22.6,8.3c17.1-5.1,32.9-12.9,48.4-21.7c7-3.9,13.6-8.5,21.8-10.1
		c14.9-2.9,26.7-13.2,40.9-18.3C589.7,847.6,595.1,844.3,601.7,844.6z"/>
	<path class="st1" d="M387,585.5c7.9,6.4,7.4,14.9,5.2,23.4c-3,11.2-10.2,18.6-21.9,20.4c-5.8,0.9-11.9,0.6-17.8,0.6
		c-77.5,0-154.9-0.5-232.4,0.4c-22.2,0.3-38.7-21.6-28.1-42c6.2-11.9,17-15.7,29.8-15.7c67.9,0.1,135.7,0,203.6,0
		c11.9,0,23.8-0.1,35.7,0c3.5,0,7.4-0.9,9.9,2.9l-0.5,0.7c-79.5-0.1-159.1,0.3-238.6-0.5c-14.6-0.2-25.4,2.8-34.6,14.6
		c-8.2,10.6-5.8,22.4,6.8,26.1c1.2,0.3,2.9,1.2,3.1,2.1c1.9,9.1,9,7.2,15,7.2c50.7,0,101.4,0,152.1,0c29.8,0,59.7,0,89.5,0
		c6.7,0,23.9-14.7,24.6-21c0.2-1.3,0-2.7-0.5-3.9c-2.1-4.8-1-9.8-1.4-14.7L387,585.5z"/>
	<path class="st1" d="M371.1,575.5c7.8-0.7,13.2,2.6,15.9,10c0,0-0.5,0.5-0.5,0.5c-6.2-1.8-12.1-4.2-16-9.8L371.1,575.5z"/>
	<path class="st1" d="M732.7,621.7c-42.1,0-84.2,0.7-126.2-0.3c-19.3-0.5-35.9,5.3-52.4,13.8c-19.2,10-39,18.9-57.9,29.5
		c-22.9,12.8-47.3,22.7-70.4,35.1c-6,3.2-12.7,5.8-19.3,7.3c-8.7,2-15,8.4-23.7,10.9c-10,2.9-20,3.6-30,4.6
		c-24.4,2.3-48.5,7.4-73.4,6.7c-33.4-0.9-66.9-0.3-100.4-0.2c-9.5,0-14.9-2.7-20.7-12.2c-7-11.5-4.1-18.6,2.1-27
		c7-9.5,16.6-12.7,27.9-9.3c8.4,2.5,16.3-1.6,24.5-1.3c21.4,0.8,42.9,3.1,64.4,2c24-1.3,47.8-3,71.5-7.3c8.7-1.6,17.4-2.6,26-5.2
		c19.1-5.6,35-17.2,52.7-25.3c7.8-3.6,15.9-8.5,25.2-9c1.5-0.1,3.2-0.8,4.5-1.7c20.6-15.6,44.7-24.9,67.3-36.8
		c13.1-6.9,28-9.2,41-14.9c26.2-11.4,53-8.7,79.7-8.8c74.5-0.5,149.1-0.2,223.6-0.2c14.7,0,26.9,9,30.7,22.6c0.3,0.9,0.2,2,0.1,2.9
		c-2.1,12-17,24.2-29.6,24.2C824.1,621.7,778.4,621.7,732.7,621.7z"/>
	<path class="st1" d="M555.6,693.2c6.7,0,13.6,2.3,19.2-4.2c1.7-2,5.5-3.1,8.2-3c14.6,0.6,28.2-5.1,43-5
		c67.6,0.7,135.2,0.5,202.8,0.2c20.3-0.1,28.2,14.6,25,32.6c-0.2,1.2-0.9,2.9-1.9,3.3c-8.8,3.4-14.1,12.5-25.6,12.4
		c-70.2-0.6-140.5-0.3-210.7-0.4c-7,0-13.5,1-20.2,3.6c-19.5,7.5-37.6,17.8-56.7,25.9c-19.9,8.5-37.7,23.2-59.2,25.6
		c-13.1,1.5-20,10.2-29.5,15.5c-15.8,8.8-33.3,13.6-49.8,18.5c-16.2,4.8-32.2,13.1-50.2,12.5c-20.9-0.6-41.7,0-62.6-0.2
		c-7.2-0.1-14.1,4-21.9-1.2c-7.8-5.2-16.9-17.7-16.1-26.9c0.8-8.3,13.5-19.5,22.7-19.6c27.1-0.4,54.1-2.4,81.3-2.4
		c11.4,0,23.8,0.2,34.2-6.2c19.1-11.9,41-17.4,61.2-27.1c7.5-3.6,15.5-7.4,23.4-10.6c14.9-6.2,28.7-16.3,44-19.2
		c14-2.7,22.2-12,33.3-17.8C552.2,698,554.5,696.2,555.6,693.2C555.6,693.2,555.6,693.2,555.6,693.2z"/>
	<path class="st1" d="M601.7,844.6c-6.7-0.3-12,3-17.9,5.1c-14.2,5.1-26,15.4-40.9,18.3c-8.2,1.6-14.9,6.2-21.8,10.1
		c-15.5,8.8-31.3,16.5-48.4,21.7c-9.8,3-17.1-3.3-22.6-8.3c-6-5.4-7.8-15.1-3.8-23.7c3.3-7.1,9.8-13.2,16.3-14.7
		c12.9-2.9,23.9-9.7,35-15.5c17.2-9,36.5-14.1,52.5-24.3c21.8-13.9,48-17.8,68.7-33.5c1.8-1.4,5.1-1,7.7-1
		c36.5-0.1,72.9-0.1,109.4,0c17.4,0,30,17.6,24.4,33.8c-2.1,6.2-17,15.9-24.5,15.9c-30.8,0-61.7,0.4-92.5-0.1
		c-16.4-0.3-30,5-41.7,16.3C601.6,844.7,601.7,844.6,601.7,844.6z"/>
	<path class="st1" d="M370.6,576.2c3.8,5.7,9.7,8,16,9.8c0.4,4.9-0.7,9.9,1.4,14.7c0.5,1.2,0.6,2.6,0.5,3.9c-0.8,6.4-18,21-24.6,21
		c-29.8,0-59.7,0-89.5,0c-50.7,0-101.4,0-152.1,0c-6,0-13.1,2-15-7.2c-0.2-0.9-1.9-1.7-3.1-2.1c-12.6-3.7-14.9-15.5-6.8-26.1
		c9.2-11.8,20-14.8,34.6-14.6C211.5,576.5,291,576.1,370.6,576.2z"/>
</g>
<path class="st1" d="M337.7,572.6c0,0,47-4.6,54.5,19.6C376.6,597.6,337.7,578.9,337.7,572.6z"/>
<path class="st1" d="M364.6,630.3H117.8c-16,0-28.9-13-28.9-28.9v0c0-16,13-28.9,28.9-28.9h246.9c16,0,28.9,13,28.9,28.9v0
	C393.6,617.3,380.6,630.3,364.6,630.3z"/>
<path class="st1" d="M892.1,531.2H104.7c-16,0-28.9-13-28.9-28.9v0c0-16,13-28.9,28.9-28.9h787.3c16,0,28.9,13,28.9,28.9v0
	C921,518.2,908,531.2,892.1,531.2z"/>
<path class="st1" d="M479.5,903.4c0,0,119.9-62.7,167.9-71.2c24.6-17.7,6.5-19.5,6.5-19.5l-76.4,5.6
	C577.4,818.3,474,890.4,479.5,903.4z"/>
</svg>
