<?xml version="1.0" encoding="utf-8"?>
<!-- Generator: Adobe Illustrator 28.2.0, SVG Export Plug-In . SVG Version: 6.00 Build 0)  -->
<svg version="1.1" id="Layer_1" xmlns="http://www.w3.org/2000/svg" xmlns:xlink="http://www.w3.org/1999/xlink" x="0px" y="0px"
	 viewBox="0 0 1000 1000" style="enable-background:new 0 0 1000 1000;" xml:space="preserve">
<style type="text/css">
	.st0{opacity:0.17;}
	.st1{fill:url(#SVGID_1_);}
	.st2{fill:url(#SVGID_00000085971521362057721070000000590477657552749961_);}
	.st3{fill:url(#SVGID_00000132809054032208590440000012657469366189517705_);}
	.st4{fill:url(#SVGID_00000177442965063180224640000013848790754237634211_);}
	.st5{fill:url(#SVGID_00000039825329687637243050000009389514421613526426_);}
	.st6{fill:#4582C4;}
	.st7{fill:url(#SVGID_00000141420163050607383350000013036822814090892439_);}
	.st8{fill:url(#SVGID_00000181080063104931392550000017448339017054024843_);}
	.st9{fill:url(#SVGID_00000015326529695613125930000014710490677275313586_);}
	.st10{fill:url(#SVGID_00000072278171722946201880000007110426607327351974_);}
	.st11{font-family:'BebasNeueBook';}
	.st12{font-size:65.6677px;}
	.st13{fill:#41B7EA;}
	.st14{font-family:'BebasNeueBold';}
	.st15{font-size:57.0626px;}
	.st16{font-size:60px;}
	.st17{font-size:53.6183px;}
	.st18{font-size:88.5831px;}
</style>
<g class="st0">
	<g>
		
			<linearGradient id="SVGID_1_" gradientUnits="userSpaceOnUse" x1="251.3554" y1="1036.097" x2="254.0857" y2="590.8746" gradientTransform="matrix(1 0 0 1 0 -398)">
			<stop  offset="0" style="stop-color:#44BCED"/>
			<stop  offset="9.227648e-02" style="stop-color:#42B8EA"/>
			<stop  offset="0.2024" style="stop-color:#40A8DF"/>
			<stop  offset="0.2926" style="stop-color:#4297D3"/>
		</linearGradient>
		<path class="st1" d="M474.3,551.4c0.7,1.3-0.7,3.1-5.8,5.7c-0.7,0.3-1.3,0.7-2,1c-0.7,0.4-1.6,0.7-2.4,0.9c-1.8,0.7-3.7,1.3-6,2
			c-0.6,0.2-1.1,0.4-1.8,0.6c-0.6,0.2-1.2,0.4-1.9,0.5c-1.3,0.4-2.6,0.7-4,1s-2.9,0.7-4.5,1c-1.6,0.4-3.2,0.6-4.9,0.9
			c-1.8,0.3-3.5,0.6-5.4,0.9c-0.9,0.2-1.9,0.3-2.9,0.4c-1,0.1-2,0.3-3,0.4c-2,0.3-4.1,0.5-6.3,0.7c-2.1,0.2-4.4,0.4-6.7,0.6
			c-4.6,0.4-9.6,0.5-14.9,0.7c-2.6,0.1-5.3,0-8.1,0c-1.4,0-2.8,0-4.2,0c-1.4,0-2.9-0.1-4.3-0.1c-23.3-0.6-51.1-3.9-83.1-9.5
			c-31.8-5.5-64.7-12.5-97.6-15.8c-16.5-1.8-32.8-2.3-48.6-1.7c-7.9,0.3-15.6,1-23.1,2c-1.9,0.3-3.7,0.6-5.6,0.8l-1.4,0.2l-1.4,0.3
			c-0.9,0.2-1.8,0.4-2.7,0.5c-3.6,0.7-7.1,1.5-10.6,2.2c-13.8,3.3-26.1,7.5-36.5,12c-10.5,4.5-19.1,9.2-25.8,13.4
			c-0.8,0.6-1.7,1-2.5,1.6c-0.7,0.5-1.5,1-2.2,1.5c-1.5,1-2.8,2-4.1,2.8c-2.4,1.9-4.5,3.3-6.1,4.6c-3.2,2.7-4.8,4.1-4.8,4.1
			s1.3-1.6,3.8-4.6c1.3-1.5,3-3.3,4.9-5.3c1-1,2.2-2,3.4-3.3c0.7-0.6,1.2-1.2,1.9-1.8c0.7-0.6,1.4-1.2,2.1-1.9
			c5.9-5,13.6-10.7,23.6-16.5c10-5.7,22.2-11.4,36.6-16.2c3.6-1.1,7.3-2.3,11.2-3.3c0.9-0.3,2-0.6,2.9-0.8l1.5-0.4l1.5-0.4
			c2-0.5,4-0.9,6-1.4c8.2-1.8,16.7-3.3,25.6-4.2c17.7-2,36.3-2.5,54.5-1.7s36.3,2.8,53.5,5.2c17.3,2.4,33.8,5.3,49.5,8
			c31.1,5.4,56.4,8.9,77.3,10.4c1.3,0.1,2.6,0.2,3.8,0.3c1.3,0.1,2.5,0.1,3.7,0.2c2.4,0.1,4.8,0.3,7.2,0.4c4.6,0.1,9,0.4,13,0.4
			c2,0,4,0.1,5.9,0.1c1.9,0,3.7-0.1,5.5-0.1c0.9,0,1.8,0,2.6,0s1.7,0,2.5-0.1c1.7-0.1,3.3-0.1,4.7-0.2c1.5-0.1,3.1-0.1,4.5-0.2
			c1.4-0.1,2.8-0.2,4.1-0.3c1.3-0.1,2.6-0.1,3.8-0.2c0.6,0,1.2,0,1.8-0.1c0.6,0,1.1-0.1,1.7-0.1c2.2-0.2,4.2-0.3,5.9-0.4
			c0.9,0,1.8,0,2.6-0.1c0.8,0,1.6-0.1,2.2-0.1C470.5,549.4,473.6,550.1,474.3,551.4z"/>
	</g>
	<g>
		
			<linearGradient id="SVGID_00000091735267694346495350000011557507724218691247_" gradientUnits="userSpaceOnUse" x1="164.3404" y1="961.6266" x2="862.9559" y2="961.6266" gradientTransform="matrix(1 0 0 1 0 -398)">
			<stop  offset="0" style="stop-color:#719F40"/>
			<stop  offset="1" style="stop-color:#8FC640"/>
		</linearGradient>
		<path style="fill:url(#SVGID_00000091735267694346495350000011557507724218691247_);" d="M862.9,517.1l-19.1,94
			c-0.3,1.3-1.6,2.2-2.9,2l-70.5-40.3c-1.3-0.3-2.2-1.6-2-2.9l2.4-12c-6.3-0.8-13.9-1.9-22.8-3.2c-8.6-1.3-18.7-2.8-30.1-4.4
			c-11.4-1.6-24.5-3.3-39-4.6c-7.3-0.7-15-1.2-23.1-1.7c-8.1-0.5-16.6-0.7-25.6-0.6c-17.8,0.2-37.4,1.6-57.6,5.8
			c-2.5,0.5-5,1.1-7.5,1.7c-2.5,0.7-5,1.3-7.5,1.9c-5,1.3-10,2.9-15.1,4.6c-10.1,3.3-20.3,7.3-30.9,11.4c-10.5,4.1-21.4,8.4-33,12.4
			c-11.5,4-23.4,7.4-35.4,10.4c-24.1,5.9-48.7,9.9-72.7,12.2c-12,1.1-23.7,1.8-35.2,2c-2.9,0-5.7,0.2-8.6,0.2h-8.4
			c-5.6-0.1-11.1-0.2-16.4-0.5c-10.7-0.5-20.9-1.1-30.7-2.2c-1.2-0.1-2.4-0.3-3.6-0.4c-1.2-0.1-2.4-0.3-3.5-0.4
			c-2.3-0.3-4.6-0.6-7-0.8c-2.3-0.4-4.6-0.7-6.8-0.9c-1.1-0.2-2.2-0.4-3.3-0.5c-1.1-0.2-2.1-0.4-3.3-0.6
			c-17.1-2.8-31.7-6.1-43.5-9.4s-20.7-6.3-26.9-8.4c-3.1-1.1-5.3-2-6.9-2.6c-1.4-0.5-2.1-0.8-2.3-0.8c0.4,0.1,3.8,1,9.9,2.6
			c6.5,1.6,15.9,3.9,28.1,6.1c12.1,2.3,27,4.5,44,6c1,0.1,2.1,0.2,3.2,0.3c1.1,0.1,2.1,0.2,3.3,0.3c2.2,0.2,4.4,0.4,6.7,0.5
			c2.2,0.1,4.6,0.3,6.9,0.4c1.1,0,2.3,0.1,3.4,0.2c1.2,0,2.3,0.1,3.5,0.1c9.5,0.4,19.4,0.5,29.7,0.3c5.1-0.1,10.3-0.3,15.6-0.5
			c2.6-0.2,5.3-0.3,8-0.5c2.7-0.1,5.4-0.4,8.1-0.6c10.8-0.8,21.8-2,33-3.6c22.2-3.3,44.7-8,66.3-14.3c10.9-3.2,21.4-6.7,31.6-10.7
			c10.2-3.9,20.5-8.3,30.9-12.7c10.4-4.4,21.2-8.8,32.5-12.7c5.7-2,11.4-3.8,17.5-5.5c3-0.8,6-1.6,8.9-2.3c3.1-0.7,6-1.4,9-2
			c12.1-2.4,23.8-4,35-5c11.2-0.9,21.9-1.3,32.1-1.3s19.6,0.5,28.5,1.1c8.9,0.7,17.2,1.5,25,2.5c15.5,2,29,4.4,40.6,6.7
			c11.6,2.4,21.6,4.7,29.9,7c6.8,1.8,12.6,3.4,17.7,5l4.4-21.7c0.3-1.4,1.6-2.2,2.9-2l80.3-8.2C862.3,514.5,863.2,515.8,862.9,517.1
			z"/>
	</g>
	<g>
		
			<linearGradient id="SVGID_00000181061949633269042830000008030019392518394240_" gradientUnits="userSpaceOnUse" x1="595.9686" y1="796.0592" x2="595.9686" y2="1032.8127" gradientTransform="matrix(1 0 0 1 0 -398)">
			<stop  offset="0.5845" style="stop-color:#4297D3"/>
			<stop  offset="0.6405" style="stop-color:#439CD6"/>
			<stop  offset="0.7103" style="stop-color:#41ABE1"/>
			<stop  offset="0.7625" style="stop-color:#44BCED"/>
		</linearGradient>
		<path style="fill:url(#SVGID_00000181061949633269042830000008030019392518394240_);" d="M707.7,595.2c-1.1,0-2.1-0.2-3.2-0.6
			c-1-0.4-2-0.9-3.2-1.7c-2.2-1.4-4.6-3.4-8.7-5.9c-1-0.6-2.1-1.2-3.4-1.9c-1.2-0.7-2.6-1.2-4.2-1.8c-3.1-1.2-6.9-2.3-11.7-3.4
			c-4.7-1-10.6-2-17.6-2.9c-6.9-0.8-14.4-1.6-23-2c-8.5-0.4-17.4-0.5-26.4-0.2c-9.1,0.3-18.3,0.9-27.5,2c-18.4,2-36.3,5.9-51.6,10.3
			c-7.6,2.2-14.6,4.6-20.7,7.1c-3.1,1.2-5.9,2.4-8.6,3.5c-2.6,1.2-5,2.2-7.2,3.3c-1.1,0.6-2,1-3.1,1.5c-0.9,0.5-1.9,0.9-2.6,1.4
			c-1.7,0.8-3.1,1.6-4.2,2.2c-2.2,1.2-3.4,2-3.4,2s0.8-0.8,2.5-2.5c0.8-0.8,1.9-1.8,3.1-2.9c0.7-0.6,1.3-1.2,2-1.9
			c0.7-0.7,1.6-1.3,2.4-2c1.7-1.4,3.6-2.9,5.8-4.6c2.2-1.6,4.6-3.3,7.3-5c5.3-3.4,11.7-7.2,19-10.8c14.6-7.2,33.2-13.9,53.7-18.3
			c10.2-2.2,20.9-3.8,31.6-4.7c10.7-0.9,21.3-1.2,31.4-0.7s19.2,1.4,27.4,2.8c8.1,1.3,15.5,3,22,5.1s12.1,4.7,16.5,7.5
			c2.1,1.4,4,2.9,5.5,4.3c1.5,1.4,2.7,2.9,3.6,4.3c1.9,2.8,2.8,5.3,3,7.4c0.2,2.1-0.2,3.9-0.9,5.2c-0.7,1.3-1.7,2.2-2.7,2.8
			C709.9,595,708.9,595.2,707.7,595.2z"/>
	</g>
	<g>
		
			<linearGradient id="SVGID_00000013903738815426054980000014973118263216609458_" gradientUnits="userSpaceOnUse" x1="1014.6207" y1="968.2757" x2="882.5381" y2="968.2757" gradientTransform="matrix(1 0 0 1 0 -398)">
			<stop  offset="0" style="stop-color:#719F40"/>
			<stop  offset="1" style="stop-color:#8FC640"/>
		</linearGradient>
		<path style="fill:url(#SVGID_00000013903738815426054980000014973118263216609458_);" d="M982.1,571.4c-0.6,2.8-3.3,4.6-6.1,4
			l-59.7-12.7l-5.6,27.1l59.1,12.6c2.8,0.6,4.6,3.3,4,6.1s-3.3,4.6-6.1,4L908.6,600l-2.6,12.6c-1.8,8.6-9.5,14.2-17.4,12.6
			l-36.7-7.5c-1.2-0.3-2-1.5-1.7-2.8l20-97.7c0.3-1.3,1.4-2.1,2.6-1.9l36.7,7.5c7.8,1.6,12.7,9.9,11,18.4l-2.3,11.4l59.8,12.7
			C980.9,565.9,982.6,568.6,982.1,571.4z"/>
	</g>
</g>
<g>
	
		<linearGradient id="SVGID_00000011004814394051570430000017210943176519763338_" gradientUnits="userSpaceOnUse" x1="494.6747" y1="1269.8108" x2="494.6747" y2="804.4943" gradientTransform="matrix(1 0 0 -1 0 1002)">
		<stop  offset="0" style="stop-color:#44BCED"/>
		<stop  offset="0.4514" style="stop-color:#44BAEB"/>
		<stop  offset="0.614" style="stop-color:#41B2E6"/>
		<stop  offset="0.7295" style="stop-color:#40A8DF"/>
		<stop  offset="0.822" style="stop-color:#4297D3"/>
		<stop  offset="0.9212" style="stop-color:#4571B7"/>
	</linearGradient>
	<path style="fill:url(#SVGID_00000011004814394051570430000017210943176519763338_);" d="M725.5,101.6c-1-1-2.5-1.4-4.5-1.4
		c-1.9,0-3.6,0.1-5.1,0.5c-0.4-1.8-0.9-3-1.5-3.7c-0.6-0.7-1.8-1-3.6-1c-5.6,0-10.9,1.8-15.9,5.3c-5,3.5-9,8.2-12,14
		c-2.9,5.6-4.4,11.4-4.5,17.7c-2.1,1.8-4.4,3.3-6.8,4.6c-4.7,2.5-8.8,3.9-12.5,3.9c-5.7,0-9.5-1.9-11.6-5.6
		c9.6-2.4,16.4-5.6,20.4-9.6c4-4,6-8.8,6-14.4c0-4.8-1.4-8.6-4.2-11.4c-2.9-2.8-6.7-4.2-11.3-4.2c-5.3,0-10,1.4-14.2,4.2
		c-4.2,2.9-7.4,6.7-9.8,11.5c-0.3,0.7-0.7,1.4-0.9,2c-0.5-1-1-1.9-1.8-2.8c-2.7-3.5-5.8-6.3-9.6-8.3c-3.7-2-8.7-4.3-14.9-6.8
		c-5.1-2-9.1-3.8-11.9-5.2s-5.2-3.3-7.1-5.5c-1.9-2.2-2.9-4.8-2.9-7.9c0-4.6,1.8-8.2,5.6-10.8c3.7-2.5,9-3.9,16.1-3.9
		c5,0,9.1,0.9,12.4,2.7c3.3,1.8,5,4.4,5,7.8c0,0.7-0.1,2.2-0.4,4.6c-0.3,1.3-0.4,2.7-0.4,4.2c0,1.8,0.7,3.3,2.2,4.6s3.2,2,5.3,2
		c3,0,5.3-1.3,6.8-3.9c1.6-2.6,2.4-6.5,2.4-11.6c0-5.2-1.5-9.6-4.4-13.2c-2.9-3.6-6.9-6.2-11.9-8s-10.4-2.6-16.3-2.6
		c-8,0-14.9,1.2-20.8,3.8c-5.9,2.5-10.4,6.1-13.5,10.6c-3.1,4.6-4.7,9.7-4.7,15.6c0,5.6,1.4,10.3,4.2,14.1c2.8,3.8,6.2,6.8,10.1,8.9
		c3.9,2.2,9,4.5,15.3,6.9c4.9,2,8.7,3.6,11.4,5c2.7,1.3,4.9,3,6.7,5c1.8,2,2.7,4.4,2.7,7.1c0,4.4-2,8-5.9,10.4
		c-3.9,2.5-9.3,3.7-16.2,3.7c-6.7,0-11.8-0.9-15.5-2.7c-3.7-1.8-5.6-4.5-5.6-8.2c0-0.9,0.1-1.8,0.2-2.5s0.2-1.4,0.2-1.7
		c0.3-1.2,0.3-2.6,0.3-4.2c0-1.8-0.7-3.3-2.1-4.4c-1.4-1.1-3.1-1.7-5.4-1.7c-3,0-5.3,1.2-6.9,3.5c-1.6,2.4-2.3,5.7-2.3,10.3
		c0,1.3,0.1,2.6,0.3,3.8c-1.8,1.9-3.3,3.4-4.6,4.5c-2.4,2-4.8,2.9-7.3,2.9c-2.4,0-4.4-0.7-6-2c-1.6-1.4-2.7-3.1-3-5.3
		c5.6-2.9,9.4-6.3,11.7-10c2.3-3.7,3.4-7.8,3.4-12.3c0-4-1.2-7.4-3.7-10.3c-2.5-2.7-5.7-4.1-9.8-4.1c-4.4,0-9.1,2.3-14.2,6.9
		c-5,4.6-9.5,11.9-13.4,22.1c0-4.5,0.1-8.8,0.4-13.1c10.8-11.8,18.6-22.1,23.4-30.9c4.8-8.8,7.2-17.3,7.2-25.5
		c0-5.1-1.2-9.3-3.5-12.5c-2.4-3.2-5.4-4.8-9.1-4.8c-7,0-13,4.6-18,13.8c-5,9.2-8.8,20.6-11.3,34.2c-2.5,13.6-3.9,26.6-3.9,39.1
		c0,1.6,0,3.1,0,4.6c-3,3.2-6,5.7-9.1,7.5c-3.9,2.2-7.4,3.3-10.8,3.3c-8.2,0-12.3-4.7-12.3-14.2c0-3.4,0.5-6.5,1.4-9.4
		c1-2.9,2.3-5.1,3.9-6.8c1.6-1.7,3.4-2.5,5.2-2.5c1,0,1.7,0.3,2.3,0.8c0.5,0.6,0.8,1.4,0.8,2.4c0,1-0.2,2.2-0.6,3.4
		c-0.1,0.3-0.2,0.8-0.4,1.6c-0.1,0.7-0.3,1.4-0.3,2c0,1.3,0.5,2.3,1.4,3.1c0.9,0.7,2.2,1.1,3.7,1.1c2.4,0,4.4-1.2,5.9-3.5
		c1.5-2.4,2.3-5.2,2.3-8.7c0-4.1-1.2-7.5-3.7-10.2s-5.9-4-10.4-4c-4.6,0-8.9,1.3-13.1,4c-4.1,2.7-7.5,6.5-10.1,11.4
		c-2.6,5-3.9,10.7-3.9,17.3c0,1.4,0.1,2.8,0.3,4.2c-1.6,1.7-2.9,3.1-4,4c-2.2,2-4,3-5.6,3c-1,0-1.8-0.3-2.4-1.1
		c-0.6-0.7-0.9-1.7-0.9-2.9c0-3.7,0.9-10.2,2.8-19.5c1.2-6.4,1.8-10.4,1.8-12.2c0-2.9-2-4.2-6-4.2c-1.9,0-3.7,0.1-5.4,0.5
		c-0.4-1.8-0.9-3-1.5-3.7c-0.6-0.7-1.8-1-3.6-1c-5.6,0-10.9,1.8-15.9,5.3c-5,3.5-9,8.2-12,14c-3,5.8-4.5,11.9-4.5,18.5
		c0,0.1,0,0.3,0,0.3c-1.4,1.3-2.5,2.4-3.7,3.3c-2.5,1.9-5.4,2.9-8.8,2.9c-2.1,0-3.9-0.7-5.1-2.2c-1.3-1.4-2.2-3.8-2.8-7.1
		c9.2-12.5,16.5-25.1,21.8-37.9c5.4-12.7,8-24,8-33.6c0-6.7-1.1-11.9-3.3-15.5c-2.2-3.6-5.3-5.4-9.2-5.4c-6.9,0-12.9,4.6-17.8,13.6
		c-3.1,5.7-5.7,12.1-7.9,19.1c-1-6.4-4.5-11.7-10.6-15.9c-7.2-5-18.2-7.4-32.9-7.4c-9.6,0-19,1.1-28.1,3.3c-9.2,2.2-17.2,5.2-24,9.1
		c-3.3,1.9-5.3,3.5-6.1,5c-0.8,1.4-1.3,3.2-1.3,5.2c0,1.6,0.4,2.8,1.2,3.9c0.8,1,1.9,1.5,3.3,1.5c1.8,0,4-0.8,6.6-2.3
		c5.7-3.4,12.6-6.3,20.8-8.5c8.2-2.2,16.5-3.4,25.2-3.4c9.6,0,16.7,1.4,21.4,4.1s6.9,6.5,6.9,11.2c0,3.7-1.3,7-4,9.8
		c-2.7,2.8-6.3,5-11,6.5c-4.7,1.6-9.9,2.4-15.7,2.5c-2.6,0.1-4.4,0.8-5.4,2.3s-1.4,3.4-1.4,5.7c0,1.6,0.3,2.8,1,3.5
		c0.7,0.7,1.8,1.2,3.4,1.2c7.2,0.3,12.3,1.6,15.3,4c3.1,2.4,4.6,5.4,4.6,9c0,5.1-2.7,9.3-8,12.6s-13.6,5-25.1,5
		c-2.4,0-5.6-0.1-9.5-0.5c0.9-9.8,2.4-20.2,4.5-31s4.2-19.5,6.3-25.8c0.5-1.4,0.7-2.7,0.7-3.9c0-2.7-2.5-4.1-7.4-4.1
		c-2.7,0-5,0.4-6.7,1.2c-1.7,0.8-2.8,2.2-3.4,4.2c-3.3,11.6-5.9,23.6-8,36.2c-2.1,12.5-3.5,24.4-4.2,35.8c-0.1,2.5,0.3,4.4,1.4,5.7
		c1.1,1.3,3.1,2,6,2c2.9,0,5.3-0.6,7.2-1.7c1.9-1.2,2.9-2.9,2.9-5.1c2.4,0.3,5.7,0.4,9.7,0.4c10.9,0,20.2-1.3,27.9-3.9
		c7.7-2.5,13.6-6.2,17.6-10.9c4-4.7,6-10.3,6-16.7c0-4-1.3-7.6-3.9-10.8s-6.4-5.4-11.4-6.8C346,101.6,353.1,98,358,93
		c1-1,1.9-2.1,2.7-3.1c-2,10.7-2.9,20.4-2.9,28.9c0,10.3,1.7,18.7,5.2,25.3c3.5,6.5,8.8,9.7,15.9,9.7c5.2,0,9.9-1.4,14-4.2
		c1.4-1,2.9-2,4.2-3.2c0.4,0.7,0.8,1.3,1.3,1.9c3,3.7,7.1,5.5,12.1,5.5c6.4,0,11.8-3.4,16-10.3c1.1,3.1,2.8,5.7,5.1,7.5
		c2.2,1.8,4.7,2.7,7.4,2.7c3.5,0,7.1-1.4,10.8-4.3c2-1.4,3.9-3.1,5.7-5c0.7,0.8,1.3,1.7,2.1,2.5c4.4,4.5,10.6,6.8,18.6,6.8
		c5,0,10.1-1.3,15.4-3.9c2.9-1.4,5.6-3.1,8-5.1c0.5,2.7,1.1,4.7,2.1,6.1c1.2,1.8,3,2.7,5.6,2.7c2.5,0,4.4-0.7,5.6-2
		c1.2-1.4,2.2-3.9,3.1-7.8c1.3-5.3,3.1-10.4,5.4-15.4c2.3-5,4.7-9.1,7.4-12.3c2.7-3.1,5.1-4.8,7.2-4.8c0.9,0,1.6,0.4,2.3,1.1
		c0.6,0.7,0.9,1.8,0.9,3.3c0,2.5-0.8,4.6-2.4,6.4c-1.6,1.8-4.1,3.4-7.7,5c-3.3,1.4-4.9,3.7-4.9,6.9c0,5.9,1.9,10.7,5.7,14.2
		c3.9,3.6,8.9,5.4,15.1,5.4c5.1,0,9.5-1.4,13.3-4c2.3-1.6,4.5-3.6,6.7-5.9c1.3,1.6,2.9,2.9,4.8,4.1c6.5,4.1,15.1,6.1,26,6.1
		c12.2,0,21.9-2.5,29.2-7.8c3.3-2.4,5.8-5.1,7.6-8.4c1.2,3.4,3,6.3,5.5,8.8c4.7,4.6,11.3,7,19.9,7c6.3,0,12.1-1.6,17.6-4.6
		c2-1.1,3.9-2.3,5.6-3.5c0.5,1,1.1,1.8,1.8,2.7c2.9,3.7,6.7,5.5,11.3,5.5c6.2,0,10.5-3.5,13.1-10.5l-0.1,2c0,3,0.7,5.2,2,6.5
		c1.4,1.4,3.4,2,6.1,2c2.9,0,4.9-0.7,6.1-2c1.2-1.4,1.9-3.6,1.9-6.7c0-5.6,0.3-10.6,0.7-15.1c0.5-4.5,1.2-9.3,2.1-14.2
		c0.8-4.6,1.2-7.9,1.2-9.7C727.1,104,726.6,102.6,725.5,101.6z M518.9,73.7c1.7-7.1,3.4-12.7,5.2-16.9c1.8-4.2,3.4-6.3,4.9-6.3
		c1,0,1.9,0.7,2.4,2.1c0.5,1.4,0.8,3.4,0.8,5.9c0,5.7-1.6,12-5,19c-3.3,7-7.4,13.5-12.5,19.4C515.9,88.6,517.2,80.8,518.9,73.7z
		 M375.5,85.7c1.8-10,3.9-18.3,6.2-25.1c2.4-6.7,4.4-10.1,6.3-10.1c2.3,0,3.4,3.1,3.4,9.3c0,7.9-1.7,16.6-5.1,26.1
		s-8,19.1-13.8,28.6C372.7,105.3,373.6,95.7,375.5,85.7z M423.3,129.7c-0.7,3.5-1.9,6.3-3.5,8.4c-1.6,2.1-3.3,3.2-5.1,3.2
		c-1.8,0-3.2-0.6-4.2-1.8c-1-1.2-1.5-3.1-1.5-5.6c0-4.6,0.8-8.9,2.5-12.9c1.7-4,4-7.3,6.9-9.8s6-3.8,9.5-3.9L423.3,129.7z
		 M645.5,126.1c0-5,1-9.2,3.1-12.7c2.1-3.5,4.6-5.2,7.6-5.2c1.4,0,2.6,0.5,3.5,1.4c0.8,0.9,1.3,2.2,1.3,3.7c0,3-1.4,5.6-4.1,7.9
		c-2.7,2.3-6.5,4-11.3,5.1L645.5,126.1L645.5,126.1z M709.9,119.6c-1.4,8.1-3.1,13.8-5,17c-1.9,3.1-3.9,4.8-6.2,4.8
		c-1.6,0-2.8-0.7-3.7-1.9c-0.9-1.2-1.4-3.1-1.4-5.6c0-4.6,0.8-8.9,2.5-12.9c1.7-4,4-7.3,6.9-9.8c2.8-2.5,5.9-3.8,9.3-3.9
		L709.9,119.6z"/>
	<g>
		<g>
			<path class="st6" d="M301.3,253.7v1.8h-8.4v12.7H303v1.8h-12.1v-30.6H303v1.8h-10.1v12.3L301.3,253.7L301.3,253.7z"/>
			<path class="st6" d="M319.4,270.1v-30.6h2v28.7h9.6v1.8H319.4z"/>
			<path class="st6" d="M357.5,253.7v1.8h-8.4v12.7h10.1v1.8h-12.1v-30.6h12.1v1.8h-10.1v12.3L357.5,253.7L357.5,253.7z"/>
			<path class="st6" d="M388.7,247v2.5h-2v-2.7c0-3.3-1.2-5.7-4.6-5.7s-4.6,2.5-4.6,5.7v15.9c0,3.3,1.2,5.7,4.6,5.7s4.6-2.5,4.6-5.7
				v-3.6h1.9v3.5c0,4.4-1.9,7.7-6.6,7.7s-6.6-3.3-6.6-7.7v-15.7c0-4.4,1.9-7.7,6.6-7.7C386.7,239.3,388.7,242.6,388.7,247z"/>
			<path class="st6" d="M410.3,270.1v-28.7h-6.3v-1.8h14.4v1.8h-6.2v28.7H410.3z"/>
			<path class="st6" d="M440.6,239.5c4.7,0,6.5,2.6,6.5,6.9v2.7c0,3.6-1.4,5.6-4.4,6.3c3.1,0.7,4.4,2.9,4.4,6.3v4.8
				c0,1.2,0.1,2.7,0.7,3.7h-2.1c-0.5-0.9-0.7-2-0.7-3.7v-4.9c0-4-2.2-5.2-5.7-5.2h-3.2v13.7h-2v-30.6H440.6L440.6,239.5z
				 M439.5,254.6c3.6,0,5.7-1,5.7-5.1v-2.9c0-3.3-1.2-5.2-4.6-5.2h-4.3v13.3H439.5L439.5,254.6z"/>
			<path class="st6" d="M464.1,247c0-4.4,2-7.7,6.7-7.7c4.7,0,6.8,3.3,6.8,7.7v15.7c0,4.4-2,7.7-6.8,7.7c-4.6,0-6.7-3.3-6.7-7.7
				L464.1,247L464.1,247z M466.1,262.8c0,3.3,1.3,5.7,4.7,5.7s4.8-2.5,4.8-5.7v-15.9c0-3.3-1.4-5.7-4.8-5.7c-3.3,0-4.7,2.5-4.7,5.7
				V262.8z"/>
			<path class="st6" d="M504.2,270.1h-2l-6.5-27v27H494v-30.6h2.9l6.4,27l6.4-27h2.9v30.6h-1.9v-27.2L504.2,270.1z"/>
			<path class="st6" d="M529.1,247c0-4.4,2-7.7,6.7-7.7c4.7,0,6.8,3.3,6.8,7.7v15.7c0,4.4-2,7.7-6.8,7.7c-4.6,0-6.7-3.3-6.7-7.7V247
				z M531,262.8c0,3.3,1.3,5.7,4.7,5.7c3.4,0,4.8-2.5,4.8-5.7v-15.9c0-3.3-1.4-5.7-4.8-5.7c-3.4,0-4.7,2.5-4.7,5.7V262.8z"/>
			<path class="st6" d="M565.4,239.5c4.6,0,6.3,2.3,6.3,6.5v1.8c0,3.3-0.9,5.4-4,6c3.3,0.7,4.6,3.1,4.6,6.5v2.7c0,4.4-2,7.1-6.7,7.1
				H559v-30.6L565.4,239.5L565.4,239.5z M564.3,253.1c3.6,0,5.2-1,5.2-4.8v-2c0-3.2-1-4.8-4.3-4.8h-4.4v11.7L564.3,253.1
				L564.3,253.1z M565.5,268.3c3.4,0,4.7-1.9,4.7-5.3v-2.7c0-4-1.8-5.4-5.4-5.4H561v13.4H565.5L565.5,268.3z"/>
			<path class="st6" d="M590.6,239.5v30.6h-2v-30.6H590.6z"/>
			<path class="st6" d="M607.2,270.1v-30.6h2v28.7h9.6v1.8H607.2z"/>
			<path class="st6" d="M636.9,239.5v30.6h-2v-30.6H636.9z"/>
			<path class="st6" d="M658.8,270.1v-28.7h-6.3v-1.8H667v1.8h-6.2v28.7H658.8z"/>
			<path class="st6" d="M689,258.3l-6.9-18.8h2.1l5.9,16.1l5.9-16.1h2l-6.9,18.8v11.8h-2V258.3z"/>
		</g>
	</g>
	<g>
		<g>
			
				<linearGradient id="SVGID_00000169526593666325362620000007334043309966699954_" gradientUnits="userSpaceOnUse" x1="321.4009" y1="645.6903" x2="323.3186" y2="332.9733" gradientTransform="matrix(1 0 0 1 0 -398)">
				<stop  offset="0" style="stop-color:#44BCED"/>
				<stop  offset="9.227648e-02" style="stop-color:#42B8EA"/>
				<stop  offset="0.2024" style="stop-color:#40A8DF"/>
				<stop  offset="0.2926" style="stop-color:#4297D3"/>
			</linearGradient>
			<path style="fill:url(#SVGID_00000169526593666325362620000007334043309966699954_);" d="M478,186.8c0.5,0.9-0.5,2.2-4,4
				c-0.5,0.2-0.9,0.5-1.4,0.7c-0.5,0.3-1.1,0.5-1.7,0.7c-1.2,0.5-2.6,0.9-4.2,1.4c-0.4,0.1-0.8,0.3-1.2,0.4
				c-0.4,0.1-0.8,0.3-1.3,0.3c-0.9,0.3-1.8,0.5-2.8,0.7c-1,0.3-2,0.5-3.1,0.7c-1.1,0.3-2.2,0.4-3.5,0.7c-1.2,0.2-2.5,0.4-3.8,0.7
				c-0.7,0.1-1.3,0.2-2,0.3c-0.7,0.1-1.4,0.2-2.1,0.3c-1.4,0.2-2.9,0.3-4.4,0.5c-1.5,0.1-3.1,0.3-4.7,0.4c-3.3,0.3-6.7,0.3-10.4,0.5
				c-1.8,0.1-3.7,0-5.7,0c-1,0-2,0-2.9,0s-2-0.1-3-0.1c-16.4-0.4-35.9-2.7-58.4-6.7c-22.3-3.9-45.4-8.8-68.6-11.1
				c-11.6-1.2-23.1-1.6-34.2-1.2c-5.6,0.2-11,0.7-16.2,1.4c-1.3,0.2-2.6,0.4-3.9,0.6l-1,0.1l-1,0.2c-0.7,0.1-1.2,0.3-1.9,0.3
				c-2.5,0.5-5,1-7.4,1.6c-9.7,2.3-18.3,5.3-25.7,8.4c-7.4,3.1-13.4,6.5-18.2,9.4c-0.6,0.4-1.2,0.7-1.8,1.1c-0.5,0.3-1,0.7-1.6,1
				c-1,0.7-2,1.4-2.9,2c-1.7,1.3-3.1,2.4-4.3,3.3c-2.2,1.9-3.4,2.9-3.4,2.9s0.9-1.1,2.7-3.2c0.9-1,2.1-2.3,3.5-3.7
				c0.7-0.7,1.6-1.4,2.4-2.3c0.5-0.4,0.8-0.8,1.3-1.2c0.5-0.4,1-0.8,1.5-1.3c4.1-3.5,9.5-7.5,16.6-11.6c7.1-4,15.6-8,25.7-11.4
				c2.5-0.8,5.2-1.6,7.8-2.4c0.7-0.2,1.4-0.4,2-0.6l1-0.3l1-0.3c1.4-0.3,2.8-0.7,4.2-1c5.7-1.2,11.8-2.3,18-2.9
				c12.4-1.4,25.5-1.8,38.3-1.2c12.8,0.6,25.5,2,37.5,3.7c12.1,1.7,23.8,3.7,34.7,5.6c21.8,3.8,39.6,6.3,54.3,7.3
				c0.9,0.1,1.8,0.1,2.7,0.2c0.9,0.1,1.8,0.1,2.6,0.1c1.7,0.1,3.4,0.2,5,0.3c3.3,0.1,6.3,0.3,9.1,0.3c1.4,0,2.8,0.1,4.2,0.1
				c1.3,0,2.6-0.1,3.9-0.1c0.7,0,1.2,0,1.8,0c0.6,0,1.2,0,1.8-0.1c1.2-0.1,2.3-0.1,3.3-0.1c1-0.1,2.2-0.1,3.1-0.1
				c1-0.1,2-0.1,2.9-0.2c0.9-0.1,1.8-0.1,2.7-0.1c0.4,0,0.8,0,1.2-0.1c0.4,0,0.8-0.1,1.2-0.1c1.6-0.1,2.9-0.2,4.2-0.3
				c0.7,0,1.2,0,1.8-0.1c0.6,0,1.1-0.1,1.6-0.1C475.3,185.4,477.5,185.9,478,186.8z"/>
		</g>
		<g>
			
				<linearGradient id="SVGID_00000028301204719563819340000000849361118657964953_" gradientUnits="userSpaceOnUse" x1="260.2829" y1="593.3835" x2="750.9792" y2="593.3835" gradientTransform="matrix(1 0 0 1 0 -398)">
				<stop  offset="0" style="stop-color:#719F40"/>
				<stop  offset="1" style="stop-color:#8FC640"/>
			</linearGradient>
			<path style="fill:url(#SVGID_00000028301204719563819340000000849361118657964953_);" d="M750.9,162.7l-13.4,66
				c-0.2,0.9-1.1,1.6-2,1.4L686,201.8c-0.9-0.2-1.6-1.1-1.4-2l1.7-8.4c-4.4-0.6-9.7-1.3-16-2.2c-6.1-0.9-13.1-2-21.2-3.1
				c-8-1.1-17.2-2.3-27.4-3.2c-5.1-0.5-10.5-0.8-16.3-1.2c-5.7-0.3-11.7-0.5-18-0.4c-12.5,0.1-26.3,1.1-40.5,4
				c-1.8,0.3-3.5,0.8-5.3,1.2c-1.8,0.5-3.5,0.9-5.3,1.3c-3.5,0.9-7.1,2-10.6,3.2c-7.1,2.4-14.2,5.1-21.7,8c-7.4,2.9-15,5.9-23.2,8.7
				c-8.1,2.8-16.5,5.2-24.9,7.3c-16.9,4.2-34.2,7-51.1,8.6c-8.4,0.8-16.7,1.2-24.7,1.4c-2,0-4,0.1-6,0.1h-5.9
				c-3.9-0.1-7.8-0.1-11.5-0.3c-7.5-0.3-14.7-0.8-21.5-1.6c-0.8-0.1-1.7-0.2-2.5-0.3c-0.8-0.1-1.7-0.2-2.5-0.3
				c-1.6-0.2-3.3-0.4-4.9-0.6c-1.6-0.3-3.2-0.5-4.8-0.7c-0.8-0.1-1.6-0.3-2.3-0.3c-0.8-0.1-1.5-0.3-2.3-0.4c-12-2-22.3-4.3-30.6-6.6
				s-14.6-4.4-18.9-5.9c-2.2-0.8-3.7-1.4-4.8-1.8c-1-0.3-1.5-0.6-1.6-0.6c0.3,0.1,2.7,0.7,6.9,1.8c4.6,1.1,11.2,2.7,19.7,4.3
				c8.5,1.6,18.9,3.1,30.9,4.2c0.7,0.1,1.5,0.1,2.2,0.2c0.8,0.1,1.5,0.1,2.3,0.2c1.6,0.1,3.1,0.3,4.7,0.3c1.6,0.1,3.2,0.2,4.8,0.3
				c0.8,0,1.6,0.1,2.4,0.1c0.8,0,1.6,0.1,2.5,0.1c6.7,0.3,13.6,0.3,20.8,0.2c3.6-0.1,7.2-0.2,11-0.3c1.8-0.1,3.7-0.2,5.6-0.3
				c1.9-0.1,3.8-0.3,5.7-0.4c7.6-0.6,15.3-1.4,23.2-2.5c15.6-2.3,31.4-5.6,46.6-10.1c7.6-2.2,15-4.7,22.2-7.5
				c7.2-2.7,14.4-5.8,21.7-8.9c7.3-3.1,14.9-6.2,22.9-8.9c4-1.4,8-2.7,12.3-3.9c2.1-0.6,4.2-1.1,6.3-1.6c2.2-0.5,4.2-1,6.3-1.4
				c8.5-1.7,16.7-2.8,24.6-3.5c7.9-0.7,15.4-0.9,22.5-0.9c7.1,0,13.8,0.3,20,0.8c6.3,0.5,12.1,1,17.6,1.8
				c10.9,1.4,20.4,3.1,28.5,4.7c8.2,1.7,15.1,3.3,21,4.9c4.8,1.2,8.9,2.4,12.4,3.5l3.1-15.2c0.2-1,1.1-1.6,2-1.4l56.4-5.7
				C750.6,160.9,751.1,161.8,750.9,162.7z"/>
		</g>
		<g>
			
				<linearGradient id="SVGID_00000137850409580766636650000014815506274014149035_" gradientUnits="userSpaceOnUse" x1="563.4516" y1="477.0916" x2="563.4516" y2="643.3835" gradientTransform="matrix(1 0 0 1 0 -398)">
				<stop  offset="0.5845" style="stop-color:#4297D3"/>
				<stop  offset="0.6405" style="stop-color:#439CD6"/>
				<stop  offset="0.7103" style="stop-color:#41ABE1"/>
				<stop  offset="0.7625" style="stop-color:#44BCED"/>
			</linearGradient>
			<path style="fill:url(#SVGID_00000137850409580766636650000014815506274014149035_);" d="M642,217.5c-0.8,0-1.5-0.1-2.2-0.4
				c-0.7-0.3-1.4-0.7-2.2-1.2c-1.6-1-3.3-2.4-6.1-4.1c-0.7-0.4-1.5-0.8-2.4-1.3c-0.8-0.5-1.8-0.8-2.9-1.2c-2.2-0.8-4.8-1.6-8.2-2.4
				c-3.3-0.7-7.4-1.4-12.3-2c-4.8-0.6-10.1-1.1-16.1-1.4c-5.9-0.3-12.2-0.3-18.5-0.1c-6.4,0.2-12.9,0.7-19.3,1.4
				c-12.9,1.4-25.5,4.1-36.2,7.2c-5.4,1.6-10.3,3.3-14.6,5c-2.2,0.8-4.1,1.7-6,2.5c-1.8,0.8-3.5,1.6-5,2.3c-0.8,0.4-1.4,0.7-2.2,1
				c-0.7,0.3-1.3,0.7-1.8,1c-1.2,0.6-2.2,1.1-2.9,1.6c-1.6,0.8-2.4,1.4-2.4,1.4s0.6-0.6,1.8-1.8c0.6-0.6,1.3-1.2,2.2-2
				c0.5-0.4,0.9-0.8,1.4-1.3c0.5-0.5,1.1-0.9,1.7-1.4c1.2-1,2.5-2,4-3.2c1.6-1.1,3.2-2.3,5.1-3.5c3.7-2.4,8.2-5,13.3-7.6
				c10.3-5,23.3-9.8,37.7-12.9c7.2-1.6,14.7-2.7,22.2-3.3c7.5-0.7,15-0.8,22.1-0.5s13.5,1,19.3,2c5.7,0.9,10.9,2.1,15.5,3.6
				c4.6,1.5,8.5,3.3,11.6,5.3c1.5,1,2.8,2,3.9,3s1.9,2,2.5,3c1.3,2,2,3.7,2.1,5.2s-0.1,2.7-0.7,3.7s-1.2,1.6-1.9,2
				C643.5,217.4,642.7,217.5,642,217.5z"/>
		</g>
		<g>
			
				<linearGradient id="SVGID_00000023266719929204714550000017725512209573593521_" gradientUnits="userSpaceOnUse" x1="857.5061" y1="598.0537" x2="764.7334" y2="598.0537" gradientTransform="matrix(1 0 0 1 0 -398)">
				<stop  offset="0" style="stop-color:#719F40"/>
				<stop  offset="1" style="stop-color:#8FC640"/>
			</linearGradient>
			<path style="fill:url(#SVGID_00000023266719929204714550000017725512209573593521_);" d="M834.7,200.8c-0.4,2-2.4,3.2-4.3,2.8
				l-41.9-8.9l-3.9,19.1l41.5,8.9c2,0.4,3.2,2.4,2.8,4.3c-0.4,2-2.4,3.2-4.3,2.8l-41.5-8.8l-1.8,8.8c-1.2,6-6.7,10-12.2,8.8
				l-25.8-5.3c-0.8-0.2-1.4-1-1.2-2l14-68.6c0.2-0.9,1-1.5,1.8-1.3l25.8,5.3c5.5,1.1,8.9,6.9,7.7,12.9l-1.6,8l42,8.9
				C833.8,197,835,198.9,834.7,200.8z"/>
		</g>
	</g>
</g>
<text transform="matrix(1 0 0 1 143.0046 360.1766)"><tspan x="0" y="0" class="st11 st12">Инсталирайте приложението на </tspan><tspan x="66.8" y="78.8" class="st13 st14 st12">Black Sea Electromobility</tspan><tspan x="150.1" y="157.6" class="st11 st12">за да продължите</tspan></text>
<g>
	<text transform="matrix(1 0 0 1 205.7747 667.1006)" class="st11 st15">Натиснете            бутона долу в средата</text>
</g>
<text transform="matrix(1 0 0 1 203.6807 931.2597)" class="st11 st16">отворете апликацията</text>
<text transform="matrix(1.024 0 0 1 207.6206 748.6738)"><tspan x="0" y="0" class="st11 st17">Изберете</tspan><tspan x="0" y="64.3" class="st11 st17">от менюто, което ще се покаже</tspan></text>
<g>
	<text transform="matrix(1 0 0 1 121.6086 669.2184)" class="st13 st14 st18">1.</text>
</g>
<g>
	<text transform="matrix(1 0 0 1 121.6086 790.5518)" class="st13 st14 st18">2.</text>
</g>
<g>
	<text transform="matrix(1 0 0 1 121.6086 930.5518)" class="st13 st14 st18">3.</text>
</g>
<image style="overflow:visible;" width="800" height="800" xlink:href="BlackSea-IconLogo.png"  transform="matrix(0.1102 0 0 0.1102 690.1115 856.1809)">
</image>
<image style="overflow:visible;" width="512" height="512" xlink:href="../../../Downloads/share-icon-computer-icons-button-safari-web-browser-button-8308560cf4495bf56f04acdc3404a93b.png"  transform="matrix(0.1892 0 0 0.1892 405.9032 592.105)">
</image>
<image style="overflow:visible;" width="1284" height="180" xlink:href="../0-02-05-b95db36b237fcf5fa716aa92fe164852cf784e4e031c2824051c2a644beb707d_b51309c53a6c06f6.png"  transform="matrix(0.3809 0 0 0.3809 370.0064 693.551)">
</image>
</svg>
