<?xml version="1.0" encoding="utf-8"?>
<!-- Generator: Adobe Illustrator 28.2.0, SVG Export Plug-In . SVG Version: 6.00 Build 0)  -->
<svg version="1.1" id="Layer_1" xmlns="http://www.w3.org/2000/svg" xmlns:xlink="http://www.w3.org/1999/xlink" x="0px" y="0px"
	 viewBox="0 0 1080 1080" style="enable-background:new 0 0 1080 1080;" xml:space="preserve">
<style type="text/css">
	.st0{fill:#1683C6;}
	.st1{fill:#FFFFFF;}
	.st2{fill-rule:evenodd;clip-rule:evenodd;fill:#D71920;}
	.st3{fill-rule:evenodd;clip-rule:evenodd;fill:#F8ABAD;}
	.st4{fill-rule:evenodd;clip-rule:evenodd;fill:#5E3B92;}
	.st5{fill-rule:evenodd;clip-rule:evenodd;fill:#3E266F;}
	.st6{fill-rule:evenodd;clip-rule:evenodd;fill:#7158A4;}
	.st7{fill-rule:evenodd;clip-rule:evenodd;fill:#552F88;}
	.st8{fill:#221D67;}
	.st9{fill:#826AAF;}
	.st10{fill-rule:evenodd;clip-rule:evenodd;fill:#FFF9AE;}
	.st11{fill-rule:evenodd;clip-rule:evenodd;fill:#0095DA;}
	.st12{fill-rule:evenodd;clip-rule:evenodd;fill:#FFCB05;}
	.st13{fill:#26247B;}
	.st14{fill-rule:evenodd;clip-rule:evenodd;fill:#26247B;}
	.st15{fill-rule:evenodd;clip-rule:evenodd;fill:#404041;}
	.st16{fill-rule:evenodd;clip-rule:evenodd;fill:#BCBDC0;}
</style>
<g>
	<path class="st0" d="M-252.51,344.81H-528.3v297.08h275.79V344.81z M-839.61,704.1c1.1,20.96,3.18,41.38,5.81,62.22
		c11.75,58.18,33.91,105.26,70.24,152.12c5.82,6.25,11.63,12.62,17.56,18.97c23.37,21.52,46.52,37.87,73.64,53.77
		c9.42,3.85,18.97,7.81,28.51,11.76c28.76,8.87,57.08,13.93,87.04,17.22c13.82-0.23,27.78-0.32,41.69-0.44
		c36.55-3.73,70.25-10.2,104.71-23.49c15.03-7.23,29.61-14.92,44-23.48c37.64-26.56,66.38-56.41,92.17-95.04
		c3.95-7.15,7.9-14.26,11.85-21.4c20.85-44.89,32.83-89.21,37.97-138.27c0.67-134.43,1.32-268.87,1.98-403.19h-616.75
		C-839.4,444.56-839.51,574.28-839.61,704.1z M-237.8,330.97c-0.88,132.13-1.77,264.28-2.64,396.5c-0.99,7.58-1.96,15.15-2.96,22.72
		c-11.31,56.19-31.17,102.6-65.52,148.13c-5.16,5.82-10.32,11.65-15.37,17.57c-48.5,48.51-99.19,73.87-166.71,86.27
		c-17.77,1.75-35.54,3.29-53.44,4.05c-10.53-0.87-20.96-1.75-31.38-2.63c-49.38-6.8-91.53-24.14-132.12-53.01
		c-29.52-26.66-54.34-54.2-75.29-88.22c-15.24-28.42-26.44-56.08-35.22-87.24c-1.54-6.6-2.96-13.18-4.38-19.76
		c-0.78-50.47-0.78-50.47-2.52-424.38L-237.8,330.97L-237.8,330.97z M-359.29,934.12c29.63-24.13,50.93-54.2,70.57-86.7
		c3.86-8.12,7.8-16.12,11.75-24.14c3.84-10.51,7.69-20.96,11.64-31.36c8.1-29.63,12.17-57.96,14.7-88.58c0-25.57,0-25.57-1.1-49.71
		h-278.74V996c23.91-1.74,45.42-5.37,68.8-10.64C-423.7,973.08-391.87,956.83-359.29,934.12z M-791.32,825.59
		c13.26,22.82,26.88,44.98,41.82,66.72c15.13,17.22,15.13,17.22,31.04,33.79c10.54,9.1,10.54,9.1,32.94,26.35
		c35.44,22.83,70.11,36.54,111.93,42.02h30.72V653.63h-269.97c-0.22,39.94-2.74,79.9,3.96,119.29
		C-803.74,790.7-798.24,808.36-791.32,825.59z M-542.89,344.81h-269.96v297.08h269.96L-542.89,344.81L-542.89,344.81z
		 M-793.86,276.44c28.53-8.66,57.29-16.47,86.37-23.48c66.29-13.49,130.58-20.4,198.19-20.4c16,0.86,32.16,1.86,48.3,2.86
		c81.85,8.88,159.88,27.54,237.13,55.85c0.97-0.55,0.97-0.55,75.28-169.55C-194.35,107.32-240,92.95-285.65,78.7
		c-1.66,2.74-1.66,2.74-17.35,46.63c-51.56-9.22-103.59-18.76-155.82-22.61c0.22-19.76,0.44-39.5,0.78-59.26
		c-51.25,0.66-102.52,1.43-153.65,2.2c0.22,18.98,0.44,37.98,0.76,57.06c-44.77,7.68-89.43,16.02-133.88,25.57
		c-6.37-16.57-12.73-33.14-18.98-49.6c-44.45,14.25-88.78,28.62-133.12,43.01c19.64,56.52,39.39,113.14,59.15,169.77
		C-834.8,291.04-834.8,291.04-793.86,276.44z M-781.46,277.86c-17.35,5.71-34.68,11.42-51.91,17.24v1.42
		c15.37,4.06,15.37,4.06,41.72,9.55c29.53-1.87,58.04-10.64,87.78-10.64c12.4,2.95,12.4,2.95,19.65,5.81
		c0.55-0.33,0.55-0.33-27.65-41.27C-735.15,265.9-758.31,271.82-781.46,277.86z M-357.86,294c26.01,0,51.35,5.8,76.82,10.64
		c17.45-1.42,35.89-3.84,52.36-10.31c-39.95-14.7-79.89-25.46-121.26-35.33c-9.34,13.16-18.66,26.44-27.99,39.72
		C-376.85,299.04-371.03,296.86-357.86,294z"/>
	<path class="st1" d="M-393.62,930.15c-4.06-16.78-2.65-25.68,6.24-40.59c14.06-16.79,32.38-30.4,42.27-50.26
		c2.95-10.66,5.93-21.17,8.9-31.7c0.43,0,0.87,0,1.31,0c1.76,2.4,3.51,4.92,5.27,7.46c-12.18,21.73-20.52,45.76-29.32,69.02
		C-366.75,900.42-376.51,922.05-393.62,930.15L-393.62,930.15z"/>
	<path class="st1" d="M-411.18,928.64c-13.62-5.81-16.91-10.65-23.93-23.38c-2.95-8.56-5.92-17.1-8.78-25.57
		c-11.64-24.91-23.39-48.28-30.73-65.07c0-3.95,1.64-6.14,3.51-9.55c7.99,31.51,29.3,52.58,49.15,77.92
		c9.23,15.92,12.18,27.33,12.93,45.65C-409.77,928.64-410.53,928.64-411.18,928.64L-411.18,928.64z"/>
	<path class="st1" d="M-665.13,923.59c-10.88-2.08-21.51-5.15-32.16-8.46c-16.36-9-28.31-19.2-39.84-33.81
		c-10.2-17.01-17.33-32.47-23.48-51.35c-1.78-7.89-3.51-15.69-5.17-23.48c0-41.26,9.77-73.53,35.45-106.55
		c6.58-6.15,13.16-12.19,19.75-18.24c21.28-11.29,48.29-11.18,70.34-2.19c3.95,2.42,7.9,4.84,11.97,7.35
		c4.82,7.48,9.1,14.05,12.51,22.18c-0.11,3.62-0.22,7.35-0.35,11.08c-11.94,3.85-18.09,4.04-29.94,0
		c0.56-7.89,3.74-12.07-6.58-12.07c-4.51,2.74-2.63,8.77-2.52,13.5c16.13,16.13,55.09-4.71,58.82,25.68
		c-25.46-2.31-49.82-7.35-74.62,0.32c-11.63,5.6-18.76,13.07-25.9,23.72c-10.32,27.77-6.69,49.48,2.08,76.81
		c12.73,19.43,39.61,44.56,63.97,28.87c3.97-4.29,8.03-8.45,12.08-12.64c-4.4-6.13-8.78-12.28-13.17-18.32
		c-2.95-8.44-5.92-22.94,1.76-29.08c2.19,2.87,4.39,5.82,6.68,8.79c19.77,18.54,38.86,26.44,64.43,13.17
		c2.41,9.98-11.53,21.5-18.22,26.44c-17.13,5.82-16.79,6.8-20.96,24.58c-13.72,16.79-30.19,27.87-51.47,32.48
		C-654.81,922.7-659.98,923.16-665.13,923.59L-665.13,923.59z"/>
	<path class="st1" d="M-409.77,878.92c-14.47-12.08-22.6-22.61-29.73-40.17c-10.53-34.24-21.07-68.48-31.49-102.71
		c5.7,0,9.66,8.13,11.74,12.52c4.28,12.27,9.66,24.13,13.16,36.63c13.95,28.75,38.86,49.06,38.86,82.76
		C-408.78,877.49-408.78,877.49-409.77,878.92L-409.77,878.92z"/>
	<path class="st1" d="M-393.62,878.92c-0.33-16.68,0.53-28.1,6.91-43.89c8.11-13.51,17.23-25.49,27.75-37.32
		c7.69-19.42,11.08-39.62,24.49-55.97c0.09,1.1,0.22,2.2,0.43,3.28c-7.13,30.09-16.35,59.82-23.48,90
		C-364.1,853.35-378.82,866.97-393.62,878.92L-393.62,878.92z"/>
	<path class="st1" d="M-409.77,818.9c-1.51-1.86-3.28-2.63-10.53-10.76c-12.06-17.99-17-34.02-20.62-54.99
		c-1.99-18.87-3.94-37.63-5.82-56.4c-2.09-9.21-11.75-28.86,6.46-22.28c0.46,0.75,1,1.54,1.54,2.41
		c5.71,32.71,1.55,68.15,26.68,93.28C-410.53,780.92-402.29,808.14-409.77,818.9L-409.77,818.9z"/>
	<path class="st1" d="M-391.43,818.9c-3.08-20.31,0.99-38.63,8.34-57.07c3.83-5.93,7.8-11.75,11.75-17.56
		c6.36-22.51,6.56-46.09,13.48-68.7c2.21,0,4.38,0,6.58,0c-0.43,28.64-5.81,56.52-10.65,84.83c-1.43,16.79-1.43,16.79-2.86,22.71
		C-371.69,796.95-378.93,809.12-391.43,818.9L-391.43,818.9z"/>
	<path class="st1" d="M-670.19,799.14c-4.83-11.08-12.06-15.8-21.72-22.59c3.61-7.47,14.15-22.5,23.59-15.47
		C-664.24,771.39-664.04,789.15-670.19,799.14L-670.19,799.14z"/>
	<path class="st1" d="M-399.55,764.78c-11.42-8.1-19.21-22.6-18-36.66c4.17-8.44,9.98-15.79,15.37-23.48
		c0.11-9.76,0.22-19.42,0.44-29.07c3.4,0,6.8,0,10.32,0c-1.54,14.48-5.49,29.3,2.84,41.92c10.33,6.8,5.26,19.21,1.77,29.06
		c-3.31,6.04-6.61,12.08-9.78,18.22C-397.58,764.78-398.58,764.78-399.55,764.78L-399.55,764.78z"/>
	<path class="st1" d="M-750.73,711.34c-3.4-5.92-6.15-12.28-12.39-15.36c4.5-13.5,27.2-17.56,39.16-14.04
		c-11.09,9.55-19.2,16.13-25.25,29.41C-749.75,711.34-750.28,711.34-750.73,711.34L-750.73,711.34z"/>
	<path class="st1" d="M-654.16,601.6c-2.74-18.32-1.31-36.98-3.3-55.52c-2.96-8.78-4.26-10.76-4.39-13.28
		c1.12-3.41,2.21-6.81,3.3-10.2c0.45,0,0.98,0,1.53,0c0.34,1.42,1.77,2.86,7.6,14.6c6.56,21.05,4.48,42.57,3.39,64.4
		C-648.79,601.6-651.54,601.6-654.16,601.6L-654.16,601.6z"/>
	<path class="st1" d="M-638.03,601.6c0.44-5.91,0.88-11.75,1.43-17.56c9.56,0.33,16.12-0.33,30.06-0.33
		c5.71,4.07,2.52,11.76,2.2,17.89C-615.64,601.6-626.83,601.6-638.03,601.6L-638.03,601.6z"/>
	<path class="st1" d="M-761.7,600.18c0-6.04,0-12.18,0-18.32c11.41,0,22.93,0,34.45,0c0,6.03,0,12.18,0,18.32
		C-738.66,600.18-750.19,600.18-761.7,600.18L-761.7,600.18z"/>
	<path class="st1" d="M-720,600.18c-0.65-8.77-1.33-17.57-1.86-26.34c0-15.69,1.22-41.7,16.34-51.79c4.74,2.84,3.41,9.66,3.41,14.48
		c-1.66,2.31-3.19,4.61-4.72,6.91c-0.99,18.88-1.98,37.75-2.86,56.73C-713.2,600.18-716.6,600.18-720,600.18L-720,600.18z"/>
	<path class="st1" d="M-616.84,578.23c-6.91-1.54-12.95-2.63-19.97-2.84c-1.87-4.95-1.54-8.68-1.22-13.95
		c10.76-1.42,20.96-1.86,31.61,0.44c0.22,7.57,1.22,10.86,1.22,13.06C-609.72,577.69-611.47,577.81-616.84,578.23L-616.84,578.23z"
		/>
	<path class="st1" d="M-759.51,573.84c0.66-4.5,1.33-9,1.98-13.38c10.09-0.22,20.2-0.43,30.29-0.56c0,4.62,0,9.22,0,13.94
		C-738.01,573.84-748.75,573.84-759.51,573.84L-759.51,573.84z"/>
	<path class="st1" d="M-621.9,554.85c-4.93-0.33-9.88-0.55-14.7-0.76c-0.55-5.38-0.99-10.76-1.43-16.13
		c9.55,0.32,19.32-1.43,28.54,1.11c3.62,3.83,3.29,8.11,3.07,12.95C-611.36,553.87-616.63,554.31-621.9,554.85L-621.9,554.85z"/>
	<path class="st1" d="M-757.31,552.67c-0.22-7.81-1.22-13.05,6.47-16.58c8.34,0.55,16.68,1.2,25.02,1.87
		c-0.65,4.71-1.33,9.44-1.98,14.15C-737.68,552.24-747.55,552.44-757.31,552.67L-757.31,552.67z"/>
	<path class="st1" d="M-690.7,532.9c-6.26-3.61-5.7-11.95-7.13-18.54c10.64,0.56,21.28,1.11,32.03,1.67
		c-0.97,9.32-1.42,10.96-8.77,16.44C-679.95,532.59-685.32,532.68-690.7,532.9L-690.7,532.9z"/>
	<path class="st1" d="M-638.8,531.38c-6.15-2.53-17.35-8.13-11.96-17.12c14.15,0.55,28.43,1.1,42.69,1.77c0,4.6,0,9.22,0,13.92
		C-618.38,529.63-628.49,530.5-638.8,531.38L-638.8,531.38z"/>
	<path class="st1" d="M-735.36,529.95c-13.18-1.09-13.18-1.09-20.1-2.3c0.56-4.61,1.22-9.22,1.87-13.81c14.6,0,29.18,0,43.89,0
		c-3.3,5.69-7.36,10.51-11.64,15.46C-726.03,529.51-730.76,529.73-735.36,529.95L-735.36,529.95z"/>
	<path class="st1" d="M-626.3,510.2c-10.52-0.55-21.07-0.99-31.48-1.42c0.43-6.14,0.87-12.29,1.42-18.32
		c16.04,0.45,32.16,0.88,48.28,1.42c-0.09,5.93,1.33,13.06-2.74,17.66C-615.96,509.76-621.13,509.98-626.3,510.2L-626.3,510.2z"/>
	<path class="st1" d="M-699.49,508.78c0.45-6.14,0.87-12.29,1.42-18.32c11.42,0,22.95,0,34.46,0c0,6.03,0,12.18,0,18.32
		C-675.57,508.78-687.53,508.78-699.49,508.78L-699.49,508.78z"/>
	<path class="st1" d="M-753.58,506.58c0.66-5.37,1.41-10.75,2.2-16.12c14.82,0,29.63,0,44.56,0c1.2,5.15,0.98,10.09,0.87,15.47
		C-721.87,506.13-737.78,506.36-753.58,506.58L-753.58,506.58z"/>
	<path class="st1" d="M-737.56,484.63c-3.62-1.19-3.62-1.19-13.83-2.17c-0.66-17.6,3.28-13.52,20.4-14.4
		c8.35,2.09,2.09,3.4,6.37,9.34c0.66-0.1,1.31-0.22,2.09-0.22c1.97-3.3,2.3-4.83,2.52-8.69c11.42,0,22.93,0,34.47,0
		c0,5.39,0,10.77,0,16.15c-9.45-2.51-19.54-1.86-29.31-1.86c-3.08-1.21-6.03-2.42-9.01-3.52
		C-727.46,484.32-731.64,484.2-737.56,484.63L-737.56,484.63z"/>
	<path class="st1" d="M-676.12,484.63c-0.75-5.38-1.52-10.76-2.18-16.15c12.18,0.12,24.48,0.33,36.76,0.56
		c1.66,4.82,1.43,8.24,1.32,13.41C-652.19,483.1-664.14,483.88-676.12,484.63L-676.12,484.63z"/>
	<path class="st1" d="M-634.4,484.63c0-5.38,0-10.76,0-16.15c6.9,0.45,20.29-4.16,23.81,2.97c-0.13,3.64-0.24,7.37-0.24,11.1
		C-618.16,485.3-626.51,484.41-634.4,484.63L-634.4,484.63z"/>
	<path class="st1" d="M-747.76,462.66c0-4.71,0-9.33,0-13.93c14.15,0,28.3,0,42.47,0c0,3.84,0,7.79,0,11.74
		C-719.46,461.14-733.61,461.91-747.76,462.66L-747.76,462.66z"/>
	<path class="st1" d="M-698.06,462.66c-0.55-4.71-0.97-9.33-1.42-13.93c11.43,0.1,22.93,0.32,34.45,0.55c1,2.42,1,2.42,1.43,11.19
		C-675.12,461.14-686.64,461.91-698.06,462.66L-698.06,462.66z"/>
	<path class="st1" d="M-656.35,462.66c-0.55-4.71-0.99-9.33-1.42-13.93c15.79,0.44,31.6,0.88,47.51,1.42
		c-0.78,3.96-1.43,7.9-2.08,11.85C-627.04,462.23-641.76,462.45-656.35,462.66L-656.35,462.66z"/>
	<path class="st1" d="M-754.35,440.72c-1.65-3.4-1.32-6.46-1.42-10.32c50.6-3.3,100.73,0,151.42,2.2c0,2.63,0,5.37,0,8.12
		C-654.38,440.72-704.42,440.72-754.35,440.72L-754.35,440.72z"/>
	<path class="st1" d="M-773.33,420.97c0-11.96,0-23.92,0-35.88c8.01,0,16.02,0,24.13,0c-0.09,6.15-1.08,11.75,0.99,17.56
		c5.93,3.73,19.23,2.85,25.47-0.66c0.12-5.71,0.33-11.31,0.56-16.9c7.99,0,16,0,24.12,0c-1.75,6.03-0.33,15.58,4.95,19.54
		c7.79,0,20.18,2.62,24.68-4.95c0.12-4.93,0.22-9.77,0.45-14.59c7.25,0.11,14.48,0.33,21.72,0.55
		c-4.5,17.56,15.27,24.58,29.42,19.53c4.82-4.82,5.27-12.18,4.38-18.65c8.01,0,16.03,0,24.13,0c0,11.41,0,22.95,0,34.45
		C-650,420.97-711.67,420.97-773.33,420.97L-773.33,420.97z"/>
	<path class="st1" d="M-812.19,243.84c-5.48-20.3-10.99-40.49-16.46-60.68c0-0.89,0.11-1.65,0.23-2.42
		c6.36-1.65,12.73-3.29,19.18-4.93c1.89,7.78,3.86,15.57,5.83,23.49c0.98-0.34,1.98-0.56,2.96-0.78c2.52-8.34,1.43-17.78,6.38-25.13
		c5.81-3.29,13.27-7.9,20.07-7.24c1.11,4.16,2.31,8.35,3.52,12.62c-11.62,3.51-8.12,8.79-12.07,18.99
		c-3.75,5.71,0.21,4.61,5.49,6.91c5.04,4.73,20.84,17.9,21.93,23.81c-7.24,1.76-14.47,3.62-21.61,5.49
		c-5.81-6.8-12.61-19.86-22.28-20.84c2.2,8.56,4.38,17.12,6.57,25.68C-799.02,240.46-805.61,242.09-812.19,243.84L-812.19,243.84z"
		/>
	<path class="st1" d="M-339.54,221.24c-3.6-1.21-3.6-1.21-18.32-3.73c1.42-8.77,2.84-17.56,4.38-26.34
		c-7.12-1.21-14.15-2.41-21.19-3.61c-1.74,8.34-3.4,16.68-5.02,25.01c-2.98,0.23-2.98,0.23-19.33-2.95
		c-0.22-2.3-0.22-2.3,11.2-63.76c6.57,0.98,13.15,1.98,19.74,2.96c-1.2,7.47-2.41,15.03-3.62,22.61c7.01,1.2,14.04,2.41,21.19,3.73
		c1.32-7.24,2.74-14.38,4.17-21.51c6.8,0.55,6.8,0.55,19.97,3.18c-3.95,21.4-7.89,42.91-11.74,64.42
		C-338.65,221.24-339.09,221.24-339.54,221.24L-339.54,221.24z"/>
	<path class="st1" d="M-256.12,172.19c-7.13-1.76-14.27-3.39-21.42-5.04c-12.94,19.42-25.77,38.96-38.62,58.49
		c6.8,1.42,13.61,2.85,20.52,4.38c1.42-3.4,1.42-3.4,5.15-9.21c7.25,1.53,14.59,3.18,21.95,4.82c0.33,6.59,0.33,6.59,1.19,11.08
		c6.37,1.64,12.74,3.29,19.21,4.94c0.11-1.54,0.21-2.96,0.33-4.39C-250.64,215.53-253.39,193.81-256.12,172.19z M-272.93,210.27
		c-2.96-1.21-2.96-1.21-9.54-2.2c1.87-6.92,6.46-13.07,9.98-19.32c0.56-0.22,1.1-0.33,1.75-0.44c0.33,7.02,0.77,14.16,1.21,21.28
		C-270.73,209.83-271.82,210.05-272.93,210.27z"/>
	<path class="st1" d="M-706.61,151.34c-7.48,1.32-14.84,2.65-22.18,4.06c-3.74,22.83-7.35,45.76-10.97,68.7
		c6.8-1.2,13.6-2.41,20.53-3.62c0.31-3.73,0.64-7.35,0.98-10.97c7.35-1.64,14.7-3.29,22.17-4.94c1.64,3.07,3.29,6.15,4.94,9.33
		c0.98,0.44,0.98,0.44,20.95-3.62C-671.5,206.97-671.5,206.97-706.61,151.34z M-717.04,194.13c0.78-7.78,1.66-15.57,2.53-23.37
		c3.62,6.58,7.35,13.17,11.09,19.75C-704.53,191.5-704.53,191.5-717.04,194.13z"/>
	<path class="st1" d="M-524.66,131.26h-22.61c-12.19,32.93-12.19,32.93-23.49,65.84c6.8-0.33,13.61-0.56,20.53-0.76
		c0.87-3.29,1.75-6.59,2.75-9.78h22.93c0.87,3.19,1.87,6.49,2.86,9.78h21.17C-508.65,174.6-516.67,152.88-524.66,131.26z
		 M-542.89,171.42c2.2-7.35,4.39-14.59,6.7-21.84c2.2,7.02,4.51,14.04,6.8,21.18C-533.88,170.98-538.38,171.2-542.89,171.42z"/>
	<path class="st1" d="M-431.71,139.6c-18.32-2.96-18.32-2.96-40.27-5.48c-2.52,21.5-5.05,43.01-7.46,64.52
		c5.58,0.89,11.3,1.87,16.99,2.85h2.97c0.87-8.12,1.87-16.13,2.86-24.14c8.89,0.99,18.55,2.2,27.1-0.44
		C-416.56,167.7-415.03,145.62-431.71,139.6z M-451.47,164.83c-1.2-0.22-2.4-0.44-3.62-0.66c0.45-4.72,0.87-9.33,1.45-13.94
		c7.99,0.76,14.26,0.22,14.26,9.55C-442.36,165.06-445.54,164.61-451.47,164.83z"/>
	<path class="st1" d="M-606.54,165.94c1.98-1.87,4.07-3.74,6.15-5.5c5.38-11.84-1.2-21.17-12.73-23.8c-5.93,0-5.93,0-43.89,4.82
		c2.64,21.64,5.27,43.35,8.02,65.08c15.69-2.09,31.61-3.51,46.85-7.68C-586.89,189.53-588.2,170.43-606.54,165.94z M-635.07,152.44
		c7.03-0.88,23.05-3.73,15.37,9.11c-4.39,1.44-4.39,1.44-13.95,2.64C-634.19,160.22-634.63,156.28-635.07,152.44z M-612.78,184.59
		c-4.61,4.6-11.75,4.28-17.9,5.15c-0.54-4.39-1.1-8.77-1.53-13.17C-623.32,176.47-610.48,171.86-612.78,184.59z"/>
	<path class="st1" d="M-285.76,477.94c-0.99-6.58-1.98-13.19-2.96-19.77c-4.39-8.78-8.89-14.92-14.72-24.91
		c0-6.15,0.89-6.58,4.85-11.19c5.92-3.09,5.92-3.09,6.25-4.06c-4.82-7.36-10.64-15.26-19.42-17.56c-4.5,21.07-15.48,7.89-26.99-1.22
		c-10-2.95-30.3-5.92-36.45-15.25c2.43-4.94,3.74-7.69,3.74-13.17c-7.91-0.1-15.81-0.22-23.71-0.33
		c0.33,14.05-0.22,17.23-13.26,23.71c-12.87,3.72-26.79,6.26-36.55,16.02c-2.21,0.87-4.18,0.33-6.6,0
		c-3.28-4.72-3.28-4.72-6.24-10.86c-8.12-0.67-24.26,12.72-20.3,20.29c6.67,2.53,12.28,2.19,12.28,9.99
		c-9.88,12.18-13.95,26-17.57,40.94c-1.45,3.62-1.45,3.62-3.31,5.51c-7.89,0-13.71-1.45-16.35-1.33
		c-0.67,10.55-1.33,21.18-1.87,31.82c1.45,0,2.84,0,4.4,0c0-0.75,0.11-1.42,0.22-2.09c4.28-2.08,4.28-2.08,9.66-3.61
		c6.26,2.3,7.58,22.16,9.44,28.41c4.96,11.09,10.88,20.63,17.57,30.83c-4.39,3.85-8.8,7.69-13.18,11.53
		c4.38,4.61,13.4,17.67,20.32,17.67c2.96-4.71,5.16-10.75,10.85-12.17c16.57,9.11,35.01,14.27,52.02,22.28
		c-1.76,5.04-3.08,9.43-3.73,14.7c9.98,0,19.97,0,30.06,0c-1.65-7.25-6.25-12.73-1.53-19.42c11.08-2.31,11.08-2.31,19.86-5.15
		c7.36-3.97,21.62-14.82,29.74-14.82c2.84,4.16,5.69,8.34,8.66,12.49c4.83,0,14.5-12.49,18.11-16.13
		c3.62-9.75-10.99-6.37-10.99-15.46c9.33-17.79,16.15-33.47,19.65-53.34c1.88-0.22,3.73-0.43,5.6-0.53
		c4.06,3.84,6.81,6.35,12.52,7.01c0-10.76,0-21.51,0-32.26C-273.36,477.28-278.63,482.34-285.76,477.94z M-314.4,466.18
		c0.87,4.62,1.76,9.34,2.63,14.06c-8.01,0.99-21.83,3.95-29.19,4.38c-4.16-1.86-9.11-3.07-8.45-8.44c-1.53-1.99-4.06-3.96-3.62-6.6
		c9.54-7.68,19.21-15.25,28.87-22.84C-319.9,448.62-316.15,461.14-314.4,466.18z M-377.27,442.81c1.98-8.89,3.17-17.23,4.04-26.23
		c13.29,0,24.38,8.12,35.56,14.37c-8.58,9-13.18,21.5-23.03,29.09c-2.76,0.1-5.5,0.22-8.14,0.43
		C-378.48,455.64-377.27,453.45-377.27,442.81z M-372.23,471.79c13.93,11.41,8.24,24.93,1.33,38.74c-7.58,3.4-12.52,3.74-21.29,4.06
		c-11.3-5.37-13.82-13.37-15.03-25.66C-401.86,469.49-390.22,464.75-372.23,471.79z M-395.17,415.04
		c1.97,12.73,5.38,26.78,2.19,39.51c-5.7,2.2-9.99,3.73-16.04,4.39c-5.47-7.78-20.17-19.53-19.4-29.52
		C-418.88,420.64-407.57,418.99-395.17,415.04z M-444.11,446.86c9.11,5.16,16.79,12.29,24.79,18.99c4.18,6.71-0.64,11.32-1.41,18.77
		c-2.96,0.22-5.92,0.45-8.78,0.67c-8.24-1.32-20.84-4.73-29.3-2.84C-458.16,473.66-455.2,448.62-444.11,446.86z M-461,502.19
		c8.88,0,16.79-1.75,25.55-3.4c12.18,0,16.9-2.08,20.08,10.52v6.93c-24.46,22.92-24.46,22.92-26.55,23.92
		C-456.51,531.82-458.04,517.78-461,502.19z M-391.99,568.25c-3.29,0.1-6.58,0.21-9.76,0.44c-9.99-3.4-17.13-6.58-25.57-12.84
		c12.4-8.88,9.88-28.54,27.88-28.54c2.64,1.34,5.28,2.63,8.02,4.07C-391.66,543.67-391.87,555.97-391.99,568.25z M-340.31,554.43
		c-9.86,8.55-18.53,12.39-31.38,13.6c-1.97-12.06-5.71-24.46-1.53-36.32c14.6-14.6,26.68,11.74,32.91,21.28L-340.31,554.43
		L-340.31,554.43z M-321.96,536.1c-0.56,0.11-1,0.22-1.44,0.44c-10.53-3.85-17.99-10.09-25.68-18.65c-0.64-0.33-1.21-0.66-1.75-0.88
		c0-6.92,3.18-13.72,5.16-20.3c3.96,0.66,3.96,0.66,34.13,2.19C-305.63,509.98-316.92,527.1-321.96,536.1z M-398.24,506.69
		c3.62,2.31,7.67,3.09,11.85,4.28c4.37-0.67,7.46-0.76,10.97-3.4c12.06-18.55,9.87-29.85-13.17-35.12
		C-405.16,479.92-404.38,492.21-398.24,506.69z"/>
</g>
<g>
	<rect x="513.32" y="237.28" class="st2" width="53.38" height="32.09"/>
	<rect x="387.07" y="211.31" class="st2" width="305.87" height="31.19"/>
	<path class="st2" d="M540.01,65.58c33.12,0,59.97,26.85,59.97,59.97c0,33.12-26.85,59.97-59.97,59.97
		c-33.12,0-59.97-26.85-59.97-59.97C480.04,92.43,506.88,65.58,540.01,65.58 M540.01,34.49c50.29,0,91.06,40.77,91.06,91.06
		c0,50.29-40.77,91.06-91.06,91.06c-50.29,0-91.06-40.77-91.06-91.06C448.95,75.26,489.71,34.49,540.01,34.49z"/>
	<path class="st3" d="M604.99,116.48c8.29,20.99,2.26,46.77-16.79,63.7c-19.04,16.92-45.35,19.89-65.22,9.2
		c19.88,6.56,43.47,2.06,61.21-13.7C601.94,159.9,609.18,136.99,604.99,116.48"/>
	<path class="st3" d="M572.07,50.04c-26.85-14.46-62.4-10.45-88.14,12.42c-25.73,22.87-33.89,57.69-22.69,86.06
		c-5.65-27.72,4.13-58.67,28.1-79.97C513.31,47.25,545.2,41.17,572.07,50.04"/>
	<polygon class="st4" points="971.12,242.73 773.16,242.73 773.16,325.52 969.45,325.52 909.28,284.69 	"/>
	<polygon class="st5" points="773.83,242.73 773.16,242.73 773.16,325.52 797.07,325.52 797.07,262.14 	"/>
	<polygon class="st4" points="108.88,242.73 306.84,242.73 306.84,325.52 110.55,325.52 170.72,284.69 	"/>
	<polygon class="st3" points="556.11,223.43 680.93,217.66 550.22,218.04 550.22,277.83 	"/>
	<polygon class="st5" points="306.18,242.73 306.84,242.73 306.84,325.52 282.93,325.52 282.93,262.14 	"/>
	<polygon class="st5" points="773.16,318.95 959.76,318.95 969.45,325.52 773.16,325.52 	"/>
	<polygon class="st5" points="120.24,318.95 306.84,318.95 306.84,325.52 110.55,325.52 	"/>
	<rect x="282.93" y="262.14" class="st6" width="514.15" height="77.16"/>
	<polygon class="st3" points="390.99,214.11 397.78,214.11 394.38,239.86 390.99,239.86 	"/>
	<rect x="282.93" y="332.73" class="st7" width="514.15" height="6.58"/>
	<path class="st8" d="M717.26,301.65c0,16.67,9.32,23.4,25.61,23.4c16.29,0,25.6-6.73,25.6-23.4c0-16.67-9.31-23.4-25.6-23.4
		C726.58,278.25,717.26,284.98,717.26,301.65 M742.87,286.71c9.77,0,13.62,5.32,13.62,14.94c0,9.62-3.85,14.94-13.62,14.94
		c-9.77,0-13.62-5.32-13.62-14.94C729.25,292.03,733.09,286.71,742.87,286.71z M679.01,324.08c1.63,0,3-1.28,3-2.89V306h6.84
		c4.1,0,6.52,2.63,8.92,6.41l5.61,8.72c1.04,1.67,3.26,2.95,4.88,2.95h7.3c1.69,0,2.15-1.28,1.11-2.95l-7.95-12.44
		c-1.82-2.76-5.08-6.67-8.21-7.31c4.43-1.03,6.58-4.04,8.21-6.92l6.91-12.31c0.97-1.73,0.65-3.01-0.98-3.01h-7.36
		c-1.63,0-3.39,0.96-4.56,3.01l-4.95,8.66c-2.54,4.49-5.21,6.34-8.92,6.34h-6.84v-15c0-1.67-1.37-3.01-3-3.01h-5.99
		c-1.63,0-3,1.35-3,3.01v38.92c0,1.67,1.37,3.01,3,3.01H679.01z M617.05,292.03c0,16.6,34.47,12.44,34.47,19.88
		c0,2.24-1.69,3.59-5.61,3.59h-11.14c-3.26,0-5.73-1.02-6.78-3.21c-1.04-2.11-2.48-2.95-4.3-2.95h-3.78c-0.85,0-3.26,0.58-3.26,3.46
		c0,6.86,8.8,11.54,17.01,11.54h9.64c15.64,0,20.2-5.39,20.2-13.08c0-16.73-34.46-12.44-34.46-19.87c0-2.24,1.69-3.59,5.6-3.59h9.58
		c3.26,0,5.73,1.03,6.78,3.21c1.04,2.12,2.47,2.95,4.3,2.95h3.78c0.85,0,3.26-0.58,3.26-3.46c0-6.86-8.8-11.54-17.01-11.54h-8.08
		C621.61,278.95,617.05,284.34,617.05,292.03z M592.16,287.99c3.65,0,8.27,1.28,8.27,5.42c0,4.13-4.63,5.42-8.27,5.42h-13.55v-10.83
		H592.16z M586.36,307.67c4.1,0,6.45,2.63,8.08,5.13l5.41,8.33c1.04,1.67,3.26,2.95,4.89,2.95h7.62c1.69,0,2.15-1.28,1.11-2.95
		l-5.8-9.04c-2.61-4.04-4.56-6.28-7.23-7.25c6.58-1.28,11.99-4.49,11.99-11.44c0-8.88-7.1-14.26-16.62-14.26h-26.25
		c-1.63,0-2.93,1.28-2.93,2.95v39.04c0,1.6,1.37,2.95,3,2.95h6c1.69,0,3-1.35,3-2.95v-13.46H586.36z M508.89,301.65
		c0,16.67,9.32,23.4,25.61,23.4c16.29,0,25.6-6.73,25.6-23.4c0-16.67-9.31-23.4-25.6-23.4
		C518.21,278.25,508.89,284.98,508.89,301.65z M534.5,286.71c9.77,0,13.62,5.32,13.62,14.94c0,9.62-3.84,14.94-13.62,14.94
		c-9.77,0-13.62-5.32-13.62-14.94C520.88,292.03,524.73,286.71,534.5,286.71z M475.54,324.08c1.63,0,3.32-1.29,3.9-2.83l11.21-30.8
		v30.61c0,1.67,1.3,3.02,3,3.02h5.73c1.7,0,3-1.36,3-3.02v-38.89c0-1.67-1.3-3.02-2.94-3.02h-12.96c-1.69,0-3.32,1.36-3.84,2.96
		l-9.38,26.77l-9.38-26.77c-0.52-1.6-2.15-2.96-3.85-2.96h-12.96c-1.63,0-2.93,1.36-2.93,3.02v38.89c0,1.67,1.3,3.02,3,3.02h5.73
		c1.69,0,3-1.36,3-3.02v-30.61l11.2,30.8c0.59,1.54,2.28,2.83,3.91,2.83H475.54z M423.02,321.19c0,1.61,1.37,2.9,3,2.9h5.93
		c1.7,0,3.07-1.36,3.07-2.96V282.1c0-1.67-1.36-2.96-3.07-2.96h-5.93c-1.62,0-3,1.29-3,2.96V321.19z M395.92,287.99
		c3.65,0,8.27,1.28,8.27,5.42c0,4.13-4.63,5.42-8.27,5.42h-13.55v-10.83H395.92z M390.12,307.67c4.1,0,6.45,2.63,8.08,5.13
		l5.41,8.33c1.04,1.67,3.26,2.95,4.89,2.95h7.62c1.69,0,2.15-1.28,1.1-2.95l-5.79-9.04c-2.61-4.04-4.56-6.28-7.23-7.25
		c6.58-1.28,11.99-4.49,11.99-11.44c0-8.88-7.1-14.26-16.62-14.26h-26.25c-1.63,0-2.93,1.28-2.93,2.95v39.04c0,1.6,1.37,2.95,3,2.95
		h5.99c1.69,0,3-1.35,3-2.95v-13.46H390.12z M320.99,279.15c-1.63,0-2.93,1.28-2.93,2.95v39.04c0,1.6,1.37,2.95,3,2.95h5.99
		c1.69,0,3-1.35,3-2.95v-7.05h15.24c12.12,0,19.22-5.38,19.22-17.47c0-12.08-7.1-17.47-19.22-17.47H320.99z M341.64,287.99
		c6.25,0,10.88,1.28,10.88,8.62c0,7.34-4.62,8.62-10.88,8.62h-11.6v-17.24H341.64z"/>
	<path class="st9" d="M717.95,317.43c-4.69-4.05-7.2-10.27-7.2-19.05c0-8.78,2.51-15,7.2-19.05c4.65-4.01,11.37-5.81,19.86-5.81
		c8.49,0,15.21,1.8,19.86,5.81c4.69,4.04,7.2,10.27,7.2,19.05c0,8.78-2.51,15-7.2,19.05c-4.65,4.01-11.37,5.81-19.86,5.81
		C729.32,323.24,722.59,321.44,717.95,317.43 M713.66,298.38c0,7.88,2.16,13.37,6.19,16.85c4.07,3.51,10.16,5.09,17.96,5.09
		c7.8,0,13.88-1.58,17.96-5.09c4.03-3.48,6.19-8.98,6.19-16.85c0-7.88-2.16-13.38-6.19-16.85c-4.07-3.52-10.16-5.09-17.96-5.09
		c-7.8,0-13.89,1.58-17.96,5.09C715.81,285.01,713.66,290.51,713.66,298.38z M747.19,288.26c-1.9-2.2-4.95-3.36-9.38-3.36
		c-4.43,0-7.48,1.16-9.37,3.36c-1.93,2.24-2.79,5.66-2.79,10.12c0,4.46,0.85,7.88,2.79,10.12c1.9,2.2,4.95,3.36,9.37,3.36
		c4.43,0,7.48-1.16,9.38-3.36c1.93-2.24,2.79-5.66,2.79-10.12C749.97,293.92,749.12,290.5,747.19,288.26z M737.81,281.99
		c5.34,0,9.1,1.51,11.57,4.37c2.43,2.82,3.5,6.87,3.5,12.03c0,5.15-1.07,9.21-3.5,12.02c-2.47,2.86-6.23,4.37-11.57,4.37
		c-5.34,0-9.1-1.51-11.57-4.37c-2.43-2.81-3.5-6.87-3.5-12.02c0-5.16,1.07-9.21,3.5-12.03
		C728.71,283.49,732.47,281.99,737.81,281.99z M677.09,321.02c-0.81,0.77-1.93,1.26-3.13,1.26h-5.99c-1.21,0-2.33-0.51-3.14-1.32
		c-0.8-0.8-1.31-1.91-1.31-3.15v-38.92c0-1.23,0.51-2.35,1.31-3.15c0.81-0.81,1.93-1.32,3.14-1.32h5.99c1.22,0,2.34,0.51,3.14,1.31
		c0.8,0.81,1.31,1.93,1.31,3.15v13.54h5.39c1.55,0,2.88-0.39,4.07-1.22c1.26-0.89,2.44-2.33,3.6-4.38l4.95-8.66
		c0.68-1.18,1.54-2.09,2.47-2.7c1.06-0.7,2.23-1.05,3.36-1.05h7.36c0.65,0,1.21,0.14,1.67,0.4c0.44,0.25,0.78,0.6,1,1.03
		c0.2,0.39,0.31,0.84,0.31,1.32c0,0.72-0.25,1.55-0.74,2.42l-6.9,12.31c-0.88,1.54-1.9,3.13-3.32,4.49
		c-0.73,0.7-1.56,1.33-2.52,1.87l1.29,1.04c1.79,1.59,3.4,3.66,4.49,5.32l7.96,12.46c0.53,0.85,0.79,1.67,0.79,2.38
		c0,0.47-0.1,0.91-0.31,1.3c-0.21,0.4-0.54,0.76-0.96,1.02c-0.5,0.3-1.12,0.48-1.85,0.48h-7.3c-1.09,0-2.34-0.41-3.45-1.08
		c-1.05-0.63-2.04-1.54-2.67-2.56l-5.59-8.7c-1.12-1.76-2.24-3.26-3.51-4.27c-1.16-0.93-2.51-1.47-4.19-1.47h-5.39v13.74
		C678.41,319.14,677.9,320.23,677.09,321.02z M673.96,319.36c0.43,0,0.84-0.17,1.12-0.44c0.26-0.26,0.43-0.61,0.43-0.99v-16.65h8.3
		c2.41,0,4.34,0.78,6,2.11c1.56,1.24,2.86,2.97,4.14,4.98l5.61,8.72c0.4,0.63,1.03,1.2,1.71,1.62c0.68,0.41,1.39,0.66,1.95,0.66
		l7.49-0.01c-0.03-0.19-0.14-0.43-0.31-0.71l-7.93-12.41c-0.99-1.49-2.42-3.35-4-4.75c-1.09-0.97-2.24-1.72-3.28-1.93l-6.54-1.32
		l6.49-1.52c1.93-0.45,3.36-1.33,4.48-2.4c1.16-1.11,2.04-2.48,2.8-3.82l6.9-12.31c0.19-0.33,0.31-0.62,0.35-0.84l-7.42,0
		c-0.57,0-1.18,0.18-1.75,0.56c-0.57,0.37-1.11,0.95-1.55,1.72l-4.95,8.66c-1.37,2.43-2.82,4.17-4.44,5.32
		c-1.71,1.2-3.59,1.76-5.74,1.76h-8.3v-16.46c0-0.43-0.18-0.82-0.45-1.1c-0.28-0.28-0.67-0.46-1.09-0.46h-5.99
		c-0.42,0-0.81,0.18-1.09,0.46c-0.27,0.28-0.45,0.67-0.45,1.1v38.92c0,0.42,0.18,0.82,0.45,1.09c0.28,0.28,0.67,0.46,1.09,0.46
		H673.96z M634,304.63c-10.43-2.11-23.46-4.73-23.46-15.86c0-4.3,1.3-7.97,4.82-10.59c3.34-2.49,8.67-3.94,16.83-3.94h8.08
		c4.59,0,9.37,1.39,12.89,3.78c3.33,2.26,5.58,5.44,5.58,9.22c0,1.54-0.53,2.65-1.26,3.41c-1.12,1.2-2.71,1.51-3.46,1.51h-3.78
		c-1.19,0-2.27-0.29-3.24-0.92c-0.93-0.62-1.72-1.54-2.36-2.85c-0.36-0.75-0.98-1.33-1.8-1.71c-0.97-0.45-2.22-0.68-3.68-0.68h-9.58
		c-1.61,0-2.73,0.24-3.41,0.67c-0.5,0.32-0.74,0.83-0.74,1.46c0,1.78,4.98,2.77,10.96,3.96c10.44,2.08,23.51,4.68,23.51,15.91
		c0,4.29-1.3,7.97-4.82,10.59c-3.34,2.49-8.67,3.94-16.83,3.94h-9.64c-4.59,0-9.38-1.39-12.89-3.77c-3.34-2.26-5.58-5.44-5.58-9.22
		c0-1.54,0.54-2.65,1.26-3.41c1.13-1.19,2.71-1.51,3.46-1.51h3.78c1.18,0,2.26,0.28,3.24,0.92c0.93,0.61,1.72,1.54,2.37,2.84
		c0.37,0.76,0.99,1.33,1.8,1.71c0.97,0.45,2.22,0.68,3.68,0.68h11.14c1.62,0,2.74-0.24,3.41-0.67c0.5-0.32,0.74-0.83,0.74-1.46
		C645.01,306.85,640,305.84,634,304.63z M613.45,288.76c0,8.76,11.72,11.12,21.11,13.02c7.27,1.46,13.35,2.69,13.35,6.86
		c0,1.67-0.66,3-2.08,3.91c-1.15,0.73-2.79,1.14-4.98,1.14h-11.14c-1.87,0-3.55-0.32-4.91-0.96c-1.42-0.67-2.52-1.69-3.18-3.07
		c-0.4-0.81-0.85-1.36-1.35-1.68c-0.45-0.3-1.01-0.44-1.64-0.44h-3.78c-0.29,0-0.91,0.12-1.34,0.58c-0.27,0.28-0.46,0.73-0.46,1.43
		c0,2.72,1.73,5.08,4.3,6.82c3.03,2.06,7.22,3.26,11.26,3.26h9.64c7.48,0,12.24-1.24,15.09-3.36c2.66-1.99,3.65-4.87,3.65-8.26
		c0-8.84-11.75-11.19-21.15-13.06c-7.26-1.44-13.31-2.65-13.31-6.82c0-1.67,0.67-3,2.08-3.91c1.15-0.74,2.79-1.14,4.98-1.14h9.58
		c1.87,0,3.55,0.32,4.91,0.96c1.41,0.67,2.5,1.69,3.17,3.06c0.4,0.81,0.86,1.37,1.35,1.7c0.46,0.29,1.01,0.44,1.64,0.44h3.78
		c0.29,0,0.91-0.12,1.34-0.58c0.27-0.28,0.46-0.73,0.46-1.43c0-2.72-1.73-5.08-4.29-6.82c-3.04-2.06-7.22-3.26-11.26-3.26h-8.08
		c-7.48,0-12.24,1.24-15.09,3.36C614.44,282.49,613.45,285.37,613.45,288.76z M592.41,287.45c-1.41-0.92-3.48-1.26-5.3-1.26h-12.1
		v7.92h12.1c1.82,0,3.9-0.35,5.3-1.27c0.9-0.59,1.52-1.46,1.52-2.7C593.92,288.91,593.31,288.03,592.41,287.45z M587.1,283.27
		c2.29,0,4.95,0.47,6.89,1.74c1.69,1.1,2.84,2.76,2.84,5.13c0,2.37-1.15,4.02-2.84,5.13c-1.94,1.27-4.6,1.75-6.89,1.75H572.1v-13.75
		H587.1z M585.41,307.2c-1.07-0.79-2.4-1.33-4.1-1.33h-6.3v12c0,1.2-0.5,2.32-1.31,3.12c-0.81,0.8-1.91,1.29-3.14,1.29h-6
		c-1.21,0-2.32-0.5-3.13-1.3c-0.81-0.8-1.33-1.91-1.33-3.11v-39.04c0-1.23,0.49-2.33,1.28-3.12c0.79-0.79,1.9-1.28,3.11-1.28h26.25
		c5.2,0,9.77,1.53,13.01,4.31c3.17,2.72,5.07,6.62,5.07,11.41c0,3.63-1.32,6.39-3.47,8.45c-1.67,1.59-3.83,2.74-6.26,3.54l0.97,0.91
		c1.22,1.26,2.43,2.91,3.78,5.01l5.8,9.04c0.53,0.85,0.79,1.67,0.79,2.39c0,0.47-0.1,0.91-0.31,1.3c-0.21,0.4-0.54,0.76-0.96,1.02
		c-0.5,0.3-1.12,0.48-1.85,0.48h-7.62c-1.09,0-2.34-0.41-3.45-1.08c-1.04-0.63-2.02-1.52-2.66-2.53l-5.41-8.33
		C587.44,309.2,586.54,308.05,585.41,307.2z M581.31,302.95c2.4,0,4.3,0.78,5.83,1.91c1.47,1.09,2.57,2.51,3.46,3.88l5.41,8.33
		c0.4,0.64,1.03,1.21,1.72,1.62c0.68,0.41,1.39,0.66,1.95,0.66l7.81-0.01c-0.03-0.18-0.13-0.42-0.31-0.7l-5.8-9.04
		c-1.25-1.94-2.35-3.45-3.41-4.55c-0.99-1.02-1.99-1.72-3.09-2.12l-4.95-1.78l5.17-1.01c3.3-0.64,6.27-1.78,8.24-3.67
		c1.59-1.52,2.56-3.58,2.56-6.34c0-3.89-1.51-7.03-4.04-9.2c-2.71-2.32-6.61-3.6-11.12-3.6H564.5c-0.42,0-0.79,0.16-1.05,0.43
		c-0.26,0.26-0.42,0.63-0.42,1.06v39.04c0,0.4,0.17,0.78,0.45,1.04c0.28,0.28,0.67,0.45,1.09,0.45h6c0.44,0,0.83-0.17,1.09-0.43
		c0.28-0.27,0.45-0.65,0.45-1.06v-14.92H581.31z M509.58,317.43c-4.69-4.05-7.2-10.27-7.2-19.05c0-8.78,2.51-15,7.2-19.05
		c4.65-4.01,11.37-5.81,19.86-5.81c8.49,0,15.21,1.8,19.86,5.81c4.69,4.04,7.2,10.27,7.2,19.05c0,8.78-2.51,15-7.2,19.05
		c-4.65,4.01-11.37,5.81-19.86,5.81C520.95,323.24,514.23,321.44,509.58,317.43z M505.29,298.38c0,7.88,2.16,13.37,6.19,16.85
		c4.07,3.51,10.16,5.09,17.96,5.09c7.8,0,13.88-1.58,17.96-5.09c4.03-3.48,6.19-8.98,6.19-16.85c0-7.88-2.16-13.38-6.19-16.85
		c-4.07-3.52-10.16-5.09-17.96-5.09c-7.8,0-13.89,1.58-17.96,5.09C507.45,285.01,505.29,290.51,505.29,298.38z M538.82,288.26
		c-1.9-2.2-4.94-3.36-9.37-3.36c-4.43,0-7.48,1.16-9.38,3.36c-1.93,2.24-2.79,5.66-2.79,10.12c0,4.46,0.86,7.88,2.79,10.12
		c1.9,2.2,4.95,3.36,9.38,3.36c4.43,0,7.48-1.16,9.37-3.36c1.93-2.24,2.79-5.66,2.79-10.12C541.6,293.92,540.75,290.5,538.82,288.26
		z M529.44,281.99c5.34,0,9.1,1.51,11.57,4.37c2.43,2.82,3.5,6.87,3.5,12.03c0,5.15-1.07,9.21-3.5,12.02
		c-2.46,2.86-6.23,4.37-11.57,4.37c-5.34,0-9.11-1.51-11.57-4.37c-2.43-2.82-3.5-6.87-3.5-12.02c0-5.16,1.07-9.21,3.5-12.03
		C520.34,283.49,524.1,281.99,529.44,281.99z M473.65,321.18c-0.93,0.67-2.05,1.1-3.17,1.1h-4.56c-1.12,0-2.24-0.42-3.16-1.1
		c-0.93-0.67-1.71-1.64-2.11-2.67l-8.39-23.07v22.36c0,1.23-0.5,2.35-1.3,3.16c-0.81,0.81-1.92,1.31-3.16,1.31h-5.73
		c-1.24,0-2.35-0.5-3.15-1.3c-0.81-0.82-1.3-1.95-1.3-3.18v-38.89c0-1.22,0.49-2.34,1.27-3.15c0.8-0.82,1.9-1.33,3.12-1.33h12.96
		c1.17,0,2.29,0.45,3.2,1.15c0.93,0.71,1.67,1.72,2.03,2.82l8,22.83l8-22.83c0.36-1.09,1.1-2.1,2.02-2.81
		c0.92-0.7,2.05-1.15,3.2-1.15h12.96c1.22,0,2.32,0.51,3.11,1.33c0.79,0.81,1.28,1.94,1.28,3.15v38.89c0,1.23-0.49,2.35-1.3,3.17
		c-0.8,0.8-1.91,1.31-3.15,1.31h-5.73c-1.24,0-2.35-0.5-3.15-1.3c-0.81-0.82-1.3-1.95-1.3-3.18v-22.37l-8.39,23.05
		C475.35,319.54,474.58,320.51,473.65,321.18z M470.48,319.36c0.48,0,1.01-0.21,1.46-0.54c0.49-0.35,0.89-0.84,1.08-1.35
		l14.03-38.53v38.85c0,0.44,0.16,0.84,0.44,1.12c0.28,0.27,0.67,0.45,1.1,0.45h5.73c0.44,0,0.83-0.18,1.1-0.44
		c0.28-0.28,0.45-0.68,0.45-1.12v-38.89c0-0.44-0.17-0.85-0.44-1.13c-0.26-0.27-0.63-0.44-1.04-0.44h-12.96
		c-0.5,0-1.01,0.21-1.44,0.54c-0.47,0.37-0.85,0.88-1.02,1.41L468.2,310l-10.75-30.68c-0.19-0.56-0.56-1.07-1.04-1.44
		c-0.43-0.33-0.94-0.54-1.44-0.54h-12.96c-0.4,0-0.77,0.17-1.02,0.43c-0.28,0.29-0.45,0.69-0.45,1.14v38.89
		c0,0.44,0.16,0.84,0.44,1.12c0.28,0.27,0.67,0.45,1.1,0.45h5.73c0.44,0,0.83-0.18,1.1-0.45c0.27-0.28,0.45-0.68,0.45-1.12v-38.85
		l14.02,38.53c0.2,0.51,0.6,1,1.09,1.35c0.45,0.33,0.98,0.54,1.47,0.54H470.48z M417.83,321c-0.81-0.78-1.32-1.88-1.32-3.08v-39.08
		c0-1.23,0.51-2.33,1.31-3.11c0.82-0.81,1.94-1.3,3.15-1.3h5.93c1.24,0,2.37,0.48,3.18,1.27c0.83,0.8,1.34,1.91,1.34,3.14v39.02
		c0,1.21-0.52,2.33-1.36,3.14c-0.81,0.78-1.93,1.28-3.16,1.28h-5.93C419.75,322.28,418.64,321.79,417.83,321z M419.42,317.92
		c0,0.39,0.17,0.74,0.44,1c0.28,0.27,0.68,0.44,1.1,0.44h5.93c0.45,0,0.87-0.18,1.15-0.46c0.28-0.27,0.45-0.64,0.45-1.04v-39.02
		c0-0.42-0.18-0.79-0.44-1.06c-0.29-0.27-0.7-0.44-1.17-0.44h-5.93c-0.43,0-0.82,0.17-1.1,0.44c-0.28,0.27-0.44,0.64-0.44,1.06
		V317.92z M396.16,287.45c-1.41-0.92-3.48-1.26-5.3-1.26h-12.1v7.92h12.1c1.82,0,3.9-0.35,5.3-1.27c0.9-0.59,1.52-1.46,1.52-2.7
		C397.68,288.91,397.06,288.03,396.16,287.45z M390.86,283.27c2.29,0,4.95,0.47,6.89,1.74c1.69,1.1,2.84,2.76,2.84,5.13
		c0,2.37-1.15,4.02-2.84,5.13c-1.94,1.27-4.61,1.75-6.89,1.75h-15.01v-13.75H390.86z M389.17,307.2c-1.07-0.79-2.4-1.33-4.1-1.33
		h-6.3v12c0,1.21-0.5,2.33-1.32,3.13c-0.8,0.79-1.91,1.28-3.14,1.28h-5.99c-1.21,0-2.32-0.5-3.13-1.3c-0.81-0.8-1.33-1.91-1.33-3.11
		v-39.04c0-1.23,0.49-2.33,1.28-3.12c0.79-0.79,1.9-1.28,3.11-1.28h26.25c5.2,0,9.77,1.53,13.01,4.31
		c3.17,2.72,5.07,6.62,5.07,11.41c0,3.63-1.32,6.39-3.47,8.45c-1.67,1.59-3.83,2.74-6.26,3.54l0.97,0.91
		c1.22,1.26,2.43,2.91,3.78,5.01l5.79,9.04c0.53,0.85,0.79,1.67,0.79,2.39c0,0.47-0.1,0.91-0.31,1.3c-0.21,0.4-0.53,0.75-0.93,1
		c-0.52,0.32-1.15,0.5-1.88,0.5h-7.62c-1.09,0-2.34-0.41-3.45-1.08c-1.04-0.63-2.02-1.52-2.66-2.53l-5.41-8.33
		C391.19,309.2,390.3,308.05,389.17,307.2z M385.06,302.95c2.4,0,4.3,0.78,5.83,1.91c1.47,1.09,2.57,2.51,3.46,3.88l5.41,8.33
		c0.4,0.64,1.03,1.21,1.72,1.62c0.68,0.41,1.39,0.66,1.95,0.66l7.82-0.01c-0.04-0.18-0.15-0.43-0.32-0.72l-5.78-9.02
		c-1.25-1.94-2.35-3.45-3.41-4.55c-0.99-1.02-1.99-1.72-3.09-2.12l-4.95-1.78l5.17-1.01c3.3-0.64,6.27-1.78,8.24-3.67
		c1.59-1.52,2.56-3.58,2.56-6.34c0-3.89-1.51-7.03-4.04-9.2c-2.71-2.32-6.61-3.6-11.12-3.6h-26.25c-0.42,0-0.79,0.16-1.05,0.43
		c-0.26,0.26-0.42,0.63-0.42,1.06v39.04c0,0.4,0.18,0.78,0.45,1.04c0.28,0.28,0.67,0.45,1.09,0.45h5.99c0.44,0,0.83-0.17,1.1-0.44
		c0.27-0.26,0.44-0.65,0.44-1.05v-14.92H385.06z M312.82,275.71c0.79-0.79,1.9-1.28,3.11-1.28h24.3c6.56,0,11.78,1.54,15.36,4.78
		c3.45,3.14,5.32,7.8,5.32,14.14c0,6.34-1.86,11-5.32,14.14c-3.58,3.25-8.8,4.79-15.36,4.79h-13.79v5.59c0,1.21-0.5,2.33-1.32,3.13
		c-0.8,0.79-1.91,1.28-3.14,1.28H316c-1.21,0-2.32-0.5-3.13-1.3c-0.81-0.8-1.33-1.91-1.33-3.11v-39.04
		C311.55,277.6,312.03,276.5,312.82,275.71z M315.93,277.34c-0.42,0-0.79,0.16-1.05,0.43c-0.26,0.26-0.42,0.63-0.42,1.06v39.04
		c0,0.4,0.17,0.78,0.45,1.04c0.28,0.28,0.67,0.45,1.09,0.45h5.99c0.44,0,0.83-0.17,1.1-0.44c0.27-0.26,0.44-0.65,0.44-1.05v-8.51
		h16.7c5.84,0,10.4-1.29,13.4-4.02c2.83-2.57,4.36-6.53,4.36-11.99c0-5.46-1.53-9.42-4.36-11.99c-3-2.73-7.57-4.02-13.4-4.02H315.93
		z M343.59,287.51c-1.64-1.05-4.12-1.33-7-1.33h-10.14v14.33h10.14c2.88,0,5.36-0.27,7-1.33c1.51-0.97,2.42-2.74,2.42-5.84
		C346.01,290.25,345.1,288.47,343.59,287.51z M336.59,283.27c3.37,0,6.34,0.37,8.56,1.79c2.36,1.5,3.77,4.04,3.77,8.29
		c0,4.24-1.41,6.78-3.77,8.29c-2.22,1.42-5.19,1.79-8.56,1.79h-13.05v-20.16H336.59z"/>
	<path class="st1" d="M712.2,298.38c0,16.67,9.32,23.4,25.61,23.4c16.29,0,25.6-6.73,25.6-23.4c0-16.67-9.31-23.4-25.6-23.4
		C721.52,274.98,712.2,281.71,712.2,298.38 M737.81,283.44c9.77,0,13.62,5.32,13.62,14.94c0,9.62-3.84,14.94-13.62,14.94
		c-9.77,0-13.62-5.32-13.62-14.94C724.19,288.76,728.04,283.44,737.81,283.44z M673.96,320.82c1.63,0,3-1.28,3-2.89v-15.19h6.84
		c4.1,0,6.52,2.63,8.92,6.41l5.61,8.72c1.04,1.67,3.26,2.95,4.88,2.95h7.3c1.69,0,2.15-1.28,1.11-2.95l-7.95-12.44
		c-1.82-2.76-5.08-6.67-8.21-7.31c4.43-1.03,6.58-4.04,8.21-6.93l6.91-12.31c0.97-1.73,0.65-3.01-0.98-3.01h-7.36
		c-1.63,0-3.39,0.96-4.56,3.01l-4.95,8.66c-2.54,4.49-5.21,6.34-8.92,6.34h-6.84v-15c0-1.67-1.37-3.01-3-3.01h-5.99
		c-1.63,0-3,1.35-3,3.01v38.92c0,1.67,1.37,3.01,3,3.01H673.96z M612,288.76c0,16.61,34.47,12.44,34.47,19.88
		c0,2.24-1.69,3.59-5.61,3.59h-11.14c-3.26,0-5.73-1.02-6.78-3.21c-1.04-2.11-2.48-2.95-4.3-2.95h-3.78c-0.85,0-3.26,0.58-3.26,3.46
		c0,6.86,8.8,11.54,17.01,11.54h9.64c15.64,0,20.2-5.38,20.2-13.08c0-16.73-34.46-12.44-34.46-19.87c0-2.24,1.69-3.59,5.6-3.59h9.58
		c3.26,0,5.73,1.03,6.78,3.21c1.04,2.12,2.47,2.95,4.3,2.95h3.78c0.85,0,3.26-0.58,3.26-3.46c0-6.86-8.8-11.54-17.01-11.54h-8.08
		C616.55,275.69,612,281.07,612,288.76z M587.1,284.73c3.65,0,8.27,1.28,8.27,5.42c0,4.13-4.63,5.42-8.27,5.42h-13.55v-10.83H587.1z
		 M581.31,304.41c4.1,0,6.45,2.63,8.08,5.13l5.41,8.33c1.04,1.67,3.26,2.95,4.89,2.95h7.62c1.69,0,2.15-1.28,1.11-2.95l-5.8-9.04
		c-2.61-4.04-4.56-6.28-7.23-7.25c6.59-1.28,11.99-4.49,11.99-11.44c0-8.88-7.1-14.26-16.62-14.26H564.5
		c-1.63,0-2.93,1.28-2.93,2.95v39.04c0,1.6,1.37,2.95,3,2.95h6c1.69,0,3-1.35,3-2.95v-13.46H581.31z M503.83,298.38
		c0,16.67,9.32,23.4,25.61,23.4c16.29,0,25.6-6.73,25.6-23.4c0-16.67-9.31-23.4-25.6-23.4
		C513.15,274.98,503.83,281.71,503.83,298.38z M529.44,283.44c9.77,0,13.62,5.32,13.62,14.94c0,9.62-3.84,14.94-13.62,14.94
		c-9.77,0-13.62-5.32-13.62-14.94C515.82,288.76,519.67,283.44,529.44,283.44z M470.48,320.82c1.63,0,3.32-1.29,3.91-2.83
		l11.21-30.8v30.61c0,1.67,1.3,3.02,3,3.02h5.73c1.7,0,3-1.36,3-3.02v-38.89c0-1.67-1.3-3.02-2.93-3.02h-12.96
		c-1.69,0-3.33,1.36-3.85,2.96l-9.38,26.77l-9.38-26.77c-0.52-1.6-2.15-2.96-3.85-2.96h-12.96c-1.63,0-2.93,1.36-2.93,3.02v38.89
		c0,1.67,1.3,3.02,3,3.02h5.73c1.69,0,3-1.36,3-3.02v-30.61l11.21,30.8c0.59,1.54,2.28,2.83,3.91,2.83H470.48z M417.96,317.92
		c0,1.6,1.37,2.9,3,2.9h5.93c1.7,0,3.06-1.36,3.06-2.96v-39.02c0-1.67-1.36-2.96-3.06-2.96h-5.93c-1.62,0-3,1.29-3,2.96V317.92z
		 M390.86,284.73c3.65,0,8.27,1.28,8.27,5.42c0,4.13-4.63,5.42-8.27,5.42h-13.55v-10.83H390.86z M385.06,304.41
		c4.1,0,6.45,2.63,8.08,5.13l5.41,8.33c1.04,1.67,3.26,2.95,4.89,2.95h7.62c1.69,0,2.15-1.28,1.1-2.95l-5.79-9.04
		c-2.61-4.04-4.56-6.28-7.23-7.25c6.58-1.28,11.99-4.49,11.99-11.44c0-8.88-7.1-14.26-16.62-14.26h-26.25
		c-1.63,0-2.93,1.28-2.93,2.95v39.04c0,1.6,1.37,2.95,3,2.95h5.99c1.69,0,3-1.35,3-2.95v-13.46H385.06z M315.93,275.88
		c-1.63,0-2.93,1.28-2.93,2.95v39.04c0,1.6,1.37,2.95,3,2.95h5.99c1.69,0,3-1.35,3-2.95v-7.05h15.24c12.12,0,19.22-5.38,19.22-17.47
		c0-12.08-7.1-17.47-19.22-17.47H315.93z M336.59,284.73c6.25,0,10.88,1.28,10.88,8.62c0,7.34-4.62,8.62-10.88,8.62h-11.6v-17.24
		H336.59z"/>
	<path class="st10" d="M810.72,770.83h20.09V361.27h-20.09V770.83z M249.11,770.83h21.88V361.27h-21.88V770.83z"/>
	<path class="st11" d="M290.14,801.73h499.72c-14.08,52.87-54.5,91.77-139.96,102.82c-73.25,9.59-108.7,47.39-109.9,47.21
		c-1.2,0.18-36.65-37.62-109.9-47.21C344.64,893.49,304.22,854.59,290.14,801.73"/>
	<path class="st12" d="M284.92,643.94c0,25.26,0,50.52,0,75.78c-0.37,28.41-0.44,22.55-0.24,48.42
		c5.06,69.63,42.72,123.13,145.42,136.41c73.25,9.59,108.7,47.39,109.9,47.21c1.2,0.18,36.65-37.62,109.9-47.21
		c102.7-13.28,140.36-66.78,145.42-136.41c0.2-25.87,0.13-20.01-0.24-48.42c0-25.26,0-50.52,0-75.78
		C625.03,643.94,454.97,643.94,284.92,643.94 M283.66,384.66v236.05h512.68V384.66H283.66z M540,993.61
		c-28.95-37.4-74.24-61-119.71-66.9c-91.38-11.85-158.21-46.3-171.18-155.88c11.36-19.48,6.9-18.27,7.4-74.83
		c0-111.58,0-223.16,0-334.73h566.98c0,111.58,0,223.16,0,334.73c0.5,56.57-3.96,55.35,7.4,74.83
		c-12.97,109.58-79.79,144.03-171.18,155.88C614.24,932.61,568.95,956.22,540,993.61z"/>
	<path class="st2" d="M540,989.75c28.92-37.37,69.4-57.13,114.88-63.04c91.39-11.86,163.04-46.3,176.01-155.88
		c14.48,25.12,51.04,48.39,82.08,68.85c-18.23,0.02-62.81-0.58-82.08,6.29c-32.98,69.56-89.8,94.32-162.25,103.23
		c-70.11,8.62-94.02,38.62-128.64,96.31c-34.63-57.7-58.53-87.69-128.64-96.31c-72.45-8.9-129.26-33.66-162.25-103.23
		c-18.74-7.02-63.52-6.52-82.08-6.29c31.04-20.45,67.6-43.72,82.08-68.85c12.97,109.58,84.63,144.02,176.01,155.88
		C470.6,932.61,511.08,952.38,540,989.75"/>
	<path class="st12" d="M540,473.55c16.77,0,30.36,13.59,30.36,30.36c0,16.77-13.59,30.36-30.36,30.36
		c-16.77,0-30.36-13.59-30.36-30.36C509.64,487.15,523.23,473.55,540,473.55"/>
	<path class="st12" d="M540,465.54c21.19,0,38.37,17.18,38.37,38.37c0,21.19-17.18,38.37-38.37,38.37
		c-21.19,0-38.37-17.18-38.37-38.37C501.63,482.72,518.81,465.54,540,465.54 M500.23,472.89l-0.17-0.21l-0.1-0.13l-0.17-0.21
		l-0.1-0.12l-0.18-0.21l-0.09-0.11l-0.19-0.22l-0.09-0.1l-0.2-0.22l-0.08-0.09l-0.2-0.22l-0.08-0.08l-0.21-0.22l-0.07-0.07
		l-0.22-0.22l-0.07-0.06l-0.23-0.22l-0.06-0.06l-0.23-0.22l-0.05-0.05l-0.25-0.22l-0.05-0.04l-0.25-0.22l-0.04-0.03l-0.26-0.22
		l-0.04-0.03l-0.27-0.22l-0.03-0.02l-0.28-0.22l-0.02-0.01l-0.29-0.22l-0.01-0.01l-0.29-0.22l-0.01,0l-0.3-0.22h0l-0.31-0.22l0,0
		l-0.31-0.2l-0.01-0.01l-0.3-0.19l-0.02-0.01l-0.29-0.18l-0.03-0.02l-0.29-0.18l-0.03-0.02l-0.28-0.17l-0.04-0.02l-0.28-0.16
		l-0.05-0.03l-0.27-0.15l-0.06-0.03l-0.27-0.14l-0.06-0.03l-0.26-0.13l-0.07-0.03l-0.26-0.13l-0.07-0.04l-0.25-0.12l-0.09-0.04
		l-0.24-0.11l-0.09-0.04l-0.24-0.1l-0.1-0.05l-0.23-0.1l-0.11-0.05l-0.22-0.09l-0.12-0.04l-0.22-0.09l-0.12-0.05l-0.21-0.08
		l-0.13-0.05l-0.2-0.08l-0.14-0.05l-0.2-0.07l-0.15-0.05l-0.19-0.06l-0.16-0.05l-0.18-0.06l-0.17-0.05l-0.18-0.05l-0.18-0.05
		l-0.17-0.05l-0.19-0.05l-0.36-0.1l-0.15-0.04l-0.2-0.05l-0.15-0.04l-0.21-0.05l-0.14-0.03l-0.22-0.05l-0.13-0.03l-0.23-0.05
		l-0.13-0.03l-0.23-0.05l-0.12-0.03l-0.24-0.04l-0.11-0.02l-0.25-0.05l-0.1-0.02l-0.26-0.05l-0.1-0.02l-0.27-0.05l-0.09-0.01
		l-0.28-0.04l-0.08-0.01l-0.29-0.04l-0.07-0.01l-0.29-0.04l-0.07-0.01l-0.3-0.04l-0.06-0.01l-0.31-0.04l-0.05-0.01l-0.32-0.04
		l-0.04,0l-0.33-0.03l-0.03,0l-0.34-0.03l-0.02,0l-0.35-0.03h-0.01l-0.36-0.03h-0.01l-0.37-0.03l-0.3-0.02l-0.29-0.02l-0.29-0.02
		l-0.28-0.01l-0.28-0.02l-0.27-0.01l-0.27-0.01l-0.26-0.01l-0.26-0.01l-0.25-0.01h0l-0.25-0.01h0l-0.24-0.01h0l-0.24,0h0l-0.24-0.01
		h0l-0.23,0h0l-0.23-0.01h0l-0.23,0l-0.22,0l-0.22-0.01l-0.22,0l-0.22-0.01h0l-0.21,0l-0.21-0.01h0l-0.21-0.01l-0.21-0.01h0
		l-0.21-0.01h0l-0.21-0.01l-0.21-0.01h0l-0.2-0.01h0l-0.2-0.01h0l-0.2-0.02h0l-0.2-0.02l-0.21-0.02l-0.2-0.02h0l-0.2-0.02
		l-0.21-0.03l-0.21-0.03l-0.2-0.03h0l-0.21-0.03l-0.21-0.04l-0.21-0.04l-0.21-0.04l-0.21-0.04l-0.22-0.05l-0.22-0.05l-0.22-0.06
		l-0.22-0.06h0l-0.22-0.06l-0.23-0.06l-0.23-0.07l-0.23-0.07l-0.23-0.08h0l-0.24-0.08l-0.25-0.08l-0.25-0.09l-0.25-0.09l-0.26-0.1
		l-0.26-0.1h0l-0.27-0.11l-0.27-0.11l-0.28-0.12l-0.28-0.12l-0.29-0.13l-0.29-0.13c-10.24-4.73-14.95-13.34-18.19-22.99
		c0.8,13.3,5.15,24.54,15.77,32.12l0.2,0.14l0.19,0.13l0.19,0.13l0.19,0.13l0.19,0.12l0.19,0.12v0l0.19,0.12l0.19,0.12l0.19,0.11v0
		l0.19,0.1v0l0.19,0.1v0l0.19,0.1l0.19,0.1v0l0.19,0.09l0.19,0.09l0.19,0.09l0.19,0.09l0,0l0.19,0.08v0l0.19,0.08v0l0.19,0.07v0
		l0.19,0.07v0l0.19,0.07v0l0.19,0.07l0.19,0.07v0l0.19,0.07l0.19,0.06v0l0.19,0.06v0l0.19,0.06l0.19,0.06l0.19,0.06v0l0.19,0.05v0
		l0.19,0.05l0.19,0.05h0l0.19,0.05v0l0.19,0.04v0l0.19,0.04l0.19,0.05v0l0.19,0.04l0,0l0.19,0.04l0.2,0.04l0.2,0.04l0.2,0.04
		l0.2,0.04h0l0.2,0.04l0.2,0.04h0l0.2,0.03h0l0.2,0.03l0.21,0.03l0.2,0.03h0l0.21,0.03l0.21,0.03l0.21,0.03l0.21,0.03h0l0.21,0.03h0
		l0.21,0.03l0.22,0.03l0.22,0.03l0.22,0.03h0l0.22,0.03h0l0.22,0.03l0.22,0.03l0.22,0.03h0l0.22,0.03h0l0.22,0.03h0l0.38,0.05
		l0.01,0l0.37,0.05h0.01l0.35,0.06l0.03,0l0.34,0.05l0.03,0.01l0.33,0.06l0.04,0.01l0.31,0.06l0.05,0.01l0.3,0.06l0.06,0.01
		l0.29,0.06l0.07,0.02l0.28,0.06l0.08,0.01l0.26,0.06l0.09,0.02l0.25,0.06l0.09,0.02l0.24,0.06l0.1,0.03l0.23,0.06l0.11,0.03
		l0.22,0.06l0.12,0.04l0.21,0.06l0.12,0.04l0.19,0.06l0.13,0.05l0.19,0.06l0.13,0.04l0.18,0.06l0.14,0.06l0.16,0.06l0.15,0.06
		l0.16,0.06l0.16,0.06l0.15,0.06l0.16,0.07l0.14,0.06l0.17,0.07l0.13,0.06l0.17,0.08l0.12,0.06l0.18,0.09l0.11,0.06l0.19,0.1
		l0.1,0.05l0.19,0.1l0.09,0.05l0.2,0.11l0.09,0.05l0.2,0.12l0.08,0.05l0.21,0.13l0.56,0.37l0.06,0.04l0.22,0.16l0.05,0.03l0.23,0.17
		l0.04,0.03l0.23,0.18l0.03,0.02l0.24,0.19l0.02,0.02l0.24,0.2l0.02,0.01l0.25,0.22l0.01,0.01l0.25,0.23l0.01,0l0.25,0.24v0
		l0.25,0.24l0.01,0.01l0.24,0.24l0.01,0.02l0.51,0.54l0.22,0.24l0.03,0.04l0.21,0.24l0.04,0.05l0.2,0.24l0.04,0.06l0.2,0.24
		l0.05,0.07l0.19,0.24l0.06,0.07l0.18,0.24l0.06,0.09l0.17,0.23l0.07,0.1l0.16,0.23l0.08,0.11l0.16,0.23l0.08,0.12l0.15,0.22
		l0.09,0.13l0.15,0.22l0.09,0.14l0.14,0.22l0.1,0.16l0.13,0.21l0.1,0.17l0.13,0.21l0.11,0.19l0.12,0.2l0.12,0.2l0.11,0.2l0.12,0.21
		l0.11,0.19l0.13,0.23l0.1,0.18l0.13,0.25l0.09,0.18l0.14,0.26l0.09,0.17c-0.77,2.13-1.4,4.33-1.87,6.58
		c-8.32-3.98-15.87-2.71-23.18,0.21c-6.06,2.41-7.69,4.25-14.69,4.4c-11.27,0.24-19.29-5.43-26.43-12.69
		c6.56,11.6,15.39,19.8,28.27,21.95c5.08,0.85,8.56-0.34,13.23-1.93c7.73-2.61,13.58-2.32,21.99,3.97c0.35,3.24,1,6.39,1.93,9.42
		c-9.2,0.59-15.17,5.38-20.13,11.5c-4.11,5.06-4.64,7.47-10.67,11.01c-9.72,5.71-19.49,4.67-29.26,1.83
		c11.38,6.92,23.09,9.76,35.38,5.36c4.86-1.74,7.31-4.47,10.61-8.14c5.47-6.04,10.72-8.65,21.1-7.27c1.46,2.07,3.08,4.02,4.83,5.84
		c-7.92,4.68-11.07,11.65-12.73,19.34c-1.38,6.38-0.77,8.76-4.54,14.64c-6.09,9.49-15.28,12.97-25.28,14.85
		c13.29,1.03,25.01-1.72,33.99-11.2c3.54-3.75,4.49-7.29,5.79-12.06c2.14-7.84,5.63-12.52,15.44-15.98c2.5,1.34,5.13,2.47,7.86,3.37
		c-4.76,7.82-4.28,15.42-2.16,22.97c1.77,6.28,3.42,8.1,2.83,15.07c-0.94,11.24-7.43,18.61-15.39,24.95
		c12.22-5.31,21.3-13.22,24.79-25.8c1.38-4.98,0.56-8.55-0.53-13.36c-1.77-7.9-0.88-13.67,6.1-21.28H540c2.67,0,5.29-0.21,7.85-0.61
		c-0.62,9.09,3.29,15.61,8.61,21.33c4.44,4.77,6.76,5.63,9.43,12.09c4.31,10.41,1.93,19.95-2.24,29.23
		c8.43-10.32,12.86-21.52,10.2-34.3c-1.05-5.05-3.42-7.85-6.59-11.64c-5.18-6.18-7.05-11.69-4.38-21.58
		c2.78-1.42,5.41-3.09,7.86-4.98c3.81,8.23,10.34,12.07,17.73,14.53c6.19,2.06,8.63,1.71,14.07,6.1
		c8.78,7.08,11.24,16.59,12.03,26.74c2.46-13.09,1-25.05-7.46-35c-3.35-3.93-6.76-5.26-11.36-7.06
		c-7.48-2.94-11.75-6.87-14.15-16.77c1.72-2.51,3.23-5.19,4.48-8c7.25,5.39,14.8,5.66,22.46,4.32c6.42-1.13,8.4-2.6,15.28-1.31
		c11.09,2.06,17.77,9.25,23.29,17.81c-4.06-12.69-11.03-22.52-23.2-27.25c-4.81-1.87-8.45-1.42-13.35-0.82
		c-7.97,0.97-13.6-0.46-20.4-8.01c0.18-1.73,0.27-3.48,0.27-5.25c0-1.57-0.07-3.12-0.21-4.64c8.96,1.16,15.68-2.28,21.71-7.19
		c5.06-4.12,6.07-6.37,12.69-8.6c10.69-3.61,20.03-0.6,29.02,4.19c-9.73-9.11-20.61-14.28-33.54-12.48
		c-5.11,0.72-8.07,2.88-12.05,5.8c-6.49,4.74-12.09,6.23-21.72,2.95c-1.08-2.5-2.36-4.9-3.81-7.17c8.51-3.04,12.93-9.19,16.06-16.31
		c2.62-5.97,2.49-8.43,7.37-13.44c7.86-8.09,17.55-9.66,27.73-9.51c-12.81-3.67-24.85-3.31-35.53,4.2
		c-4.22,2.97-5.86,6.25-8.07,10.66c-3.63,7.19-7.94,11.09-18.07,12.55c-2.11-1.73-4.36-3.3-6.73-4.67c6.2-6.62,7.32-14.13,6.82-21.9
		c-0.41-6.51-1.65-8.64,0.38-15.33c3.28-10.79,11.16-16.65,20.27-21.18c-13.06,2.63-23.6,8.47-29.65,20.04
		c-2.39,4.57-2.34,8.25-2.29,13.18c0.08,8.08-1.98,13.52-10.36,19.49c-2.6-0.55-5.28-0.9-8.01-1.03c2.53-8.76,0.09-15.97-3.92-22.68
		c-3.34-5.6-5.43-6.93-6.67-13.8c-2.03-11.1,2.31-19.91,8.34-28.11c-10.42,8.31-17.11,18.33-17.19,31.38
		c-0.03,5.16,1.69,8.4,4,12.77c3.78,7.16,4.43,12.98-0.35,22.17c-2.5,0.68-4.92,1.55-7.24,2.59c-1.69-9-7.13-14.35-13.77-18.53
		c-5.51-3.48-7.97-3.73-12.19-9.3c-6.82-8.98-6.94-18.8-5.26-28.84c-5.53,12.12-6.97,24.08-1.15,35.77c2.31,4.62,5.3,6.72,9.33,9.58
		c6.64,4.71,9.84,9.62,9.7,20.07C503.96,468.52,502,470.62,500.23,472.89z"/>
	<path class="st1" d="M556.08,487.8c-4.11-4.11-9.8-6.66-16.08-6.66c-6.28,0-11.97,2.54-16.08,6.65c-4.11,4.11-6.66,9.8-6.66,16.08
		c0,6.28,2.55,11.97,6.66,16.08c4.11,4.11,9.79,6.66,16.08,6.66c6.28,0,11.97-2.55,16.08-6.66c4.11-4.11,6.66-9.8,6.66-16.08
		C562.73,497.59,560.19,491.91,556.08,487.8 M540,478.17c7.09,0,13.53,2.88,18.17,7.53c4.65,4.65,7.53,11.09,7.53,18.18
		c0,7.09-2.88,13.53-7.53,18.17c-4.65,4.65-11.08,7.53-18.17,7.53c-7.09,0-13.53-2.88-18.18-7.53c-4.65-4.65-7.53-11.08-7.53-18.17
		c0-7.08,2.88-13.52,7.53-18.17C526.48,481.05,532.92,478.17,540,478.17z"/>
	<path class="st13" d="M523.95,856.33c-23.29,8.46-47.33,13.6-69.14,13.55c-26.86-0.05-50.16-10.45-74.81-28.45
		c-9.33,5.77-25.53,11.29-43.84,15.05c-7.66-7.21-14.12-15.17-19.52-23.79c23.47,6.42,40.58,4.26,62.22-3.71l3.31-1.22l2.79,2.14
		c23.11,17.68,50.28,23.5,75.39,23.55c20.04,0.05,41.23-4.31,63.6-12.63V856.33z M763.35,832.69c-5.39,8.62-11.85,16.58-19.52,23.79
		c-18.31-3.76-34.52-9.28-43.85-15.05c-24.65,18-48.61,29.8-75.47,29.85c-21.84,0.05-45.49-6.04-68.64-14.86v-15.66
		c22.59,8.45,46.57,14.35,66.66,14.3c25.1-0.05,49.38-7.48,72.48-25.16l2.79-2.14l3.31,1.22
		C722.77,836.96,739.89,839.11,763.35,832.69z"/>
	<path class="st13" d="M555.88,809.68c23.09,8.35,46.56,12.55,66.61,11.74c25.36-1.03,49.36-8.8,72.14-22.4l2.67-1.59l2.88,1.09
		c19.77,7.51,39.38,10.4,58.8,8.6c5.92-0.55,11.83-1.53,17.74-2.94c-1.54,4.59-3.3,9.06-5.26,13.4c-3.76,0.67-7.53,1.17-11.3,1.52
		c-20.49,1.89-41.05-0.89-61.65-8.29c-23.8,13.71-47.92,26.09-74.53,27.17c-21.47,0.88-44.51-3.65-68.09-12.23V809.68z
		 M303.28,804.18c5.91,1.42,11.82,2.4,17.73,2.94c19.43,1.79,39.04-1.1,58.8-8.6l2.88-1.09l2.67,1.59
		c22.77,13.6,46.77,21.37,72.14,22.4c20.01,0.81,43.41-3.37,66.45-11.68v15.89c-24.17,8.34-48.76,12.18-70.24,11.3
		c-26.61-1.08-48.43-12.41-72.23-26.12c-20.6,7.4-41.15,10.18-61.65,8.29c-3.77-0.35-7.53-0.85-11.29-1.52
		C306.58,813.24,304.82,808.77,303.28,804.18z"/>
	<path class="st13" d="M523.95,885.91c-21.88,8.67-43.19,14.12-65.09,13.94c-26.97-0.23-54.73-12.06-80.88-28.06
		c-4,2.29-7.91,4.21-11.84,5.79c-5.78-3.02-11.16-6.29-16.15-9.81c8.35-1.69,17.14-4.64,29.31-9.5l2.76,1.76
		c24.92,15.85,50.21,23.09,75.76,23.3c19.89,0.17,43.96-6.19,66.13-14.82V885.91z M730.01,867.77c-4.99,3.52-10.37,6.8-16.15,9.81
		c-3.93-1.58-7.84-3.51-11.84-5.8c-26.15,16-55.12,27.65-82.09,27.88c-21.92,0.19-42.46-5.15-64.04-13.78v-17.44
		c22.21,8.65,46.35,15.05,66.29,14.88c25.55-0.22,50.84-7.46,75.76-23.3l2.76-1.76C712.86,863.13,721.66,866.08,730.01,867.77z"/>
	<path class="st14" d="M555.88,902.07c9.38,3.71,20.92,5.46,34.35,5.51c-8.92,6.44-18.27,12.11-34.35,17.13V902.07z M523.95,923.84
		c-12.88-4.6-24.08-10.13-34.18-16.27c12.02,0.39,23.49-1.19,34.18-5.48V923.84z"/>
	<path class="st15" d="M530.16,683.12h19.56v77.67l59.43,7.53v-62.17h17.38v62.17v3.54v10.07h-76.81v154.95
		c-6.15,4.7-9.37,7.82-9.72,7.77c-0.35,0.05-3.61-3.12-9.84-7.86V781.93h-76.81v-10.07v-3.54v-62.17h17.39v62.17l59.42-8.42V683.12z
		"/>
	<polygon class="st15" points="462.26,660.48 473,683.84 483.74,707.19 474.7,707.19 469.64,719.94 462.26,738.51 454.88,719.94 
		449.82,707.19 440.79,707.19 451.52,683.84 	"/>
	<polygon class="st15" points="552.39,656.32 564.84,683.4 554.36,683.4 548.49,698.18 539.94,719.71 531.38,698.18 525.52,683.4 
		515.04,683.4 527.49,656.32 539.93,628.07 	"/>
	<polygon class="st15" points="618.04,660.48 628.78,683.84 639.51,707.19 630.48,707.19 625.42,719.94 618.04,738.51 
		610.66,719.94 605.6,707.19 596.56,707.19 607.3,683.84 	"/>
	<polygon class="st16" points="538.65,690.42 541.08,646.58 552.16,675.81 543.08,696.62 543.08,766.15 	"/>
	<polygon class="st16" points="618.61,709.24 620.29,678.94 627.94,699.14 621.67,713.52 621.67,761.55 	"/>
	<polygon class="st16" points="461.4,709.24 463.08,678.94 470.74,699.14 464.46,713.52 464.46,761.55 	"/>
	<polygon class="st16" points="547.62,777.47 545.49,772.96 623.8,778.31 	"/>
	<polygon class="st16" points="546.1,782.94 543.12,777.8 544.17,851.35 	"/>
	<path class="st3" d="M845.7,824.8c8.24,5.39,21.19,6.05,34.16,6.72c-15.38,1.26-30.75,2.53-46.13,3.8
		c2.43-12.36,4.87-24.72,7.3-37.08C840.21,810.14,841.07,819.9,845.7,824.8"/>
	<path class="st3" d="M234.3,824.8c-8.24,5.39-21.19,6.05-34.16,6.72c15.38,1.26,30.76,2.53,46.13,3.8
		c-2.43-12.36-4.87-24.72-7.3-37.08C239.79,810.14,238.93,819.9,234.3,824.8"/>
	<path class="st3" d="M540.71,1020.4c-9.92-10.4-18.5-19.36-24.84-26.13c6.34,9.89,18.74,29.02,25.08,38.92
		c20.62-39.45,51.21-68,82.15-81.64C594.45,961.12,563.35,979.85,540.71,1020.4"/>
</g>
</svg>
