<?xml version="1.0" encoding="utf-8"?>
<!-- Generator: Adobe Illustrator 28.2.0, SVG Export Plug-In . SVG Version: 6.00 Build 0)  -->
<svg version="1.1" id="Layer_1" xmlns="http://www.w3.org/2000/svg" xmlns:xlink="http://www.w3.org/1999/xlink" x="0px" y="0px"
	 viewBox="0 0 2032.7 1060.6" style="enable-background:new 0 0 2032.7 1060.6;" xml:space="preserve">
<style type="text/css">
	.st0{fill:#31ADAA;}
	.st1{fill:#31ADAA;stroke:#FFFFFF;stroke-miterlimit:10;}
	.st2{fill:none;stroke:#FFFFFF;stroke-miterlimit:10;}
</style>
<g>
	<path class="st0" d="M80.6,908H69.7V696.2h10.9V908z"/>
	<path class="st0" d="M81.1,908.6H69.1v-213h11.9V908.6z M70.1,907.6h9.9v-211h-9.9V907.6z M142.7,908h-10.9V587.5h10.9V908
		L142.7,908z"/>
	<path class="st0" d="M143.1,908.6h-11.9V587h11.9V908.6z M132.2,907.6h9.8V588h-9.8V907.6L132.2,907.6z M204.6,908h-10.9V435.9
		h10.9V908L204.6,908z"/>
	<path class="st0" d="M205.2,908.6h-11.9V435.4h11.9V908.6z M194.3,907.6h9.8V436.5h-9.8V907.6z M266.7,1018.5h-10.9V281.9h10.9
		V1018.5z"/>
	<rect x="255.3" y="281.4" class="st0" width="12" height="737.7"/>
	<rect x="256.3" y="282.5" class="st0" width="10" height="735.6"/>
	<rect x="318.3" y="54.9" class="st0" width="11" height="853.1"/>
	<rect x="317.4" y="54.4" class="st1" width="11.9" height="854.1"/>
	<rect x="318.4" y="55.4" class="st1" width="9.8" height="852.1"/>
</g>
<g>
	<rect x="406.1" y="403.7" width="33.4" height="218.3"/>
	<path d="M602.1,621.9C560,547.5,528.5,496,506.6,451.6h-1l1.3,71.2v99.1h-31.8V403.7h37.9c32.1,55.6,68.4,115.3,93.8,168.4h1
		l-1.6-71.9v-96.5h31.8v218.3H602.1z"/>
	<path d="M800.7,621.9c-42.1-74.4-73.6-125.9-95.4-170.3h-1l1.3,71.2v99.1h-31.8V403.7h37.9c32.1,55.6,68.4,115.3,93.8,168.4h1
		l-1.5-71.9v-96.5h31.8v218.3H800.7z"/>
	<path d="M958,400.1c-60.4,0-96,48.3-96,113.8c0,63.9,35.6,111.5,96,111.5c60.4,0,95.7-45.6,95.7-112.4
		C1053.8,449,1019.4,400.1,958,400.1z M958.1,597.5c-41.7,0-60.7-37.4-60.7-84c0-47,17.6-86,60.7-86c42.8,0,60.4,39.4,60.4,85.7
		C1018.5,559.6,999.5,597.5,958.1,597.5z"/>
	<polygon points="1127.4,621.9 1058.3,403.7 1095,403.7 1130.3,526 1147.7,589 1148.3,589 1165.4,526 1200.7,403.7 1236.7,403.7 
		1167.3,621.9 1127.4,621.9 	"/>
	<path d="M1327.4,403.4h-41.8l-69.7,218.5h35.3c1.9-7.3,17.6-55.3,19.3-62.6h70.7l19.6,62.6h36.3L1327.4,403.4z M1276.9,532.8
		l19.6-68.7l9-32h0.7l9,32l19.6,68.7H1276.9z"/>
	<polygon points="1372.5,432.1 1374.2,403.7 1527.4,403.7 1525.5,432.1 1466.7,432.1 1466.7,621.8 1433,621.8 1433,432.1 	"/>
	<rect x="1542.9" y="403.7" width="33.4" height="218.3"/>
	<path d="M1697.7,400.1c-60.4,0-96,48.3-96,113.8c0,63.9,35.6,111.5,96,111.5c60.4,0,95.7-45.6,95.7-112.4
		C1793.4,449,1759.1,400.1,1697.7,400.1z M1697.7,597.5c-41.7,0-60.7-37.4-60.7-84c0-47,17.6-86,60.7-86c42.7,0,60.4,39.4,60.4,85.7
		C1758.1,559.6,1739.1,597.5,1697.7,597.5z"/>
	<path d="M1945.4,621.9c-42.1-74.4-73.6-125.9-95.4-170.3h-1l1.3,71.2v99.1h-31.8V403.7h37.9c32.1,55.6,68.4,115.3,93.8,168.4h1
		l-1.6-71.9v-96.5h31.8v218.3H1945.4L1945.4,621.9z"/>
	<path d="M496.7,280.2c0-51.1-96.4-35.5-96.4-105.8c0-36.8,31.5-58.8,71.3-58.8c21.2,0,39.2,4.5,51.7,10.2l-5.4,27.4
		c-14.8-6.5-30.8-9.8-46.9-9.9c-23.4,0-36.6,13.4-36.6,29.1c0,47.3,96.7,32.6,96.7,104.8c0,37.1-28,63-76.5,63
		c-20.9,0-44.6-5.1-57.9-12.1l5.4-28.1c14.4,7.3,34.8,12.5,53.6,12.5C480.7,312.6,496.7,300.3,496.7,280.2L496.7,280.2z"/>
	<polygon points="592.8,165.6 592.1,165.6 589.5,248.9 585.9,337.1 553.8,337.1 563.5,118.9 607.2,118.9 639.3,216.3 661.2,290.7 
		662.2,290.7 684.6,216.3 717.2,118.9 760.5,118.9 769.3,337.1 736.1,337.1 733,248.9 731,165.6 730.3,165.6 674.4,337.2 
		646.1,337.2 592.8,165.6 	"/>
	<path d="M895.8,118.6H854l-69.7,218.5h35.4c1.9-7.4,17.6-55.4,19.3-62.7h70.7l19.6,62.7h36.3L895.8,118.6z M845.3,248.1l19.6-68.7
		l9-32h0.7l9,32l19.6,68.7H845.3z"/>
	<path d="M1081.8,237.5v-0.7c25.1-7,42.7-28.1,42.8-57.6c0-40-26.4-61.3-80.1-61.3c-21.5,0-43.4,1-60.4,2.9v216.4h33.1v-91.4h34.1
		l44.3,91.4h36.3L1081.8,237.5z M1047.2,219.6h-29.9v-73.8c8.6-0.9,17.1-1.3,25.8-1.3c30.2,0,47.2,9,47.2,37.1
		C1090.3,205.2,1073.5,219.6,1047.2,219.6z"/>
	<polygon points="1131.3,147.4 1132.9,119 1286.2,119 1284.2,147.4 1225.5,147.4 1225.5,337.2 1191.8,337.2 1191.8,147.4 	"/>
	<path class="st2" d="M537.8,907.7c-38-60.5-83.6-135.7-121.9-202.3h-0.6l1.3,87v115.2h-9.1V691.6h8.9
		c42.1,68.1,89.9,146.8,123.1,203.1h0.7l-1.5-88.3V691.6h9.1v216.1H537.8L537.8,907.7z"/>
	<path d="M550,908.3h-10.6l-0.2-0.3c-40.3-63.7-85.9-139-122.1-201.5l1.3,86.1v115.7H408V691h9.8l0.2,0.3
		c43.3,69.7,90.5,147.2,123.3,202.5l-1.5-87.3V691H550V908.3z"/>
	<path d="M539.9,907.3h9V692.1h-8.1v114.4l1.6,88.9h-1.5l-0.2-0.3c-32.8-55.3-80.2-133-123.6-202.9h-8v215.1h8.1V792.5l-1.3-87.6
		h1.5l0.2,0.3C453.8,767.8,499.6,843.2,539.9,907.3z"/>
	<path d="M681.5,685c-56.1,0-88.2,43.5-88.2,111.3c0,67.8,32.1,111.5,88.2,111.5c56.1,0,88.2-43.7,88.2-111.4S737.6,685,681.5,685z
		 M681.5,898.3c-57.3,0-77.7-52.7-77.7-102c0-49.3,20.4-102,77.7-102c57.3-0.1,77.7,52.7,77.7,102
		C759.3,845.6,738.9,898.3,681.5,898.3z"/>
	<path d="M681.5,693.8c-57.3,0-78.3,51.9-78.3,102.5c0,50.6,21,102.5,78.3,102.5c57.3,0,78.3-51.9,78.3-102.5
		C759.9,745.7,738.9,693.8,681.5,693.8z M681.5,898.3c-57.3,0-77.7-52.7-77.7-102c0-49.3,20.4-102,77.7-102
		c57.3-0.1,77.7,52.7,77.7,102C759.3,845.6,738.9,898.3,681.5,898.3z"/>
	<path d="M881.1,805.2v-0.7c28.9-6.3,48-26.6,48-58c0-32.6-19.7-56-68.4-56c-9.9,0-30.9,1-46.8,2.9v214.3h9.2V806.2h48.4l52.9,101.6
		h10.6L881.1,805.2z M865.9,797.6h-42.7V702c7.1-1.3,23.9-2.5,37.3-2.5c34.7,0,58.9,11.7,58.9,47.2
		C919.3,778.6,897.3,797.6,865.9,797.6z M681.5,693.2c-58.1,0-78.8,53.2-78.8,103.1c0,49.9,20.7,103.1,78.8,103.1
		c58.1,0,78.9-53.2,78.9-103.1C760.4,746.5,739.6,693.2,681.5,693.2z M681.5,898.3c-57.3,0-77.7-52.7-77.7-102
		c0-49.3,20.4-102,77.7-102c57.3-0.1,77.7,52.7,77.7,102C759.3,845.6,738.9,898.3,681.5,898.3z M681.5,693.2
		c-58.1,0-78.8,53.2-78.8,103.1c0,49.9,20.7,103.1,78.8,103.1c58.1,0,78.9-53.2,78.9-103.1C760.4,746.5,739.6,693.2,681.5,693.2z
		 M681.5,898.3c-57.3,0-77.7-52.7-77.7-102c0-49.3,20.4-102,77.7-102c57.3-0.1,77.7,52.7,77.7,102
		C759.3,845.6,738.9,898.3,681.5,898.3z M747.1,714.9c-15.5-19.9-38.1-30.5-65.5-30.5c-27.4,0-50,10.6-65.5,30.5
		c-15.2,19.5-23.2,47.8-23.2,81.4c0,33.7,8,61.9,23.2,81.4c15.5,19.9,38.1,30.5,65.5,30.5c27.4,0,50.1-10.6,65.5-30.5
		c15.2-19.5,23.2-47.8,23.2-81.4C770.3,762.7,762.3,734.4,747.1,714.9z M681.5,907.3c-54.9,0-87.6-41.3-87.6-110.8
		s32.7-110.9,87.6-110.9c54.8-0.1,87.6,41.5,87.6,110.9C769.2,865.9,736.4,907.3,681.5,907.3z M681.5,693.2
		c-58.1,0-78.8,53.2-78.8,103.1c0,49.9,20.7,103.1,78.8,103.1c58.1,0,78.9-53.2,78.9-103.1C760.4,746.5,739.6,693.2,681.5,693.2z
		 M681.5,898.3c-57.3,0-77.7-52.7-77.7-102c0-49.3,20.4-102,77.7-102c57.3-0.1,77.7,52.7,77.7,102
		C759.3,845.6,738.9,898.3,681.5,898.3z"/>
	<path d="M935.8,908.3h-11.8l-0.2-0.3l-52.7-101.3h-47.4v101.6h-10.4V693l0.5-0.1c16.3-1.9,37.6-2.9,46.9-2.9
		c44.4,0,68.9,20.1,68.9,56.6c0,30.3-17.5,51.5-48,58.3v0.1L935.8,908.3L935.8,908.3z M924.6,907.3h9.3l-53.4-102v-1.3l0.5-0.1
		c30.3-6.6,47.6-27.5,47.6-57.4c0-35.8-24.1-55.5-67.9-55.5c-9.2,0-30,0.9-46.3,2.8v213.2h8.1V805.6h49.3l0.2,0.3L924.6,907.3z
		 M865.8,798.2h-43.2v-96.7l0.5-0.1c6.8-1.3,23.4-2.5,37.4-2.5c40,0,59.4,15.6,59.4,47.7C919.8,778,898.6,798.2,865.8,798.2z
		 M823.7,797h42.1c32.1,0,53-19.7,53-50.4c0-31.4-19.1-46.6-58.3-46.6c-13.6,0-29.7,1.3-36.7,2.4L823.7,797L823.7,797z
		 M1079.3,691.6l34.1,127.2l18.8,73.7h1l18.1-73.7l33.4-127.3h9.6l-56.6,216.2h-9.2l-54.1-205.1h-0.7l-54.1,205.1h-9.2l-56.7-216.1
		h9.6l33.4,127.2l18.1,73.7h1l18.8-73.7l34.1-127.3L1079.3,691.6L1079.3,691.6z"/>
	<path d="M1138,908.3h-10.1l-0.1-0.4l-53.9-204.3l-54,204.7h-10.1l-0.1-0.4L952.9,691h10.6L997,818.7l18.1,73.3h0.1l18.7-73.4
		l34.2-127.7h11.7l0.1,0.4l34.1,127.2l18.7,73.4h0.1l18-73.4l33.5-127.7h10.6L1138,908.3z M1128.8,907.3h8.4l56.3-215.1h-8.4
		L1151.8,819l-18.2,74.1h-1.8l-18.9-74.1l-34-126.8h-10.1L1035,819l-18.9,74.1h-1.8L996.1,819l-33.3-126.8h-8.4l56.3,215.1h8.4
		l54.1-205.1h1.5l0.1,0.4L1128.8,907.3L1128.8,907.3z M1212.3,907.7l76.7-216.5h6l76.7,216.5h-9.6l-27-77.9h-86.2l-27,77.9H1212.3
		L1212.3,907.7z M1291.9,702.7l-14.6,46.2l-25.2,72.5h79.9l-25.2-72.5l-14.6-46.2H1291.9z"/>
	<path d="M1372.5,908.3h-10.7l-27-77.9h-85.5l-27,77.9h-10.7l0.3-0.8l76.8-216.8h6.8L1372.5,908.3z M1362.6,907.3h8.4l-76.3-215.4
		h-5.2l-76.4,215.3h8.3l27-77.8h87L1362.6,907.3L1362.6,907.3z M1332.7,822h-81.4l25.4-73.2l14.8-46.7h1.2l14.7,46.6L1332.7,822
		L1332.7,822z M1252.9,820.8h78.3l-24.9-71.7l-14.2-45.1l-14.3,45.1L1252.9,820.8L1252.9,820.8z M1441.1,807.7l26.7-50.9l35.3-65.2
		h10.5L1445.5,816v91.7h-9.2V816l-68.1-124.4h10.5l35.3,65.2l26.7,50.9H1441.1z"/>
	<path d="M1446.1,908.3h-10.4v-92.2L1367.3,691h11.8l35.5,65.5l26.4,50.4l26.4-50.4L1503,691h11.8l-68.4,125.1v92.2H1446.1z
		 M1436.9,907.3h8.1v-91.5l0.1-0.1l67.7-123.5h-9.2l-35.1,64.9l-26.9,51.2h-1l-26.9-51.2l-35.1-64.9h-9.3l67.8,123.7L1436.9,907.3
		L1436.9,907.3z"/>
</g>
</svg>
