<?xml version="1.0" encoding="utf-8"?>
<!-- Generator: Adobe Illustrator 28.2.0, SVG Export Plug-In . SVG Version: 6.00 Build 0)  -->
<svg version="1.1" id="Capa_1" xmlns="http://www.w3.org/2000/svg" xmlns:xlink="http://www.w3.org/1999/xlink" x="0px" y="0px"
	 viewBox="0 0 800 800" style="enable-background:new 0 0 800 800;" xml:space="preserve">
<style type="text/css">
	
		.st0{clip-path:url(#SVGID_00000128448782335717279440000010638273725376385453_);fill:url(#SVGID_00000056419352567966853480000013691943491617598117_);}
	
		.st1{clip-path:url(#SVGID_00000182509628934507920460000017001595189776073369_);fill:url(#SVGID_00000145017310560266436140000016773257908960661402_);}
</style>
<g>
	<g>
		<defs>
			<path id="SVGID_1_" d="M759.4,155.8h-15.9v-48.3c0-5.2-4.2-9.5-9.5-9.5s-9.5,4.2-9.5,9.5v48.3h-26.1v-48.3c0-5.2-4.2-9.5-9.5-9.5
				h0c-5.2,0-9.5,4.2-9.5,9.5v48.3h-15.9c-2.6,0-4.6,2.1-4.6,4.6v10.8c0,2.6,2.1,4.6,4.6,4.6h0c3.1,0,5.5,2.5,5.5,5.5v39.4
				c0,18,11.1,33.5,26.9,39.8v269.6c0,18.1-14.7,32.9-32.9,32.9c-18.1,0-32.9-14.7-32.9-32.9V371.2c0-35.2-28.6-63.8-63.8-63.8h-16
				V88.6c0-41.8-33.9-75.6-75.6-75.6H243.1c-41.8,0-75.6,33.9-75.6,75.6v604.5h-22.6c-10.1,0-18.2,8.2-18.2,18.2v39.8
				c0,10.1,8.1,18.2,18.2,18.2h428.4c10.1,0,18.2-8.2,18.2-18.2v-39.8c0-10.1-8.1-18.2-18.2-18.2h-22.7V338.3h16
				c18.1,0,32.9,14.7,32.9,32.8v159.1c0,35.2,28.6,63.8,63.8,63.8c35.2,0,63.8-28.6,63.8-63.8V260.7c15.7-6.2,26.9-21.5,26.9-39.4
				v-39.9c0-3.1,2.5-5.5,5.5-5.5c2.6,0,4.6-2.1,4.6-4.6v-10.8C764,157.8,761.9,155.8,759.4,155.8z M513.4,230
				c0,16.5-13.4,29.9-29.9,29.9H234.7c-16.5,0-29.9-13.4-29.9-29.9V98.9c0-16.5,13.4-29.9,29.9-29.9h248.8
				c16.5,0,29.9,13.4,29.9,29.9V230z"/>
		</defs>
		<clipPath id="SVGID_00000044860365123851358690000002357784202896811155_">
			<use xlink:href="#SVGID_1_"  style="overflow:visible;"/>
		</clipPath>
		
			<linearGradient id="SVGID_00000031192105180236958830000011814648631126602927_" gradientUnits="userSpaceOnUse" x1="400.05" y1="281.2283" x2="400.05" y2="1081.2283" gradientTransform="matrix(1 0 0 1 0 -281.2283)">
			<stop  offset="0" style="stop-color:#18BFFB"/>
			<stop  offset="1" style="stop-color:#2072F3"/>
		</linearGradient>
		
			<path style="clip-path:url(#SVGID_00000044860365123851358690000002357784202896811155_);fill:url(#SVGID_00000031192105180236958830000011814648631126602927_);" d="
			M638.4,0H161.6C72.3,0,0,72.3,0,161.6v476.9C0,727.7,72.3,800,161.6,800h476.9c89.2,0,161.6-72.3,161.6-161.6V161.6
			C800,72.3,727.7,0,638.4,0z"/>
	</g>
	<g>
		<defs>
			<path id="SVGID_00000103952548725218464340000009042069824804413850_" d="M408.6,150.8h-36.5c-1.8,0-3.1-1.7-2.6-3.5L385.8,92
				c0.8-2.8-2.7-4.7-4.6-2.5l-73.7,84.2c-1.5,1.7-0.3,4.5,2,4.5H346c1.8,0,3.1,1.7,2.6,3.5l-16.3,55.4c-0.8,2.8,2.7,4.7,4.6,2.5
				l73.7-84.2C412.2,153.6,410.9,150.8,408.6,150.8z"/>
		</defs>
		<clipPath id="SVGID_00000033327761560996946950000011058394291365600653_">
			<use xlink:href="#SVGID_00000103952548725218464340000009042069824804413850_"  style="overflow:visible;"/>
		</clipPath>
		
			<linearGradient id="SVGID_00000034070050625060714990000006722368213569811117_" gradientUnits="userSpaceOnUse" x1="400.05" y1="281.2283" x2="400.05" y2="1081.2283" gradientTransform="matrix(1 0 0 1 0 -281.2283)">
			<stop  offset="0" style="stop-color:#18BFFB"/>
			<stop  offset="1" style="stop-color:#2072F3"/>
		</linearGradient>
		
			<path style="clip-path:url(#SVGID_00000033327761560996946950000011058394291365600653_);fill:url(#SVGID_00000034070050625060714990000006722368213569811117_);" d="
			M638.4,0H161.6C72.3,0,0,72.3,0,161.6v476.9C0,727.7,72.3,800,161.6,800h476.9c89.2,0,161.6-72.3,161.6-161.6V161.6
			C800,72.3,727.7,0,638.4,0z"/>
	</g>
</g>
</svg>
