<?xml version="1.0" encoding="utf-8"?>
<!-- Generator: Adobe Illustrator 28.2.0, SVG Export Plug-In . SVG Version: 6.00 Build 0)  -->
<svg version="1.1" id="Layer_1" xmlns="http://www.w3.org/2000/svg" xmlns:xlink="http://www.w3.org/1999/xlink" x="0px" y="0px"
	 viewBox="0 0 3715.6 1706.7" style="enable-background:new 0 0 3715.6 1706.7;" xml:space="preserve">
<style type="text/css">
	.st0{opacity:0.27;fill:#1E1E1E;enable-background:new    ;}
	.st1{fill:#070707;}
	.st2{fill:none;}
	.st3{fill:#E9F0F4;}
	.st4{fill:#F7F7F7;}
	.st5{fill:#444444;}
	.st6{fill:#666666;}
	.st7{fill:#627B89;}
	.st8{fill:#B7E4F7;}
	.st9{fill:#333333;}
	.st10{fill:#519B58;}
	.st11{fill:#999999;}
	.st12{fill:#18BFFB;}
	.st13{fill:#545454;}
	.st14{fill:#634C39;}
	.st15{fill:#7A7169;}
	.st16{fill:#FFFFFF;}
	.st17{fill:#878787;}
	.st18{fill:#CCCCCC;}
	.st19{fill:#287199;}
	.st20{fill:#3C93CE;}
	.st21{fill:#EFEFEF;}
	.st22{fill:#2D2D2D;}
	.st23{fill:#2B2B2B;}
	.st24{fill:#777777;}
	.st25{fill:#515151;}
	.st26{fill:#3A3838;}
	.st27{fill:#1E1E1E;}
	.st28{fill:#262020;}
	.st29{fill:#4F4F4F;}
	.st30{fill:#2072F3;}
	.st31{fill:#222526;}
	.st32{fill:#C4C4C4;}
	.st33{fill:#C6C6C6;}
	.st34{fill:#5B0000;}
	.st35{fill:#B21818;}
	.st36{fill:#910000;}
	.st37{fill:#F2F2F2;}
	.st38{fill:#F4F4F4;}
	.st39{fill:#141414;}
	.st40{fill:#303030;}
	.st41{opacity:0.6;fill:#002282;enable-background:new    ;}
	.st42{opacity:0.6;fill:#7394E0;enable-background:new    ;}
	.st43{fill:#EAEAEA;}
	.st44{fill:#50A358;}
	.st45{fill:#303233;}
	.st46{fill:#686868;}
	.st47{fill:#F9F9F9;}
	.st48{fill:#E8E8E8;}
	.st49{fill:#EDEDED;}
	.st50{fill:#757575;}
	.st51{fill:#FFD95F;}
	.st52{opacity:0.6;fill:#A5A5A5;enable-background:new    ;}
	.st53{fill:#232323;}
	.st54{fill:#191919;}
	.st55{fill:#0C0C0C;}
	.st56{opacity:0.31;enable-background:new    ;}
	.st57{fill:#282828;}
	.st58{fill:#1C1C1A;}
	.st59{fill:#6B6B6B;}
	.st60{fill:#4F4E4A;}
	.st61{fill:#133A15;}
	.st62{fill:#2274D6;}
	.st63{fill:#00095E;}
	.st64{fill:#8DC63F;}
	.st65{fill:#7A7A7A;}
	.st66{fill:#383838;}
	.st67{fill:#DBDBDB;}
	.st68{fill:#719F40;}
	.st69{fill:#2B4347;}
	.st70{fill:#6392D6;}
	.st71{fill:#9ACBD8;}
	.st72{opacity:0.2;fill:#777CAA;enable-background:new    ;}
	.st73{fill:#141316;}
	.st74{clip-path:url(#SVGID_00000134941456842175911880000002043469968128102797_);fill:#18BFFB;}
	.st75{clip-path:url(#SVGID_00000060023056112579761250000003372300598375991717_);fill:#103952;}
	.st76{clip-path:url(#SVGID_00000145741232362638291870000005000268528131700097_);fill:#103952;}
	.st77{fill:#7291DE;}
	.st78{fill:#2A2530;}
	.st79{fill:#F0EAE8;}
	.st80{fill:#D3D0CF;}
	.st81{fill:#E7E0DB;}
	.st82{opacity:0.56;fill:none;stroke:#3C4278;stroke-miterlimit:10;enable-background:new    ;}
	.st83{fill:#103952;}
	.st84{fill:#2A2730;}
	.st85{fill:#7F8287;}
	.st86{clip-path:url(#SVGID_00000097459783696142948860000009370756743433833113_);fill:#0B2938;}
	.st87{opacity:0.35;fill:#1E5B7A;enable-background:new    ;}
	.st88{fill:#EAB042;}
	.st89{fill:#DEF4F6;}
	.st90{fill:#1A123D;}
	.st91{fill:#141038;}
	.st92{opacity:0.46;fill:#D2D6FF;enable-background:new    ;}
	.st93{fill:#EEF0F1;}
	.st94{fill:#FF7C6E;}
</style>
<g id="Layer_15">
</g>
<g id="Layer_14">
	<path class="st0" d="M3690.6,969.1c-63.5-43.1-511.8-129.8-511.8-129.8L2956.6,850l-364.7,144.9
		c-283.3-98.7-999-288.9-1048.3-290.9c-62.4-2.5-124.7,64.8-124.7,64.8S-10.2,1208.2,31.4,1270.6c41.7,62.4,874.5,421,989,417.6
		c94.9-2.9,1150.3-366.6,1532.9-529c139.5,71.9,385.2,128,480.3,93.5C3175.3,1201.3,3754.1,1012.1,3690.6,969.1z"/>
</g>
<g id="Layer_11">
	<path class="st1" d="M1468.8,1400.5l-77.2-21.3l-319.3-50.6c0,0,10.9-148.4,114.1-206.9s163.4-70.6,243.5-36.4
		s86.4,185.3,86.4,185.3L1468.8,1400.5z"/>
	<path class="st1" d="M2553.1,1012.2c0,0-193.7-10.1-219.9-9.4s-52.9,2.4-52.9,2.4s-48.2-36.3-43-38.4s82.3-164.1,169.6-184
		c87.2-20,117.9,10.5,137.5,48.5c19.6,37.9,24.2,92,24.2,94.8S2553.1,1012.2,2553.1,1012.2z"/>
</g>
<g id="Layer_9">
	<path class="st2" d="M1243.7,1391.6c3.4,6.5,8.4,11.6,14.8,14.5c11.7,5.3,25.6,2.2,37.8-6.8c9-6.7,17.1-16.6,22.7-29
		c6.5-14.4,8.3-29.3,6-41.7c-1.8-9.7-6.2-17.9-12.8-23.3c-16.3,16-32.5,34-46.5,53.4C1257.9,1369.4,1250.6,1380.5,1243.7,1391.6z"/>
	<path class="st3" d="M1245.3,1337.1c13.1-28.9,40.1-45,60.5-35.8c2.3,1,4.4,2.4,6.4,4c32.5-32,65.7-56.3,84.5-69.1
		c-9.4-13.5-21.6-24.1-36.4-30.7c-3.2-1.5-6.5-2.7-9.8-3.7c-58.6-18.2-132.1,28.5-168.5,109.3c-31.4,69.6-25.6,143,10.1,182.4
		c11.4-27,28.9-64.6,51.8-101.8C1236.4,1377.6,1236.4,1356.9,1245.3,1337.1z"/>
	<path class="st4" d="M1396.6,1236.2c-18.7,12.8-51.9,37.1-84.5,69.1c6.6,5.4,11,13.6,12.8,23.3c2.3,12.5,0.5,27.3-6,41.7
		c-5.6,12.3-13.7,22.3-22.7,29c-12.2,9-26.1,12.1-37.8,6.8c-6.4-2.9-11.4-8-14.8-14.5c-22.9,37.2-40.4,74.8-51.8,101.8
		c8.1,9,17.7,16.2,28.8,21.2c13.2,6,27.5,8.3,42,7.4c51.3-3.1,106.4-46.5,136.4-113C1428.1,1344.8,1425.4,1277.2,1396.6,1236.2z"/>
	<path class="st5" d="M1127.9,1273.8c52.2-115.8,159.5-181.4,244.2-151.7l0.5-1.7c0,0-104.6-31.5-121.4-34.8
		c-0.3-0.1-0.6-0.1-0.9-0.2c-5.1-1.3-10.3-2.4-15.5-3.1c-0.4-0.1-0.4-0.1-0.4-0.1l0,0c-62.5-4.6-160.4,39.3-202.9,132.1
		c-30.2,66.1-61.4,233.1,22.4,297.5c2.8,2.2,17.9,13.3,21.2,14.4c9.5,5.1,101.5,42.2,136.7,44.2c0.1,0,0.1,0,0.2,0
		c-9.1-1.8-18-4.6-26.6-8.5C1099.4,1523.3,1073.6,1394.2,1127.9,1273.8z"/>
	<path class="st2" d="M1248.8,1572.9L1248.8,1572.9c-0.1,0-0.3,0-0.4,0C1248.8,1572.9,1248.8,1572.9,1248.8,1572.9z"/>
	<path class="st6" d="M1382.2,1126c-3.3-1.5-6.7-2.8-10-4c-84.7-29.7-192,35.9-244.2,151.7c-54.3,120.4-28.6,249.5,57.5,288.4
		c8.6,3.9,17.5,6.7,26.6,8.5c11.9,2.4,24,3.1,36.3,2.2c0.1,0,0.3,0,0.4,0c72.4-5.5,149.2-65.9,190.9-158.4
		C1494.1,1294,1468.3,1164.9,1382.2,1126z M1415.4,1409.8c-34.6,76.6-98.7,125.5-156,124.6c-12.5-0.2-24.6-2.7-36-7.9
		c-64-28.9-81.7-127.9-39.6-221.2c37.8-83.8,111.1-134.5,172-122.9c6.9,1.3,13.6,3.3,20,6.3
		C1439.7,1217.5,1457.4,1316.5,1415.4,1409.8z"/>
	<path class="st7" d="M1375.7,1188.6c-6.5-2.9-13.2-5-20-6.3c-60.9-11.5-134.2,39.1-172,122.9c-42.1,93.3-24.3,192.3,39.6,221.2
		c11.4,5.2,23.6,7.7,36,7.9c57.3,0.9,121.4-47.9,156-124.6C1457.4,1316.5,1439.7,1217.5,1375.7,1188.6z M1399.1,1409
		c-30,66.5-85.1,109.9-136.4,113c-14.5,0.9-28.7-1.5-42-7.4c-60-27.1-77.4-118.2-38.9-203.6c36.4-80.8,109.9-127.4,168.5-109.3
		c3.3,1,6.6,2.2,9.8,3.7C1420.2,1232.5,1437.6,1323.7,1399.1,1409z"/>
	<path class="st8" d="M1325,1328.6c-2.4-12.6-8.9-22.7-19.2-27.3c-20.3-9.2-47.4,6.9-60.5,35.8s-7.2,59.9,13.2,69
		c11.7,5.3,25.6,2.2,37.8-6.8c9-6.7,17.1-16.6,22.7-29C1325.5,1355.9,1327.3,1341.1,1325,1328.6z M1256.3,1396.5
		c-16.7-7.5-21.6-33-10.9-56.8s33-37,49.8-29.4c16.7,7.5,21.6,33,10.9,56.8C1295.4,1390.9,1273.1,1404.1,1256.3,1396.5z"/>
	
		<ellipse transform="matrix(0.4112 -0.9115 0.9115 0.4112 -482.5789 1959.7625)" class="st7" cx="1275.7" cy="1353.4" rx="47.3" ry="33.2"/>
	<path class="st8" d="M1353.3,1216.1c-0.3-0.8-2.3-1.4-4.9-2c-7.4,13.1-31.2,48.2-40.7,62.1l-1.3,12.8
		C1306.4,1289,1354.6,1218.9,1353.3,1216.1z"/>
	<path class="st9" d="M1326,1211.5c-14.9-0.4-12.5,6.9-12.5,6.9l-5.8,57.8c9.5-13.9,33.4-49.1,40.7-62.1
		C1341.2,1212.5,1328.5,1211.6,1326,1211.5z"/>
	<path class="st8" d="M1404.5,1298.8c-0.6-1.1-2.8-0.7-6,0.6c1.6,9.8-1,28.6-2.2,33.7c-1,4.4-37,4.5-56.5,4.1
		c-3.1,2.2-4.9,3.6-4.9,3.6s67.4,2.2,68.8-3.9C1405.1,1330.8,1408.5,1305.4,1404.5,1298.8z"/>
	<path class="st9" d="M1396.3,1333c1.2-5.1,3.8-23.9,2.2-33.7c-13.7,5.6-46.3,28.8-58.7,37.8
		C1359.3,1337.5,1395.3,1337.5,1396.3,1333z"/>
	<path class="st8" d="M1372.7,1427.6c-3,7.8-14.1,19.5-22.9,22.1c-6.9,2.1-23.3-32.5-32-52.2c7,16.3,27.4,62.3,35.4,59.9
		c9.7-2.9,22-16.5,23.5-24.1C1376.9,1432,1375.4,1430,1372.7,1427.6z"/>
	<path class="st9" d="M1349.8,1449.8c8.9-2.7,20-14.3,22.9-22.1c-13.5-12.2-57.4-35.8-57.4-35.8s0.9,2.2,2.4,5.7
		C1326.5,1417.3,1342.9,1451.8,1349.8,1449.8z"/>
	<path class="st8" d="M1247,1503.3c-0.6,4.2-0.8,6.8-0.4,7.1c2.8,2.3,40.4,3.2,39-0.4c-0.3-0.9-0.9-3.4-1.5-6.6
		C1272.7,1505,1249.4,1504.9,1247,1503.3z"/>
	<path class="st2" d="M1247,1503.3L1247,1503.3c0.8-5.2,2.3-12.7,4.1-21.3C1248,1493.9,1246.1,1502.6,1247,1503.3z"/>
	<path class="st9" d="M1280.2,1479.8l-12.3-57l-1.6-7.4c0,0-9.4,38.5-15.3,66.5c-1.8,8.6-3.3,16.1-4.1,21.3
		c2.4,1.6,25.7,1.7,37.2,0.1C1282.5,1494.4,1280.2,1479.8,1280.2,1479.8z"/>
	<path class="st8" d="M1221.4,1384.9c-7.5,11.8-30.1,47.1-40.7,58.1c1.1,3.1,2.4,5.2,4,5.7c6,2.2,48.1-65.3,48.1-65.3
		S1228,1383.8,1221.4,1384.9z"/>
	<path class="st9" d="M1175.9,1404.8c0,11.7,1.5,29.1,4.8,38.2c10.6-11,33.2-46.2,40.7-58.1
		C1204.8,1387.5,1175.9,1393.6,1175.9,1404.8z"/>
	<path class="st8" d="M1244.5,1328.4c0,0-8.8-73.5-19.8-69.2c-0.4,0.2-0.9,0.5-1.4,0.7c7.5,17.9,12.8,61.9,12.8,61.9
		s-28.7-5.1-43.4-11.5C1194.5,1319.5,1244.5,1328.4,1244.5,1328.4z"/>
	<path class="st9" d="M1223.4,1260c-11.3,6.6-30.5,40.8-30.7,49.8c0,0.2,0,0.4,0.1,0.5c14.7,6.4,43.4,11.5,43.4,11.5
		S1230.9,1277.9,1223.4,1260z"/>
	<path class="st2" d="M2380.8,1048.3c2.1,5.3,5.4,9.4,9.8,11.8c7.9,4.3,17.7,2,26.4-5.3c6.5-5.3,12.4-13.3,16.7-23.2
		c5-11.6,6.8-23.6,5.6-33.7c-0.9-7.9-3.7-14.5-8.1-18.9c-11.9,12.8-23.7,27.2-34.1,42.8C2391.3,1030.4,2385.9,1039.3,2380.8,1048.3z
		"/>
	<path class="st3" d="M2383.8,1004.2c10-23.3,29.4-36.1,43.1-28.5c1.6,0.9,3,2,4.3,3.3c23.7-25.6,47.5-45.1,60.9-55.3
		c-6.1-10.9-14.2-19.6-24.2-25.1c-2.2-1.2-4.4-2.2-6.7-3c-40-15.1-92.5,22.1-120.5,87.1c-24.1,56-22.7,115.4,0.7,147.5
		c8.8-21.7,22.3-52,39.4-81.9C2376.1,1036.9,2376.9,1020.2,2383.8,1004.2z"/>
	<path class="st4" d="M2492.1,923.7c-13.4,10.2-37.3,29.6-60.9,55.3c4.4,4.4,7.1,11.1,8.1,18.9c1.2,10.1-0.6,22.1-5.6,33.7
		c-4.3,9.9-10.2,17.9-16.7,23.2c-8.8,7.2-18.5,9.6-26.4,5.3c-4.4-2.4-7.6-6.5-9.8-11.8c-17.1,29.9-30.6,60.2-39.4,81.9
		c5.3,7.3,11.7,13.2,19.3,17.3c9,4.9,18.7,6.9,28.8,6.3c35.6-2.2,75.3-36.8,98.4-90.4C2510.2,1011.7,2510.6,957.1,2492.1,923.7z"/>
	<path class="st5" d="M2304.6,952.2c40.2-93.3,116.8-145.5,174.5-120.9l0.4-1.4c0,0-71.4-26.2-82.9-29c-0.2-0.1-0.4-0.1-0.6-0.1
		c-3.5-1.1-7-2-10.7-2.6c-0.3-0.1-0.3-0.1-0.3-0.1l0,0c-43.1-4.2-112.5,30.6-145.2,105.4c-23.2,53.2-50.6,188,5.3,240.7
		c1.9,1.8,12,10.9,14.2,11.8c6.4,4.2,68.9,34.8,93.2,36.8c0.1,0,0.1,0,0.2,0c-6.2-1.5-12.3-3.9-18.2-7.1
		C2276.2,1153.7,2262.8,1049.2,2304.6,952.2z"/>
	<path class="st2" d="M2378.1,1194.8L2378.1,1194.8c-0.1,0-0.2,0-0.3,0C2378,1194.8,2378.1,1194.8,2378.1,1194.8z"/>
	<path class="st6" d="M2485.9,834.6c-2.2-1.2-4.5-2.3-6.8-3.3c-57.7-24.6-134.3,27.6-174.5,120.9c-41.8,97-28.4,201.6,29.9,233.6
		c5.8,3.2,11.9,5.5,18.2,7.1c8.1,2,16.5,2.7,25.1,2c0.1,0,0.2,0,0.3,0c50.4-3.9,105.7-52.2,137.7-126.7
		C2557.6,971.1,2544.2,866.6,2485.9,834.6z M2499.1,1064.2c-26.6,61.7-72.7,100.8-112.4,99.6c-8.6-0.3-17-2.4-24.7-6.6
		c-43.3-23.8-52.2-104-19.8-179.1c29.1-67.5,81.6-107.9,123.4-98.2c4.7,1.1,9.3,2.8,13.7,5.2
		C2522.6,908.9,2531.5,989.1,2499.1,1064.2z"/>
	<path class="st7" d="M2479.2,885.1c-4.4-2.4-9-4.1-13.7-5.2c-41.8-9.8-94.3,30.6-123.4,98.2c-32.4,75.1-23.5,155.3,19.8,179.1
		c7.7,4.3,16.1,6.4,24.7,6.6c39.7,1.2,85.8-37.9,112.4-99.6C2531.5,989.1,2522.6,908.9,2479.2,885.1z M2487.8,1063.5
		c-23.1,53.6-62.8,88.2-98.4,90.4c-10.1,0.6-19.9-1.4-28.8-6.3c-40.6-22.3-49.6-96.1-19.9-164.9c28-65.1,80.6-102.2,120.5-87.1
		c2.3,0.9,4.5,1.8,6.7,3C2508.6,920.9,2517.5,994.7,2487.8,1063.5z"/>
	<path class="st8" d="M2439.2,997.9c-1.2-10.2-5.4-18.4-12.3-22.2c-13.8-7.6-33.1,5.2-43.1,28.5s-7,48.3,6.8,55.9
		c7.9,4.3,17.7,2,26.4-5.3c6.5-5.3,12.4-13.3,16.7-23.2C2438.7,1020,2440.4,1008,2439.2,997.9z M2389.3,1052.3
		c-11.3-6.2-13.8-26.8-5.6-46c8.3-19.2,24.2-29.7,35.5-23.5s13.8,26.8,5.6,46C2416.6,1048.1,2400.7,1058.6,2389.3,1052.3z"/>
	
		<ellipse transform="matrix(0.3421 -0.9397 0.9397 0.3421 625.7197 2928.8577)" class="st7" cx="2404.4" cy="1017.6" rx="37.9" ry="23.2"/>
	<path class="st8" d="M2462.8,907.2c-0.2-0.6-1.5-1.2-3.3-1.7c-5.6,10.5-23.3,38.8-30.4,49.9l-1.3,10.3
		C2427.7,965.8,2463.6,909.5,2462.8,907.2z"/>
	<path class="st9" d="M2444,903.2c-10.3-0.5-8.9,5.5-8.9,5.5l-6,46.7c7.1-11.2,24.8-39.4,30.4-49.9
		C2454.5,904.1,2445.7,903.3,2444,903.2z"/>
	<path class="st8" d="M2495.4,974.4c-0.4-0.9-1.9-0.6-4.2,0.4c0.8,7.9-1.7,23.1-2.7,27.2c-0.9,3.6-25.8,3.3-39.3,2.9
		c-2.2,1.8-3.5,2.9-3.5,2.9s46.6,2.3,47.8-2.6C2494.7,1000.3,2497.9,979.8,2495.4,974.4z"/>
	<path class="st9" d="M2488.5,1002c1-4.1,3.4-19.3,2.7-27.2c-9.7,4.4-33.1,23-42,30.2C2462.7,1005.4,2487.7,1005.6,2488.5,1002z"/>
	<path class="st8" d="M2468.9,1078.3c-2.3,6.3-10.4,15.6-16.7,17.7c-4.9,1.6-15-26.4-20.4-42.5c4.3,13.2,16.8,50.5,22.4,48.7
		c6.8-2.3,15.8-13.2,17.2-19.3C2471.7,1081.9,2470.7,1080.3,2468.9,1078.3z"/>
	<path class="st9" d="M2452.3,1096c6.2-2.1,14.3-11.4,16.7-17.7c-9-10-38.5-29.3-38.5-29.3s0.5,1.8,1.5,4.6
		C2437.2,1069.6,2447.4,1097.7,2452.3,1096z"/>
	<path class="st8" d="M2379.2,1138.6c-0.6,3.4-0.8,5.5-0.5,5.8c1.8,1.9,27.9,2.9,27.1-0.1c-0.2-0.8-0.5-2.8-0.8-5.3
		C2396.9,1140.1,2380.8,1139.9,2379.2,1138.6z"/>
	<path class="st2" d="M2379.2,1138.6L2379.2,1138.6c0.8-4.2,2.1-10.3,3.6-17.2C2380.2,1131,2378.6,1138.1,2379.2,1138.6z"/>
	<path class="st9" d="M2403,1119.9l-6.5-46.1l-0.8-6c0,0-7.8,31.1-12.9,53.7c-1.5,6.9-2.8,13-3.6,17.2c1.6,1.3,17.7,1.5,25.8,0.4
		C2404.1,1131.7,2403,1119.9,2403,1119.9z"/>
	<path class="st8" d="M2365.5,1042.7c-5.6,9.5-22.5,37.8-30.2,46.7c0.7,2.5,1.5,4.2,2.5,4.6c4.1,1.8,35.6-52.5,35.6-52.5
		S2370.2,1041.9,2365.5,1042.7z"/>
	<path class="st9" d="M2333.3,1058.5c-0.4,9.4,0,23.6,2,30.9c7.7-8.8,24.6-37.1,30.2-46.7
		C2353.9,1044.7,2333.7,1049.4,2333.3,1058.5z"/>
	<path class="st8" d="M2383.5,997.2c0,0-3.6-59.5-11.3-56.1c-0.3,0.1-0.6,0.4-1,0.6c4.6,14.5,6.7,50.1,6.7,50.1s-19.7-4.3-29.7-9.6
		C2349.1,989.6,2383.5,997.2,2383.5,997.2z"/>
	<path class="st9" d="M2371.2,941.7c-8,5.2-22.6,32.8-23,40c0,0.1,0,0.3,0,0.4c10,5.3,29.7,9.6,29.7,9.6S2375.8,956.2,2371.2,941.7z
		"/>
</g>
<g id="Layer_4">
	<path class="st10" d="M915.4,523.9c0,0-2-3.3-5.2-8c0,0-40.4,22.5-52.8,49.4c-7.6,16.4-13.2,26.6-14.6,33.6
		c4.5,3.9,11.9,5.2,24.9,3.7c27.9-3.1,38.3-10.4,42.4-20.7C914.4,571.6,915.4,523.9,915.4,523.9z"/>
	<path class="st11" d="M829.9,544.9c0.2,6.5,0.7,13.1,1.6,19.4c1.7,11,6.2,30.2,11.3,34.6c1.2-5.9,5.5-14.2,11.4-26.7
		C847.6,565.9,837.8,555.9,829.9,544.9z"/>
	<path class="st12" d="M910.2,516c-7.3-10.5-21.2-27.9-34.2-29.3c-18.6-2.1-36.2,4.1-41.4,18.6c-3.6,10.1-5.2,24.7-4.8,39.6
		c7.9,11.1,17.8,21.1,24.4,27.3c1-2.2,2.1-4.4,3.2-6.8C869.9,538.4,910.2,516,910.2,516z"/>
	<path class="st13" d="M879.1,559.6c0,0-27.4,17.9-34.9,34.6c-7.5,16.7-2,43.6-2.2,44.7c-0.1,1-5.3,11.4,24.7,0s36.4-13.3,37.3-31.1
		S879.1,559.6,879.1,559.6z"/>
</g>
<g id="Layer_5">
	<path class="st2" d="M1399.3,485.5c1.3-5.3,2.8-11.6,4.7-19.3c9.4-38.5,64.6-182.4,79-219.9c-119.1,28.4-287.7,95.6-324.8,116.2
		c-45.1,25.2-137.8,96.8-192.2,153.5c-40.4,42.2-43.9,83-45.8,103.7c1.5,0,3-0.1,4.6-0.6C933.6,616.7,1173.1,550.3,1399.3,485.5z"/>
	<path class="st2" d="M1536,235.9l-63.6,228.5c173.5-50.1,322.3-94.8,327.2-102c11.7-17.3-40.3-142.3-40.3-142.3s-99.1,4.7-207.8,14
		C1546.6,234.5,1541.4,235.1,1536,235.9z"/>
	<path class="st14" d="M1799.7,362.5c-4.9,7.2-153.7,51.8-327.2,102l-4.2,15.1c190.9-56.7,359.9-108.6,360.1-113.4
		c0.4-10.9-42.4-135.1-50.2-146h-18.8C1759.3,220.1,1811.4,345.2,1799.7,362.5z"/>
	<path class="st14" d="M1483.1,246.2c-14.5,37.5-69.6,181.4-79,219.9c-1.9,7.7-3.4,14.1-4.7,19.3
		C1173.2,550.2,933.7,616.6,925.1,619c-1.7,0.5-3.2,0.6-4.6,0.6c-0.5,5.7-1,9.9-2,12.2c5.1,0.4,11.3,0.6,18.4,0.3
		c9.7-0.5,236.4-65.5,458.8-131.1c5.7-1.7,11.4-3.4,17-5c1.4-4.8,2.9-10,4.6-15.7c20.6-68.4,62.5-193,77.3-236.7
		C1490.7,244.4,1486.9,245.3,1483.1,246.2z"/>
	<path class="st15" d="M1941,432.9c-15.5,3,11.2-23.1,11.2-23.1l-62.9-139.2c0,0,0,0,7.4,1.9s348.3,45.3,292.7,22.2
		c-55.6-23-330-74.5-330-74.5h-81.3c7.9,10.9,50.7,135.1,50.2,146c-0.2,4.8-169.2,56.7-360.1,113.4l4.2-15.1L1536,236
		c5.4-0.7,10.6-1.3,15.5-1.8c108.7-9.3,207.8-14,207.8-14l-131.1-24.9c0,0-150.5,12.4-233.5,31.8c-83.1,19.4-236.4,81.4-236.4,81.4
		l-15.3,8.8l-6.1,8.3c0,0-125,85.6-177.8,129c-52.8,43.5-191.8,173.1-191.8,173.1s-29.5,21-32.6,53s77.6,118.6,144.4,162.7
		c66.7,44.1,542,86.3,555.9,86.9c14,0.6,980.1-327.6,980.1-327.6s-4.2-30.9-9.4-56.5C2295.3,517.8,1954,430.4,1941,432.9z
		 M1417.1,480.3c-1.7,5.6-3.2,10.9-4.6,15.7c-5.7,1.7-11.4,3.4-17,5c-222.4,65.6-449.2,130.6-458.9,131.1c-7,0.4-13.3,0.2-18.4-0.3
		c1.1-2.2,1.5-6.4,2-12.2c1.9-20.7,5.4-61.5,45.8-103.7c54.3-56.7,147-128.4,192.2-153.5c37.1-20.7,205.6-87.9,324.8-116.2
		c3.8-0.9,7.6-1.8,11.4-2.6C1479.6,287.3,1437.7,412,1417.1,480.3z"/>
	<path class="st16" d="M1941,432.9c13-2.5,354.3,84.9,464.7,113.3c-3.3-16.3-7.1-30.3-10.6-32.8c-8.9-6.4-442.9-103.5-442.9-103.5
		S1925.5,436,1941,432.9z"/>
</g>
<g id="Layer_7">
	<path class="st17" d="M2414,534.1c-15.9-16.9-35.8-27.9-35.8-27.9s-54.1,13.9-72.9,52.4c-18.8,38.6-79.2,323.5-79.2,323.5
		s167.8-78,170-88.6S2429.9,551,2414,534.1z"/>
	<path class="st18" d="M1841.7,392.7c0,0-48.6,2.1-81.8,21.5c-33.3,19.4-146.3,254.5-144.9,262.6s611.2,205.3,611.2,205.3
		s60.4-284.9,79.2-323.5s72.9-52.4,72.9-52.4L1841.7,392.7z"/>
	<path class="st19" d="M2361.8,440.3c-0.6-1.7-5.7-3.8-13.5-6.2c-2.9,3.3-13.6,16.2-21.6,35.5c-4.1,9.9-4.6,17.9-3.9,23.8
		c0.9,7.4,3.9,11.4,3.9,11.4l18.6-6.6l0,0l16.3,3.1c0.1,0,0.1,0,0.2,0C2361.8,501.3,2368.9,462,2361.8,440.3z"/>
	<path class="st20" d="M2348.3,434.1c-30.7-9.1-103.8-21-113.5-21.4c0,0-24.5,25.1-24.7,42.5c-0.1,4.7-0.1,8.7-0.1,12.1
		c0,1.1,0,2,0,3c0,0.5,0,0.9,0,1.3c0,0.1,0,0.1,0,0.2c0,5.3,0.1,6.5,0.1,6.5l116.5,26.7c0,0-2.9-4-3.9-11.4
		c-0.7-5.9-0.2-13.9,3.9-23.8C2334.8,450.3,2345.4,437.4,2348.3,434.1z"/>
	<path class="st19" d="M2016.7,369.4c-0.6-1.7-5.7-3.8-13.5-6.2c-2.9,3.3-13.6,16.2-21.6,35.5c-4.1,9.9-4.6,17.9-3.9,23.8
		c0.9,7.4,3.9,11.4,3.9,11.4l18.6-6.6l0,0l16.3,3.1c0.1,0,0.1,0,0.2,0C2016.7,430.4,2023.8,391.1,2016.7,369.4z"/>
	<path class="st20" d="M2003.2,363.2c-30.7-9.1-103.8-21-113.5-21.4c0,0-24.5,25.1-24.7,42.5c-0.1,4.7-0.1,8.7-0.1,12.1
		c0,1.1,0,2,0,3c0,0.5,0,0.9,0,1.3c0,0.1,0,0.1,0,0.2c0,5.3,0.1,6.5,0.1,6.5l116.5,26.7c0,0-2.9-4-3.9-11.4
		c-0.7-5.9-0.2-13.9,3.9-23.8C1989.6,379.4,2000.3,366.5,2003.2,363.2z"/>
	<path class="st2" d="M1567.4,500.4c7.6,1.8,14.2,3.3,19.7,4.5L1567.4,500.4L1567.4,500.4z"/>
	<path class="st2" d="M1403.7,462.4c0-0.6,0-1.2,0-1.8C1403.7,461.2,1403.7,461.8,1403.7,462.4z"/>
	<path class="st18" d="M1455.9,852.9c52.4,1.7,52.4,1.7,52.4,1.7L1249,767.8c0,0-48.6,3.5-64.9-3.3s-131.2,6.1-161.4,30.4
		c-2.7,2.2-5.4,4.7-7.9,7.4c0,0,272.2,74.6,284.8,77.7C1312.3,882.9,1403.5,851.2,1455.9,852.9z"/>
	<path class="st17" d="M1601,507.2c1.8,7.1-37.7,56-56.2,97.4c-18.5,41.3-55.1,182.4-54,205.7c1.1,23.3,17.5,44.3,17.5,44.3v16.5
		v-16.5c0,0,0,0-52.4-1.7s-143.6,30-156.2,27s-284.8-77.6-284.8-77.7c-25.8,27.3-42.3,78-26.7,101.6c17.2,25.9,227,99.6,272,86.5
		s248.6-65.3,251.3-69.9c2.7-4.6,55.2-98.1,71.2-175.7C1598.7,667.1,1626.7,508.7,1601,507.2z"/>
	<path class="st21" d="M1601,507.2c-2.7-0.2-7.4-1-13.6-2.2l0,0l-0.2-0.1c-5.5-1.1-12.1-2.7-19.7-4.5l-22.6,9.4l-141-38
		c0,0-0.1-1.7-0.1-9.2c0-0.1,0-0.2,0-0.2c0-0.6,0-1.2,0-1.8c0-1.3,0-2.7,0-4.2c-19.1-5.4-32.6-1.8-32.6-1.8s-47.4,27.8-64.9,90.1
		c-17.6,62.4-57,223-57,223l259.3,86.8c0,0-16.5-21-17.5-44.3c-1.1-23.3,35.5-164.3,54-205.7C1563.3,563.2,1602.7,514.3,1601,507.2z
		"/>
	<path class="st2" d="M1587.3,505L1587.3,505c-0.1,0-0.2,0-0.2-0.1L1587.3,505z"/>
	<path class="st19" d="M1587.3,417.9c-0.7-2.4-6.9-5.5-16.4-8.8c-3.5,4.7-16.4,23-26.1,50.6c-5,14.2-5.6,25.6-4.7,33.9
		c1.1,10.6,4.7,16.3,4.7,16.3l22.6-9.4l0,0l19.7,4.5c0.1,0,0.2,0,0.2,0C1587.3,504.9,1595.9,448.9,1587.3,417.9z"/>
	<path class="st20" d="M1571,409.1c-37.2-12.9-125.7-29.9-137.3-30.6c0,0-29.6,35.7-29.9,60.5c-0.1,6.7-0.1,12.4-0.1,17.2
		c0,1.5,0,2.9,0,4.2c0,0.6,0,1.3,0,1.8c0,0.1,0,0.2,0,0.2c0,7.6,0.1,9.2,0.1,9.2l141,38c0,0-3.6-5.6-4.7-16.3
		c-0.9-8.3-0.3-19.8,4.7-33.9C1554.6,432.1,1567.4,413.8,1571,409.1z"/>
	<path class="st2" d="M1403.7,462.6c0-0.1,0-0.2,0-0.2C1403.7,462.5,1403.7,462.5,1403.7,462.6z"/>
	<path class="st2" d="M1403.7,456.3c0,1.6,0,3,0,4.2C1403.7,459.2,1403.7,457.8,1403.7,456.3z"/>
	<path class="st2" d="M1907.7,591.4c7.8,2,14.7,3.7,20.4,5L1907.7,591.4L1907.7,591.4z"/>
	<path class="st2" d="M1738,549.2c0-0.6,0-1.3,0-2C1738,547.9,1738,548.5,1738,549.2z"/>
	<path class="st18" d="M1792.2,982.2c54.3,1.8,54.3,1.8,54.3,1.8l-268.8-96.3c0,0-50.4,3.9-67.3-3.6s-136,6.7-167.2,33.7
		c-2.8,2.4-5.6,5.2-8.2,8.2c0,0,282.1,82.8,295.2,86.1C1643.3,1015.5,1737.9,980.4,1792.2,982.2z"/>
	<path class="st17" d="M1942.5,598.9c1.8,7.8-39.1,62.1-58.2,108c-19.2,45.8-57.1,202.2-56,228.1s18.2,49.1,18.2,49.1v18.3v-18.3
		c0,0,0,0-54.3-1.8s-148.9,33.3-161.9,29.9c-13.1-3.3-295.2-86.1-295.2-86.1c-26.7,30.2-43.8,86.5-27.6,112.7
		c17.8,28.8,235.3,110.5,281.9,95.9s257.7-72.4,260.5-77.5s57.2-108.7,73.8-194.8C1940.2,776.3,1969.2,600.5,1942.5,598.9z"/>
	<path class="st21" d="M1942.5,598.9c-2.8-0.2-7.7-1.1-14.1-2.5l0,0l-0.2-0.1c-5.7-1.3-12.6-2.9-20.4-5l-23.4,10.5l-146.2-42.1
		c0,0-0.1-1.9-0.2-10.2c0-0.1,0-0.2,0-0.3c0-0.7,0-1.3,0-2c0-1.4,0-3,0-4.7c-19.8-6-33.8-1.9-33.8-1.9s-49.1,30.8-67.3,100
		c-18.2,69.2-59.1,247.4-59.1,247.4l268.8,96.3c0,0-17.1-23.3-18.2-49.1s36.8-182.2,56-228.1C1903.5,661,1944.4,606.8,1942.5,598.9z
		"/>
	<path class="st2" d="M1928.4,596.4L1928.4,596.4c-0.1,0-0.2,0-0.2-0.1L1928.4,596.4z"/>
	<path class="st19" d="M1928.4,499.9c-0.7-2.7-7.1-6.1-17-9.7c-3.6,5.2-17,25.6-27.1,56.1c-5.2,15.7-5.8,28.4-4.9,37.6
		c1.2,11.8,4.9,18,4.9,18l23.4-10.5l0,0l20.4,5c0.1,0,0.2,0,0.2,0.1C1928.4,596.3,1937.2,534.2,1928.4,499.9z"/>
	<path class="st20" d="M1911.4,490.1c-38.5-14.3-130.3-33.2-142.4-33.9c0,0-30.7,39.6-30.9,67.1c-0.1,7.4-0.1,13.8-0.1,19.1
		c0,1.7,0,3.2,0,4.7c0,0.7,0,1.4,0,2c0,0.1,0,0.2,0,0.3c0,8.4,0.2,10.2,0.2,10.2l146.1,42.2c0,0-3.7-6.3-4.9-18
		c-0.9-9.3-0.3-21.9,4.9-37.6C1894.4,515.7,1907.8,495.3,1911.4,490.1z"/>
	<path class="st2" d="M1738,549.4c0-0.1,0-0.2,0-0.3C1738,549.3,1738,549.4,1738,549.4z"/>
	<path class="st2" d="M1738,542.5c0,1.7,0,3.3,0,4.7C1738,545.7,1738,544.1,1738,542.5z"/>
</g>
<g id="Layer_6">
	<path class="st2" d="M1458.1,756.7c-14-8.9-26.2-19.3-36.1-30.4l0,0l-23,3c11.1,14.5,25.9,28.2,43.7,39.5
		c51.9,33,111,34.4,137.2,4.7C1549.8,789.7,1501.4,784.2,1458.1,756.7z"/>
	<path class="st22" d="M1397.8,688.9c-9.2-22.3-9.4-44.5,1.5-61.8c1.5-2.3,3.2-4.5,5-6.6c-8.4,4.5-15.4,10.8-20.4,18.7
		c-9,14.1-10.4,31.6-5.6,49.6L1397.8,688.9L1397.8,688.9z"/>
	<path class="st23" d="M1537.6,614.2c-65.9-41.9-143.3-38.1-172.8,8.4c-29.6,46.5-0.1,118.2,65.8,160s143.3,38.1,172.8-8.4
		C1633,727.7,1603.5,656.1,1537.6,614.2z M1584.8,766.9c-1.5,2.3-3.2,4.5-5,6.6c-26.3,29.6-85.3,28.3-137.2-4.7
		c-17.8-11.3-32.6-25-43.7-39.5c-10-13.1-17.1-26.9-20.6-40.4c-4.8-18.1-3.3-35.5,5.6-49.6c5-7.9,12-14.2,20.4-18.7
		c30.1-16.2,78.4-10.7,121.8,16.8c22.4,14.3,40.1,32.2,51.7,51c8.6,13.9,13.8,28.3,15.1,41.9
		C1594.1,743.6,1591.7,756.2,1584.8,766.9z"/>
	<path class="st2" d="M1490.1,744.8c-48,0.5-68.2-18.5-68.2-18.5c10,11.1,22.1,21.5,36.1,30.4c43.4,27.6,91.7,33.1,121.8,16.8
		c1.8-2,3.5-4.2,5-6.6c6.8-10.7,9.3-23.3,8-36.7h-42.6C1550.2,730.3,1538.1,744.3,1490.1,744.8z"/>
	<path class="st24" d="M1577.8,688.4c-13.4-0.5-31.7-0.8-37.9,0.5c-10.4,2.1-39.3-18.7-75.9-20.7c-36.5-2.1-66.2,20.7-66.2,20.7
		h-19.6c3.6,13.4,10.6,27.3,20.6,40.4l23-3l0,0c0,0,20.2,19,68.2,18.5s60.1-14.5,60.1-14.5h42.7
		C1591.6,716.7,1586.4,702.3,1577.8,688.4z"/>
	<path class="st24" d="M1526.2,729.1c-10.9-10.3-109.2-39-218.7-68.7c-7.4-2-14.9-4-22.4-6c-78.4-21-159.9-41.8-217.3-56.2
		c-38.7-9.7-66.5-16.4-75.1-18.3c-40.8-9-82.4,2-122.6,11.5c-40.2,9.5-112.5,45-112.5,45s-29.9,16.1-69.8,69.5
		c-39.9,53.5,449.3,207.2,584.3,217.2c135.1,10,299.1-29.3,314.5-49.7C1601.9,853.1,1550.6,752.2,1526.2,729.1z"/>
	<path class="st25" d="M1300,782.6c107.1-1.2,251-72.5,251-72.5c-22.7-33.8-308.5-103.8-331.3-103.6c-22.8,0.3-32.9,6.3-32.9,6.3
		s-105.2,72.6-111.7,109.9c-2.7,15.4,21.6,29.4,58.2,41.6C1172.2,772.7,1234.6,783.3,1300,782.6z"/>
	<path class="st25" d="M1551,710c0,0-143.9,71.3-251,72.5c-65.4,0.7-127.8-9.9-166.6-18.3c51.8,17.2,128.1,30.6,187.6,39.1
		c101.6,14.5,242.8-16.6,242.8-16.6S1573.7,743.9,1551,710z"/>
</g>
<g id="Layer_8">
	<path class="st14" d="M1905.7,387.8c0,0,21.3,0.1,22.4,17.1c1.2,17,21.8,120.4,25.2,155.4c3.4,35,3.4,120.3,3.4,120.3
		s24.8-3.1,25.9-12.6c1-9.5-6.9-155.3-14.9-198.6c-7.9-43.2-22.6-88.3-22.6-88.3L1905.7,387.8z"/>
	<path class="st14" d="M2125.3,357.3c0,0,26.8,5.8,64.2,35.2c37.3,29.4,103,105.3,110.5,126.6c7.4,21.3,13.4,18.8,13.4,18.8
		s24.5-15.3,24.5-21.6s-50.8-107.4-84.1-135.2c-33.2-27.8-58.8-38.8-58.8-38.8h-69.6L2125.3,357.3L2125.3,357.3z"/>
</g>
<g id="Layer_13">
	<path class="st26" d="M1169.3,436.1c0.7-8.8,9.8-14.3,18.2-11.7c29.2,9.2,112.2,35.8,116,41.7c4.6,7.2,0.6,31.8-6.7,36.6
		s-120-31.3-126.4-40.4c-6.4-9-1.7-17.2-1.2-25.9C1169.2,436.3,1169.3,436.2,1169.3,436.1z"/>
	<path class="st27" d="M1232.9,405.6c0,1.7-12.1,33.9-12.7,46.2s4.6,13.3,6.4,11.6c1.7-1.7,17.4-19.2,17.4-19.2l11.6-26.4
		L1232.9,405.6z"/>
	<path class="st26" d="M1211.5,349.8c0,0-24.7,38.7-24.7,46s99.9,46.5,132.7,55c2.6,0.7,5.3,1,8,1c9.2-11.1,25.5-35.8,34.3-49.6
		L1211.5,349.8z"/>
	<path class="st28" d="M1399.3,415.3l-37.5-13.1c-8.9,13.8-25.1,38.5-34.3,49.6C1359.4,452.5,1399.3,415.3,1399.3,415.3z"/>
</g>
<g id="Layer_2_00000049923752097358912150000015399231174602532992_">
	<path class="st11" d="M2021.1,1084.8L2021.1,1084.8l-0.1,1.2l-12.9,71.7l212.3-65.6l0.8-0.3c2-26.4,6.1-53.8,13.4-79.4
		c2.5-8.8,5.2-17.4,7.9-25.8c-15.9,8.9-29.6,16.6-40.2,22.4C2177,1022.9,2106.2,1051.7,2021.1,1084.8z"/>
	<path class="st29" d="M2403,778.1c-10.3,4.4-21,9.9-32.3,16.8c-61.9,37.8-100,103.3-128.3,191.6c-2.7,8.4-5.4,17-7.9,25.8
		c-7.3,25.6-11.4,53-13.4,79.4l31.6-11.9l0.9-0.4c2.4-25.7,7.1-55.5,16.2-84.5c3.2-10.3,6.6-20.1,10.1-29.7
		c23.7-63.9,55.4-111.5,105.4-139.6c10.5-5.9,20.4-10.5,29.9-14c-3.6-16.7-12.1-33.2-12.2-33.4V778.1z"/>
	<path class="st30" d="M1979.6,722.9c-9.9-2.9-72.4,25.4-83.7,39.5c-5.1,6.4-7.9,15.9-9.5,24.4c36.6-12.5,73.4-25.1,109.9-37.6
		C1993.6,741.5,1987.1,725.1,1979.6,722.9z"/>
	<path class="st30" d="M2370,619.1c-28.9,10.4-61.8,22-97.7,34.6c-3.8,12.4-3.9,25.8-3.9,25.8l0.3,1.2
		c42.4-14.5,78.2-26.7,104.6-35.5l1.6-13.7C2374.8,631.5,2373,625.5,2370,619.1z"/>
	<path class="st12" d="M2272.3,653.7c-74.3,26.1-161.4,56.2-251.5,87.1l0.2,0.6v24.2c91.7-31.4,178.4-61.3,247.7-85l-0.3-1.2
		C2268.4,679.5,2268.5,666.1,2272.3,653.7z"/>
	<path class="st12" d="M2383.4,614.3c-4.3,1.6-8.8,3.2-13.4,4.8c3,6.4,4.8,12.4,4.8,12.4l-1.6,13.7c3.5-1.2,7-2.3,10.2-3.4l-0.1-0.4
		L2383.4,614.3z"/>
	<path class="st30" d="M1996.3,749.3c-36.5,12.5-73.3,25.1-109.9,37.6c-2,10.4-2.1,19.4-2.1,19.4l1.4,5.6
		c36.6-12.4,73.4-25,109.6-37.4l2.3-21.1C1997.7,753.3,1997.2,751.7,1996.3,749.3z"/>
	<path class="st12" d="M1997.7,753.3l-2.3,21.1c7.2-2.5,14.4-4.9,21.6-7.4c0-0.3,0-0.5,0-0.6v-24.3c-6.8,2.3-13.7,4.7-20.6,7.1
		C1997.2,751.7,1997.7,753.3,1997.7,753.3z"/>
	<path class="st30" d="M2357.9,603.9c-9.3-2.7-68.1,23-78.6,35.8c-3.1,3.8-5.3,8.8-6.9,14c35.9-12.6,68.8-24.3,97.7-34.6
		C2366.9,612.4,2362.6,605.3,2357.9,603.9z"/>
	<path class="st29" d="M1059.8,1454.9c0,17.3,0.7,29.6,1,34.8c16-0.7,25-2.2,29.7-3.4c-0.2-3.1-1-14.5-1-31.7h-27.1
		C1062.4,1454.6,1061.5,1454.7,1059.8,1454.9z"/>
	<path class="st29" d="M2530.7,809.5c-0.8-1.1-1.6-2.1-2.5-3.2c-32.8-39.4-71.6-49.6-121.4-29.8v0.2c1.3,2.5,8.8,17.7,12.3,33.7
		c36-12.2,65.1-7.1,90.1,14.8c3.3,2.9,6.5,6,9.7,9.5c34.2,37.7,34.1,99.6,34.2,138.6c0,15,0,28.2,0,39c8.5-5.4,13.7-9.6,14.5-12.1
		c0.3-1,0.7-2.6,1-4.5c0-3.7,0-7.4,0-11.2C2568.4,935.5,2568.5,858.2,2530.7,809.5z"/>
	<path class="st11" d="M2568.8,772.7c-2.3,2.9-4.7,6.1-7.4,9.5c-5.5,7-16.2,16.4-30.6,27.3c37.8,48.6,37.7,125.9,37.8,174.9
		c0,3.8,0,7.6,0,11.2C2573.6,968.9,2582,860.9,2568.8,772.7z"/>
	<path class="st29" d="M2220.8,1096.2c-1.6,23.2-1.6,45.6-1,65.1c7.9-2.5,18.9-6.4,32.1-11.4l0,0c0,0-1.8-27.8,1.4-65.9l-31.6,11.9
		L2220.8,1096.2z"/>
	<path class="st12" d="M2491.1,572.7c-0.4,0.2-0.8,0.4-1.3,0.7c-0.2,0.1-0.5,0.2-0.8,0.4c-0.5,0.3-1.1,0.5-1.7,0.8
		c-0.3,0.1-0.5,0.2-0.8,0.4c-0.8,0.4-1.7,0.8-2.7,1.2c-0.5,0.2-1,0.4-1.5,0.7c-0.6,0.2-1.2,0.5-1.8,0.8s-1.2,0.5-1.8,0.8
		s-1.2,0.5-1.9,0.8s-1.3,0.6-2.1,0.9c-0.3,0.1-0.7,0.3-1.1,0.4c-1.5,0.6-3,1.2-4.7,1.9c-0.4,0.2-0.9,0.3-1.3,0.5
		c-1.7,0.7-3.4,1.4-5.3,2.1c-0.5,0.2-1,0.4-1.5,0.6c-2,0.8-4.1,1.6-6.2,2.4c-0.4,0.1-0.7,0.3-1.1,0.4c-2.6,1-5.3,2-8.1,3.1
		c-0.1,0-0.2,0.1-0.3,0.1c-2.6,1-5.4,2-8.2,3.1c-0.8,0.3-1.6,0.6-2.4,0.9c-2.2,0.8-4.4,1.7-6.7,2.5c-1,0.4-2,0.7-3,1.1
		c-2.3,0.8-4.6,1.7-7,2.6c-1,0.4-1.9,0.7-2.9,1.1c-3.3,1.2-6.8,2.5-10.3,3.8c-5.6,2-11.4,4.2-17.4,6.3v27.7c9.3-3.1,17-5.5,22.7-7.3
		c48.4-15,77.6-24.7,94.7-30.7c-9-21.7-11.9-30.8-11.9-30.8c-0.4,0.2-0.8,0.5-1.4,0.8C2491.5,572.5,2491.3,572.6,2491.1,572.7z"/>
	<path class="st22" d="M2292.3,318.9L2292.3,318.9c59,1.8,93.1,4.3,93.1,4.3c-4.1-12.4-296.6-113.9-464.3-130.9
		c-28-2.9-65-5.3-108.2-6.5c70.7,11.7,225.6,43.8,344.2,82.8C2312.3,319.5,2292.3,318.9,2292.3,318.9z"/>
	<path class="st31" d="M2306.1,357.5c41.9,2.5,71,4.9,71,4.9s12.4-26.9,8.3-39.3c0,0-34.1-2.4-93.1-4.3L2306.1,357.5z"/>
	<ellipse class="st32" cx="2456" cy="692.1" rx="45.8" ry="58.9"/>
	<path class="st12" d="M2020.8,740.9c-1.3,0.4-2.6,0.9-3.9,1.3v24.3c0,0.1,0,0.3,0,0.6c1.4-0.5,2.8-0.9,4.1-1.4v-24.2L2020.8,740.9z
		"/>
	<path class="st22" d="M2221.1,1091.8c-0.1,1.5-0.2,3-0.3,4.4l0.9-0.3l31.6-11.9c0.1-1.5,0.3-3.1,0.4-4.6l-0.9,0.4L2221.1,1091.8z"
		/>
	<path d="M1986.9,655.4l0.2,0.5c1.3-0.5,2.6-0.9,3.9-1.4c-0.3-4-2.5-30.4-15.5-133c-10.1-79.6-22.4-128.6-28.8-150.8
		c-1.3,0.3-2.7,0.5-4,0.8c6.3,21.8,18.6,70.7,28.8,150.5C1985.6,634.4,1986.8,655.2,1986.9,655.4z"/>
	<path class="st33" d="M2016.9,741.8v0.4c1.3-0.4,2.6-0.9,3.9-1.3l-29.9-86c0-0.1,0-0.2,0-0.3c-1.3,0.5-2.6,0.9-3.9,1.4
		L2016.9,741.8z"/>
	<path class="st12" d="M2383.4,641.4l0.1,0.4c1.4-0.4,2.7-0.9,4-1.3v-27.7c-1.4,0.5-2.7,1-4.1,1.5V641.4z"/>
	<path class="st33" d="M2387.5,640.5c-1.3,0.4-2.7,0.9-4,1.3l19.4,135.8l0.2,0.5c1.3-0.5,2.6-1.1,3.8-1.6l-19.4-135.4V640.5z"/>
	<path class="st22" d="M2406.8,776.5c-1.3,0.5-2.5,1-3.8,1.6l0.1,0.2c0.1,0.2,8.6,16.7,12.2,33.4c1.3-0.5,2.6-0.9,3.9-1.3
		c-3.5-16-11-31.2-12.3-33.7L2406.8,776.5z"/>
	<path class="st11" d="M1539.5,1302.4l464.2-143.4l13-72.5c-175.5,68.2-409.1,153.7-432.8,166
		C1558.1,1265.8,1544.7,1287.8,1539.5,1302.4z"/>
	<path class="st29" d="M943.5,1458.9c-19.1-0.7-39.7-2-61.3-4.3c-100.9-10.9-257.8-76.1-370.3-130.4
		c-112.4-54.3-111.9-81.4-111.9-81.5c-0.1,6.4-0.1,10.1-0.1,10.1s-25.9,39.9,137.7,116.5s257.8,103,398.5,115.4
		c62.9,5.5,101.3,6.1,124.7,5.1c-0.4-5.2-1.1-17.5-1-34.8C1048.8,1456.2,1004.1,1460.9,943.5,1458.9z"/>
	<path class="st34" d="M2418,522.9c-11.3,15.9-13.1,83.6-13.1,83.6c3.5-1.3,6.9-2.5,10.3-3.8c1-0.4,1.9-0.7,2.9-1.1
		c2.4-0.9,4.7-1.7,7-2.6c1-0.4,2-0.7,3-1.1c2.3-0.9,4.5-1.7,6.7-2.5c0.8-0.3,1.6-0.6,2.4-0.9c2.8-1.1,5.6-2.1,8.2-3.1
		c0.1,0,0.2-0.1,0.3-0.1c2.8-1.1,5.5-2.1,8.1-3.1c0.4-0.1,0.7-0.3,1.1-0.4c2.2-0.8,4.2-1.6,6.2-2.4c0.5-0.2,1-0.4,1.5-0.6
		c1.8-0.7,3.6-1.4,5.3-2.1c0.4-0.2,0.9-0.3,1.3-0.5c1.6-0.7,3.2-1.3,4.7-1.9c0.4-0.1,0.7-0.3,1.1-0.4l-4.8-16.7l-40.2,14.5
		c0,0-2.1-37.3,0-43.5c1.6-4.8,25-33.8,35.9-47.1l-10-6.7C2455.7,480.5,2430.1,505.8,2418,522.9z"/>
	<path class="st16" d="M2474.8,579.9c-0.4,0.1-0.7,0.3-1.1,0.4C2474.1,580.2,2474.5,580.1,2474.8,579.9L2474.8,579.9z"/>
	<path class="st35" d="M2429.9,577.8l40.2-14.5l-24.7-26.9l35.2-39.3l-14.8-9.9c-10.9,13.3-34.3,42.4-35.9,47.1
		C2427.8,540.5,2429.9,577.8,2429.9,577.8z"/>
	<path class="st36" d="M2470.1,563.2l4.8,16.7c0.7-0.3,1.4-0.6,2.1-0.9c0.6-0.3,1.3-0.5,1.9-0.8c0.6-0.3,1.2-0.5,1.8-0.8
		s1.2-0.5,1.8-0.8c0.5-0.2,1-0.4,1.5-0.7c1-0.4,1.9-0.8,2.7-1.2c0.3-0.1,0.5-0.2,0.8-0.4c0.6-0.3,1.2-0.6,1.7-0.8
		c0.3-0.1,0.5-0.3,0.8-0.4c0.5-0.2,0.9-0.5,1.3-0.7c0.2-0.1,0.4-0.2,0.5-0.3c0.5-0.3,1-0.6,1.4-0.8l-1.1-41.4
		C2485.7,535.3,2470.1,563.2,2470.1,563.2z"/>
	<path class="st16" d="M2476.9,579.1c-0.7,0.3-1.4,0.6-2.1,0.9l0,0C2475.6,579.6,2476.2,579.3,2476.9,579.1z"/>
	<path class="st37" d="M2470.1,563.2c0,0,15.6-27.9,21.8-33.1l-11.3-33.1l-35.2,39.3L2470.1,563.2z"/>
	<path class="st38" d="M2020.8,740.9c90.2-30.9,177.2-61,251.5-87.1c1.6-5.2,3.8-10.2,6.9-14c10.6-12.8,69.3-38.4,78.6-35.8
		c4.7,1.4,9,8.5,12.1,15.2c4.5-1.6,9-3.2,13.4-4.8v-2.2l-41.3-88.7c-16.2,14.7-181.6,71.4-351.2,131.2c0,0.1,0,0.2,0,0.3
		L2020.8,740.9z"/>
	<path class="st33" d="M2343.4,521.4L2343.4,521.4c0,0.5-0.5,1.2-1.3,2l41.3,88.7v2.2c1.4-0.5,2.7-1,4.1-1.5v-1.7l-42.2-90.6
		c-0.4-1.2-7.5-10.5-7.5-10.5v0.1C2341.4,515.6,2343.4,519.7,2343.4,521.4L2343.4,521.4z"/>
	<path class="st39" d="M2337.8,510c-22.5-35.5-107.6-137.6-148.4-157.6c-49.7-1.2-99.3-0.9-134.8,2.8c-33.6,3.6-69.9,7.8-108.1,15.6
		c6.4,22.2,18.7,71.2,28.8,150.8c13.1,102.6,15.2,129,15.5,133c169.5-59.9,334.9-116.5,351.2-131.2c0.9-0.8,1.3-1.5,1.3-2l0,0l0,0
		C2343.4,519.7,2341.4,515.6,2337.8,510z M2321.4,517.6c-14.7,13-164.7,62.8-318.5,115.5c-0.3-3.5-2.2-26.7-14.1-117.1
		c-9.2-70.1-20.3-113.2-26.2-132.7c34.6-6.9,67.5-10.6,98-13.8c32.2-3.3,77.2-3.6,122.3-2.5c42.2,20.1,136.6,134.1,139.5,148.1
		c0,0.2,0.1,0.5,0.1,0.7C2322.7,516.7,2321.8,517.3,2321.4,517.6z"/>
	<path class="st29" d="M1476.7,1328.5c-0.2,3.6-0.5,7.1-0.9,10.6c0.1-1.5,0.2-2.3,0.2-2.3s-0.1,0.8-0.2,2.3c0,0.2,0,0.4-0.1,0.7
		c-1.1,10.7-4.7,47.6-6.9,60.8l23.3-5.2c3.8-24.9,6.4-50,7.3-75.5L1476.7,1328.5z"/>
	<path class="st29" d="M1553.1,1339.1c-22.5,10.1-33.1,27.1-38.1,40.7l187.1-67c0,0,431.3-133.3,507.5-153.6
		c-0.2-10.2-1.2-22.2-5-24.5C2197.8,1130.6,1593.4,1321,1553.1,1339.1z"/>
	<path class="st40" d="M2220.8,1096.2l-213.5,66l-4.4,1.4L1538,1307.2l-24.2,7.5l-4,1.2l-10.4,4c-0.9,25.4-3.4,50.6-7.3,75.5
		l20.5-7.9c0.6-2.3,1.4-4.9,2.4-7.6c5-13.6,15.5-30.6,38.1-40.7c40.4-18,644.8-208.5,651.6-204.4c3.8,2.3,4.8,14.3,5,24.5
		c0,0,0,3.4,0,4.9c0.6-0.2,1.3-0.3,1.8-0.4c2.2-0.5,5-1.3,8.4-2.3C2219.2,1141.8,2219.2,1119.5,2220.8,1096.2z"/>
	<path class="st39" d="M1609.5,205.1c-131.5,13-224.8,34.4-282,51.4c52.8,16.9,137.4,42.9,227.6,66.7c149.1,39.3,183,48.5,183,48.5
		s98.5-40.3,181.3-54.8c82.8-14.5,101.6-12,101.6-12S1787,241.4,1609.5,205.1z M1945.4,302c-14.2,2-36.6,5.5-70.1,11.3
		c-54.9,9.6-112.2,31.2-134.6,40.2c-6.6,2.6-13.8,3.2-20.7,1.7c-20.1-4.5-69.9-16.2-162.3-40.6c-69.7-18.4-135.4-38.3-180.5-52.6
		c-3.9-1.2-3.7-6.7,0.2-7.8c49.1-13.7,124-29.7,225.9-39.8c0.4,0,0.8,0,1.2,0.1c122.1,25.1,284.3,65.2,341.3,79.6
		C1950.1,295.1,1949.8,301.3,1945.4,302z"/>
	<path class="st41" d="M1949.7,294c-50.1-12.6-181.4-45.1-295.4-69.8c-63.5,5.4-172.6,24.1-201.4,34c-14.5,4.9-17.1,13-14.8,21.4
		c36.7,11.1,79.3,23.3,123.4,35c92.4,24.4,142.2,36,162.3,40.6c6.9,1.6,14.1,1,20.7-1.7c22.4-9,79.6-30.6,134.6-40.2
		c33.6-5.9,55.9-9.3,70.1-11.3C1953.7,301.3,1954,295.1,1949.7,294z"/>
	<path class="st42" d="M1452.9,258.2c28.9-9.8,137.9-28.6,201.4-34c-15.7-3.4-31.2-6.7-46-9.7c-0.4-0.1-0.8-0.1-1.2-0.1
		c-101.9,10.1-176.8,26.2-225.9,39.8c-3.9,1.1-4,6.5-0.2,7.8c16.5,5.2,35.8,11.2,57.1,17.6C1435.8,271.2,1438.4,263.1,1452.9,258.2z
		"/>
	<path class="st38" d="M2443.6,460.5c-29.9,27.6-87.4,54.9-98.3,60l42.2,90.6v1.7c6-2.2,11.8-4.3,17.4-6.3c0,0,1.8-67.7,13.1-83.6
		c12.1-17.1,37.8-42.4,37.8-42.4S2450.8,472.3,2443.6,460.5z"/>
	<path class="st25" d="M2383.3,366.6c-6.2-4.1-6.2-4.1-6.2-4.1s-29.1-2.4-71-4.9l0,0l0,0c-33.5-2-75.1-4.1-116.7-5.1
		c40.8,20,125.8,122.1,148.4,157.6V510c0,0,7.1,9.4,7.5,10.5l0,0c10.9-5.1,68.4-32.4,98.3-60
		C2424.2,428.6,2387.8,369.6,2383.3,366.6z"/>
	<path class="st2" d="M2456,633.2c-25.3,0-45.8,26.4-45.8,58.9c0,25.7,12.8,47.5,30.7,55.6c20.6-9.2,38.8-17.6,54.3-25.1
		c4.2-8.9,6.7-19.3,6.7-30.5C2501.8,659.5,2481.3,633.2,2456,633.2z"/>
	<path class="st12" d="M2456,751c16.6,0,31.1-11.4,39.1-28.4c-15.4,7.5-33.7,15.9-54.3,25.1C2445.6,749.7,2450.7,751,2456,751z"/>
	<path class="st12" d="M2003.6,1022.7c2,51.2,13.8,62.7,13.9,62.8l0.8,0.7c85.2-33.1,155.9-61.9,181.2-75.9
		c10.6-5.8,24.3-13.5,40.2-22.4c28.3-88.3,66.4-153.8,128.3-191.6c11.2-6.9,22-12.4,32.3-16.8l-0.2-0.5l-1.8-12.5
		C2292.8,812.1,2146.2,871,2007,925.1C2004.5,966.1,2002.8,1003.9,2003.6,1022.7z"/>
	<path class="st43" d="M2373.3,645.2c-26.4,8.8-62.2,21-104.6,35.5c-69.3,23.7-156,53.6-247.7,85v1c-0.1,1.4-6.9,84-11.2,157
		c139.2-54.2,285.8-113,391.3-158.6l-17.6-123.3C2380.2,642.9,2376.8,644,2373.3,645.2z"/>
	<path class="st12" d="M2495.1,722.6c-8,17-22.5,28.4-39.1,28.4c-5.3,0-10.4-1.2-15.1-3.4c-11.3,5-23.3,10.3-35.9,15.8l1.9,13.1
		c49.8-19.8,88.6-9.5,121.4,29.8c0.9,1,1.7,2.1,2.5,3.2c14.4-10.9,25.1-20.3,30.6-27.3c2.7-3.4,5.1-6.6,7.4-9.5
		c-4.5-29.9-11.5-57.6-21.9-79C2539.2,700,2521.2,710,2495.1,722.6z"/>
	<path class="st43" d="M2410.2,692.1c0-32.5,20.5-58.9,45.8-58.9s45.8,26.4,45.8,58.9c0,11.2-2.5,21.6-6.7,30.5
		c26-12.6,44.1-22.5,51.7-28.8c-20.6-42.2-33.8-71.8-41.9-91.3c-17.1,6-46.3,15.8-94.7,30.7c-5.8,1.8-13.4,4.3-22.7,7.3v0.7
		l17.5,122.3c12.6-5.5,24.6-10.7,35.9-15.8C2423,739.6,2410.2,717.8,2410.2,692.1z"/>
	<path class="st2" d="M1451.4,1106.3c0.7,0.8,1.3,1.7,2,2.5C1452.7,1107.9,1452,1107.1,1451.4,1106.3z"/>
	<path class="st2" d="M1444.4,1098.3c0.8,0.9,1.6,1.7,2.5,2.7C1446,1100,1445.2,1099.1,1444.4,1098.3z"/>
	<path class="st2" d="M1502,940.7L1502,940.7L1502,940.7z"/>
	<path class="st2" d="M1457.7,1114.8c0.9,1.3,1.8,2.7,2.8,4.1C1459.5,1117.5,1458.6,1116.1,1457.7,1114.8z"/>
	<path class="st2" d="M1487.5,1186.9c0.6,2.6,1.2,5.3,1.8,8.1C1488.8,1192.2,1488.2,1189.5,1487.5,1186.9z"/>
	<path class="st2" d="M1440.2,1094.1c1.1,1.1,2.2,2.1,3.3,3.3C1442.4,1096.2,1441.3,1095.1,1440.2,1094.1z"/>
	<path class="st2" d="M1426.3,1082.7c0.7,0.5,1.4,1,2.2,1.5C1427.7,1083.7,1427,1083.2,1426.3,1082.7z"/>
	<path class="st2" d="M1429.9,1085.3c0.7,0.5,1.4,1,2,1.6C1431.3,1086.3,1430.6,1085.8,1429.9,1085.3z"/>
	<path class="st2" d="M1433.4,1088c0.7,0.6,1.4,1.1,2,1.7C1434.8,1089.2,1434.1,1088.6,1433.4,1088z"/>
	<path class="st2" d="M1436.8,1091c0.8,0.7,1.5,1.4,2.3,2.1C1438.3,1092.3,1437.6,1091.6,1436.8,1091z"/>
	<path class="st2" d="M1485.6,1179.1c0.4,1.7,0.9,3.5,1.3,5.3C1486.5,1182.6,1486.1,1180.9,1485.6,1179.1z"/>
	<path class="st2" d="M1478.7,1156.7c0.6,1.7,1.2,3.4,1.8,5.1C1479.9,1160.1,1479.3,1158.4,1478.7,1156.7z"/>
	<path class="st2" d="M1475.7,1148.8c0.8,2.1,1.7,4.2,2.4,6.3C1477.4,1153,1476.6,1150.9,1475.7,1148.8z"/>
	<path class="st2" d="M1460.7,1119.3c1,1.6,2,3.2,2.9,4.8C1462.7,1122.5,1461.7,1120.9,1460.7,1119.3z"/>
	<path class="st2" d="M1483.6,1171.6c0.4,1.5,0.9,3.1,1.3,4.7C1484.4,1174.7,1484,1173.2,1483.6,1171.6z"/>
	<path class="st2" d="M1421.7,1079.6c1.1,0.7,2.2,1.4,3.3,2.2C1423.9,1081,1422.8,1080.3,1421.7,1079.6z"/>
	<path class="st2" d="M1481.3,1164.3c0.5,1.5,1,3,1.4,4.6C1482.3,1167.3,1481.8,1165.8,1481.3,1164.3z"/>
	<path class="st2" d="M1464.6,1125.8c0.7,1.2,1.3,2.3,2,3.5C1465.9,1128.1,1465.3,1127,1464.6,1125.8z"/>
	<path class="st2" d="M1473.2,1142.7c0.6,1.5,1.3,3,1.9,4.5C1474.4,1145.7,1473.8,1144.2,1473.2,1142.7z"/>
	<path class="st2" d="M1467.6,1131.3c0.6,1.1,1.2,2.3,1.8,3.4C1468.8,1133.6,1468.2,1132.5,1467.6,1131.3z"/>
	<path class="st2" d="M1470.5,1136.9c0.6,1.2,1.2,2.4,1.7,3.7C1471.6,1139.4,1471.1,1138.1,1470.5,1136.9z"/>
	<path class="st2" d="M1448,1102.3c0.7,0.8,1.4,1.6,2.1,2.4C1449.4,1103.9,1448.7,1103.1,1448,1102.3z"/>
	<path class="st2" d="M1513.1,1091.5c0-0.2,0-0.5,0-0.7C1513.1,1091,1513.1,1091.2,1513.1,1091.5z"/>
	<path class="st2" d="M1500.7,974.3c2.3,28,5.4,67.6,7.3,100.6C1506.1,1041.9,1503,1002.3,1500.7,974.3z"/>
	<path class="st2" d="M1498.3,945.8c0.1,0.6,0.1,1.3,0.2,2C1498.5,947.1,1498.4,946.4,1498.3,945.8z"/>
	<path class="st2" d="M1499.1,954.3c0.5,5.6,1,12.3,1.7,20C1500.1,966.6,1499.5,959.8,1499.1,954.3z"/>
	<path class="st2" d="M1513.4,1097.5c0-0.6-0.1-1.2-0.1-1.8C1513.3,1096.4,1513.3,1097,1513.4,1097.5z"/>
	<path class="st2" d="M1498.5,948.1c0.2,1.8,0.3,3.7,0.5,5.9C1498.9,951.8,1498.7,949.9,1498.5,948.1z"/>
	<path class="st2" d="M1497.8,939.2c0.1,0.7,0.2,2.1,0.4,4C1498,941.3,1497.8,939.9,1497.8,939.2z"/>
	<path class="st2" d="M1539.5,1302.4l464.2-143.4l13-72.5c-175.5,68.2-409.1,153.7-432.8,166
		C1558.1,1265.8,1544.7,1287.8,1539.5,1302.4z"/>
	<path class="st2" d="M1502.8,950.2L1502.8,950.2C1502.8,950.2,1502.8,950.2,1502.8,950.2z"/>
	<path class="st2" d="M1498.1,943.4c0,0.5,0.1,1.1,0.1,1.7C1498.2,944.4,1498.2,943.9,1498.1,943.4z"/>
	<path class="st2" d="M1411.2,1073.7c0.6,0.3,1.3,0.6,1.9,1C1412.4,1074.4,1411.8,1074.1,1411.2,1073.7z"/>
	<path class="st2" d="M1407.7,1072.1c0.6,0.3,1.3,0.6,1.9,0.9C1409,1072.7,1408.3,1072.4,1407.7,1072.1z"/>
	<path class="st2" d="M1508.1,1074.9c0.1,1.8,0.2,3.6,0.3,5.3C1508.3,1078.5,1508.2,1076.7,1508.1,1074.9z"/>
	<path class="st2" d="M1513.7,1105.6c-0.1-1.6-0.1-3.2-0.2-4.9C1513.6,1102.4,1513.7,1104,1513.7,1105.6z"/>
	<path class="st2" d="M1418.1,1077.5c0.8,0.5,1.7,1,2.5,1.5C1419.8,1078.4,1419,1077.9,1418.1,1077.5z"/>
	<path class="st2" d="M1414.7,1075.5c0.7,0.4,1.3,0.7,2,1.1C1416,1076.2,1415.3,1075.9,1414.7,1075.5z"/>
	<path class="st2" d="M1404.1,1070.5c0.7,0.3,1.4,0.6,2.1,0.9C1405.4,1071.1,1404.7,1070.8,1404.1,1070.5z"/>
	<path class="st2" d="M1509.3,1097.5c0.1,1.2,0.1,2.3,0.2,3.5C1509.4,1099.8,1509.3,1098.6,1509.3,1097.5z"/>
	<path class="st2" d="M1508.4,1080.5c0.1,1.7,0.2,3.5,0.3,5.1C1508.6,1084,1508.5,1082.2,1508.4,1080.5z"/>
	<path class="st2" d="M1508.7,1085.7c0.1,1.8,0.2,3.5,0.3,5.2C1508.9,1089.2,1508.8,1087.5,1508.7,1085.7z"/>
	<path class="st2" d="M1509,1091.4c0.1,1.6,0.2,3.1,0.2,4.6C1509.1,1094.5,1509.1,1093,1509,1091.4z"/>
	<path class="st2" d="M1454.6,1110.4c0.7,0.9,1.4,1.9,2.1,2.8C1455.9,1112.3,1455.3,1111.3,1454.6,1110.4z"/>
	<path class="st2" d="M1738.2,371.7c0,0,98.5-40.3,181.3-54.8s101.6-12,101.6-12S1787,241.4,1609.5,205
		c-131.5,13-224.8,34.4-282,51.4c52.8,16.9,137.4,42.9,227.6,66.7C1704.2,362.5,1738.2,371.7,1738.2,371.7z"/>
	<path class="st12" d="M1485.1,922.9c-7.1,2.4-14,4.7-20.5,6.9c-262.4,88.6-333.1,151.9-333.1,151.9s129.7-72.9,355.6-139.6
		c3.4-1,6.9-2.1,10.5-3.1L1485.1,922.9L1485.1,922.9z"/>
	<path class="st16" d="M1293,802c0.2,0.4,0.4,0.9,0.5,1.4c4.9-1.8,9.5-3.6,14-5.5C1303,799.2,1298.2,800.5,1293,802z"/>
	<path class="st38" d="M1489.2,846v0.8v74.7l0,0c97.7-33,245.2-82.9,397.2-134.7c1.6-8.6,4.4-18.1,9.5-24.4
		c11.3-14.1,73.8-42.4,83.7-39.5c7.5,2.2,14,18.6,16.7,26.3c6.9-2.4,13.7-4.7,20.6-7.1v-0.4l-29.9-85.9c-26.8,9.5-53.6,19-79.9,28.4
		C1774.9,731.8,1602.1,800.9,1489.2,846z"/>
	<path class="st39" d="M1374.5,890.9c10.1-3.2,51.9-19.8,110.6-43.3v-0.8l1.5-153.4c-66.2,72-118.2,134.7-126,150l0,0
		C1345,873.8,1345,900.2,1374.5,890.9z M1382,835.6L1382,835.6c5.7-10.9,43.4-55.4,91.4-106.5l-1.1,109v0.6
		c-42.6,16.7-72.9,28.5-80.2,30.7C1370.7,876,1370.7,857.2,1382,835.6z"/>
	<path class="st12" d="M1501.7,937.6v0.2c92.2-27.8,236.6-75.9,384-125.9l-1.4-5.6c0,0,0.1-9,2.1-19.4
		c-152,51.9-299.4,101.7-397.2,134.7L1501.7,937.6z"/>
	<path class="st39" d="M1490.7,688.9l-1.5,157.1c112.9-45.1,285.7-114.2,417.9-161.6c26.3-9.5,53.2-19,79.9-28.4l-0.2-0.5
		c0-0.2-1.2-21-15.5-133.3c-10.2-79.8-22.5-128.7-28.8-150.5c-77.1,16.2-161.5,47.3-246.6,117.1
		C1633.1,540.2,1555.5,618.6,1490.7,688.9z M1933.5,392.5c5.9,20.2,17.8,57.8,27.3,131.7c13.3,104.1,10.4,123.4,10.4,123.6l-8,4.6
		c-24.9,8.8-37.6,13.5-62.2,22.3c-123.1,44-290.9,108.7-396,150.5V701.5c60.4-65.2,138.7-150.6,197.2-198.3
		C1781.4,438.5,1861.7,407.5,1933.5,392.5z"/>
	<path class="st33" d="M1485.1,922.9c1.4-0.5,2.7-0.9,4.1-1.4l0,0v-74.7V846c-1.4,0.5-2.8,1.1-4.1,1.6V922.9z"/>
	<path class="st44" d="M1489.2,921.6c-1.4,0.5-2.7,0.9-4.1,1.4l0,0l12.6,16.1c1.3-0.4,2.7-0.8,4.1-1.2v-0.2L1489.2,921.6z"/>
	<path d="M1485.1,847.6c1.4-0.5,2.7-1.1,4.1-1.6l1.5-157.1c-1.4,1.5-2.8,3-4.1,4.5l-1.5,153.4V847.6z"/>
	<path class="st45" d="M1771.1,389.5c-36,16.2-75.7,43.8-115.5,76.6c-118,97.4-237.7,241.7-270.2,275.7
		c-25.2,26.4-46.9,42.8-77.9,56c-4.5,1.9-9.1,3.7-14,5.5c7.6,20.4-0.3,62.5-0.3,62.5c25.6-8.5,48.5-16.2,67.3-22.5l0,0
		c7.8-15.3,59.8-78,126-150c1.4-1.5,2.8-3,4.1-4.5c64.8-70.3,142.4-148.6,205.3-200.1c85.1-69.7,169.6-100.9,246.6-117.1
		c1.3-0.3,2.7-0.5,4-0.8c38.1-7.8,74.4-12.1,108.1-15.6c35.5-3.8,85.1-4.1,134.8-2.8c41.6,1,83.2,3.1,116.7,5.1l-13.9-38.7
		c-35.3-1.1-79.4-2-130.5-2C2025.1,316.9,1914,325.3,1771.1,389.5z"/>
	<path class="st25" d="M1655.6,466.1c39.8-32.9,79.5-60.5,115.5-76.6c142.9-64.2,254-72.6,390.6-72.6c51.1,0,95.2,0.9,130.5,2l0,0
		c0,0,20,0.7-135.2-50.4c-118.6-39-273.5-71.1-344.2-82.8c-71.7-1.9-160.4-0.2-253.5,9.6c-86.5,9.1-176.8,25.2-260.7,51.8
		c-9.8,3.1-19.6,6.4-29.3,9.8c-36.4,12.9-73.9,30.7-111.2,51.6c23.4,19.6,77.9,52.3,202.2,85.5
		C1504.4,432.5,1609.3,456.2,1655.6,466.1z M1609.5,205.1c177.4,36.4,411.6,99.9,411.6,99.9s-18.7-2.5-101.6,12
		c-82.8,14.5-181.3,54.8-181.3,54.8s-34-9.2-183-48.5c-90.1-23.8-174.7-49.8-227.6-66.7C1384.8,239.4,1478.1,218.1,1609.5,205.1z"/>
	<path class="st29" d="M1489.3,1195c-0.6-2.8-1.2-5.4-1.8-8.1c-0.2-0.9-0.4-1.7-0.6-2.5c-0.4-1.8-0.9-3.5-1.3-5.3
		c-0.2-0.9-0.5-1.9-0.8-2.8c-0.4-1.6-0.9-3.2-1.3-4.7c-0.3-0.9-0.5-1.8-0.8-2.7c-0.5-1.6-0.9-3.1-1.4-4.6c-0.3-0.8-0.5-1.6-0.8-2.5
		c-0.6-1.7-1.2-3.4-1.8-5.1c-0.2-0.5-0.4-1-0.6-1.6c-0.8-2.2-1.6-4.3-2.4-6.3c-0.2-0.5-0.4-1.1-0.7-1.6c-0.6-1.5-1.3-3-1.9-4.5
		c-0.3-0.7-0.6-1.4-1-2.1c-0.6-1.2-1.1-2.5-1.7-3.7c-0.3-0.7-0.7-1.4-1.1-2.2c-0.6-1.2-1.2-2.3-1.8-3.4c-0.4-0.7-0.7-1.3-1.1-2
		c-0.6-1.2-1.3-2.4-2-3.5c-0.3-0.5-0.6-1.1-0.9-1.6c-1-1.6-2-3.3-2.9-4.8c-0.1-0.2-0.2-0.3-0.3-0.4c-0.9-1.4-1.8-2.8-2.8-4.1
		c-0.4-0.5-0.7-1-1.1-1.5c-0.7-1-1.4-1.9-2.1-2.8c-0.4-0.6-0.8-1.1-1.2-1.6c-0.7-0.9-1.3-1.7-2-2.5c-0.4-0.5-0.9-1.1-1.3-1.6
		c-0.7-0.8-1.4-1.6-2.1-2.4c-0.4-0.5-0.8-0.9-1.2-1.4c-0.8-0.9-1.6-1.8-2.5-2.7c-0.3-0.3-0.6-0.6-0.8-0.9c-1.1-1.1-2.2-2.2-3.3-3.3
		c-0.4-0.3-0.7-0.7-1.1-1c-0.8-0.7-1.5-1.4-2.3-2.1c-0.5-0.4-0.9-0.8-1.4-1.2c-0.7-0.6-1.4-1.2-2-1.7c-0.5-0.4-1-0.8-1.5-1.2
		c-0.7-0.5-1.4-1.1-2-1.6c-0.5-0.4-1-0.7-1.4-1.1c-0.7-0.5-1.4-1-2.2-1.5c-0.4-0.3-0.9-0.6-1.3-0.9c-1.1-0.7-2.2-1.5-3.3-2.2
		c-0.4-0.2-0.7-0.4-1.1-0.6c-0.8-0.5-1.7-1-2.5-1.5c-0.5-0.3-1-0.6-1.5-0.8c-0.7-0.4-1.3-0.7-2-1.1c-0.5-0.3-1.1-0.6-1.6-0.8
		c-0.6-0.3-1.3-0.6-1.9-1c-0.5-0.3-1.1-0.5-1.6-0.8c-0.6-0.3-1.3-0.6-1.9-0.9c-0.5-0.2-1-0.5-1.6-0.7c-0.7-0.3-1.4-0.6-2.1-0.9
		c-0.5-0.2-0.9-0.4-1.4-0.6c-11.2-3.1-17.7-5.5-17.7-5.5c-53.2-12.4-103.3-17.8-198.1,56.9l1.3,0.9l16.4,27.3
		c81.4-64.8,125.1-59.9,171.3-48.8c32.3,7.7,74.8,32.4,91.8,117.8c8.6,43.2,10.9,79.5,9,110l22.7-8.7
		C1500.8,1278.9,1498,1237.2,1489.3,1195z"/>
	<path class="st46" d="M2220.4,1092.1l-212.3,65.6l12.9-71.7l0.2-1.1l-0.1-0.1c-1.4,0.6-2.9,1.1-4.4,1.7l-13,72.5l-464.2,143.4
		l-1.5,4.7l0,0l464.9-143.6l4.4-1.4l213.5-66c0.1-1.5,0.2-3,0.3-4.4L2220.4,1092.1z"/>
	<path class="st38" d="M1485.1,922.9v-75.3c-58.7,23.5-100.5,40.1-110.6,43.3c-29.5,9.3-29.5-17.1-14-47.5
		c-18.8,6.3-41.8,14-67.3,22.5c0,0-131.4,119.7-207.5,152.3c-9.5,4.1-18.3,8-26.8,11.7l72.6,51.8c0,0,70.7-63.3,333.1-151.9
		C1471.1,927.7,1478,925.3,1485.1,922.9z"/>
	<path class="st33" d="M1186.4,1121.7c0.1-0.1,0.3-0.2,0.4-0.3l-55.4-39.5c0,0-62.9,62.2-115.7,80.9
		c-52.8,18.6-108.8,22.2-116.5,20.4c99.7,22.1,91.9,42.7,93.2,116.2c1.5,83.4-22.1,124.5-46.4,136.5c-0.8,9.6-1.8,17.5-2.6,23.1
		c60.5,2.1,105.3-2.7,116.2-4C1059.8,1379.8,1073.4,1210.9,1186.4,1121.7z"/>
	<path class="st16" d="M899.3,1183.1L899.3,1183.1L899.3,1183.1z"/>
	<path class="st29" d="M1186.9,1121.3c-0.1,0.1-0.3,0.2-0.4,0.3c-113.1,89.2-126.6,258.2-126.7,333.2c1.7-0.2,2.6-0.3,2.6-0.3h27.1
		c-0.1-67.1,11.3-221.1,111.5-302.2c1.2-1,2.3-1.9,3.5-2.8l-16.4-27.3L1186.9,1121.3z"/>
	<path class="st25" d="M724.9,695.8c10.4,24.8,50,56.1,166,94c140.4,45.8,239.8,55.1,328.8,34.4c30.1-7,53.8-13.5,73.7-20.7
		c-0.2-0.5-0.3-0.9-0.5-1.4c-67.6,19.3-125,18-176.7,15.9c-51.8-2.1-228.8-43.5-289.8-72.5c-34.9-16.6-62.1-33.1-74.5-66.3
		c-12.4-33.1,8.3-53.8,8.3-53.8l-20.7-2.1C739.4,623.3,714.6,670.9,724.9,695.8z"/>
	<path class="st30" d="M435.1,1036.9c23.3,10.9,83.8,57.5,195.6,94.7c111.8,37.3,201.9,59,245.3,88.5
		c43.5,29.5,60.6,88.5,68.3,144.4c3.8,27.1,3.3,52.4,1.8,71.3c24.2-12,47.9-53.1,46.4-136.5c-1.3-73.5,6.5-94.1-93.2-116.2l0,0l0,0
		c-16.1-3.6-35.1-7.2-57.4-11.1c-159.9-27.9-301.2-91.6-375.8-139.7c-38.3-24.7-50.7-49.8-53.8-68.4c-9.2,26.7-13.8,55.2-12.7,77.8
		c1,19.4,1.2,60.6,1,101.5C408.6,1091.7,421,1030.3,435.1,1036.9z M911.8,1204.6c4.7-1.6,12.4,0,12.4,0s21.3,3.1,36.3,29.5
		s13.4,159.9,8.8,146c-4.7-14-7.1-74.5-21.4-113.4C933.5,1227.9,907.1,1206.1,911.8,1204.6z"/>
	<path class="st47" d="M571.8,859.4c26.8,28.9,325.8,121.2,375.5,124.6c49.7,3.4,186-37.9,213.6-58.7c86.7-62.5,132.6-122,132.6-122
		c-19.9,7.3-43.6,13.7-73.7,20.7c-89,20.7-188.4,11.4-328.8-34.4c-116-37.9-155.7-69.1-166-94c-10.4-24.8,14.5-72.5,14.5-72.5
		S639.3,694,571.9,750.7C571.8,751,545,830.6,571.8,859.4z"/>
	<path class="st12" d="M532.9,934.9c24.9,39.6,278.1,132.1,349.5,116.4c116.4-25.5,210.1-76.7,278.4-126
		c-27.5,20.8-163.9,62.1-213.6,58.7s-348.6-95.8-375.5-124.6s0-108.5,0-108.5S492.5,870.7,532.9,934.9z"/>
	<path class="st48" d="M944.4,1364.5c-7.8-55.9-24.8-114.9-68.3-144.4s-133.5-51.2-245.3-88.5s-172.4-83.8-195.6-94.7
		c-14.1-6.6-26.5,54.8-34.4,106.2c-0.1,40.8-0.5,81.3-0.7,99.6l0,0c0,0.1-0.5,27.2,111.9,81.5c112.6,54.3,269.4,119.6,370.3,130.4
		c21.6,2.3,42.2,3.7,61.3,4.3c0.9-5.6,1.9-13.5,2.6-23.1C947.7,1416.9,948.2,1391.6,944.4,1364.5z M924.6,1422
		c-0.7,8.5-1.4,21.4-2.2,26.4c-16.9-0.6-38.4-4.2-57.5-6.3c-89.3-9.6-228.1-67.3-327.7-115.4c-99.5-48-100.6-55-114.6-66.2
		l-15.5-17.8c0.2-16.2,0.5-55,0.6-91.1c7-45.5,17.9-99.8,30.4-94c20.6,9.6,105.2,65.8,204.2,98.8c98.9,33,178.6,52.2,217.1,78.3
		c38.5,26.1,53.6,78.3,60.5,127.8C923.2,1386.4,925.9,1405.3,924.6,1422z"/>
	<path class="st49" d="M969.2,1380c4.7,14,6.2-119.6-8.8-146s-36.3-29.5-36.3-29.5s-7.8-1.6-12.4,0s21.7,23.3,36.1,62.1
		C962.2,1305.5,964.6,1366.1,969.2,1380z"/>
	<path class="st39" d="M751.9,679.2c12.4,33.1,39.6,49.7,74.5,66.3c61.1,29,238.1,70.4,289.8,72.5c51.8,2.1,109.1,3.4,176.7-15.9
		c5.2-1.5,10-2.9,14.5-4.1c31.1-13.2,52.8-29.7,77.9-56c32.5-34.1,152.2-178.3,270.2-275.7c-46.3-10-151.2-33.6-295.1-72.1
		c-124.3-33.3-178.9-65.9-202.2-85.5c-5.1,2.9-10.2,5.8-15.3,8.8c30.2,21.6,95.8,59.2,198.5,86.3c137.2,36.2,237.3,58.4,281.4,67.8
		c-112.6,91.7-226.7,227.3-257.7,259.4c-24,24.8-44.7,40.3-74.3,52.7c-4.3,1.2-8.8,2.5-13.8,3.9c-64.5,18.1-119.2,16.9-168.6,15
		s-218.2-40.9-276.5-68.2c-33.3-15.6-59.2-31.2-71.1-62.3c-6.4-16.8-2.7-35.6,2.1-49.4c-1.9,1.9-2.8,2.9-2.8,2.9
		S739.4,646.1,751.9,679.2z"/>
	<path class="st43" d="M1293.5,803.4c0,0-46,59.4-132.6,122c-68.4,49.3-162,100.5-278.4,126C811.1,1067,557.9,974.6,533,935
		c-40.4-64.2,38.9-184,38.9-184s-46,61.9-59.9,110c-2.4,8.5-3.9,16.6-3.9,23.8c0,14.9-3.7,39.4,9.7,61.9
		c6.1,10.2,15.6,19.9,30.7,28.2c48.1,26.4,184.8,80.7,212.7,82.3c0,0,69.9,23.3,139.7,20.2c61.2-2.7,98.6-20.9,158-47.3
		c8.4-3.7,17.3-7.7,26.8-11.7c76.1-32.6,207.5-152.3,207.5-152.3C1293.2,865.9,1301.1,823.8,1293.5,803.4z"/>
	<path class="st2" d="M947.3,1093.9c-10.4,0-20.5,0.6-29.9,1.7c-38.9,4.6-67,18-67,33.8s28.1,29.2,67,33.8
		c9.4,1.1,19.5,1.7,29.9,1.7c53.5,0,96.9-15.9,96.9-35.5S1000.8,1093.9,947.3,1093.9z"/>
	<path class="st38" d="M571.8,751c-10.7,9-20.6,17.6-29.1,25.6c-42.5,39.7-49.7,48.5-59.5,62.7c12.4-4.2,28.1-6.2,39.7-7.1
		C541.8,791.3,571.8,751,571.8,751z"/>
	<path class="st12" d="M1058.9,1029.9c-59.4,26.4-96.8,44.6-158,47.3c-69.9,3.1-139.7-20.2-139.7-20.2
		c-27.9-1.6-164.6-55.9-212.7-82.3c-15-8.2-24.6-18-30.7-28.2c-13.4-22.4-9.7-46.9-9.7-61.9c0-7.2,1.5-15.3,3.9-23.8
		c2.7-9.3,6.5-19,11-28.7c-11.6,0.9-27.2,2.9-39.7,7.1c-4.5,6.6-9.5,14.2-18.7,26.6c-4,5.3-9.2,13.5-14.9,23
		c14.3-3.9,23.8,3.2,34.9,22.2c6.3,10.7,9.7,20.9,11.1,30.1c4.4,12.1,1.7,23.1-4,30.6c-3.2,6.2-7.8,10.6-12.9,12.5
		c-16.1,6-49.6-5.5-52.7-46.1c-0.1-1.7-0.2-3.4-0.3-5.1c-5.7,11.5-10.5,22.4-13.4,30.8c3.1,18.6,15.5,43.7,53.8,68.4
		C540.7,1080.3,682,1144,842,1171.9c22.3,3.9,41.3,7.5,57.4,11.1l0,0c7.7,1.8,63.7-1.8,116.5-20.4c52.8-18.6,115.7-80.9,115.7-80.9
		L1058.9,1029.9z M947.3,1165c-10.4,0-20.5-0.6-29.9-1.7c-38.9-4.6-67-18-67-33.8s28.1-29.2,67-33.8c9.4-1.1,19.5-1.7,29.9-1.7
		c53.5,0,96.9,15.9,96.9,35.5S1000.8,1165,947.3,1165z"/>
	<path class="st50" d="M974.2,1129.4c0-9.4,15.1-17.1,33.7-17.1c18.6,0,33.7,7.6,33.7,17.1c0,9.4-15.1,17.1-33.7,17.1
		C989.3,1146.5,974.2,1138.8,974.2,1129.4c0,17.3-24.8,31.6-56.8,33.8c9.4,1.1,19.5,1.7,29.9,1.7c53.5,0,96.9-15.9,96.9-35.5
		s-43.4-35.5-96.9-35.5c-10.4,0-20.5,0.6-29.9,1.7C949.4,1097.8,974.2,1112.1,974.2,1129.4z"/>
	<path class="st16" d="M917.4,1163.2c32-2.2,56.8-16.4,56.8-33.8c0-17.3-24.8-31.6-56.8-33.8c-38.9,4.6-67,18-67,33.8
		C850.4,1145.2,878.5,1158.6,917.4,1163.2z"/>
	<path class="st51" d="M1007.9,1146.5c18.6,0,33.7-7.6,33.7-17.1c0-9.4-15.1-17.1-33.7-17.1c-18.6,0-33.7,7.6-33.7,17.1
		C974.2,1138.8,989.3,1146.5,1007.9,1146.5z"/>
	<path class="st16" d="M491.7,971.7c5.7-7.5,8.4-18.5,4-30.6C497.5,953.4,495.7,964,491.7,971.7z"/>
	<path class="st50" d="M467.9,902.9c1.8,7.1-0.3,12.5-3.8,16c11.6-3.1,18.9,1,26.5,12.4c2.2,3.3,3.8,6.6,5,9.8
		c-1.4-9.2-4.8-19.3-11.1-30.1c-11.1-19-20.6-26.1-34.9-22.2c-1.3,2.2-2.7,4.5-4,6.9c2.6-1.9,5.8-3,9.5-3
		C462.9,892.8,466.1,895.8,467.9,902.9z"/>
	<path class="st50" d="M478.7,984.2c5.1-1.9,9.7-6.2,12.9-12.5c-3.1,4.1-7.1,7.2-11.4,8.7c-14,5.2-41.3,0.1-40.9-26.8
		c0.2-13.1,5-24.2,14.7-30.5h-0.1c-6.5,0-16.2-4.9-16.1-13.7c-4.2,7.7-8.4,15.7-12.2,23.4c0,1.7,0.1,3.4,0.3,5.1
		C429.1,978.7,462.6,990.1,478.7,984.2z"/>
	<path class="st16" d="M464.2,918.9c-2.8,2.8-6.6,4.3-10,4.3c-9.8,6.3-14.5,17.4-14.7,30.5c-0.4,26.8,26.9,31.9,40.9,26.8
		c4.2-1.6,8.3-4.6,11.4-8.7c4-7.7,5.9-18.3,4-30.6c-1.2-3.2-2.8-6.5-5-9.8C483,919.9,475.7,915.8,464.2,918.9z"/>
	<path class="st51" d="M454,923.2L454,923.2c2-1.2,4-2.3,6.2-3.1c1.4-0.5,2.7-0.9,3.9-1.2c3.5-3.5,5.6-8.9,3.8-16s-5-10.1-12.7-10.2
		c-3.7,0-6.9,1.1-9.5,3c-2.6,4.4-5.2,9.1-7.8,13.8C437.8,918.3,447.5,923.2,454,923.2z"/>
	<path class="st50" d="M460.2,920.1c-2.2,0.8-4.2,1.9-6.1,3.1c3.4,0,7.2-1.5,10-4.3C462.9,919.2,461.6,919.6,460.2,920.1z"/>
	<path class="st2" d="M1389,1065.5c0.4,0.1,0.8,0.2,1.2,0.3C1389.7,1065.7,1389.3,1065.6,1389,1065.5z"/>
	<path class="st2" d="M1397.4,1068c0.4,0.1,0.7,0.2,1.1,0.4C1398.1,1068.3,1397.8,1068.2,1397.4,1068z"/>
	<path class="st2" d="M1393.1,1066.6c0.4,0.1,0.9,0.3,1.3,0.4C1393.9,1066.9,1393.5,1066.8,1393.1,1066.6z"/>
	<path class="st16" d="M1397.4,1068c-1-0.4-2-0.7-3.1-1c-0.4-0.1-0.9-0.3-1.3-0.4c-1-0.3-2-0.6-2.9-0.8c-0.4-0.1-0.8-0.2-1.2-0.3
		c-1.3-0.4-2.6-0.7-3.9-1c0,0,6.5,2.4,17.7,5.5c-1.4-0.6-2.8-1.1-4.2-1.6C1398.1,1068.3,1397.8,1068.2,1397.4,1068z"/>
	<path class="st12" d="M1512.8,1085.7c0.1,1.7,0.2,3.4,0.3,5c0,0.2,0,0.5,0,0.7c0.1,1.5,0.1,2.9,0.2,4.3c0,0.6,0.1,1.2,0.1,1.8
		c0,1.1,0.1,2.1,0.1,3.2c0.1,1.7,0.1,3.3,0.2,4.9c1.9,51.2,0.3,184.1,0,204.7l25.8-8c5.2-14.6,18.6-36.6,44.4-49.9
		c23.7-12.3,257.3-97.8,432.8-166v-0.2c-3-3.6-12.6-18.6-14.4-64.8c-0.7-18.7,0.9-55.8,3.2-96.1c-179.9,70-346.5,131.9-394.2,146.7
		C1577.8,1082.6,1543.8,1086,1512.8,1085.7z"/>
	<path class="st16" d="M1513.3,1095.8c-0.1-1.4-0.1-2.9-0.2-4.3C1513.2,1092.9,1513.2,1094.4,1513.3,1095.8z"/>
	<path class="st16" d="M1512.8,1085.7c0.1,1.7,0.2,3.4,0.3,5C1513,1089.1,1512.9,1087.4,1512.8,1085.7L1512.8,1085.7z"/>
	<path class="st16" d="M1513.5,1100.7c0-1-0.1-2.1-0.1-3.2C1513.4,1098.6,1513.5,1099.7,1513.5,1100.7z"/>
	<path class="st43" d="M1501.8,938.2c0,0.1,0.1,1,0.2,2.5l0,0c0.2,2,0.5,5.2,0.8,9.4v0.1c2.2,26.2,7.5,89.9,9.9,135.5
		c31,0.3,65-3.1,98.6-13.6c47.6-14.8,214.2-76.7,394.2-146.7c4.1-70.6,10.7-150.9,11.3-158.3c-7.2,2.5-14.4,4.9-21.6,7.4
		c-36.2,12.4-73,24.9-109.6,37.4c-147.4,50-291.8,98.2-384,125.9L1501.8,938.2z"/>
	<path class="st16" d="M1502.8,950.1c-0.4-4.2-0.6-7.4-0.8-9.4C1502.2,942.7,1502.5,945.9,1502.8,950.1z"/>
	<path class="st16" d="M1502.8,950.2c2.2,26.3,7.5,89.9,9.9,135.5l0,0C1510.3,1040.1,1505.1,976.5,1502.8,950.2z"/>
	<path class="st16" d="M1502,940.7c-0.1-1.5-0.2-2.4-0.2-2.5C1501.8,938.3,1501.9,939.2,1502,940.7z"/>
	<path class="st12" d="M1509.6,1311.6c0.2-16.2,1.9-153.6,0-205.8c-0.1-1.6-0.1-3.2-0.2-4.9c0-1.1-0.1-2.3-0.2-3.5
		c0-0.5,0-1-0.1-1.5c-0.1-1.5-0.1-3-0.2-4.6c0-0.2,0-0.3,0-0.5c-0.1-1.7-0.2-3.4-0.3-5.2l0,0c-45.7-0.9-84.6-9.7-106-15.7
		c0.5,0.2,0.9,0.4,1.4,0.6c0.7,0.3,1.4,0.6,2.1,0.9c0.5,0.2,1,0.5,1.6,0.7c0.6,0.3,1.3,0.6,1.9,0.9c0.5,0.3,1.1,0.5,1.6,0.8
		c0.6,0.3,1.3,0.6,1.9,1c0.5,0.3,1.1,0.5,1.6,0.8c0.7,0.4,1.3,0.7,2,1.1c0.5,0.3,1,0.5,1.5,0.8c0.8,0.5,1.7,1,2.5,1.5
		c0.4,0.2,0.7,0.4,1.1,0.6c1.1,0.7,2.2,1.4,3.3,2.2c0.4,0.3,0.9,0.6,1.3,0.9c0.7,0.5,1.4,1,2.2,1.5c0.5,0.4,1,0.7,1.4,1.1
		c0.7,0.5,1.4,1,2,1.6c0.5,0.4,1,0.8,1.5,1.2c0.7,0.6,1.4,1.1,2,1.7c0.5,0.4,0.9,0.8,1.4,1.2c0.8,0.7,1.5,1.4,2.3,2.1
		c0.4,0.3,0.7,0.7,1.1,1c1.1,1.1,2.2,2.1,3.3,3.3c0.3,0.3,0.6,0.6,0.8,0.9c0.8,0.9,1.6,1.7,2.5,2.7c0.4,0.5,0.8,0.9,1.2,1.4
		c0.7,0.8,1.4,1.6,2.1,2.4c0.4,0.5,0.9,1,1.3,1.6c0.7,0.8,1.3,1.7,2,2.5c0.4,0.5,0.8,1.1,1.2,1.6c0.7,0.9,1.4,1.9,2.1,2.8
		c0.4,0.5,0.7,1,1.1,1.5c0.9,1.3,1.8,2.7,2.8,4.1c0.1,0.1,0.2,0.3,0.3,0.4c1,1.6,2,3.2,2.9,4.8c0.3,0.5,0.6,1.1,0.9,1.6
		c0.7,1.2,1.3,2.3,2,3.5c0.4,0.7,0.7,1.3,1.1,2c0.6,1.1,1.2,2.3,1.8,3.4c0.4,0.7,0.7,1.4,1.1,2.2c0.6,1.2,1.2,2.4,1.7,3.7
		c0.3,0.7,0.6,1.4,1,2.1c0.6,1.5,1.3,3,1.9,4.5c0.2,0.5,0.4,1.1,0.7,1.6c0.8,2.1,1.7,4.2,2.4,6.3c0.2,0.5,0.4,1,0.6,1.6
		c0.6,1.7,1.2,3.4,1.8,5.1c0.3,0.8,0.5,1.6,0.8,2.5c0.5,1.5,1,3,1.4,4.6c0.3,0.9,0.5,1.8,0.8,2.7c0.4,1.5,0.9,3.1,1.3,4.7
		c0.3,0.9,0.5,1.9,0.8,2.8c0.4,1.7,0.9,3.5,1.3,5.3c0.2,0.8,0.4,1.7,0.6,2.5c0.6,2.6,1.2,5.3,1.8,8.1c8.7,42.3,11.5,83.9,10,124.9
		l10.4-4l-0.2-2.6C1509.6,1313.2,1509.6,1312.6,1509.6,1311.6z"/>
	<path class="st16" d="M1404.1,1070.5c-0.5-0.2-0.9-0.4-1.4-0.6l0,0C1403.2,1070.2,1403.6,1070.4,1404.1,1070.5z"/>
	<path class="st16" d="M1480.5,1161.8c0.3,0.8,0.5,1.6,0.8,2.5C1481,1163.5,1480.8,1162.6,1480.5,1161.8z"/>
	<path class="st16" d="M1482.7,1168.9c0.3,0.9,0.5,1.8,0.8,2.7C1483.3,1170.7,1483,1169.8,1482.7,1168.9z"/>
	<path class="st16" d="M1484.9,1176.3c0.3,0.9,0.5,1.9,0.8,2.8C1485.4,1178.2,1485.1,1177.3,1484.9,1176.3z"/>
	<path class="st16" d="M1478.2,1155.2c0.2,0.5,0.4,1,0.6,1.6C1478.5,1156.2,1478.4,1155.7,1478.2,1155.2z"/>
	<path class="st16" d="M1486.9,1184.4c0.2,0.8,0.4,1.7,0.6,2.5C1487.3,1186.1,1487.1,1185.2,1486.9,1184.4z"/>
	<path class="st16" d="M1475.1,1147.2c0.2,0.5,0.4,1.1,0.7,1.6C1475.5,1148.3,1475.3,1147.8,1475.1,1147.2z"/>
	<path class="st16" d="M1428.5,1084.2c0.5,0.4,1,0.7,1.4,1.1C1429.4,1084.9,1428.9,1084.6,1428.5,1084.2z"/>
	<path class="st16" d="M1439.1,1093.1c0.4,0.3,0.7,0.7,1.1,1C1439.8,1093.7,1439.5,1093.4,1439.1,1093.1z"/>
	<path class="st16" d="M1425,1081.7c0.4,0.3,0.9,0.6,1.3,0.9C1425.9,1082.4,1425.4,1082,1425,1081.7z"/>
	<path class="st16" d="M1460.5,1118.9c0.1,0.1,0.2,0.3,0.3,0.4C1460.7,1119.2,1460.6,1119.1,1460.5,1118.9z"/>
	<path class="st16" d="M1420.6,1079c0.4,0.2,0.7,0.4,1.1,0.6C1421.3,1079.4,1421,1079.2,1420.6,1079z"/>
	<path class="st16" d="M1469.4,1134.8c0.4,0.7,0.7,1.4,1.1,2.2C1470.1,1136.2,1469.8,1135.5,1469.4,1134.8z"/>
	<path class="st16" d="M1466.6,1129.3c0.4,0.7,0.7,1.3,1.1,2C1467.3,1130.7,1466.9,1130,1466.6,1129.3z"/>
	<path class="st16" d="M1435.4,1089.8c0.5,0.4,0.9,0.8,1.4,1.2C1436.4,1090.6,1435.9,1090.2,1435.4,1089.8z"/>
	<path class="st16" d="M1431.9,1086.9c0.5,0.4,1,0.8,1.5,1.2C1432.9,1087.6,1432.4,1087.3,1431.9,1086.9z"/>
	<path class="st16" d="M1450.1,1104.7c0.4,0.5,0.9,1,1.3,1.6C1450.9,1105.7,1450.5,1105.2,1450.1,1104.7z"/>
	<path class="st16" d="M1446.8,1100.9c0.4,0.5,0.8,0.9,1.2,1.4C1447.6,1101.8,1447.2,1101.4,1446.8,1100.9z"/>
	<path class="st16" d="M1406.1,1071.4c0.5,0.2,1,0.5,1.6,0.7C1407.2,1071.9,1406.6,1071.6,1406.1,1071.4z"/>
	<path class="st16" d="M1409.6,1073c0.5,0.3,1.1,0.5,1.6,0.8C1410.6,1073.5,1410.1,1073.2,1409.6,1073z"/>
	<path class="st16" d="M1453.3,1108.8c0.4,0.5,0.8,1.1,1.2,1.6C1454.2,1109.9,1453.7,1109.3,1453.3,1108.8z"/>
	<path class="st16" d="M1463.7,1124.2c0.3,0.5,0.6,1.1,0.9,1.6C1464.3,1125.3,1464,1124.7,1463.7,1124.2z"/>
	<path class="st16" d="M1472.2,1140.6c0.3,0.7,0.6,1.4,1,2.1C1472.8,1142,1472.5,1141.3,1472.2,1140.6z"/>
	<path class="st16" d="M1456.6,1113.2c0.4,0.5,0.7,1,1.1,1.5C1457.3,1114.2,1457,1113.8,1456.6,1113.2z"/>
	<path class="st16" d="M1416.7,1076.6c0.5,0.3,1,0.5,1.5,0.8C1417.7,1077.2,1417.2,1076.9,1416.7,1076.6z"/>
	<path class="st16" d="M1413.1,1074.7c0.5,0.3,1.1,0.5,1.6,0.8C1414.1,1075.2,1413.6,1075,1413.1,1074.7z"/>
	<path class="st16" d="M1443.5,1097.3c0.3,0.3,0.6,0.6,0.8,0.9C1444.1,1098,1443.8,1097.6,1443.5,1097.3z"/>
	<path class="st16" d="M1509.4,1100.9c0.1,1.7,0.1,3.3,0.2,4.9C1509.6,1104.2,1509.5,1102.6,1509.4,1100.9z"/>
	<path class="st16" d="M1509.2,1096c0,0.5,0,1,0.1,1.5C1509.3,1097,1509.2,1096.5,1509.2,1096z"/>
	<path class="st16" d="M1508.7,1085.7L1508.7,1085.7L1508.7,1085.7L1508.7,1085.7z"/>
	<path class="st16" d="M1509,1090.9c0,0.2,0,0.3,0,0.5C1509,1091.2,1509,1091.1,1509,1090.9z"/>
	<path class="st43" d="M1131.5,1081.8l55.4,39.5c94.8-74.7,144.9-69.3,198.1-56.9c1.3,0.3,2.6,0.6,3.9,1c0.4,0.1,0.8,0.2,1.2,0.3
		c1,0.3,2,0.5,2.9,0.8c0.4,0.1,0.9,0.3,1.3,0.4c1,0.3,2,0.7,3.1,1c0.4,0.1,0.7,0.2,1.1,0.4c1.4,0.5,2.8,1,4.2,1.6
		c21.4,6,60.2,14.8,106,15.7l0,0c-0.1-1.7-0.2-3.4-0.3-5.1c0-0.1,0-0.2,0-0.3c-0.1-1.8-0.2-3.5-0.3-5.3l0,0c-2-33-5-72.6-7.3-100.6
		l0,0c-0.6-7.7-1.2-14.5-1.7-20c0-0.1,0-0.2,0-0.3c-0.2-2.2-0.3-4.1-0.5-5.9c0-0.1,0-0.2,0-0.3c-0.1-0.7-0.1-1.4-0.2-2
		c0-0.3,0-0.5-0.1-0.8c-0.1-0.6-0.1-1.2-0.1-1.7c0-0.1,0-0.1,0-0.2c-0.2-1.9-0.3-3.3-0.4-4l-0.1-0.1c-3.6,1.1-7.1,2.1-10.5,3.1
		C1261.2,1008.9,1131.5,1081.8,1131.5,1081.8z"/>
	<path class="st16" d="M1394.3,1067c1,0.3,2,0.7,3.1,1C1396.4,1067.7,1395.4,1067.4,1394.3,1067z"/>
	<path class="st16" d="M1385,1064.5c1.3,0.3,2.6,0.6,3.9,1C1387.6,1065.1,1386.3,1064.8,1385,1064.5z"/>
	<path class="st16" d="M1402.7,1070L1402.7,1070c-1.4-0.6-2.8-1.1-4.2-1.6C1399.9,1068.9,1401.3,1069.4,1402.7,1070z"/>
	<path class="st16" d="M1390.1,1065.8c1,0.3,2,0.5,2.9,0.8C1392.1,1066.3,1391.1,1066.1,1390.1,1065.8z"/>
	<path class="st16" d="M1508.1,1074.9L1508.1,1074.9L1508.1,1074.9z"/>
	<path class="st16" d="M1500.7,974.3L1500.7,974.3L1500.7,974.3z"/>
	<path class="st16" d="M1508.4,1080.2c0,0.1,0,0.2,0,0.3C1508.4,1080.4,1508.4,1080.3,1508.4,1080.2z"/>
	<path class="st16" d="M1508.7,1085.7L1508.7,1085.7L1508.7,1085.7L1508.7,1085.7z"/>
	<path class="st16" d="M1498.3,945c0,0.3,0,0.5,0.1,0.8C1498.3,945.5,1498.3,945.3,1498.3,945z"/>
	<path class="st16" d="M1498.1,943.2c0,0.1,0,0.1,0,0.2C1498.1,943.3,1498.1,943.2,1498.1,943.2z"/>
	<path class="st16" d="M1498.5,947.8c0,0.1,0,0.2,0,0.3C1498.5,948,1498.5,947.9,1498.5,947.8z"/>
	<path class="st16" d="M1499,954c0,0.1,0,0.2,0,0.3C1499.1,954.2,1499.1,954.1,1499,954z"/>
	<path class="st52" d="M947.3,1093.9c-10.4,0-20.5,0.6-29.9,1.7c-38.9,4.6-67,18-67,33.8s28.1,29.2,67,33.8
		c9.4,1.1,19.5,1.7,29.9,1.7c53.5,0,96.9-15.9,96.9-35.5S1000.8,1093.9,947.3,1093.9z"/>
	<path class="st52" d="M495.7,941.1c-1.4-9.2-4.8-19.3-11.1-30.1c-11.1-19-20.6-26.1-34.9-22.2c-1.3,2.2-2.7,4.5-4,6.9
		c-2.6,4.4-5.2,9.1-7.8,13.8c-4.2,7.7-8.4,15.7-12.2,23.4c0,1.7,0.1,3.4,0.3,5.1c3.1,40.6,36.6,52.1,52.7,46.1
		c5.1-1.9,9.7-6.2,12.9-12.5C495.7,964,497.5,953.4,495.7,941.1z"/>
	<path class="st53" d="M407.8,1151.5l45.5-12.6c-16.9-10.1-30.6-20.4-38.6-26.8C412.1,1124.9,409.8,1138.5,407.8,1151.5z"/>
	<path class="st54" d="M902.7,1292.9c-27.1-6.5-57.9-13.8-92.9-22.3c-195.7-47.3-304.7-100.6-356.6-131.7l-45.5,12.6
		c0,0,3.2,48.1,265.4,138.5c87,30,176.5,52,245.8,66.7C915.7,1334.9,910.7,1312.8,902.7,1292.9z"/>
	<path class="st53" d="M407.5,1208c-0.1,14.7-0.2,27.2-0.3,34.7l31.1-7.7C422.8,1223.8,413.3,1214.8,407.5,1208z"/>
	<path class="st54" d="M581.1,1307.7c-72.6-29.5-116.4-54.1-142.7-72.8l-31.2,7.7l15.5,17.8c14,11.3,15.1,18.2,114.6,66.2
		c99.6,48.1,238.4,105.8,327.7,115.4c19.1,2.1,40.7,5.7,57.5,6.3c0.8-5,1.5-17.9,2.2-26.4c0.2-2.6,0.3-5.3,0.3-8
		C842,1398.3,721.7,1364.8,581.1,1307.7z"/>
	<path class="st40" d="M899.1,1352.3c-66.1-14.6-147-35.2-225.9-62.4c-262.2-90.4-265.4-138.5-265.4-138.5
		c-0.1,19.4-0.2,39.5-0.3,56.5c15.7,18.4,58.2,52.9,173.6,99.8c128.6,52.2,240,84.6,321.6,101.7c0-4.6,0.1-9.3,0.1-14.1
		C902.7,1380.3,901.3,1365.9,899.1,1352.3z"/>
	<path class="st53" d="M919.9,1362.4c-0.3-1.9-0.6-3.8-0.9-5.8c-6.5-1.4-13.1-2.8-19.9-4.3c2.3,13.6,3.6,28,3.7,43
		c0,4.8,0,9.5-0.1,14.1c7.6,1.6,15.1,3.1,22.2,4.5C925,1399.2,922.7,1382.6,919.9,1362.4z"/>
	<path class="st40" d="M830.5,1236.1c-11.1-5.4-133.5-41.4-232.9-80.1c-99.4-38.6-142.9-71.1-159.7-78.5c-6.3-2.8-11.1-2-14.7,0
		c-3.1,9.5-6,21.5-8.6,34.5c8,6.4,21.7,16.7,38.6,26.8c51.8,31.1,160.8,84.4,356.6,131.7c25.7,6.2,49.1,11.8,70.4,16.9
		c-0.7-1.6-1.4-3.3-2.1-4.8C865.8,1254.7,841.6,1241.5,830.5,1236.1z"/>
	<path class="st53" d="M859.4,1234.6c-38.5-26.1-118.2-45.3-217.1-78.3s-183.5-89.2-204.2-98.8c-5.3-2.5-10.4,6-14.9,20.1
		c3.6-2,8.4-2.8,14.7,0c16.8,7.4,60.3,39.9,159.7,78.5s221.8,74.7,232.9,80.1s35.2,18.6,47.7,46.6c0.7,1.6,1.4,3.2,2.1,4.8
		c7.7,1.9,15.2,3.6,22.5,5.4C893.2,1269.1,879.5,1248.3,859.4,1234.6z"/>
	<path class="st41" d="M1341.5,403.6c-70.2-18.5-123.1-42-159.1-61.9c-7.3,3.1-15.3,6.7-24.1,10.7c-71.8,32.9-241.8,178.3-304,259.1
		c-47.3,61.4-32.5,95.8-15.2,125.8c63.7,27,221.9,63.2,269.5,65.1c49.4,1.9,104.1,3.2,168.6-15c5-1.4,9.6-2.7,13.8-3.9
		c29.6-12.4,50.3-27.9,74.3-52.7c31-32,145.2-167.7,257.7-259.4C1578.8,462,1478.7,439.8,1341.5,403.6z"/>
	<path class="st42" d="M854.2,611.5c62.2-80.8,232.2-226.2,304-259.1c8.8-4,16.8-7.6,24.1-10.7c-16.7-9.2-29.8-17.6-39.3-24.4
		C960.7,423.7,787,598,763,622.5c-4.8,13.8-8.4,32.6-2.1,49.4c11.8,31.2,37.8,46.7,71.1,62.3c2.2,1,4.5,2,7,3.1
		C821.7,707.3,807,672.9,854.2,611.5z"/>
	<path class="st42" d="M2182.9,367.1c-45.1-1.1-90.1-0.8-122.3,2.5c-30.5,3.1-63.4,6.9-98,13.8c2.9,9.8,7.2,25.6,11.9,47.8
		c91.6-15.3,193.9-22.2,257.3-25.1C2213.3,388,2195.7,373.2,2182.9,367.1z"/>
	<path class="st41" d="M2322.4,515.2c-2.1-9.7-48.5-67.9-90.7-109.2c-63.4,3-165.7,9.8-257.3,25.1c4.6,21.9,9.7,50.1,14.3,85
		c11.8,90.3,13.8,113.5,14.1,117.1c153.8-52.7,303.8-102.5,318.5-115.5c0.4-0.3,1.3-1,1.2-1.8
		C2322.6,515.7,2322.5,515.4,2322.4,515.2z"/>
	<path class="st42" d="M1382,835.6L1382,835.6c-11.3,21.6-11.3,40.4,10.1,33.7c0.6-0.2,1.3-0.4,2.1-0.7c0.2-2,0.7-4.2,1.6-6.4
		c2.1-5.2,32-39,77.1-85.2l0.5-48C1425.4,780.2,1387.6,824.8,1382,835.6z"/>
	<path class="st41" d="M1394.3,868.7c10-3.4,38.8-14.7,78.1-30v-0.6l0.6-60.9c-45,46.2-75,79.9-77.1,85.2
		C1395,864.5,1394.5,866.6,1394.3,868.7z"/>
	<path class="st41" d="M1504.9,744.8v80.3c105.2-41.8,272.9-106.5,396-150.5c24.5-8.8,37.2-13.5,62.2-22.3l8-4.6
		c0-0.2,2.9-19.5-10.4-123.6c-4.9-38.1-10.4-66.5-15.4-87.8c-19.2,3.7-37.6,7.9-54.8,12.5C1792.4,475.2,1618.3,632,1504.9,744.8z"/>
	<path class="st42" d="M1702.1,503.2c-58.5,47.7-136.8,133.1-197.2,198.3v43.4c113.3-112.9,287.5-269.6,385.6-296
		c17.2-4.6,35.6-8.8,54.8-12.5c-4.7-20.2-9-34.1-11.9-43.9C1861.7,407.5,1781.4,438.5,1702.1,503.2z"/>
	<path class="st33" d="M1502.8,950.2L1502.8,950.2c-0.4-4.3-0.6-7.5-0.8-9.5l0,0c-0.1-1.5-0.2-2.4-0.2-2.5v-0.4
		c-1.4,0.4-2.8,0.8-4.1,1.2l0.1,0.1c0.1,0.7,0.2,2.1,0.4,4c0,0.1,0,0.1,0,0.2c0,0.5,0.1,1.1,0.1,1.7c0,0.3,0,0.5,0.1,0.8
		c0.1,0.6,0.1,1.3,0.2,2c0,0.1,0,0.2,0,0.3c0.2,1.8,0.3,3.7,0.5,5.9c0,0.1,0,0.2,0,0.3c0.5,5.6,1,12.4,1.7,20l0,0
		c2.3,28,5.4,67.6,7.3,100.6l0,0c0.1,1.8,0.2,3.6,0.3,5.3c0,0.1,0,0.2,0,0.3c0.1,1.7,0.2,3.5,0.3,5.1l4.1,0.1
		C1510.3,1040.2,1505.1,976.5,1502.8,950.2z"/>
	<path class="st30" d="M1513.8,1310.4c0.3-20.7,1.9-153.5,0-204.7c-0.1-1.6-0.1-3.2-0.2-4.9c0-1-0.1-2.1-0.1-3.2
		c0-0.6-0.1-1.2-0.1-1.8c-0.1-1.4-0.1-2.9-0.2-4.3c0-0.2,0-0.5,0-0.7c-0.1-1.7-0.2-3.3-0.3-5l-4.1-0.1l0,0l0,0
		c0.1,1.8,0.2,3.5,0.3,5.2c0,0.2,0,0.3,0,0.5c0.1,1.6,0.2,3.1,0.2,4.6c0,0.5,0,1,0.1,1.5c0.1,1.2,0.1,2.3,0.2,3.5
		c0.1,1.7,0.1,3.3,0.2,4.9c1.9,52.2,0.2,189.6,0,205.8c0,0.9,0,1.5,0,1.6l0.2,2.6l4-1.2l24.2-7.5l1.5-4.7L1513.8,1310.4z"/>
	<path class="st2" d="M2005.6,925.4L2005.6,925.4L2005.6,925.4z"/>
	<path class="st30" d="M2021.1,1084.8l-0.8-0.7c-0.1-0.1-11.9-11.6-13.9-62.8c-0.7-18.9,0.9-56.7,3.3-97.5l-4.2,1.6l0,0
		c-2.4,40.3-4,77.4-3.2,96.1c1.8,46.2,11.4,61.3,14.4,64.8v0.2C2018.2,1085.9,2019.6,1085.3,2021.1,1084.8z"/>
	<path class="st33" d="M2021,766.7v-1c-1.4,0.5-2.8,0.9-4.1,1.4c-0.6,7.4-7.1,87.7-11.3,158.3l4.2-1.6
		C2014.1,850.7,2020.9,768.1,2021,766.7z"/>
	<polyline class="st55" points="2202.1,1161.2 2209.7,1164.1 2209.6,1159.2 2201.7,1161.3 	"/>
</g>
<g id="Layer_3">
	<path class="st56" d="M1539.6,885.2l-35,19.7c0,0,10.1,76.6,22.6,100.4c12.4,23.8,95.2,21.7,123.2,7.2
		c27.9-14.5,51.8-39.9,41.4-56.2c-10.4-16.3-73.5-28.7-73.5-28.7l-31.8-54.2L1539.6,885.2z"/>
	<path class="st13" d="M1538.8,809.2c0,0-32.3,22.2-33.3,58.4c-1,36.2-6.1,50.7,30.6,37.3s48.2-21.7,59.5-48.7s20.7-49.5,13.5-47
		C1601.7,811.7,1538.8,809.2,1538.8,809.2z"/>
	<path class="st12" d="M1710.4,790c3.7-1.1,6.9-2,9.9-2.9c6.6-12.8,4.4-24.6,0.5-32.3c-6.2-12.4-17.6-19.7-17.6-19.7
		s-63.1-29-95.2-24.8c-32.1,4.1-66.5,46.6-71,70.4c-0.8,4.4-1,9-0.8,13.5C1538.8,794.2,1675.6,800.2,1710.4,790z"/>
	<path class="st11" d="M1710.4,790c-34.9,10.3-171.6,4.3-174.3,4.1c1.2,19.5,11.3,37.3,13.8,37.3c3.1,0,114.9,0,147-20.7
		c12.1-7.8,19.3-15.9,23.3-23.6C1717.3,788,1714.1,788.9,1710.4,790z"/>
</g>
<g id="Layer_10">
	<polygon class="st24" points="470.7,1131.8 467.9,1234.9 710.7,1336.6 725.5,1225.3 	"/>
	<path class="st9" d="M470.7,1131.8c0,0,22.4-12.2,27.2-10.5s4.8,14.4,34.3,25.1s158.4,57.4,158.4,57.4s29.3,10,44.2,10
		c14.8,0,14.8,0,14.8,0l-14.8,104.8l-24,17.9l14.8-111.2L470.7,1131.8z"/>
</g>
<g id="Layer_12">
	<path class="st57" d="M796.9,669.7c3.1,0,323.7,26.4,323.7,26.4L1323,724v4.9l-542.5-54.6l3.9-4.7L796.9,669.7L796.9,669.7z"/>
	<polygon class="st58" points="817.8,703.1 1106.7,698.4 1119.1,703.1 840.3,717.8 814.3,712.9 	"/>
	<polygon class="st17" points="1079.5,707.3 1119.1,710 1127.4,708.1 1075,704 	"/>
	<polygon class="st59" points="1077.8,691.2 1075,704 1127.4,708.1 1129.4,694.5 	"/>
	<polygon class="st60" points="773.4,696.8 766,718.8 854.2,717 840.3,698.4 	"/>
	<polygon class="st57" points="775.4,728.9 827.4,727.3 854.2,717 766,718.8 	"/>
	<ellipse class="st60" cx="789.2" cy="723.3" rx="5.9" ry="1.8"/>
</g>
<path class="st61" d="M2738,1185.9c-27.9,0-58.1-5.8-89.8-17.3c-33.9-12.3-52.5-48-56.9-109.3c-3.6-49.1,1.9-107.9,7.2-164.6
	c6.2-66.4,12.6-135.1-0.7-157.6c-34.1-57.7-97.2-52.1-99.8-51.8l-3.3-31c3.5-0.4,85.4-8.3,130,67c18.5,31.2,12.2,98.5,4.9,176.4
	c-9.3,99.6-20.9,223.6,29.3,241.8c53.9,19.5,103.5,20.3,139.7,2.1c28.7-14.4,48.7-40,59.5-75.9c12.5-41.8-17.3-115.1-46.3-186.1
	C2779,799,2745,715.7,2757.2,651c10.3-54.5,48.6-93.9,110.8-113.8c45.1-14.4,86.9-13.5,88.6-13.5l-0.8,31.2c-0.4,0-38.9-0.8-79,12.2
	c-50.9,16.5-80.8,46.6-88.9,89.6c-10.5,55.6,21.7,134.6,52.8,211c26.9,65.9,72.6,122.3,47.2,206.8c-13.2,43.9-39.2,76.6-75.4,94.8
	C2790.5,1180.4,2765.4,1185.9,2738,1185.9z"/>
<path class="st62" d="M2528.8,709.7c16.3-2.5,10.6-30.5,4.4-35.4c-5.3-4.2-83.2-9.3-104.5-10.7c-0.4,0.6-0.7,1.2-1,1.9
	c-5,11.1-5.4,26-2.8,36.8C2446.5,704.7,2515.1,711.8,2528.8,709.7z"/>
<path class="st63" d="M2546.8,667.3c3.4-6.3,13.1-13.9,18.3-17.8c-2.9-1.9-5.9-3.4-9-4.3c-21.8-6.7-86.4-9.4-86.4-9.4
	s-31.7,11.7-40.9,27.9c21.3,1.3,99.2,6.5,104.5,10.7c6.2,4.8,11.9,32.9-4.4,35.4c-13.7,2.1-82.3-5-103.8-7.4
	c1.4,5.9,3.8,10.6,6.9,12.7c8.7,5.9,78,10.4,91.9,7.5s28.4-17.2,33.7-18.6c0.6-0.2,1.2-0.3,1.9-0.4
	C2553.4,693.2,2543.3,673.7,2546.8,667.3z"/>
<path class="st62" d="M2565.1,649.5c-5.2,3.8-14.8,11.5-18.3,17.8c-3.5,6.4,6.6,25.9,12.4,36.2c4.7-0.7,9.3,0.4,9.3,0.4
	s21.2-17.9,24.5-17.9s3.3,0,3.3,0S2582.7,660.9,2565.1,649.5z"/>
<path class="st62" d="M2467.1,649.5c0.4,0.6,58.1,6.1,63.6,4.2c5.5-1.8,7.7-2.6,6.4-4.2c-1.3-1.6-58.5-5.6-58.5-5.6L2467.1,649.5z"
	/>
<path class="st64" d="M3503.3,63.9C3495.9,59,3216,23.2,3216,23.2L2994.1,38l310.7,46.9L3503.3,63.9z"/>
<path class="st25" d="M3213.6,314.2l289.8-59.3c1.9-110.4,2.2-189.5,0-191l-198.5,21C3304.8,84.9,3209.9,292,3213.6,314.2z"/>
<path class="st25" d="M3218.3,938.2c0.2,62.2,0.2,103,0.2,103c34.5,7.8,246.6-90.4,258.9-94.3c2.4-0.8,5.2-35.5,8-90.8L3218.3,938.2
	L3218.3,938.2z"/>
<path class="st65" d="M2913,850c3.4,51.2,12.1,96.9,12.1,96.9s258.9,86.5,293.4,94.3c0,0-0.1-40.8-0.2-103
	C3218.3,938.2,3004.2,872.5,2913,850z"/>
<path class="st66" d="M2925.1,504.5l217,59.7v-76.5l-133.2-35L2925.1,504.5z M3091.7,487.7l-50.1,33.1l-74-19.7l51.2-31.9
	L3091.7,487.7z"/>
<polygon class="st67" points="3041.6,520.7 3091.7,487.7 3018.8,469.2 2967.6,501 "/>
<path class="st68" d="M3492.2,692.1c4.8-139.4,9-309.3,11.2-437.2l-289.8,59.3c2.1,12.7,3.4,249,4.2,448.7L3492.2,692.1z"/>
<path class="st68" d="M3218.3,938.2l267.2-82.1c1.5-28.9,3-63.3,4.4-101.5l-272,66.4C3218.1,864.4,3218.2,904.5,3218.3,938.2z"/>
<path class="st67" d="M3217.7,763c0.1,19.8,0.1,39.2,0.2,58.1l272-66.4c0.8-19.9,1.5-40.9,2.3-62.6L3217.7,763z"/>
<path class="st64" d="M2906.2,745.9c2.5,38.9,4.8,74.5,6.8,104.1c91.2,22.5,305.3,88.2,305.3,88.2c-0.1-33.8-0.2-73.9-0.3-117.2
	L2906.2,745.9z"/>
<path class="st67" d="M3217.7,763l-4.2,1.1l-311-74.7c1.2,19.4,2.4,38.3,3.5,56.5l311.8,75.2C3217.9,802.2,3217.8,782.8,3217.7,763z
	"/>
<path class="st65" d="M3304.8,84.9L2994.1,38c0,0-78.9,153.7-101.1,207.5l320.6,68.6C3209.9,292,3304.8,84.9,3304.8,84.9z"/>
<polygon class="st2" points="2925.1,504.5 3142.1,564.2 3142.1,487.8 3008.9,452.8 "/>
<polygon class="st66" points="3023.9,323.5 3142.1,350.5 3142.1,334 3023.3,306.6 "/>
<polygon class="st68" points="3002.1,301.6 2920,282.7 2925.1,504.5 3008.9,452.8 "/>
<polygon class="st66" points="3023.9,323.5 3023.3,306.6 3002.1,301.6 3008.9,452.8 3142.1,487.8 3142.1,459.1 3027.4,429.5 "/>
<polygon class="st69" points="3027.4,429.5 3142.1,459.1 3142.1,350.5 3023.9,323.5 "/>
<path class="st64" d="M3213.6,314.2L2893,245.6c-13,31.5-1.8,258.2,9.6,443.8l311,74.7l4.2-1.1
	C3217,563.2,3215.7,326.9,3213.6,314.2z M3142.1,350.5v108.6v28.6v76.5l-217-59.7l-5.1-221.8l82.1,18.9l21.3,4.9l118.7,27.4V350.5z"
	/>
<path class="st66" d="M3008.9,452.8"/>
<g>
	<path class="st70" d="M6060.8,2361.5c-243.3-618.2,291.8-1003.5,510.8-1034.7c132.5-18.2,268.4,1.7,398.3-28.6
		c174-41.6,311.7-168.8,445.9-286.6C7550,893.8,7700.7,776.1,7879,761.4c205.2-17.3,395.7,106.5,600,128.1
		c155,16.5,314.3-26,464.9,12.1c175.8,45,309.1,196.5,379.2,363.6c70.1,167.1,173.2,1143.8-267.5,1102.2L6060.8,2361.5z"/>
</g>
<path class="st71" d="M9055.7,2368.4c182.7-97.8,128.1-452.8,103-680.5c-25.1-227.7-162.8-477.1-390.5-497.9
	c-134.2-12.1-266.7,59.7-400.9,43.3c-135.1-16.5-245.9-118.6-380.1-143.7c-190.5-35.5-371.4,91.8-516.9,220.8
	s-300.4,274.5-494.4,284.9c-128.1,6.9-252.8-47.6-381-48.5c-185.3-1.7-361,115.2-455.4,275.3c-94.4,160.2-113.4,356.7-79.7,539.4
	L9055.7,2368.4z"/>
<ellipse class="st72" cx="7434.8" cy="2440.3" rx="869.3" ry="24.2"/>
<g>
	<g>
		<rect x="6579.1" y="2079.3" class="st73" width="1660.7" height="245.9"/>
		<path class="st30" d="M8310.2,1895.7c0,0-45,7.8-49.4,0c-4.3-7.8-380.1-156.7-692.7-156.7c-250.2,0-477.1,66.7-697,213
			c0,0-287.5,49.4-354.1,119.5c0,0-85.7,57.1-70.1,186.2c9.5,81.4,72.7,84,155,82.3c0,0-31.2-245,187.9-226.8
			c186.2,15.6,150.7,242.4,150.7,242.4h931.6c0,0,4.3-100.4,7.8-125.5c7.8-49.4,68.4-129,181.8-117.8
			c124.7,13,166.2,126.4,158.4,222.5c0,0,131.6,28.6,148.9-77.1l31.2-9.5c0,0,12.1-219.1-97.8-310.8l23.4-15.6L8310.2,1895.7z"/>
		<g>
			<g>
				<g>
					<defs>
						<path id="SVGID_1_" d="M8310.2,1895.7c0,0-45,7.8-49.4,0c-4.3-7.8-380.1-156.7-692.7-156.7c-250.2,0-477.1,66.7-697,213
							c0,0-287.5,49.4-354.1,119.5c0,0-85.7,57.1-70.1,186.2c9.5,81.4,72.7,84,155,82.3c0,0-31.2-245,187.9-226.8
							c186.2,15.6,150.7,242.4,150.7,242.4h931.6c0,0,4.3-100.4,7.8-125.5c7.8-49.4,68.4-129,181.8-117.8
							c124.7,13,166.2,126.4,158.4,222.5c0,0,131.6,28.6,148.9-77.1l31.2-9.5c0,0,12.1-219.1-97.8-310.8l23.4-15.6L8310.2,1895.7z"
							/>
					</defs>
					<clipPath id="SVGID_00000016763504751095354160000013186551678566227342_">
						<use xlink:href="#SVGID_1_"  style="overflow:visible;"/>
					</clipPath>
					<path style="clip-path:url(#SVGID_00000016763504751095354160000013186551678566227342_);fill:#18BFFB;" d="M8323.2,1915.6
						c0,0-56.3,12.1-93.5-5.2s-279.7-99.6-354.1-112.6c-74.5-13-218.2-56.3-414.7-32.9c-187,22.5-341.1,65.8-557.6,195.7
						c0,0-312.6,59.7-409.5,148.9c0,0-45,92.6-42.4,135.9l-1.7,28.6h-34.6l36.4-219.1l401.7-143.7l365.4-164.5l254.6-38.1
						l619.9,90.9l171.4,61.5l75.3,6.9L8323.2,1915.6z"/>
				</g>
			</g>
			<g>
				<g>
					<defs>
						<path id="SVGID_00000049222609226437338780000014930739038752965787_" d="M8310.2,1895.7c0,0-45,7.8-49.4,0
							c-4.3-7.8-380.1-156.7-692.7-156.7c-250.2,0-477.1,66.7-697,213c0,0-287.5,49.4-354.1,119.5c0,0-85.7,57.1-70.1,186.2
							c9.5,81.4,72.7,84,155,82.3c0,0-31.2-245,187.9-226.8c186.2,15.6,150.7,242.4,150.7,242.4h931.6c0,0,4.3-100.4,7.8-125.5
							c7.8-49.4,68.4-129,181.8-117.8c124.7,13,166.2,126.4,158.4,222.5c0,0,131.6,28.6,148.9-77.1l31.2-9.5
							c0,0,12.1-219.1-97.8-310.8l23.4-15.6L8310.2,1895.7z"/>
					</defs>
					<clipPath id="SVGID_00000018946496846942273750000012794543813522002828_">
						<use xlink:href="#SVGID_00000049222609226437338780000014930739038752965787_"  style="overflow:visible;"/>
					</clipPath>
					<path style="clip-path:url(#SVGID_00000018946496846942273750000012794543813522002828_);fill:#103952;" d="M8261.7,1895.7
						c0,0-5.2,17.3-32,14.7s-207.8-72.7-207.8-72.7s-15.6-20.8-13-30.3C8008,1808.2,8220.2,1854.1,8261.7,1895.7z"/>
				</g>
			</g>
			<g>
				<g>
					<defs>
						<path id="SVGID_00000143594310657533001610000015896065107516806068_" d="M8310.2,1895.7c0,0-45,7.8-49.4,0
							c-4.3-7.8-380.1-156.7-692.7-156.7c-250.2,0-477.1,66.7-697,213c0,0-287.5,49.4-354.1,119.5c0,0-85.7,57.1-70.1,186.2
							c9.5,81.4,72.7,84,155,82.3c0,0-31.2-245,187.9-226.8c186.2,15.6,150.7,242.4,150.7,242.4h931.6c0,0,4.3-100.4,7.8-125.5
							c7.8-49.4,68.4-129,181.8-117.8c124.7,13,166.2,126.4,158.4,222.5c0,0,131.6,28.6,148.9-77.1l31.2-9.5
							c0,0,12.1-219.1-97.8-310.8l23.4-15.6L8310.2,1895.7z"/>
					</defs>
					<clipPath id="SVGID_00000123438242575988610890000003807773159379699868_">
						<use xlink:href="#SVGID_00000143594310657533001610000015896065107516806068_"  style="overflow:visible;"/>
					</clipPath>
					<polygon style="clip-path:url(#SVGID_00000123438242575988610890000003807773159379699868_);fill:#103952;" points="
						7180.3,1790.1 7180.3,1822.1 6887.6,1968.4 6872.1,1952 6986.3,1863.7 					"/>
				</g>
			</g>
		</g>
		<path class="st77" d="M8079.9,1910.4c0,0,13,11.3,0,25.1s-76.2,60.6-104.8,63.2c-29.4,2.6-915.2,63.2-967.1,48.5
			c-52.8-14.7-83.1-41.6-70.1-56.3l23.4-7.8l417.3,7.8L8079.9,1910.4z"/>
		<g>
			<g id="XMLID_62_">
				<g>
					<path class="st78" d="M6773.4,2143.3c-81.4,0-148.1,66.7-148.1,148.1c0,81.4,66.7,148.1,148.1,148.1
						c82.3,0,148.1-66.7,148.1-148.1C6922.3,2210,6855.6,2143.3,6773.4,2143.3z M6674.7,2292.2c0-54.5,44.2-98.7,98.7-98.7
						s98.7,44.2,98.7,98.7s-44.2,98.7-98.7,98.7S6674.7,2346.8,6674.7,2292.2z"/>
					<path class="st79" d="M6773.4,2193.5c-54.5,0-98.7,44.2-98.7,98.7s44.2,98.7,98.7,98.7s98.7-44.2,98.7-98.7
						C6872.1,2237.7,6827.9,2193.5,6773.4,2193.5z M6694.6,2292.2c0-43.3,35.5-78.8,78.8-78.8c44.2,0,78.8,35.5,78.8,78.8
						s-35.5,78.8-78.8,78.8S6694.6,2335.5,6694.6,2292.2z"/>
					<path class="st80" d="M6773.4,2212.6c-43.3,0-78.8,35.5-78.8,78.8s35.5,78.8,78.8,78.8c44.2,0,78.8-35.5,78.8-78.8
						C6853,2248.1,6817.5,2212.6,6773.4,2212.6z"/>
				</g>
			</g>
		</g>
		<path class="st81" d="M8386.4,2094.8c0,0-52.8,15.6-74.5-25.1c-21.7-40.7-46.8-84-46.8-92.6c0-11.3,9.5-47.6,37.2-39.8
			C8302.4,1936.4,8382.1,2009.1,8386.4,2094.8z"/>
		<path class="st81" d="M6495.4,2143.3c0,0,199.1-80.5,167.1-107.4C6645.2,2021.2,6480.7,2100.9,6495.4,2143.3"/>
		<path class="st82" d="M6990.7,2355.4c0.9-6.9,19-306.5-234.6-281.4c-220.8,21.6-193.1,265.8-193.1,265.8"/>
		<path class="st83" d="M8070.4,1910.4c0,0-77.1,67.5-110.8,67.5s-917.8,55.4-957.6,39c-39.8-15.6-59.7-28.6-59.7-28.6
			s336.8-199.1,624.3-199.1C7814.1,1790.1,8070.4,1910.4,8070.4,1910.4z"/>
		<path class="st82" d="M7478.1,2017.8l-6.9,289.2h-348.1c-33.8,0-64.9-19.9-77.1-51.9v-0.9c-14.7-40.7-25.1-132.5,5.2-235.5"/>
		<path class="st84" d="M8369.1,2257.6l-153.3,18.2l2.6,61.5c0,0,76.2,10.4,109.1-13C8360.4,2300.9,8369.1,2275.8,8369.1,2257.6z"/>
		<path class="st85" d="M6750,2292.2c0,13,10.4,23.4,23.4,23.4s23.4-10.4,23.4-23.4s-10.4-23.4-23.4-23.4S6750,2279.3,6750,2292.2z"
			/>
		<g>
			<g id="XMLID_61_">
				<g>
					<path class="st78" d="M8036.6,2143.3c-81.4,0-148.1,66.7-148.1,148.1c0,81.4,66.7,148.1,148.1,148.1
						c82.3,0,148.1-66.7,148.1-148.1S8118,2143.3,8036.6,2143.3z M7937.9,2292.2c0-54.5,44.2-98.7,98.7-98.7s98.7,44.2,98.7,98.7
						s-44.2,98.7-98.7,98.7C7982,2390.9,7937.9,2346.8,7937.9,2292.2z"/>
					<path class="st79" d="M8036.6,2193.5c-54.5,0-98.7,44.2-98.7,98.7s44.2,98.7,98.7,98.7s98.7-44.2,98.7-98.7
						S8091.1,2193.5,8036.6,2193.5z M7956.9,2292.2c0-43.3,35.5-78.8,78.8-78.8c44.2,0,78.8,35.5,78.8,78.8s-35.5,78.8-78.8,78.8
						S7956.9,2335.5,7956.9,2292.2z"/>
					<path class="st80" d="M8036.6,2212.6c-43.3,0-78.8,35.5-78.8,78.8s35.5,78.8,78.8,78.8c44.2,0,78.8-35.5,78.8-78.8
						C8115.4,2248.1,8079.9,2212.6,8036.6,2212.6z"/>
				</g>
			</g>
		</g>
		<g>
			<g>
				<g>
					<defs>
						<path id="SVGID_00000123415018750593056520000010184733245304545925_" d="M8070.4,1910.4c0,0-77.1,67.5-110.8,67.5
							s-917.8,55.4-957.6,39c-39.8-15.6-59.7-28.6-59.7-28.6s336.8-199.1,624.3-199.1C7814.1,1790.1,8070.4,1910.4,8070.4,1910.4z"
							/>
					</defs>
					<clipPath id="SVGID_00000058589473933280107600000012165485443041395903_">
						<use xlink:href="#SVGID_00000123415018750593056520000010184733245304545925_"  style="overflow:visible;"/>
					</clipPath>
					<path style="clip-path:url(#SVGID_00000058589473933280107600000012165485443041395903_);fill:#0B2938;" d="M8056.5,1922.5
						c0,0-273.6-114.3-486.6-114.3c-197.4,0-632.9,182.7-632.9,182.7l10.4-21.6c0,0,402.6-220.8,626-194.8s512.6,120.3,512.6,120.3
						L8056.5,1922.5z"/>
				</g>
			</g>
		</g>
		<path class="st84" d="M7111.9,1910.4c0,9.5-49.4,110-49.4,110h-29.4l39.8-96.1L7111.9,1910.4z"/>
		<path class="st82" d="M7887.7,1971.9c0,0,59.7,37.2,25.1,110c-34.6,72.7-68.4,80.5-76.2,132.5c-7.8,51.9-5.2,92.6-5.2,92.6h-360.2
			l6.9-302.2"/>
		<path class="st77" d="M7753.5,2080.1h104.8v-10.4c0-8.7-6.9-15.6-15.6-15.6h-74.5c-8.7,0-15.6,6.9-15.6,15.6v10.4H7753.5z"/>
		<path class="st77" d="M7344.8,2080.1h104.8v-10.4c0-8.7-6.9-15.6-15.6-15.6h-74.5c-8.7,0-15.6,6.9-15.6,15.6v10.4H7344.8z"/>
		<polygon class="st84" points="7810.6,1822.1 7904.1,1980.5 7819.3,1985.7 7829.7,1910.4 7771.7,1813.4 		"/>
		<polygon class="st87" points="7524.9,1790.9 7639.2,1993.5 7613.2,1997 7493.7,1794.4 		"/>
		<path class="st87" d="M7264.3,1845.5L7363,2010l-81.4,3.5l-91.8-141.1C7189.8,1872.3,7247,1844.6,7264.3,1845.5z"/>
		<polygon class="st87" points="7632.3,1792.7 7753.5,1990.1 7676.4,1993.5 7552.6,1790.1 		"/>
		<polyline class="st84" points="7496.3,2003.1 7465.1,2004.8 7478.1,1795.3 7509.3,1792.7 		"/>
		<path class="st85" d="M8013.2,2292.2c0,13,10.4,23.4,23.4,23.4s23.4-10.4,23.4-23.4s-10.4-23.4-23.4-23.4
			C8023.6,2268.9,8013.2,2279.3,8013.2,2292.2z"/>
		<path class="st88" d="M8392.4,2144.2l6.9-0.9c6.1-0.9,9.5-6.1,8.7-12.1l-2.6-13.9c-0.9-6.1-6.1-9.5-12.1-8.7l-6.9,0.9
			L8392.4,2144.2z"/>
		<g>
			<path class="st84" d="M7080.7,2052.4l13-13.9l-20.8-26.8l-18.2,17.3c0,0-3.5,2.6-4.3,9.5C7047,2055,7068.6,2064.5,7080.7,2052.4z
				"/>
			<path class="st12" d="M7134.4,2047.2c32,0.9,58-32,44.2-61.5c-3.5-6.9-8.7-12.1-17.3-13.9c-33.8-6.1-77.1-7.8-89.2,39.8
				c-3.5,13.9,4.3,22.5,17.3,27.7C7102.4,2044.6,7118.8,2046.3,7134.4,2047.2z"/>
		</g>
	</g>
	<polygon class="st89" points="7266.9,2144.2 7237.4,2144.2 7264.3,2185.7 7243.5,2185.7 7271.2,2242.9 7262.5,2200.5 
		7289.4,2200.5 	"/>
</g>
<g>
	<circle class="st90" cx="8171.7" cy="2010" r="37.2"/>
</g>
<g>
	<g>
		<polygon class="st64" points="9004.6,1670.6 9085.1,1932.9 9085.1,2501.8 8727.5,2501.8 8727.5,1696.6 8808,1670.6 		"/>
	</g>
	<g>
		<polygon class="st68" points="8884.2,2500.9 8887.7,1932.1 9085.1,1932.1 9085.1,2500.9 		"/>
	</g>
	<g>
		<polygon class="st68" points="8849.6,2501.8 8858.3,2501.8 8858.3,1932.1 8780.3,1679.2 8771.7,1681.8 8849.6,1933.8 		"/>
	</g>
	<g>
		<rect x="8767.5" y="1873.8" class="st91" width="32" height="113.4"/>
	</g>
	<g>
		<polygon class="st68" points="9004.6,1670.6 8964.8,1746.8 8830.6,1746.8 8808,1670.6 		"/>
	</g>
	<g>
		<polygon class="st68" points="8964.8,1746.8 8996.8,1880.1 9085.1,1932.9 9004.6,1670.6 		"/>
	</g>
	<g>
		<polygon class="st83" points="8946.6,1761.5 8971.7,1862.8 8876.4,1862.8 8847,1761.5 		"/>
	</g>
	<g>
		<polygon class="st64" points="9085.1,1932.9 8887.7,1932.9 8869.5,1874 8995.1,1874 		"/>
	</g>
	<g>
		<polygon class="st89" points="8911.9,1774.5 8890.3,1774.5 8910.2,1806.5 8894.6,1806.5 8915.4,1848.9 8908.5,1816.9 
			8929.3,1816.9 		"/>
	</g>
	<g>
		<path class="st68" d="M8886,1934.7l-77.1-252c0-1.7,0-2.6,0.9-4.3c0.9-0.9,2.6-1.7,3.5-1.7h189.6c1.7,0,3.5,0.9,4.3,3.5l77.1,252
			c0,1.7,0,2.6-0.9,4.3c-0.9,0.9-2.6,1.7-3.5,1.7h-189.6C8887.7,1937.3,8886,1936.4,8886,1934.7z M8999.4,1685.3h-180.1l73.6,243.3
			H9073L8999.4,1685.3z"/>
	</g>
	<g>
		<rect x="8886" y="2158" class="st68" width="198.3" height="8.7"/>
	</g>
	<g>
		<rect x="8886" y="1942.4" class="st64" width="198.3" height="8.7"/>
	</g>
	<g>
		<rect x="8727.5" y="2158" class="st68" width="126.4" height="8.7"/>
	</g>
</g>
<g>
	<path class="st90" d="M8429.7,2524.3h77.9c110,0,200-93.5,200-208.7v-238.1c0-83.1,20.8-116.9,38.1-131.6
		c18.2-14.7,35.5-11.3,36.4-11.3l1.7-8.7c-0.9,0-22.5-4.3-43.3,13c-27.7,22.5-41.6,69.3-41.6,138.5v238.1c0,110-85.7,200-191.3,200
		h-77.9c-105.6,0-191.3-90-191.3-200v-245c0-2.6-0.9-64.1-39.8-64.1v8.7c30.3,0,31.2,55.4,31.2,55.4v245
		C8229.7,2430.8,8319.7,2524.3,8429.7,2524.3z"/>
</g>
<path class="st92" d="M8343.1,662.8h1082.3c0,0-264.1-16.5-280.5-41.6c-16.4-25.1-44.2-123.8-110.8-132.5
	c-66.7-8.7-87.4,86.6-87.4,86.6s53.7-123.8-22.5-165.4C8848,368.3,8777,620.3,8777,620.3s12.1-83.1-49.4-86.6
	c-62.3-4.3-107.4,83.1-107.4,83.1L8343.1,662.8z"/>
<path class="st16" d="M5670.3,1854.1H6756c0,0-264.9-16.5-281.4-41.6s-44.2-123.8-110.8-132.5c-66.7-8.7-87.4,86.6-87.4,86.6
	s54.5-123.8-22.5-165.4s-147.2,211.3-147.2,211.3s12.1-83.1-49.4-87.4c-62.3-4.3-107.4,83.1-107.4,83.1L5670.3,1854.1z"/>
<g>
	<path class="st30" d="M8008.9,766.7c0,0,122.1-17.3,131.6-26.8c9.5-8.7,26-24.2,26-24.2l17.3-0.9l-0.9-13
		C8182.1,702.6,8010.6,758.9,8008.9,766.7z"/>
	<path class="st30" d="M8213.2,720.8c0,0,132.5,120.3,135.1,114.3c2.6-6.1-65.8-90.9-76.2-94.4c-10.4-3.5-27.7-18.2-35.5-20.8
		c-6.9-2.6-25.1-13-25.1-13L8213.2,720.8z"/>
	<path class="st30" d="M8199.4,680.9c0,0,6.1-18.2,3.5-26.8c-2.6-8.7-7.8-33.8-1.7-44.2c6.1-10.4,35.5-108.2,39.8-106.5
		s8.7-2.6,4.3,13.9c-3.5,16.5-38.1,168-38.1,168L8199.4,680.9z"/>
	<path class="st30" d="M8196.8,676.6c13.9-1.7,26,6.9,28.6,20.8c2.6,13.9-6.9,26-20.8,28.6c-13.9,1.7-26-6.9-28.6-20.8
		S8182.9,679.2,8196.8,676.6z"/>
	<path class="st30" d="M8196.8,716.4c-6.1,10.4-8.7,560.2-8.7,560.2h43.3l-21.6-560.2L8196.8,716.4L8196.8,716.4z"/>
</g>
<g>
	<path class="st30" d="M8847,810.8c0,0-122.9,8.7-133.3,16.5c-10.4,8.7-27.7,22.5-27.7,22.5h-17.3v13
		C8668.6,861.9,8843.5,817.7,8847,810.8z"/>
	<path class="st30" d="M8639.2,841.1c0,0-123.8-129.9-126.4-124.7c-2.6,5.2,58.9,95.2,68.4,100.4c9.5,4.3,26.8,20.8,33.8,23.4
		c6.9,2.6,24.2,14.7,24.2,14.7V841.1z"/>
	<path class="st30" d="M8650.5,881.8c0,0-7.8,18.2-6.1,26.8c1.7,8.7,5.2,34.6-1.7,44.2c-6.1,9.5-43.3,105.6-47.6,103
		c-4.3-1.7-8.7,1.7-3.5-14.7c5.2-16.5,51.1-164.5,51.1-164.5L8650.5,881.8z"/>
	<path class="st30" d="M8653.1,886.1c-13.9,0.9-26-9.5-26.8-22.5c-0.9-13.9,9.5-26,22.5-26.8c13.9-0.9,26,9.5,26.8,22.5
		C8676.4,873.2,8666.9,885.3,8653.1,886.1z"/>
	<path class="st30" d="M8645.3,851.5c-6.1,10.4-8.7,560.2-8.7,560.2h43.3l-21.6-560.2H8645.3z"/>
</g>
<g>
	<path class="st30" d="M7288.5,1152.8c0,0,93.5-79.7,97-92.6c3.5-13,9.5-34.6,9.5-34.6l13.9-9.5l-6.9-10.4
		C7401.1,1006.5,7286.8,1145.9,7288.5,1152.8z"/>
	<path class="st30" d="M7437.4,1005.6c0,0,176.6,31.2,175.8,25.1c-0.9-6.1-103.9-41.6-115.2-39.8c-10.4,2.6-33.8-0.9-40.7,0.9
		c-7.8,1.7-27.7,2.6-27.7,2.6L7437.4,1005.6z"/>
	<path class="st30" d="M7404.5,978.8c0,0-4.3-19-11.3-25.1c-6.1-6.1-24.2-25.1-25.1-36.4s-27.7-110.8-23.4-111.7
		c5.2-0.9,6.1-6.1,11.3,9.5c5.2,15.6,57.1,162.8,57.1,162.8L7404.5,978.8z"/>
	<path class="st30" d="M7400.2,977.1c10.4-8.7,26-7.8,35.5,2.6c8.7,10.4,7.8,26-2.6,35.5c-10.4,8.7-26,7.8-35.5-2.6
		C7388.1,1001.3,7389.8,985.7,7400.2,977.1z"/>
	<path class="st30" d="M7411.5,1012.6c-6.1,10.4-8.7,560.2-8.7,560.2h43.3l-21.6-560.2H7411.5z"/>
</g>
<g>
	<path class="st30" d="M7749.1,188.3c0,0,15.6,168.8,27.7,182.7s31.2,37.2,31.2,37.2v23.4h17.3
		C7825.3,431.6,7758.7,192.6,7749.1,188.3z"/>
	<path class="st30" d="M7798.5,473.1c0,0-174.9,174.9-167.1,178.4c7.8,4.3,129.9-84,135.1-97.8s27.7-37.2,31.2-46.8
		c4.3-9.5,19.9-33.8,19.9-33.8L7798.5,473.1L7798.5,473.1z"/>
	<path class="st30" d="M7853.9,456.7c0,0,25.1,9.5,36.4,6.9s47.6-7.8,60.6,0.9c13,8.7,146.3,55.4,143.7,62.3
		c-2.6,6.1,2.6,11.3-19.9,5.2s-228.6-64.1-228.6-64.1L7853.9,456.7z"/>
	<ellipse class="st30" cx="7825.4" cy="457" rx="34.6" ry="34.6"/>
	<path class="st30" d="M7817.5,473.1c-8.7,13.9-12.1,772.3-12.1,772.3h58.9l-29.4-772.3H7817.5z"/>
</g>
<path class="st16" d="M8026.2,1534.6H9247c0,0-297.8-19-316.9-46.8c-19-27.7-50.2-139.4-124.7-148.9c-75.3-9.5-98.7,97.8-98.7,97.8
	s60.6-139.4-25.1-186.2c-86.6-46.8-165.4,237.2-165.4,237.2s13.9-93.5-55.4-97.8c-70.1-4.3-121.2,93.5-121.2,93.5L8026.2,1534.6z"/>
<g>
	<g>
		<path class="st93" d="M7647,1654.1h-219.9c-10.4,0-19-8.7-19-19v-75.3c0-10.4,8.7-19,19-19h221.7c10.4,0,19,8.7,19,19v6.1
			c0,5.2,3.5,8.7,8.7,8.7c10.4,0,19,8.7,19,19v12.1c0,10.4-8.7,19-19,19h-1.7c-5.2,0-8.7,3.5-8.7,8.7v1.7
			C7666,1645.5,7657.4,1654.1,7647,1654.1z M7427.1,1551.1c-5.2,0-8.7,3.5-8.7,8.7v75.3c0,5.2,3.5,8.7,8.7,8.7H7647
			c5.2,0,8.7-3.5,8.7-8.7v-1.7c0-10.4,8.7-19,19-19h1.7c5.2,0,8.7-3.5,8.7-8.7v-12.1c0-5.2-3.5-8.7-8.7-8.7c-10.4,0-19-8.7-19-19
			v-6.1c0-5.2-3.5-8.7-8.7-8.7H7427.1L7427.1,1551.1z"/>
	</g>
	<polygon class="st94" points="7632.3,1564.1 7593.3,1629.9 7641.8,1629.9 7641.8,1564.1 	"/>
</g>
<rect x="7107.2" y="-663.7" class="st12" width="364.3" height="364.3"/>
<rect x="7107.2" y="-218.8" class="st30" width="364.3" height="364.3"/>
<rect x="5473" y="-83.6" class="st64" width="674.8" height="674.8"/>
<rect x="6243.2" y="-88.2" class="st68" width="531.1" height="531.1"/>
</svg>
